<svg width="46" height="48" viewBox="0 0 46 48" fill="none" xmlns="http://www.w3.org/2000/svg">
<path d="M22.4979 47.3517C22.3911 47.3517 22.2977 47.3517 22.1909 47.3517C20.0956 47.3383 13.7161 47.2712 8.08402 42.75C-0.510896 35.8677 -0.110509 24.8666 0.0629904 22.7335C0.223144 20.654 2.02488 19.1246 4.09353 19.2722C6.16218 19.4332 7.69699 21.2577 7.53683 23.3372C7.4701 24.2361 7.01633 32.2588 12.7552 36.8604C16.372 39.7583 20.6561 39.7985 22.271 39.8119C26.9822 39.8388 30.8526 38.4703 33.7487 35.6932C38.5933 31.0379 38.4198 24.558 38.3264 23.3104C38.1796 21.2309 39.7411 19.4332 41.8097 19.2856C43.8517 19.1648 45.6668 20.7077 45.8136 22.7871C45.9871 25.3764 46.0138 34.3382 38.927 41.1401C35.9641 43.9843 30.7191 47.3517 22.4979 47.3517Z" fill="#700561"/>
<path d="M8.37486 13.8521C8.66848 11.9739 9.17563 10.1627 9.85628 8.39183C9.96305 8.12351 9.93636 8.19059 9.7762 8.57965C9.81624 8.47232 9.86963 8.37841 9.90966 8.27109C10.0031 8.06985 10.0965 7.86861 10.2033 7.66737C10.3768 7.31855 10.577 6.98316 10.7905 6.66117C10.8572 6.56726 10.9106 6.47335 10.9774 6.39286C11.1509 6.16479 11.1108 6.21845 10.8572 6.54043C10.9774 6.50018 11.1909 6.15137 11.2843 6.04404C11.3777 5.93672 11.7381 5.70865 11.7648 5.60132C11.4311 5.85622 11.3644 5.89647 11.5913 5.73548C11.658 5.69523 11.7114 5.65498 11.7781 5.61473C11.9249 5.52082 12.1118 5.46716 12.2452 5.35983C11.8315 5.52082 11.7648 5.56107 12.0317 5.46716C12.1251 5.44033 12.2186 5.4135 12.312 5.38666C12.7657 5.23909 11.5913 5.45374 12.312 5.4135C12.5922 5.44033 12.4988 5.4135 12.0184 5.37325C12.2186 5.44033 12.2052 5.41349 11.965 5.31958C11.7381 5.21226 11.7114 5.19884 11.8982 5.29275C12.1251 5.44033 12.0584 5.38666 11.7114 5.13176C11.8982 5.333 11.8715 5.27934 11.6046 4.94394C11.6714 5.02443 11.7247 5.11834 11.7648 5.21226C11.8182 5.30617 11.8582 5.40008 11.9116 5.49399C11.7514 5.09151 11.7247 5.02443 11.8315 5.29275C11.8982 5.49399 11.9783 5.68181 12.0451 5.88305C12.352 6.7685 12.6056 7.68079 12.8191 8.60648C12.9259 9.06262 13.0193 9.53218 13.0994 9.98832C13.1394 10.203 13.2462 10.525 13.2195 10.7396C13.1661 10.3371 13.1661 10.2835 13.1928 10.5786C13.2062 10.6994 13.2195 10.8335 13.2329 10.9543C13.3129 11.6921 13.4731 12.3227 14.0203 12.8593C14.4874 13.3289 15.2481 13.6777 15.9154 13.6509C17.2367 13.5972 18.7582 12.4568 18.598 10.9543C18.3845 9.02238 18.0508 7.11732 17.4769 5.26592C17.1833 4.32681 16.8764 3.34744 16.4092 2.48883C15.8087 1.40214 14.8344 0.597184 13.6599 0.221538C11.5779 -0.462673 9.34913 0.530104 7.81432 1.93877C6.39963 3.2267 5.53213 4.94394 4.81143 6.70142C4.09074 8.45891 3.54355 10.4445 3.23659 12.3898C3.11647 13.1276 3.11647 13.7984 3.50351 14.4692C3.82382 15.0327 4.46444 15.5559 5.10505 15.7035C6.38628 15.9986 8.16132 15.3144 8.40155 13.8253L8.37486 13.8521Z" fill="#700561"/>
<path d="M44.6781 12.4162C44.3978 10.6587 43.9574 8.92805 43.3168 7.26448C42.6495 5.49358 41.8354 3.84342 40.5675 2.43475C39.2996 1.02608 37.3244 -0.127692 35.3758 0.0735465C34.0012 0.207706 32.8267 0.757758 31.9726 1.85786C31.332 2.70307 30.9716 3.66901 30.638 4.6752C29.944 6.72784 29.5569 8.84755 29.3167 10.9941C29.25 11.6381 29.6637 12.4564 30.1041 12.8992C30.5712 13.3687 31.332 13.7175 31.9993 13.6907C32.6666 13.6639 33.4139 13.4358 33.8944 12.8992C34.4016 12.3357 34.6018 11.7454 34.6818 10.9941C34.6818 10.8734 34.7085 10.7392 34.7219 10.6185C34.7619 10.3233 34.7486 10.3636 34.6952 10.7794C34.6685 10.5648 34.7753 10.2428 34.8153 10.0282C34.8954 9.59884 34.9755 9.16954 35.0689 8.74023C35.2691 7.81453 35.536 6.91566 35.8296 6.0168C35.9097 5.78873 35.9898 5.56065 36.0698 5.33258C36.1766 5.06427 36.1499 5.13135 35.9898 5.53382C36.0298 5.43991 36.0832 5.346 36.1366 5.25209C36.1899 5.15818 36.2433 5.06427 36.2967 4.98377C36.0298 5.31917 35.9898 5.37283 36.19 5.17159C35.843 5.4265 35.7762 5.48016 36.0031 5.33258L36.1232 5.2655C35.6961 5.43991 35.6161 5.48016 35.883 5.39966C35.4025 5.45333 35.2958 5.46674 35.5894 5.43991C36.3101 5.48016 35.1356 5.27892 35.5894 5.41308C35.6828 5.43991 35.7762 5.46674 35.8696 5.49358C36.1366 5.58749 36.0565 5.54724 35.6561 5.38625C35.7896 5.49358 35.9764 5.54724 36.1232 5.64115C36.19 5.6814 36.2567 5.72165 36.3101 5.76189C36.537 5.92289 36.4702 5.86922 36.1366 5.62773C36.1633 5.74848 36.5236 5.97655 36.617 6.07046C36.7104 6.16437 36.924 6.5266 37.0441 6.56685C36.7905 6.23145 36.7505 6.17779 36.924 6.41927C36.9774 6.48635 37.0174 6.55343 37.0574 6.62051C37.2843 6.96933 37.4979 7.31814 37.6847 7.69379C37.7915 7.89502 37.8849 8.09626 37.9783 8.2975C38.0184 8.40483 38.0718 8.49874 38.1118 8.60607C37.965 8.24384 37.925 8.14993 38.005 8.35116C38.699 10.1489 39.2195 11.9869 39.5131 13.8919C39.6066 14.5225 40.2205 15.1933 40.741 15.5018C41.3149 15.8372 42.1557 15.9848 42.8096 15.7702C44.3178 15.2738 44.9183 13.9456 44.6781 12.4564V12.4162Z" fill="#700561"/>
</svg>
