<svg width="422" height="36" viewBox="0 0 422 36" fill="none" xmlns="http://www.w3.org/2000/svg">
<path d="M10.3314 35.1045C9.27833 35.1045 8.15412 35.0258 6.95875 34.8684C5.76338 34.7111 4.63917 34.4321 3.5861 34.0316C2.53304 33.6311 1.67209 33.0875 1.00326 32.4008C0.334418 31.7142 0 30.8273 0 29.7401C0 28.5385 0.334418 27.6516 1.00326 27.0794C1.67209 26.5072 2.77496 26.2211 4.31186 26.2211C5.27954 26.2211 6.36107 26.3284 7.55644 26.5429C8.7518 26.7575 9.8191 26.8648 10.7583 26.8648C12.0106 26.8648 12.9427 26.6717 13.5546 26.2855C14.1665 25.8992 14.4725 25.3771 14.4725 24.7191C14.4725 24.2613 14.3302 23.8679 14.0456 23.5389C13.761 23.2099 13.2415 22.888 12.4873 22.5733C11.7331 22.2586 10.6445 21.9153 9.22141 21.5434C7.22913 21.057 5.61396 20.4848 4.3759 19.8268C3.13784 19.1687 2.2342 18.3534 1.66498 17.3806C1.09575 16.4079 0.811143 15.2492 0.811143 13.9045C0.811143 12.3024 1.10287 10.9148 1.68632 9.74177C2.26978 8.56876 3.05246 7.57457 4.03437 6.75918C5.01628 5.9438 6.11203 5.29293 7.32163 4.80656C8.53123 4.32019 9.76929 3.96256 11.0358 3.73368C12.3023 3.50481 13.5048 3.39037 14.6433 3.39037C17.1763 3.39037 19.2255 3.81236 20.7909 4.65636C22.3562 5.50035 23.1389 6.69481 23.1389 8.23975C23.1389 9.38414 22.776 10.314 22.0503 11.0292C21.3245 11.7445 20.2074 12.1021 18.699 12.1021C18.1298 12.1021 17.4609 12.0449 16.6925 11.9304C15.924 11.816 15.1271 11.7015 14.3017 11.5871C13.4764 11.4727 12.6652 11.4154 11.8683 11.4154C10.5591 11.4154 9.55583 11.6086 8.85853 11.9948C8.16123 12.381 7.81258 13.0033 7.81258 13.8616C7.81258 14.2621 7.93355 14.6341 8.17546 14.9774C8.41738 15.3207 8.90834 15.6712 9.64833 16.0288C10.3883 16.3864 11.4983 16.7798 12.9783 17.209C15.3121 17.867 17.1478 18.6108 18.4855 19.4405C19.8232 20.2702 20.7766 21.2143 21.3459 22.2729C21.9151 23.3315 22.1997 24.5331 22.1997 25.8778C22.1997 27.7088 21.7016 29.3181 20.7055 30.7057C19.7093 32.0933 18.3219 33.1733 16.543 33.9458C14.7642 34.7182 12.6937 35.1045 10.3314 35.1045Z" fill="#EFEFEF"/>
<path d="M52.9805 16.2648C52.9805 13.2894 53.2935 11.1436 53.9197 9.82758C54.5458 8.51152 55.4424 7.85349 56.6093 7.85349C57.4631 7.85349 58.1319 8.16105 58.6158 8.77616C59.0996 9.39128 59.4554 10.1494 59.6831 11.0507C59.9108 11.9519 60.0246 12.8602 60.0246 13.7757L59.8111 13.6899C60.295 12.145 61.035 10.8146 62.0311 9.69883C63.0273 8.58305 64.2369 8.02515 65.6599 8.02515C67.396 8.02515 68.6839 8.73325 69.5235 10.1494C70.3631 11.5656 70.7829 13.3323 70.7829 15.4494C70.7829 18.2532 70.4129 20.213 69.6729 21.3288C68.9329 22.4446 67.951 23.0024 66.7272 23.0024C65.8164 23.0024 65.1476 22.6877 64.7207 22.0583C64.2938 21.4289 64.1372 20.3703 64.2511 18.8826C64.3365 17.4807 64.2511 16.508 64.0163 15.9644C63.7744 15.4208 63.3972 15.149 62.8849 15.149C62.2303 15.149 61.7109 15.5424 61.3267 16.3292C60.9425 17.116 60.7504 18.1245 60.7504 19.3547C60.7504 19.9269 60.8215 20.6636 60.9638 21.5648C61.1061 22.466 61.2627 23.4387 61.4334 24.483C61.6042 25.5273 61.7607 26.5644 61.903 27.5943C62.0453 28.6243 62.1165 29.5827 62.1165 30.4696C62.1165 32.1004 61.8034 33.2734 61.1773 33.9887C60.5511 34.7039 59.6688 35.0615 58.5304 35.0615C57.335 35.0615 56.3958 34.7182 55.7127 34.0316C55.0297 33.3449 54.5316 32.2291 54.2185 30.6842C54.0193 29.4826 53.8201 28.0306 53.6208 26.3283C53.4216 24.6261 53.2651 22.8809 53.1512 21.0927C53.0374 19.3046 52.9805 17.6953 52.9805 16.2648Z" fill="#EFEFEF"/>
<path d="M73.4736 16.2648C73.4736 13.2894 73.7867 11.1436 74.4129 9.82758C75.039 8.51152 75.9355 7.85349 77.1024 7.85349C77.9563 7.85349 78.6251 8.16105 79.1089 8.77616C79.5928 9.39128 79.9485 10.1494 80.1762 11.0507C80.4039 11.9519 80.5178 12.8602 80.5178 13.7757L80.3043 13.6899C80.7881 12.145 81.5281 10.8146 82.5243 9.69883C83.5204 8.58305 84.73 8.02515 86.1531 8.02515C87.8892 8.02515 89.1771 8.73325 90.0167 10.1494C90.8563 11.5656 91.2761 13.3323 91.2761 15.4494C91.2761 18.2532 90.9061 20.213 90.1661 21.3288C89.4261 22.4446 88.4442 23.0024 87.2204 23.0024C86.3096 23.0024 85.6408 22.6877 85.2139 22.0583C84.7869 21.4289 84.6304 20.3703 84.7442 18.8826C84.8296 17.4807 84.7442 16.508 84.5094 15.9644C84.2675 15.4208 83.8904 15.149 83.3781 15.149C82.7235 15.149 82.2041 15.5424 81.8199 16.3292C81.4356 17.116 81.2435 18.1245 81.2435 19.3547C81.2435 19.9269 81.3147 20.6636 81.457 21.5648C81.5993 22.466 81.7558 23.4387 81.9266 24.483C82.0974 25.5273 82.2539 26.5644 82.3962 27.5943C82.5385 28.6243 82.6097 29.5827 82.6097 30.4696C82.6097 32.1004 82.2966 33.2734 81.6704 33.9887C81.0443 34.7039 80.162 35.0615 79.0236 35.0615C77.8282 35.0615 76.889 34.7182 76.2059 34.0316C75.5228 33.3449 75.0248 32.2291 74.7117 30.6842C74.5125 29.4826 74.3132 28.0306 74.114 26.3283C73.9148 24.6261 73.7582 22.8809 73.6444 21.0927C73.5306 19.3046 73.4736 17.6953 73.4736 16.2648Z" fill="#EFEFEF"/>
<path d="M98.7453 11.6299C99.8553 11.6299 100.723 12.4882 101.35 14.2048C101.976 15.9214 102.289 18.6536 102.289 22.4015C102.289 27.0077 101.897 30.3265 101.115 32.3578C100.332 34.3891 99.1438 35.4047 97.55 35.4047C96.3261 35.4047 95.4225 34.6537 94.839 33.1517C94.2556 31.6497 93.9639 29.0247 93.9639 25.2768C93.9639 20.6706 94.4121 17.2446 95.3087 14.9987C96.2052 12.7528 97.3507 11.6299 98.7453 11.6299ZM98.4465 2.05988C99.8126 2.05988 100.795 2.41751 101.392 3.13275C101.99 3.848 102.289 4.66339 102.289 5.5789C102.289 6.7233 101.919 7.61021 101.179 8.23962C100.439 8.86904 99.4 9.18375 98.0623 9.18375C96.7246 9.18375 95.7783 8.84043 95.1379 8.15379C94.4975 7.46716 94.1773 6.65177 94.1773 5.70765C94.1773 4.50603 94.5687 3.59767 95.3513 2.98255C96.134 2.36744 97.1657 2.05988 98.4465 2.05988Z" fill="#EFEFEF"/>
<path d="M117.702 8.11098C120.434 8.11098 122.405 8.54728 123.615 9.41988C124.824 10.2925 125.429 11.4154 125.429 12.7887C125.429 13.647 125.152 14.3408 124.597 14.8701C124.042 15.3994 123.252 15.664 122.227 15.664C121.345 15.664 120.406 15.5281 119.41 15.2563C118.414 14.9845 117.275 14.8486 115.994 14.8486C114.884 14.8486 114.045 15.0703 113.476 15.5138C112.906 15.9572 112.622 16.508 112.622 17.166C112.622 17.824 112.885 18.3462 113.412 18.7324C113.938 19.1186 114.998 19.3976 116.592 19.5693C118.67 19.7981 120.406 20.1629 121.8 20.6636C123.195 21.1643 124.241 21.9224 124.938 22.9381C125.636 23.9537 125.984 25.3628 125.984 27.1652C125.984 29.9117 125.002 31.9287 123.038 33.2162C121.075 34.5036 118.342 35.1474 114.842 35.1474C112.565 35.1474 110.743 34.9471 109.377 34.5465C108.011 34.146 107.022 33.5738 106.41 32.83C105.798 32.0861 105.492 31.2278 105.492 30.2551C105.492 29.3395 105.791 28.6314 106.389 28.1308C106.986 27.6301 107.698 27.3798 108.523 27.3798C109.178 27.3798 109.875 27.4584 110.615 27.6158C111.355 27.7731 112.138 27.9448 112.963 28.1308C113.789 28.3167 114.642 28.4097 115.525 28.4097C117.688 28.4097 118.769 27.7517 118.769 26.4356C118.769 25.9779 118.655 25.5988 118.428 25.2984C118.2 24.998 117.78 24.7476 117.168 24.5474C116.556 24.3471 115.653 24.1754 114.457 24.0324C112.664 23.8607 111.113 23.5532 109.804 23.1097C108.495 22.6663 107.484 21.9653 106.773 21.0069C106.061 20.0485 105.706 18.7396 105.706 17.0802C105.706 14.3909 106.744 12.2237 108.822 10.5786C110.9 8.93351 113.86 8.11098 117.702 8.11098Z" fill="#EFEFEF"/>
<path d="M140.371 35.1044C137.98 35.1044 135.895 34.5966 134.116 33.5809C132.337 32.5653 130.964 31.1133 129.996 29.2251C129.029 27.3368 128.545 25.0909 128.545 22.4874C128.545 19.8839 129.036 17.3949 130.018 15.3636C131 13.3323 132.394 11.7444 134.202 10.6C136.009 9.45562 138.108 8.88342 140.499 8.88342C143.06 8.88342 145.28 9.43416 147.159 10.5356C149.037 11.6371 150.496 13.1749 151.534 15.149C152.573 17.1231 153.093 19.4262 153.093 22.0583C153.093 24.6904 152.566 27.065 151.513 29.0105C150.46 30.956 148.987 32.458 147.094 33.5166C145.202 34.5751 142.96 35.1044 140.371 35.1044ZM140.968 28.1093C142.477 28.1093 143.672 27.5085 144.554 26.3069C145.437 25.1052 145.878 23.5174 145.878 21.5433C145.878 19.5692 145.437 17.9456 144.554 16.7583C143.672 15.571 142.477 14.9773 140.968 14.9773C139.46 14.9773 138.172 15.571 137.275 16.7583C136.379 17.9456 135.931 19.5406 135.931 21.5433C135.931 23.546 136.379 25.1052 137.275 26.3069C138.172 27.5085 139.403 28.1093 140.968 28.1093Z" fill="#EFEFEF"/>
<path d="M167.864 8.11098C170.596 8.11098 172.567 8.54728 173.777 9.41988C174.987 10.2925 175.591 11.4154 175.591 12.7887C175.591 13.647 175.314 14.3408 174.759 14.8701C174.204 15.3994 173.414 15.664 172.389 15.664C171.507 15.664 170.568 15.5281 169.572 15.2563C168.576 14.9845 167.437 14.8486 166.156 14.8486C165.046 14.8486 164.207 15.0703 163.638 15.5138C163.068 15.9572 162.784 16.508 162.784 17.166C162.784 17.824 163.047 18.3462 163.574 18.7324C164.1 19.1186 165.16 19.3976 166.754 19.5693C168.832 19.7981 170.568 20.1629 171.963 20.6636C173.357 21.1643 174.403 21.9224 175.1 22.9381C175.798 23.9537 176.146 25.3628 176.146 27.1652C176.146 29.9117 175.164 31.9287 173.201 33.2162C171.237 34.5036 168.505 35.1474 165.004 35.1474C162.727 35.1474 160.905 34.9471 159.539 34.5465C158.173 34.146 157.184 33.5738 156.572 32.83C155.96 32.0861 155.654 31.2278 155.654 30.2551C155.654 29.3395 155.953 28.6314 156.551 28.1308C157.149 27.6301 157.86 27.3798 158.685 27.3798C159.34 27.3798 160.037 27.4584 160.777 27.6158C161.517 27.7731 162.3 27.9448 163.125 28.1308C163.951 28.3167 164.805 28.4097 165.687 28.4097C167.85 28.4097 168.931 27.7517 168.931 26.4356C168.931 25.9779 168.818 25.5988 168.59 25.2984C168.362 24.998 167.942 24.7476 167.33 24.5474C166.719 24.3471 165.815 24.1754 164.62 24.0324C162.827 23.8607 161.275 23.5532 159.966 23.1097C158.657 22.6663 157.647 21.9653 156.935 21.0069C156.224 20.0485 155.868 18.7396 155.868 17.0802C155.868 14.3909 156.907 12.2237 158.984 10.5786C161.062 8.93351 164.022 8.11098 167.864 8.11098Z" fill="#EFEFEF"/>
<path d="M195.998 35.5765C193.266 35.5765 191.124 34.5251 189.573 32.4223C188.022 30.3194 187.246 27.108 187.246 22.7879C187.246 18.4678 188 15.3565 189.509 13.3681C191.017 11.3797 193.18 10.3855 195.998 10.3855C197.649 10.3855 199.1 10.7288 200.352 11.4154C201.605 12.1021 202.729 13.0748 203.725 14.3336L203.213 14.5053C203.014 13.3895 202.8 12.2022 202.572 10.9434C202.345 9.68454 202.167 8.49722 202.039 7.38144C201.911 6.26565 201.847 5.37874 201.847 4.72072C201.847 3.57632 202.067 2.69656 202.508 2.08145C202.95 1.46634 203.64 1.15878 204.579 1.15878C205.746 1.15878 206.692 1.60223 207.418 2.48914C208.144 3.37605 208.72 4.72072 209.147 6.52314C209.488 7.92503 209.787 9.61301 210.043 11.5871C210.3 13.5612 210.506 15.6282 210.663 17.7883C210.819 19.9483 210.897 22.0011 210.897 23.9466C210.897 26.922 210.719 29.2466 210.364 30.9202C210.008 32.5939 209.503 33.7598 208.848 34.4178C208.193 35.0758 207.425 35.4049 206.543 35.4049C205.49 35.4049 204.771 34.9614 204.387 34.0745C204.003 33.1876 203.81 31.7428 203.81 29.7401H204.536C203.768 31.5139 202.651 32.9301 201.185 33.9887C199.719 35.0472 197.99 35.5765 195.998 35.5765ZM199.072 29.3109C199.926 29.3109 200.708 29.0821 201.42 28.6243C202.131 28.1665 202.701 27.4441 203.127 26.4571C203.554 25.4701 203.768 24.2327 203.768 22.745C203.768 20.7995 203.369 19.2116 202.572 17.9814C201.776 16.7512 200.58 16.1361 198.986 16.1361C197.734 16.1361 196.709 16.6797 195.913 17.7668C195.116 18.854 194.717 20.4991 194.717 22.702C194.717 24.6189 195.116 26.1996 195.913 27.4441C196.709 28.6887 197.762 29.3109 199.072 29.3109Z" fill="#EFEFEF"/>
<path d="M225.925 35.1044C223.534 35.1044 221.45 34.5966 219.671 33.5809C217.892 32.5653 216.519 31.1133 215.551 29.2251C214.583 27.3368 214.1 25.0909 214.1 22.4874C214.1 19.8839 214.591 17.3949 215.572 15.3636C216.554 13.3323 217.949 11.7444 219.756 10.6C221.564 9.45562 223.663 8.88342 226.053 8.88342C228.615 8.88342 230.835 9.43416 232.713 10.5356C234.592 11.6371 236.05 13.1749 237.089 15.149C238.128 17.1231 238.647 19.4262 238.647 22.0583C238.647 24.6904 238.121 27.065 237.068 29.0105C236.015 30.956 234.542 32.458 232.649 33.5166C230.757 34.5751 228.515 35.1044 225.925 35.1044ZM226.523 28.1093C228.031 28.1093 229.227 27.5085 230.109 26.3069C230.991 25.1052 231.432 23.5174 231.432 21.5433C231.432 19.5692 230.991 17.9456 230.109 16.7583C229.227 15.571 228.031 14.9773 226.523 14.9773C225.014 14.9773 223.727 15.571 222.83 16.7583C221.934 17.9456 221.485 19.5406 221.485 21.5433C221.485 23.546 221.934 25.1052 222.83 26.3069C223.727 27.5085 224.958 28.1093 226.523 28.1093Z" fill="#EFEFEF"/>
<path d="M253.033 35.276C251.894 35.276 251.019 34.897 250.407 34.1388C249.795 33.3806 249.489 32.0002 249.489 29.9975C249.489 28.8817 249.617 27.5371 249.873 25.9635C250.13 24.39 250.492 22.7091 250.962 20.921C251.432 19.1329 251.972 17.3376 252.584 15.5352C253.196 13.7328 253.858 12.0591 254.57 10.5142C255.452 8.6259 256.32 7.15964 257.174 6.11538C258.028 5.07112 258.924 4.33441 259.863 3.90526C260.803 3.47611 261.784 3.26154 262.809 3.26154C264.346 3.26154 265.769 3.79082 267.078 4.84939C268.387 5.90796 269.569 7.72469 270.622 10.2996C271.305 12.0448 271.945 13.9903 272.543 16.136C273.14 18.2817 273.603 20.4847 273.93 22.7449C274.258 25.0051 274.421 27.1937 274.421 29.3109C274.421 31.428 274.037 32.88 273.269 33.8384C272.5 34.7968 271.433 35.276 270.067 35.276C268.814 35.276 267.84 34.8397 267.142 33.9671C266.445 33.0945 265.997 31.6426 265.797 29.6113C265.684 28.3238 265.627 27.0006 265.627 25.6416C265.627 24.2827 265.684 22.9738 265.797 21.7149L267.292 24.9765C266.409 25.2912 265.307 25.4843 263.983 25.5558C262.66 25.6273 261.279 25.5987 259.842 25.47C258.405 25.3412 257.074 25.0766 255.85 24.6761L258.711 21.8008C258.739 23.174 258.668 24.5259 258.497 25.8562C258.326 27.1866 258.127 28.3954 257.9 29.4825C257.7 30.7414 257.409 31.7999 257.024 32.6582C256.64 33.5165 256.128 34.1674 255.487 34.6109C254.847 35.0543 254.029 35.276 253.033 35.276ZM262.553 19.8696C264.004 19.8696 265.086 19.605 265.797 19.0757C266.509 18.5464 266.865 17.7954 266.865 16.8226C266.865 16.2504 266.758 15.5781 266.545 14.8056C266.331 14.0332 266.039 13.2822 265.669 12.5526C265.299 11.8231 264.851 11.2151 264.325 10.7287C263.798 10.2424 263.236 9.99918 262.638 9.99918C262.041 9.99918 261.443 10.2495 260.931 10.7502C260.418 11.2509 259.97 11.8803 259.586 12.6384C259.202 13.3966 258.896 14.1834 258.668 14.9988C258.44 15.8141 258.326 16.5365 258.326 17.166C258.326 17.9956 258.689 18.6537 259.415 19.14C260.141 19.6264 261.187 19.8696 262.553 19.8696Z" fill="#EFEFEF"/>
<path d="M297.391 15.3207C297.675 14.1477 298.18 13.0891 298.906 12.145C299.632 11.2008 300.521 10.4498 301.574 9.89193C302.627 9.33404 303.78 9.05509 305.032 9.05509C306.541 9.05509 307.879 9.41272 309.045 10.128C310.212 10.8432 311.13 12.0162 311.799 13.647C312.468 15.2778 312.802 17.4521 312.802 20.17C312.802 21.5433 312.745 22.9309 312.632 24.3328C312.518 25.7347 312.375 27.0364 312.205 28.238C312.034 29.4397 311.849 30.441 311.65 31.2421C311.337 32.5009 310.824 33.445 310.113 34.0745C309.401 34.7039 308.505 35.0186 307.423 35.0186C306.484 35.0186 305.737 34.6753 305.182 33.9886C304.627 33.302 304.349 32.3293 304.349 31.0704C304.349 30.5268 304.42 29.8187 304.563 28.9461C304.705 28.0735 304.862 27.1223 305.032 26.0923C305.203 25.0623 305.36 24.0252 305.502 22.981C305.644 21.9367 305.715 20.9854 305.715 20.1271C305.715 18.8683 305.466 17.8956 304.968 17.2089C304.47 16.5223 303.78 16.179 302.898 16.179C301.873 16.179 301.026 16.7583 300.358 17.917C299.689 19.0757 299.297 20.7565 299.184 22.9595C299.07 24.8192 298.963 26.4714 298.863 27.9162C298.764 29.361 298.557 30.5554 298.244 31.4996C297.96 32.3865 297.554 33.0445 297.028 33.4737C296.501 33.9028 295.797 34.1174 294.914 34.1174C293.947 34.1174 293.171 33.8027 292.588 33.1733C292.004 32.5438 291.684 31.5425 291.627 30.1692C291.599 29.2251 291.592 28.095 291.606 26.7789C291.62 25.4629 291.634 24.1611 291.649 22.8737C291.663 21.5862 291.649 20.5134 291.584 19.6551C291.499 18.1387 291.229 17.023 290.773 16.3077C290.318 15.5925 289.649 15.2348 288.767 15.2348C287.742 15.2348 286.931 15.7284 286.333 16.7154C285.736 17.7024 285.352 19.0686 285.181 20.8138C285.152 21.5862 285.138 22.5304 285.138 23.6462C285.138 24.7619 285.152 25.8706 285.181 26.9721C285.209 28.0735 285.195 28.9962 285.138 29.7401C285.11 31.5997 284.789 32.9301 284.177 33.7311C283.566 34.5322 282.705 34.9328 281.595 34.9328C280.314 34.9328 279.382 34.5465 278.798 33.7741C278.215 33.0016 277.852 31.7714 277.71 30.0834C277.596 28.8245 277.51 27.5729 277.454 26.3283C277.397 25.0838 277.368 23.8464 277.368 22.6162C277.368 21.386 277.404 20.0055 277.475 18.5607C277.546 17.1159 277.653 15.7355 277.795 14.4195C277.966 12.7887 278.322 11.4297 278.862 10.3425C279.403 9.25536 280.285 8.71177 281.509 8.71177C282.562 8.71177 283.317 9.11947 283.772 9.93485C284.227 10.7502 284.455 12.0019 284.455 13.6899C284.455 14.2621 284.412 14.7914 284.327 15.2778L284.199 14.4195C284.768 12.5598 285.7 11.1079 286.995 10.0636C288.29 9.01933 289.72 8.4972 291.286 8.4972C293.335 8.4972 294.936 9.14808 296.088 10.4498C297.241 11.7516 297.874 13.5468 297.988 15.8356L297.391 15.3207Z" fill="#EFEFEF"/>
<path d="M336.026 35.4048C334.774 35.4048 333.934 35.0258 333.507 34.2676C333.08 33.5094 332.867 32.3007 332.867 30.6413L333.379 30.8559C331.814 33.9743 328.826 35.5336 324.414 35.5336C322.422 35.5336 320.764 35.176 319.44 34.4607C318.117 33.7455 317.135 32.7942 316.495 31.6069C315.854 30.4196 315.534 29.1107 315.534 27.6802C315.534 25.2483 316.395 23.3243 318.117 21.9081C319.839 20.4919 322.123 19.7838 324.969 19.7838C326.791 19.7838 328.377 20.0556 329.729 20.5992C331.081 21.1428 332.241 21.901 333.209 22.8737L332.227 22.7879C332.084 20.1558 331.536 18.2818 330.583 17.166C329.63 16.0502 328.271 15.4923 326.506 15.4923C325.567 15.4923 324.656 15.6354 323.774 15.9215C322.891 16.2076 322.052 16.5008 321.255 16.8012C320.458 17.1016 319.69 17.2518 318.95 17.2518C318.067 17.2518 317.384 16.9944 316.9 16.4794C316.416 15.9644 316.175 15.2921 316.175 14.4624C316.175 13.318 316.694 12.2666 317.733 11.3081C318.772 10.3497 320.145 9.57724 321.853 8.99073C323.56 8.40423 325.41 8.11098 327.402 8.11098C329.907 8.11098 332.063 8.65457 333.87 9.74174C335.678 10.8289 336.994 12.4454 337.819 14.5911C338.531 16.3363 339.036 18.2818 339.335 20.4275C339.634 22.5733 339.783 24.8621 339.783 27.2939C339.783 29.4397 339.655 31.099 339.399 32.2721C339.143 33.4451 338.737 34.2604 338.182 34.7182C337.627 35.176 336.909 35.4048 336.026 35.4048ZM327.018 29.9976C327.815 29.9976 328.619 29.8831 329.43 29.6542C330.241 29.4254 330.925 29.0749 331.48 28.6028C332.035 28.1308 332.312 27.5514 332.312 26.8648C332.312 26.2354 332.077 25.7275 331.608 25.3413C331.138 24.9551 330.533 24.6618 329.793 24.4615C329.053 24.2613 328.256 24.1611 327.402 24.1611C325.923 24.1611 324.784 24.4329 323.987 24.9765C323.19 25.5201 322.792 26.2354 322.792 27.1223C322.792 28.0092 323.162 28.7459 323.902 29.2466C324.642 29.7472 325.681 29.9976 327.018 29.9976Z" fill="#EFEFEF"/>
<path d="M348.621 8.28265C349.731 8.28265 350.499 8.65458 350.926 9.39844C351.353 10.1423 351.566 11.2438 351.566 12.7029C351.566 13.0462 351.545 13.411 351.502 13.7972C351.46 14.1834 351.396 14.5339 351.31 14.8486L351.225 13.9903C351.879 12.1307 352.911 10.6787 354.32 9.63447C355.729 8.59021 357.23 8.06808 358.824 8.06808C360.645 8.06808 362.168 8.58306 363.392 9.61301C364.616 10.643 365.534 12.0878 366.146 13.9474C366.758 15.8071 367.063 18.01 367.063 20.5563C367.063 22.0154 366.999 23.4459 366.871 24.8478C366.743 26.2497 366.58 27.53 366.38 28.6887C366.181 29.8474 365.939 30.7987 365.655 31.5425C365.256 32.5439 364.723 33.2949 364.054 33.7955C363.385 34.2962 362.595 34.5466 361.684 34.5466C360.717 34.5466 359.977 34.2104 359.464 33.5381C358.952 32.8657 358.696 31.9431 358.696 30.77C358.696 29.8545 358.753 28.7459 358.867 27.4441C358.98 26.1424 359.094 24.8263 359.208 23.496C359.322 22.1656 359.379 20.9998 359.379 19.9984C359.379 16.6511 358.312 14.9774 356.177 14.9774C355.039 14.9774 354.078 15.4995 353.295 16.5438C352.513 17.588 351.993 19.0686 351.737 20.9855C351.652 21.7293 351.602 22.652 351.588 23.7535C351.573 24.8549 351.559 25.9421 351.545 27.015C351.531 28.0879 351.495 28.9962 351.438 29.7401C351.296 31.5997 350.898 32.9301 350.243 33.7312C349.588 34.5322 348.706 34.9328 347.596 34.9328C346.258 34.9328 345.255 34.4393 344.586 33.4522C343.917 32.4652 343.583 30.7987 343.583 28.4526C343.583 27.251 343.611 25.9064 343.668 24.4186C343.725 22.9309 343.804 21.4361 343.903 19.934C344.003 18.432 344.124 17.0659 344.266 15.8357C344.551 13.5183 345.02 11.6801 345.675 10.3211C346.33 8.96214 347.311 8.28265 348.621 8.28265Z" fill="#EFEFEF"/>
<path d="M376.192 0.987185C377.359 0.987185 378.17 1.38057 378.625 2.16734C379.081 2.95412 379.308 4.11997 379.308 5.66491C379.308 6.89513 379.237 8.35424 379.095 10.0422C378.953 11.7302 378.753 13.3038 378.497 14.7629H378.241C379.152 13.1607 380.319 11.859 381.742 10.8576C383.165 9.85626 384.688 9.35559 386.31 9.35559C387.79 9.35559 389.113 9.72036 390.28 10.4499C391.447 11.1795 392.386 12.3024 393.098 13.8187C393.752 15.1348 394.236 16.7083 394.549 18.5394C394.862 20.3704 395.019 22.1013 395.019 23.7321C395.019 26.3928 394.813 28.5099 394.4 30.0835C393.987 31.657 393.411 32.7943 392.671 33.4952C391.931 34.1961 391.077 34.5466 390.109 34.5466C387.833 34.5466 386.694 32.9445 386.694 29.7402C386.694 28.3669 386.772 26.9578 386.929 25.513C387.085 24.0682 387.164 22.745 387.164 21.5434C387.164 19.7982 386.879 18.4822 386.31 17.5952C385.741 16.7083 384.944 16.2649 383.919 16.2649C382.638 16.2649 381.6 16.8514 380.803 18.0244C380.006 19.1974 379.607 20.8139 379.607 22.8738C379.607 24.0468 379.707 25.2913 379.906 26.6074C380.105 27.9234 380.205 29.2252 380.205 30.5126C380.205 32.2292 379.856 33.4666 379.159 34.2248C378.462 34.9829 377.587 35.362 376.533 35.362C375.793 35.362 375.132 35.2333 374.548 34.9758C373.965 34.7183 373.467 34.1961 373.054 33.4094C372.641 32.6226 372.321 31.4424 372.094 29.8689C371.923 28.7817 371.759 27.5229 371.603 26.0924C371.446 24.6619 371.311 23.1527 371.197 21.5649C371.083 19.977 370.998 18.4321 370.941 16.9301C370.884 15.428 370.855 14.0762 370.855 12.8746C370.855 8.72617 371.311 5.70782 372.222 3.81957C373.132 1.93131 374.456 0.987185 376.192 0.987185Z" fill="#EFEFEF"/>
<path d="M418.243 35.4048C416.991 35.4048 416.151 35.0257 415.724 34.2676C415.297 33.5094 415.084 32.3006 415.084 30.6412L415.596 30.8558C414.031 33.9743 411.042 35.5335 406.631 35.5335C404.639 35.5335 402.981 35.1759 401.657 34.4607C400.334 33.7454 399.352 32.7941 398.712 31.6068C398.071 30.4195 397.751 29.1106 397.751 27.6801C397.751 25.2483 398.612 23.3243 400.334 21.9081C402.056 20.4919 404.34 19.7838 407.186 19.7838C409.007 19.7838 410.594 20.0556 411.946 20.5992C413.298 21.1428 414.458 21.9009 415.425 22.8737L414.443 22.7878C414.301 20.1557 413.753 18.2818 412.8 17.166C411.846 16.0502 410.487 15.4923 408.723 15.4923C407.784 15.4923 406.873 15.6353 405.99 15.9214C405.108 16.2075 404.269 16.5008 403.472 16.8012C402.675 17.1016 401.906 17.2518 401.166 17.2518C400.284 17.2518 399.601 16.9943 399.117 16.4793C398.633 15.9644 398.391 15.292 398.391 14.4623C398.391 13.3179 398.911 12.2665 399.95 11.3081C400.988 10.3497 402.362 9.5772 404.069 8.99069C405.777 8.40419 407.627 8.11094 409.619 8.11094C412.124 8.11094 414.28 8.65453 416.087 9.7417C417.894 10.8289 419.211 12.4453 420.036 14.5911C420.748 16.3363 421.253 18.2818 421.552 20.4275C421.85 22.5733 422 24.862 422 27.2939C422 29.4396 421.872 31.099 421.616 32.272C421.359 33.445 420.954 34.2604 420.399 34.7182C419.844 35.1759 419.125 35.4048 418.243 35.4048ZM406.674 0.643748C407.698 0.643748 408.616 0.858322 409.427 1.28747C410.238 1.71662 411.028 2.28882 411.797 3.00407C411.996 3.17573 412.159 3.2544 412.288 3.2401C412.416 3.22579 412.508 3.11851 412.565 2.91824C412.85 1.91689 413.184 1.18018 413.568 0.70812C413.952 0.236057 414.529 2.47955e-05 415.297 2.47955e-05C416.521 2.47955e-05 417.133 0.658053 417.133 1.97411C417.133 2.57492 416.962 3.27586 416.621 4.07694C416.279 4.87802 415.746 5.57896 415.02 6.17977C414.294 6.78058 413.348 7.08098 412.181 7.08098C411.128 7.08098 410.21 6.80203 409.427 6.24414C408.644 5.68625 407.869 4.93524 407.1 3.99111C406.901 3.73362 406.723 3.61918 406.567 3.64779C406.41 3.6764 406.289 3.90528 406.204 4.33443C405.948 5.4216 405.613 6.20122 405.201 6.67329C404.788 7.14535 404.183 7.38138 403.386 7.38138C402.789 7.38138 402.298 7.16681 401.913 6.73766C401.529 6.30851 401.337 5.80784 401.337 5.23564C401.337 4.46317 401.572 3.72647 402.041 3.02552C402.511 2.32458 403.144 1.75238 403.941 1.30893C404.738 0.865475 405.649 0.643748 406.674 0.643748ZM409.235 29.9975C410.032 29.9975 410.836 29.8831 411.647 29.6542C412.458 29.4253 413.141 29.0749 413.696 28.6028C414.251 28.1307 414.529 27.5514 414.529 26.8647C414.529 26.2353 414.294 25.7275 413.824 25.3413C413.355 24.955 412.75 24.6618 412.01 24.4615C411.27 24.2612 410.473 24.1611 409.619 24.1611C408.139 24.1611 407.001 24.4329 406.204 24.9765C405.407 25.5201 405.009 26.2353 405.009 27.1222C405.009 28.0091 405.379 28.7458 406.119 29.2465C406.859 29.7472 407.897 29.9975 409.235 29.9975Z" fill="#EFEFEF"/>
<path d="M37.7327 33.3019C37.6757 33.3019 37.6259 33.3019 37.569 33.3019C36.4519 33.2948 33.0508 33.259 30.0482 30.8486C25.4659 27.1794 25.6794 21.3143 25.7719 20.1771C25.8572 19.0685 26.8178 18.2531 27.9207 18.3318C29.0236 18.4176 29.8418 19.3903 29.7564 20.499C29.7208 20.9782 29.4789 25.2554 32.5385 27.7087C34.4667 29.2536 36.7508 29.2751 37.6117 29.2822C40.1234 29.2965 42.1868 28.567 43.7308 27.0864C46.3137 24.6045 46.2212 21.1498 46.1714 20.4847C46.0931 19.376 46.9256 18.4176 48.0285 18.3389C49.1171 18.2745 50.0848 19.0971 50.1631 20.2057C50.2556 21.5861 50.2698 26.364 46.4916 29.9903C44.912 31.5066 42.1157 33.3019 37.7327 33.3019Z" fill="#EFEFEF"/>
<path d="M30.2028 15.4421C30.3593 14.4408 30.6297 13.4752 30.9926 12.5311C31.0495 12.388 31.0353 12.4238 30.9499 12.6312C30.9712 12.574 30.9997 12.5239 31.021 12.4667C31.0709 12.3594 31.1207 12.2521 31.1776 12.1449C31.2701 11.9589 31.3768 11.7801 31.4907 11.6084C31.5262 11.5584 31.5547 11.5083 31.5903 11.4654C31.6828 11.3438 31.6614 11.3724 31.5262 11.544C31.5903 11.5226 31.7041 11.3366 31.7539 11.2794C31.8037 11.2222 31.9958 11.1006 32.0101 11.0434C31.8322 11.1793 31.7966 11.2007 31.9176 11.1149C31.9532 11.0934 31.9816 11.072 32.0172 11.0505C32.0955 11.0005 32.1951 10.9718 32.2662 10.9146C32.0457 11.0005 32.0101 11.0219 32.1524 10.9718C32.2022 10.9575 32.252 10.9432 32.3018 10.9289C32.5437 10.8503 31.9176 10.9647 32.3018 10.9432C32.4512 10.9575 32.4014 10.9432 32.1453 10.9218C32.252 10.9575 32.2449 10.9432 32.1168 10.8932C31.9958 10.836 31.9816 10.8288 32.0812 10.8789C32.2022 10.9575 32.1666 10.9289 31.9816 10.793C32.0812 10.9003 32.067 10.8717 31.9247 10.6929C31.9603 10.7358 31.9887 10.7859 32.0101 10.836C32.0385 10.886 32.0599 10.9361 32.0883 10.9862C32.003 10.7716 31.9887 10.7358 32.0457 10.8789C32.0812 10.9862 32.1239 11.0863 32.1595 11.1936C32.3231 11.6656 32.4583 12.152 32.5722 12.6455C32.6291 12.8887 32.6789 13.139 32.7216 13.3822C32.743 13.4967 32.7999 13.6683 32.7856 13.7828C32.7572 13.5682 32.7572 13.5396 32.7714 13.6969C32.7785 13.7613 32.7856 13.8328 32.7928 13.8972C32.8354 14.2906 32.9208 14.6268 33.2126 14.9129C33.4616 15.1632 33.8672 15.3492 34.2229 15.3349C34.9273 15.3063 35.7385 14.6983 35.6531 13.8972C35.5393 12.8673 35.3614 11.8516 35.0554 10.8646C34.8989 10.3639 34.7352 9.84176 34.4862 9.384C34.166 8.80465 33.6466 8.3755 33.0204 8.17523C31.9105 7.81045 30.7222 8.33974 29.904 9.09075C29.1497 9.77738 28.6872 10.6929 28.303 11.6299C27.9188 12.5669 27.6271 13.6254 27.4634 14.6625C27.3994 15.0559 27.3994 15.4135 27.6057 15.7712C27.7765 16.0716 28.118 16.3505 28.4595 16.4292C29.1426 16.5865 30.0889 16.2218 30.217 15.4278L30.2028 15.4421Z" fill="#EFEFEF"/>
<path d="M49.5577 14.6766C49.4083 13.7396 49.1735 12.817 48.832 11.9301C48.4762 10.9859 48.0422 10.1062 47.3662 9.35516C46.6903 8.60415 45.6372 7.98904 44.5984 8.09633C43.8655 8.16785 43.2394 8.4611 42.784 9.04761C42.4425 9.49821 42.2503 10.0132 42.0725 10.5496C41.7025 11.644 41.4961 12.774 41.368 13.9184C41.3325 14.2618 41.553 14.6981 41.7879 14.9341C42.0369 15.1844 42.4425 15.3704 42.7982 15.3561C43.154 15.3418 43.5524 15.2202 43.8086 14.9341C44.079 14.6337 44.1857 14.319 44.2284 13.9184C44.2284 13.8541 44.2426 13.7825 44.2497 13.7182C44.2711 13.5608 44.264 13.5823 44.2355 13.804C44.2213 13.6896 44.2782 13.5179 44.2995 13.4035C44.3422 13.1746 44.3849 12.9457 44.4347 12.7168C44.5415 12.2233 44.6838 11.7441 44.8403 11.2649C44.883 11.1433 44.9257 11.0217 44.9684 10.9001C45.0253 10.7571 45.0111 10.7928 44.9257 11.0074C44.947 10.9573 44.9755 10.9073 45.004 10.8572C45.0324 10.8071 45.0609 10.757 45.0893 10.7141C44.947 10.8929 44.9257 10.9216 45.0324 10.8143C44.8474 10.9502 44.8118 10.9788 44.9328 10.9001L44.9968 10.8643C44.7692 10.9573 44.7265 10.9788 44.8688 10.9359C44.6126 10.9645 44.5557 10.9716 44.7122 10.9573C45.0965 10.9788 44.4703 10.8715 44.7122 10.943C44.762 10.9573 44.8118 10.9716 44.8617 10.9859C45.004 11.036 44.9613 11.0145 44.7478 10.9287C44.819 10.9859 44.9186 11.0145 44.9968 11.0646C45.0324 11.0861 45.068 11.1075 45.0965 11.129C45.2174 11.2148 45.1818 11.1862 45.004 11.0575C45.0182 11.1218 45.2103 11.2434 45.2601 11.2935C45.3099 11.3436 45.4238 11.5367 45.4878 11.5581C45.3526 11.3793 45.3313 11.3507 45.4238 11.4795C45.4522 11.5152 45.4736 11.551 45.4949 11.5867C45.6159 11.7727 45.7297 11.9587 45.8293 12.1589C45.8863 12.2662 45.9361 12.3735 45.9859 12.4808C46.0072 12.538 46.0357 12.5881 46.057 12.6453C45.9788 12.4522 45.9574 12.4021 46.0001 12.5094C46.3701 13.4678 46.6476 14.4477 46.8041 15.4634C46.8539 15.7995 47.1812 16.1572 47.4587 16.3217C47.7647 16.5005 48.213 16.5792 48.5616 16.4647C49.3656 16.2001 49.6858 15.492 49.5577 14.6981V14.6766Z" fill="#EFEFEF"/>
</svg>
