<svg width="140" height="140" viewBox="0 0 140 140" fill="none" xmlns="http://www.w3.org/2000/svg">
<path d="M42.5951 18.0951C42.5562 18.1065 42.5235 18.1327 42.5038 18.1681C42.4842 18.2034 42.4792 18.2451 42.4901 18.2841C42.4901 18.4241 42.5531 18.3821 43.4141 18.4311C44.1561 18.4731 44.8141 18.5081 45.1361 18.5081H45.3321C45.3606 18.5005 45.3866 18.4855 45.4075 18.4646C45.4284 18.4437 45.4434 18.4177 45.4511 18.3891C45.4586 18.3609 45.4588 18.3313 45.4514 18.303C45.444 18.2748 45.4294 18.249 45.4091 18.2281C45.1921 18.0111 42.6161 18.0881 42.5951 18.0951ZM41.6291 13.9231C41.5765 14.7506 41.5765 15.5806 41.6291 16.4081C41.6291 16.4921 41.5801 16.8001 41.8041 16.8001C41.8493 16.8001 41.8928 16.7827 41.9254 16.7513C41.958 16.72 41.9772 16.6773 41.9791 16.6321C42.0347 15.73 42.0347 14.8252 41.9791 13.9231C41.9791 13.8767 41.9606 13.8322 41.9278 13.7994C41.895 13.7665 41.8505 13.7481 41.8041 13.7481C41.7576 13.7481 41.7131 13.7665 41.6803 13.7994C41.6475 13.8322 41.6291 13.8767 41.6291 13.9231ZM38.5001 17.7591C38.4635 17.7762 38.4331 17.8043 38.413 17.8394C38.393 17.8744 38.3842 17.9149 38.3881 17.9551C38.3881 18.2281 38.6961 18.2001 39.1231 18.2491C39.5154 18.2846 39.9056 18.3407 40.2921 18.4171C40.3289 18.4149 40.3641 18.4011 40.3927 18.3776C40.4212 18.3542 40.4416 18.3223 40.4509 18.2866C40.4602 18.2509 40.458 18.2131 40.4446 18.1787C40.4311 18.1443 40.4071 18.115 40.3761 18.0951C39.775 17.8751 39.1401 17.7614 38.5001 17.7591ZM41.3001 19.2291C40.9081 21.0351 40.8451 21.3641 41.1181 21.3641C41.3911 21.3641 41.3631 21.2521 41.6781 19.3271C41.6781 19.0821 41.3001 18.9841 41.3001 19.2291ZM47.1731 6.90211C46.4241 8.09911 47.4111 10.0101 48.9021 9.70211C49.3262 9.64838 49.7178 9.44708 50.0084 9.1335C50.2989 8.81991 50.4698 8.41407 50.4911 7.98711C50.6521 6.30011 48.1391 5.36211 47.1731 6.90211ZM47.6001 8.71511C47.464 8.51161 47.3757 8.27999 47.3417 8.03755C47.3078 7.79512 47.3291 7.54815 47.4041 7.31511C47.8521 5.91511 49.9241 6.28611 50.1411 7.63711C50.2881 8.45611 48.5451 10.1711 47.6001 8.71511ZM13.2021 25.0811C13.1629 25.0824 13.125 25.0951 13.0929 25.1174C13.0608 25.1398 13.0358 25.171 13.021 25.2073C13.0062 25.2435 13.0022 25.2833 13.0095 25.3218C13.0168 25.3602 13.035 25.3958 13.0621 25.4241C13.4261 25.8161 14.7071 28.1121 15.4421 28.7911C15.7781 28.5181 17.8571 25.0951 17.7311 24.9061C16.2315 25.1204 14.7137 25.179 13.2021 25.0811ZM17.2901 25.2001C16.7982 26.3054 16.1628 27.341 15.4001 28.2801L13.6221 25.4801C14.8513 25.523 16.0815 25.4291 17.2901 25.2001ZM7.47606 86.2751C7.52266 86.2749 7.56753 86.2574 7.60206 86.2261C7.62196 86.2072 7.63781 86.1843 7.64864 86.1591C7.65947 86.1338 7.66506 86.1066 7.66506 86.0791C7.66506 86.0516 7.65947 86.0244 7.64864 85.9991C7.63781 85.9739 7.62196 85.9511 7.60206 85.9321C7.12709 85.5433 6.58665 85.2423 6.00606 85.0431C5.95001 85.0472 5.89754 85.0722 5.85906 85.1131C5.83889 85.1431 5.82812 85.1785 5.82812 85.2146C5.82812 85.2508 5.83889 85.2861 5.85906 85.3161C5.85906 85.3581 5.93606 85.3931 6.38406 85.6311C6.72938 85.7914 7.0577 85.9861 7.36406 86.2121C7.39205 86.2466 7.43208 86.2691 7.47606 86.2751ZM7.70006 87.9131C7.18932 88.6181 6.77938 89.3909 6.48206 90.2091C6.47833 90.2448 6.48663 90.2807 6.50566 90.3112C6.52468 90.3416 6.55333 90.3648 6.58706 90.3771H6.65006C6.67518 90.3766 6.69979 90.37 6.72175 90.3578C6.74371 90.3456 6.76236 90.3282 6.77606 90.3071L7.09806 89.7121C7.40606 89.1521 7.79806 88.3821 8.00106 88.1651C8.03747 88.1262 8.05773 88.0749 8.05773 88.0216C8.05773 87.9683 8.03747 87.917 8.00106 87.8781C7.98632 87.8484 7.96277 87.824 7.93363 87.8082C7.90449 87.7924 7.87118 87.7859 7.83825 87.7898C7.80532 87.7936 7.77437 87.8075 7.74964 87.8296C7.72491 87.8517 7.70759 87.8808 7.70006 87.9131ZM10.7451 83.4471C10.7752 83.4147 10.7947 83.3739 10.8009 83.3301C10.8072 83.2863 10.7999 83.2416 10.7801 83.2021C10.7526 83.1592 10.7105 83.1277 10.6615 83.1136C10.6126 83.0994 10.5602 83.1035 10.5141 83.1251C10.0321 83.6446 9.65212 84.2501 9.39406 84.9101C9.39114 84.9327 9.39286 84.9557 9.39912 84.9777C9.40537 84.9996 9.41603 85.02 9.43044 85.0377C9.44485 85.0554 9.46271 85.07 9.48293 85.0805C9.50315 85.0911 9.52531 85.0974 9.54806 85.0991C9.59017 85.1016 9.63178 85.0889 9.66523 85.0631C9.69867 85.0374 9.72169 85.0005 9.73006 84.9591C9.95074 84.5083 10.2207 84.0834 10.5351 83.6921C10.6891 83.5311 10.7311 83.4751 10.7451 83.4471ZM10.5771 87.0241C10.5545 87.0181 10.5311 87.0167 10.508 87.0198C10.4849 87.0229 10.4626 87.0305 10.4425 87.0422C10.4223 87.0539 10.4047 87.0694 10.3905 87.0879C10.3764 87.1065 10.366 87.1276 10.3601 87.1501C10.3541 87.1726 10.3526 87.1961 10.3557 87.2192C10.3588 87.2423 10.3664 87.2645 10.3781 87.2847C10.3898 87.3049 10.4054 87.3225 10.4239 87.3366C10.4424 87.3508 10.4635 87.3611 10.4861 87.3671C10.6331 87.4091 12.7471 88.0181 12.9081 88.0181C12.9396 88.0146 12.9695 88.0022 12.9942 87.9823C13.019 87.9625 13.0377 87.9361 13.0481 87.9061C13.0569 87.874 13.0557 87.8399 13.0444 87.8086C13.0331 87.7773 13.0124 87.7502 12.9851 87.7311C12.8801 87.6541 10.6051 87.0311 10.5771 87.0241ZM128.352 48.7061C128.332 48.6809 128.307 48.6608 128.277 48.6474C128.248 48.634 128.216 48.6277 128.184 48.6291C128.156 48.6291 128.129 48.637 128.105 48.6518C128.082 48.6667 128.063 48.6879 128.051 48.7131C127.351 49.8191 125.867 52.3531 125.713 52.6191C125.678 52.6429 125.651 52.6777 125.637 52.7182C125.623 52.7586 125.623 52.8025 125.636 52.8431C125.644 52.8795 125.665 52.912 125.694 52.9349C125.723 52.9579 125.76 52.97 125.797 52.9691C131.138 52.4721 130.963 52.5281 131.026 52.3741C131.089 52.2201 131.173 52.5561 128.352 48.7061ZM130.508 52.1571L126.147 52.5561C126.707 51.6531 127.666 50.0501 128.086 49.3431C128.142 49.2521 128.184 49.1751 128.219 49.1261C129.381 50.7011 130.151 51.7231 130.508 52.1571ZM132.951 41.1041C132.613 40.8436 132.201 40.6952 131.774 40.6798C131.347 40.6643 130.926 40.7825 130.57 41.0179C130.213 41.2533 129.939 41.5941 129.786 41.9927C129.633 42.3914 129.607 42.828 129.714 43.2416C129.821 43.6552 130.054 44.0252 130.381 44.2999C130.708 44.5747 131.113 44.7404 131.539 44.7741C131.964 44.8077 132.39 44.7076 132.756 44.4876C133.122 44.2676 133.411 43.9388 133.581 43.5471C133.725 43.1228 133.742 42.6656 133.63 42.2317C133.518 41.7977 133.282 41.4059 132.951 41.1041ZM130.319 43.7151C130.092 43.4055 129.976 43.0284 129.989 42.6446C130.003 42.2609 130.145 41.8929 130.394 41.6C130.642 41.3072 130.982 41.1065 131.358 41.0305C131.734 40.9545 132.126 41.0076 132.468 41.1811C132.832 41.4188 133.111 41.7656 133.266 42.1717C133.421 42.5779 133.443 43.0226 133.329 43.4421C133.198 43.7173 132.997 43.9537 132.747 44.1279C132.497 44.3021 132.205 44.4082 131.902 44.4358C131.598 44.4633 131.293 44.4114 131.015 44.285C130.738 44.1586 130.498 43.9622 130.319 43.7151ZM107.226 51.7161C106.155 52.8291 107.296 55.3001 109.095 54.7961C109.453 54.687 109.768 54.4713 110 54.1778C110.231 53.8843 110.368 53.5271 110.39 53.154C110.413 52.7809 110.322 52.4097 110.128 52.0901C109.934 51.7706 109.647 51.518 109.305 51.3661C108.964 51.2085 108.582 51.1575 108.211 51.22C107.841 51.2824 107.497 51.4553 107.226 51.7161ZM110.117 52.8991C110.141 53.2184 110.071 53.5378 109.916 53.8177C109.76 54.0976 109.526 54.3259 109.242 54.4741C107.646 55.2861 106.561 53.0741 107.233 52.0451C107.422 51.7703 107.694 51.5625 108.008 51.4513C108.323 51.3401 108.665 51.3312 108.985 51.426C109.305 51.5207 109.587 51.7142 109.79 51.9788C109.993 52.2434 110.108 52.5655 110.117 52.8991ZM105.742 49.1611C105.707 49.2171 105.742 49.3011 105.819 49.2801C108.969 48.2861 108.85 48.3421 108.843 48.2441C108.283 41.7901 104.748 36.5051 104.594 36.5611C101.92 37.4361 101.885 37.3521 101.948 37.4851C103.71 41.1974 104.986 45.1219 105.742 49.1611ZM104.671 36.9461C107.982 42.5461 108.353 46.9141 108.444 47.9501C107.548 48.2371 106.911 48.4401 106.029 48.7691C105.262 44.9149 103.994 41.1777 102.256 37.6531C104.748 36.7921 104.594 36.8131 104.671 36.9461ZM72.7091 55.3701C76.1111 55.6571 90.8671 55.9721 92.3091 55.9861C94.787 55.9861 97.3421 55.2861 97.7271 52.8151C97.8811 51.8071 98.4271 44.2891 98.3361 43.0151C98.0351 38.5211 96.3691 35.3571 88.5361 34.3141C83.9511 33.7051 71.8551 33.3691 68.1031 36.0361C66.1711 37.4361 66.3951 40.2781 66.3391 42.4131C66.3054 44.9283 66.4481 47.4428 66.7661 49.9381C67.2001 53.7321 68.3131 54.9991 72.7091 55.3701ZM86.4571 48.1391C86.4491 48.1605 86.4348 48.179 86.416 48.1921C86.3972 48.2051 86.3749 48.2121 86.3521 48.2121C86.3292 48.2121 86.3069 48.2051 86.2881 48.1921C86.2693 48.179 86.255 48.1605 86.2471 48.1391C86.2295 47.0422 86.2856 45.9454 86.4151 44.8561C86.4151 44.7721 86.5831 44.7581 86.6041 44.8561C86.6291 45.9525 86.58 47.0493 86.4571 48.1391ZM85.4001 40.5301C85.9181 40.5651 88.2001 40.7681 88.4731 40.8591C88.5711 40.8941 88.6061 41.0761 88.4731 41.0971C88.2071 41.0971 85.8901 40.8311 85.3721 40.7541C85.2181 40.7331 85.2531 40.5231 85.4001 40.5301ZM74.5781 49.3711C74.586 49.3497 74.6003 49.3312 74.6191 49.3181C74.6379 49.3051 74.6602 49.2981 74.6831 49.2981C74.7059 49.2981 74.7282 49.3051 74.747 49.3181C74.7658 49.3312 74.7801 49.3497 74.7881 49.3711C74.8643 50.0684 74.883 50.7708 74.8441 51.4711C77.7911 51.4711 80.717 52.0101 83.6641 51.9681C83.7061 51.4921 83.7481 51.0301 83.8181 50.5681C83.8181 50.4141 84.0911 50.4561 84.0841 50.5681C84.0841 51.0791 84.0071 51.5831 83.9511 52.0871C83.9511 52.1261 83.9356 52.1635 83.908 52.1911C83.8804 52.2186 83.843 52.2341 83.8041 52.2341C82.2781 52.2341 76.2161 51.7301 74.7041 51.7581C74.6638 51.7564 74.6256 51.7396 74.5971 51.7111C74.5685 51.6826 74.5518 51.6444 74.5501 51.6041C74.5033 50.8601 74.5127 50.1137 74.5781 49.3711ZM71.7781 47.0051C71.7708 47.0233 71.7582 47.0389 71.742 47.0499C71.7258 47.0609 71.7066 47.0667 71.6871 47.0667C71.6675 47.0667 71.6483 47.0609 71.6321 47.0499C71.6159 47.0389 71.6033 47.0233 71.5961 47.0051C71.4407 45.9744 71.4031 44.9293 71.4841 43.8901C71.4841 43.7921 71.659 43.8201 71.6661 43.8901C71.659 44.4501 71.8481 46.7671 71.7711 47.0051H71.7781ZM73.8781 39.5221C73.8989 39.5315 73.9167 39.5468 73.9291 39.566C73.9416 39.5853 73.9482 39.6077 73.9482 39.6306C73.9482 39.6535 73.9416 39.676 73.9291 39.6952C73.9167 39.7145 73.8989 39.7297 73.8781 39.7391C72.7625 40.0836 71.6262 40.3572 70.4761 40.5581C69.8041 40.2991 73.717 39.4941 73.8641 39.5221H73.8781ZM120.743 128.331C120.743 128.387 120.89 128.443 120.904 128.387C121.352 126.931 122.115 125.591 123.14 124.463C124.165 123.335 125.426 122.448 126.833 121.863C127.623 121.56 128.438 121.325 129.269 121.163C130.627 120.918 122.5 120.897 120.743 128.331ZM118.475 125.342C118.957 123.577 120.07 122.05 121.602 121.05C123.135 120.05 124.981 119.647 126.791 119.917C126.854 119.917 126.868 119.812 126.791 119.798C124.061 119.189 119.413 120.113 118.328 125.293C118.3 125.342 118.461 125.391 118.475 125.342Z" fill="#EFEFEF"/>
<path d="M134.4 125.342C135.023 125.202 135.646 125.083 136.276 124.992C136.472 124.992 136.374 124.824 134.442 122.514C135.513 122.22 135.688 122.255 135.569 122.122C130.956 117.264 122.01 111.188 121.772 111.202C116.396 111.44 110.054 114.485 108.99 119.791C107.369 118.875 105.594 118.261 103.754 117.978C104.746 114.766 104.717 111.324 103.67 108.129C110.306 102.529 111.3 96.8031 111.412 96.5861C123.312 93.3311 125.447 87.9551 123.578 79.7861C122.232 73.9883 119.257 68.6961 115.003 64.5331C114.954 59.9201 115.563 50.8131 112.413 41.3211C106.456 23.3451 92.5959 20.6921 92.2179 20.6291C91.8423 20.5768 91.463 20.5557 91.0839 20.5661C99.0499 8.80614 84.0209 5.72614 79.7789 10.5771C77.3569 13.3771 78.9599 17.3671 80.8359 20.7061C78.5889 21.0421 71.7359 22.5261 66.4509 29.8901C60.8999 37.6601 60.2349 48.3771 60.6619 58.8981C57.6449 56.7421 57.3019 56.5461 57.3509 56.7981C57.4839 57.3791 57.9879 59.6681 58.1489 60.2141L55.5169 58.5691C55.4539 58.5271 55.3909 58.5691 55.3979 58.6601C55.6289 59.8501 55.8949 61.0261 56.1469 62.2091C55.0993 61.8083 54.0315 61.4625 52.9479 61.1731C53.7599 62.8881 57.4559 70.4971 60.1789 76.0901C54.8869 75.8031 53.8299 69.0901 50.7849 65.6811C49.7217 64.4737 48.3225 63.611 46.7663 63.2032C45.21 62.7954 43.5675 62.8612 42.0489 63.3921C40.8659 61.4951 38.7799 62.1181 38.6399 63.3921C37.4779 61.6771 35.8399 61.0891 33.7889 60.9561C31.951 58.2391 30.2841 55.4103 28.7979 52.4861C28.7896 52.4716 28.7773 52.4598 28.7623 52.4523C28.7473 52.4448 28.7305 52.442 28.7139 52.4441C25.5429 53.0321 16.4289 54.6771 16.4429 54.6981C16.7929 55.4751 17.0309 56.0491 16.5619 56.7981C15.9529 57.7711 15.0429 56.7981 14.9519 56.6231C13.0619 53.5641 25.5289 76.4331 25.5989 76.4261C29.7989 76.3141 39.2349 74.8231 39.6409 74.7251C39.9064 74.6783 40.1557 74.5651 40.3656 74.3958C40.5754 74.2266 40.739 74.007 40.8411 73.7575C40.9431 73.508 40.9803 73.2366 40.9491 72.9689C40.918 72.7011 40.8195 72.4456 40.6629 72.2261L38.7519 69.0691C38.8665 68.8795 38.9649 68.6804 39.0459 68.4741C39.4379 69.6641 41.5239 70.1751 42.4969 68.3271C44.5969 68.3271 46.2139 69.9651 47.1239 71.7641C49.0069 75.5091 50.7849 87.1221 61.5579 86.2611C62.4673 86.2168 63.3645 86.0326 64.2179 85.7151C65.1489 91.7001 67.5359 102.921 72.7719 106.015C71.8899 108.185 71.7989 111.342 72.0719 113.666C73.7309 129.626 89.7889 131.278 97.2019 126.266C102.053 129.577 104.006 133.021 104.286 132.916C104.832 132.692 105.364 132.44 105.917 132.216C111.972 129.836 116.417 130.872 118.188 131.432C118.991 131.726 119.773 132.077 120.526 132.482C120.532 132.798 120.638 133.104 120.83 133.356C121.021 133.607 121.287 133.792 121.59 133.882C122.99 134.267 123.921 132.706 123.452 131.915C125.601 130.515 130.753 129.115 136.451 129.535C136.724 129.5 136.5 129.339 134.4 125.342ZM136.066 124.831C131.369 125.468 124.019 128.093 122.066 132.391C123.466 127.491 129.353 123.991 134.26 122.591C134.26 122.577 135.478 124.082 136.087 124.831H136.066ZM118.055 112.077C119.28 111.755 120.33 111.636 121.555 111.377C130.067 117.418 129.395 116.851 135.219 122.038C132.795 122.576 130.48 123.523 128.373 124.838C125.076 126.798 122.605 128.926 121.744 132.643C118.363 127.344 113.106 123.298 109.228 119.994C110.348 116.123 112.861 113.442 118.076 112.077H118.055ZM110.355 96.4811C105.868 95.9491 101.717 89.6071 103.992 88.0811C105.305 87.8052 106.589 87.4068 107.828 86.8911C107.296 89.6351 112.119 95.3331 115.262 94.8781C113.669 95.5214 112.034 96.057 110.369 96.4811H110.355ZM83.7549 90.1811C82.7959 90.6991 81.5009 89.6981 82.6769 87.5561C83.7199 85.6521 86.8279 83.4681 87.3459 85.9881C87.2359 85.9448 87.1205 85.9165 87.0029 85.9041C86.7773 85.9762 86.5611 86.0749 86.3589 86.1981C82.9919 87.9131 83.9439 90.0691 83.7969 90.1531L83.7549 90.1811ZM82.1869 85.0011C80.6609 85.2181 80.1709 85.9391 78.6869 85.4491C78.0092 85.2183 77.4165 84.7891 76.9859 84.2171C75.3969 82.5161 75.4039 80.1781 75.1799 78.5751C76.6745 78.6081 78.1698 78.5637 79.6599 78.4421C79.5333 79.8153 79.8055 81.1958 80.4439 82.4181C81.3749 84.0281 84.0909 85.2671 85.0989 84.3221C85.1046 84.5076 85.145 84.6904 85.2179 84.8611C84.8405 85.0401 84.4777 85.2484 84.1329 85.4841C83.1553 86.2475 82.4248 87.2824 82.0329 88.4591C81.3241 87.6017 80.6784 86.694 80.1009 85.7431C80.2479 85.7431 81.8439 85.2111 82.2009 85.0991C82.2176 85.1028 82.2351 85.0998 82.2495 85.0906C82.264 85.0814 82.2742 85.0668 82.2779 85.0501C82.2816 85.0334 82.2785 85.0159 82.2693 85.0015C82.2601 84.987 82.2456 84.9768 82.2289 84.9731L82.1869 85.0011ZM91.9449 61.0961C91.9449 61.5931 92.0289 61.9501 92.0149 62.4471C89.7609 63.1051 73.4369 68.2501 72.9189 68.4321C78.9827 65.2794 85.3779 62.8096 91.9869 61.0681L91.9449 61.0961ZM73.1219 68.0401C78.07 64.0469 83.7542 61.0644 89.8519 59.2621C89.8519 59.9621 89.9989 60.5571 90.0129 61.2711C84.2051 63.0064 78.5658 65.2626 73.1639 68.0121L73.1219 68.0401ZM76.6219 78.3721C76.6219 78.3021 73.8569 68.7541 73.7309 68.4881L93.7999 63.3571C93.8839 65.7861 94.3459 80.6611 94.3809 82.0541C94.3109 82.0541 85.0429 84.1541 85.0359 84.2241C84.7117 84.374 84.3569 84.4459 83.9999 84.4341C82.8857 84.2799 81.8541 83.7605 81.0669 82.9571C80.558 82.3041 80.1901 81.5527 79.9865 80.7502C79.7828 79.9477 79.7479 79.1118 79.8839 78.2951C79.9189 78.1621 80.0169 78.2531 76.6429 78.3441L76.6219 78.3721ZM74.9559 68.0051C75.4179 67.8441 93.0509 62.4821 93.5339 62.3491C93.5339 62.6431 93.6389 62.8111 93.6249 63.1051C87.9549 64.6661 75.2219 67.9351 74.9769 67.9771L74.9559 68.0051ZM73.1639 68.6071C72.9887 68.7457 72.7876 68.848 72.5724 68.908C72.3573 68.9679 72.1323 68.9844 71.9107 68.9564C71.6891 68.9283 71.4753 68.8564 71.2818 68.7447C71.0883 68.6331 70.919 68.484 70.7839 68.3061C70.7975 68.2953 70.8083 68.2814 70.8156 68.2656C70.8229 68.2498 70.8264 68.2325 70.8259 68.2151C70.9029 68.2641 71.7149 68.7191 72.0509 68.9151C72.4354 68.8351 72.8142 68.7298 73.1849 68.6001L73.1639 68.6071ZM73.5559 68.5231C73.6399 69.2231 76.3979 78.3231 76.4189 78.3791C75.9 78.3382 75.378 78.3617 74.8649 78.4491C74.9909 81.3471 75.7469 84.5461 78.4489 85.5961C78.7639 86.5481 77.0839 87.1991 76.2859 85.5961C75.9849 84.9661 71.3159 70.0141 70.8189 68.5371C70.9921 68.734 71.206 68.8909 71.4457 68.9971C71.6854 69.1033 71.9454 69.1562 72.2076 69.1522C72.4697 69.1483 72.7279 69.0874 72.9643 68.974C73.2007 68.8605 73.4097 68.6972 73.5769 68.4951L73.5559 68.5231ZM87.0099 85.9811C87.0099 85.9811 89.6209 87.0661 89.8869 87.1571C88.8019 87.2411 85.8759 90.7411 87.9059 93.2401C87.5699 93.0301 84.2449 90.9021 84.0069 90.3421C83.2579 88.5081 86.0299 86.4081 87.0309 85.9531L87.0099 85.9811ZM91.2659 87.5981C91.6842 87.7471 92.1154 87.8572 92.5539 87.9271C90.5099 88.5151 89.0539 93.2751 91.5739 95.1581C90.3369 94.6272 89.1413 94.0048 87.9969 93.2961C86.6949 91.1541 88.4799 86.3311 91.2869 87.5701L91.2659 87.5981ZM92.9319 88.0181C94.0214 88.2607 95.1248 88.436 96.2359 88.5431C93.9189 89.3201 93.5129 94.7311 96.1309 96.6631C94.7237 96.3317 93.3451 95.8893 92.0079 95.3401C89.5999 93.2821 90.5799 88.2001 92.9529 87.9901L92.9319 88.0181ZM96.3899 88.5571C97.4087 88.6551 98.4327 88.6902 99.4559 88.6621C97.4399 91.2101 99.7219 95.8301 101.962 97.4261C100.151 97.3753 98.3487 97.155 96.5789 96.7681C94.1149 95.1301 93.8699 89.2291 96.4109 88.5291L96.3899 88.5571ZM99.6099 88.6621C101.01 88.6158 102.403 88.4496 103.775 88.1651C101.675 89.8381 105.399 96.0051 110.04 96.5651C107.473 97.182 104.839 97.469 102.2 97.4191C97.4609 92.7781 99.3579 89.0471 99.6309 88.6341L99.6099 88.6621ZM115.871 94.6331C112.336 95.5291 108.234 89.3971 107.989 88.2421C107.91 87.7939 107.893 87.3369 107.94 86.8841C109.156 86.4077 110.265 85.6938 111.202 84.7841C111.566 89.3551 119.133 92.3021 121.198 91.2661C119.847 93.2191 115.913 94.5981 115.892 94.6051L115.871 94.6331ZM121.688 90.7131C121.44 90.961 121.138 91.1479 120.806 91.2591C119.098 91.7701 112.168 89.1591 111.307 84.6581C112.115 83.6777 112.603 82.4734 112.707 81.2071C114.338 84.8961 122.185 86.1981 123.718 83.1321C124.005 86.6951 123.13 88.9841 121.709 90.6851L121.688 90.7131ZM121.961 75.9221C121.261 77.8051 117.061 79.6251 112.861 77.8891C112.735 77.8331 112.707 78.0011 112.763 78.0291C116.704 79.8491 121.212 78.3581 122.038 76.1951C122.832 78.2953 123.37 80.4834 123.641 82.7121C122.906 85.7011 115.304 85.0641 112.679 81.1161C112.832 79.3397 112.48 77.5562 111.664 75.9711C112.021 75.5721 115.206 72.1561 119.847 71.4701C120.669 72.8891 121.382 74.368 121.982 75.8941L121.961 75.9221ZM119.791 71.3301C118.198 71.5095 116.657 72.0072 115.259 72.7936C113.862 73.5801 112.637 74.6392 111.657 75.9081C111.171 74.9338 110.559 74.0277 109.837 73.2131C109.886 72.8911 109.914 72.5691 109.977 72.2471C110.677 68.7471 114.24 65.6741 116.424 66.5001C117.696 67.9948 118.83 69.6021 119.812 71.3021L119.791 71.3301ZM116.214 66.2551C113.414 65.1561 109.76 69.8601 109.76 73.1291C109.142 72.4516 108.475 71.8199 107.765 71.2391C106.225 65.9331 109.914 62.8881 111.965 62.2091C113.514 63.4087 114.943 64.7542 116.235 66.2271L116.214 66.2551ZM105.217 69.6501C105.217 69.6921 106.89 70.8401 107.611 71.4071C106.869 73.5071 101.948 73.5071 102.172 67.5081C102.459 59.8571 108.36 57.9811 110.194 58.9681C110.601 59.1685 110.921 59.512 111.091 59.9329C111.262 60.3538 111.271 60.8227 111.118 61.2501C111.02 61.1871 109.767 60.3401 109.214 60.0251C107.984 60.7609 106.95 61.7812 106.197 63.0001C105.576 63.9778 105.168 65.0751 104.999 66.2208C104.83 67.3666 104.905 68.535 105.217 69.6501ZM105.532 69.5521C105.462 69.5101 103.726 64.5121 109.312 60.2561C110.229 60.8651 110.978 61.4041 111.846 62.0761C107.842 63.3641 106.197 68.1241 107.611 71.0641C106.951 70.5164 106.256 70.0113 105.532 69.5521ZM79.0999 15.2741C77.6579 7.06314 93.8489 6.74114 93.0439 15.3861C92.7779 18.2561 90.6849 20.5101 89.2219 22.8481C87.8779 24.9971 87.4509 25.1651 86.5199 25.3541C87.0449 23.8771 88.6619 17.8851 89.1099 16.3661C89.1266 16.3327 89.1293 16.294 89.1175 16.2586C89.1057 16.2231 89.0803 16.1938 89.0469 16.1771C89.0135 16.1604 88.9748 16.1577 88.9393 16.1695C88.9039 16.1813 88.8746 16.2067 88.8579 16.2401C88.7249 16.6741 88.5989 17.1081 88.4799 17.5491C87.6259 16.3451 88.2629 17.0171 86.9119 18.0531C85.9319 17.1781 85.7919 16.7161 85.6029 16.9821C85.3098 17.411 84.9693 17.8055 84.5879 18.1581C83.7269 18.2981 83.2999 17.1291 83.2509 16.9891C83.2019 16.8491 82.9989 16.9471 83.0269 17.0311C83.0549 17.1151 85.2389 25.1651 85.3439 25.4311C83.4399 25.3541 79.5829 18.0811 79.0999 15.2741ZM86.2539 25.6551C88.3539 25.4591 89.6139 22.7991 89.8799 22.4001C91.1749 22.9531 91.0699 26.3971 87.6609 27.3001C82.9569 28.5251 80.1289 24.6821 82.4319 23.1491C83.9089 25.1161 84.1119 25.8511 86.2469 25.6551H86.2539ZM85.5889 25.4591C85.5889 25.1511 83.9299 19.0961 83.5519 18.0461C84.5529 18.8861 84.9939 18.3471 85.7499 17.2761C86.0019 17.5421 86.8279 18.4451 86.9749 18.3331C87.3795 18.0306 87.7217 17.6526 87.9829 17.2201L88.4169 17.8011C88.1439 18.8021 86.3169 25.3961 86.3169 25.4031C86.0731 25.4351 85.8277 25.4538 85.5819 25.4591H85.5889ZM66.4999 31.0941C72.5899 21.6721 81.0739 21.4551 81.1999 21.3431C81.5419 21.9326 81.9231 22.4986 82.3409 23.0371C80.1779 23.9261 81.3259 29.0991 87.6679 27.7481C91.6369 26.9011 91.4549 22.6801 90.0409 22.1481C90.3699 21.6581 90.7409 21.1751 91.0419 20.6921C98.1399 22.0081 107.415 28.7771 111.643 40.3341C114.408 47.8941 114.793 56.1401 114.667 64.2111C113.575 63.1556 112.405 62.1845 111.167 61.3061C111.762 61.4811 111.699 57.9321 108.283 58.4081C106.434 58.7665 104.797 59.8311 103.719 61.3761C102.543 63.048 101.855 65.0133 101.731 67.0531C101.199 73.4301 106.799 74.0531 107.765 71.5471C112.476 75.3411 113.365 80.0311 111.874 83.1881C109.774 87.6471 99.4489 90.5591 87.5419 85.9881C87.5788 85.8251 87.5779 85.6557 87.539 85.4931C87.5002 85.3304 87.4245 85.1789 87.3179 85.0501C86.8139 84.3501 86.0719 84.4551 85.3019 84.7701C85.2338 84.6061 85.2005 84.4297 85.2039 84.2521C86.9119 83.9861 94.5139 82.3201 94.6329 82.2781C94.7519 82.2361 94.7029 82.1941 94.7029 82.1661C94.6399 79.6811 94.1639 64.4771 94.1499 63.0911C94.1849 63.0071 94.1499 62.8741 94.0029 62.9161L93.8769 62.9581C93.8769 61.5581 94.1639 61.7611 92.2599 62.3141C92.2599 60.7881 92.3649 60.5641 92.1549 60.6201C91.5249 60.7811 90.9019 60.9491 90.2789 61.1311C90.2789 60.4311 90.1669 59.6821 90.1389 58.9541C90.1382 58.9417 90.1348 58.9295 90.1289 58.9186C90.123 58.9076 90.1147 58.8981 90.1047 58.8907C90.0946 58.8833 90.083 58.8783 90.0708 58.8759C90.0585 58.8736 90.0459 58.874 90.0339 58.8771C83.5072 60.6942 77.4702 63.9495 72.3659 68.4041C72.2959 68.4461 66.1149 62.8881 61.0259 59.1501C61.3479 49.6371 61.0469 39.5501 66.4999 31.0941ZM57.5749 57.1131C61.6699 59.7591 70.5809 67.4171 71.3999 68.1521L58.4079 60.2631C58.3169 59.6751 57.6939 57.6381 57.5749 57.1131ZM55.7269 58.9471C60.2559 61.6911 70.2449 67.8161 70.2799 67.8441C68.1799 66.8361 56.7419 62.4051 56.5319 62.3281C56.2939 61.1731 55.9999 60.0951 55.7269 58.9471ZM53.3189 61.4391C55.5939 62.3631 70.5949 68.3621 70.6159 68.3621C71.5119 71.4211 75.8729 85.7011 76.2929 86.1911C76.0199 86.1071 63.9799 82.0961 63.5109 81.9911C63.4829 81.9001 53.3609 61.5091 53.3189 61.4391ZM15.3999 57.3371C16.1839 57.6521 17.0939 56.8401 17.0029 55.7971C18.1999 58.1001 25.8229 72.6601 26.3409 74.0951C26.3899 74.2211 26.4109 74.1861 27.4329 73.9971C27.4991 74.2518 27.5025 74.5189 27.4426 74.7752C27.3828 75.0314 27.2616 75.2694 27.0894 75.4684C26.9172 75.6675 26.6992 75.8217 26.4542 75.9178C26.2092 76.0139 25.9445 76.049 25.6829 76.0201C24.4999 73.4301 16.1489 58.5061 15.3999 57.3371ZM39.5849 74.4031C39.0599 74.5431 28.6929 76.0481 26.5299 76.1531C26.7512 76.0903 26.9568 75.9816 27.1334 75.834C27.3099 75.6865 27.4533 75.5034 27.5544 75.2967C27.6554 75.09 27.7118 74.8643 27.7198 74.6344C27.7278 74.4044 27.6873 74.1754 27.6009 73.9621C27.7479 73.9621 38.8429 71.9181 39.8929 72.0441C40.8169 72.1491 41.1879 73.9761 39.5989 74.4031H39.5849ZM40.0469 71.6941C39.6549 71.5261 27.3279 73.6541 26.5859 73.7941C25.6549 71.2951 16.8909 54.9781 16.7859 54.8241C19.9639 54.3061 27.7269 52.8081 28.6019 52.6541C30.0403 55.5054 31.6631 58.2599 33.4599 60.9001C32.3399 60.8441 30.8909 60.9421 29.5609 60.7951C29.5349 60.7951 29.51 60.8055 29.4916 60.8238C29.4732 60.8422 29.4629 60.8671 29.4629 60.8931C29.5889 62.1251 29.5889 63.3711 29.7219 64.6031C29.7219 64.6871 29.8969 64.7011 29.9109 64.7011C31.8989 64.7501 33.9569 64.0781 35.9169 64.7571C36.3579 65.6041 39.9349 71.5051 40.0609 71.6941H40.0469ZM36.2669 64.9461C36.4213 65.0317 36.5516 65.1548 36.6458 65.3041C36.74 65.4533 36.7951 65.624 36.8059 65.8001C36.5189 65.3311 36.3229 65.0091 36.2809 64.9461H36.2669ZM38.6189 68.8311L36.8899 65.9681C37.5899 63.6651 32.3469 64.3231 30.0019 64.4141C29.8829 63.2311 29.8549 62.3141 29.7359 61.1101C31.7799 61.3061 33.8659 60.9561 35.8399 61.6071C38.7799 62.5801 40.1449 65.5271 38.6329 68.8311H38.6189ZM42.4549 67.4871C41.9859 69.5871 39.8789 69.9301 39.0879 68.2711C39.3849 67.514 39.5094 66.7003 39.4525 65.889C39.3956 65.0777 39.1587 64.2893 38.7589 63.5811C38.7589 63.5111 39.4589 62.0201 40.6419 62.4471C42.2869 63.0001 42.7979 66.0171 42.4689 67.4871H42.4549ZM42.8329 68.1381C42.7303 68.1311 42.6274 68.1311 42.5249 68.1381C43.0849 66.8991 42.7209 64.6381 42.0769 63.4621C44.3869 62.7481 44.6459 67.0251 42.8469 68.1381H42.8329ZM43.0989 68.1381C44.3589 67.4941 44.7999 64.0081 42.9799 63.2381C44.4569 62.9511 45.6399 62.8531 46.0249 64.1061C46.5359 65.7371 45.7029 68.1381 44.0509 68.4181C43.751 68.2908 43.4356 68.2037 43.1129 68.1591L43.0989 68.1381ZM45.7379 69.5381C45.3174 69.1158 44.8302 68.7658 44.2959 68.5021C46.2909 68.5021 47.0959 64.2041 45.4509 63.1261C46.4491 63.2397 47.4163 63.5438 48.2999 64.0221C50.3159 65.8561 47.3969 70.2241 45.7519 69.5381H45.7379ZM45.8569 69.6851C47.2079 70.3851 50.3929 66.6191 48.6989 64.2461C49.8941 65.0011 50.8942 66.0276 51.6179 67.2421C51.6572 67.4738 51.6829 67.7075 51.6949 67.9421C51.6949 70.3291 49.2589 71.7431 46.9839 71.1551C46.6715 70.6234 46.298 70.13 45.8709 69.6851H45.8569ZM47.0329 71.2601C47.5999 71.4905 48.2175 71.5682 48.824 71.4854C49.4304 71.4026 50.0045 71.1622 50.489 70.7881C50.9736 70.4141 51.3515 69.9196 51.5852 69.3539C51.8189 68.7882 51.9002 68.1711 51.8209 67.5641C52.4579 68.6071 52.9899 69.7131 53.5709 70.7911C53.5519 71.0945 53.5121 71.3962 53.4519 71.6941C52.9269 73.7241 50.3999 74.9631 48.0549 73.5771C47.7913 72.7753 47.4539 71.9996 47.0469 71.2601H47.0329ZM48.0969 73.6891C50.3929 75.5091 53.6479 73.6891 53.6969 71.0851C54.1535 71.9545 54.6902 72.7794 55.2999 73.5491C55.2999 77.8541 50.8549 78.2881 48.9579 76.1881C48.5449 74.9841 48.4119 74.5291 48.1109 73.6891H48.0969ZM49.0559 76.3561C51.4359 79.3591 55.8249 76.9931 55.4889 73.7381C56.0136 74.3728 56.6265 74.9291 57.3089 75.3901C58.2819 79.3031 53.4939 81.5361 50.5679 79.5481C49.9854 78.5251 49.4846 77.4578 49.0699 76.3561H49.0559ZM50.7359 79.8561C53.9979 82.1451 58.4359 79.0161 57.4839 75.5441C58.0951 75.9277 58.7835 76.1715 59.4999 76.2581C60.5919 81.5501 56.2589 84.3641 53.8999 83.6361C52.6434 82.542 51.5787 81.2454 50.7499 79.8001L50.7359 79.8561ZM54.1029 83.8391C57.9669 84.8121 60.9209 79.4501 59.6399 76.3141C59.8472 76.3316 60.0556 76.3316 60.2629 76.3141C61.1309 78.0921 61.8869 79.6391 62.4189 80.7171C62.4161 81.7815 62.134 82.8265 61.6009 83.7478C61.0678 84.6691 60.3023 85.4343 59.3809 85.9671C57.4318 85.8636 55.5756 85.101 54.1169 83.8041L54.1029 83.8391ZM59.5979 85.9391C60.5246 85.4697 61.2943 84.7403 61.8127 83.8402C62.3312 82.94 62.5759 81.9082 62.5169 80.8711C63.3149 82.4951 63.0559 82.2011 63.7629 82.4321C63.8819 83.4261 64.0149 84.4131 64.1619 85.4001C62.6887 85.8458 61.1484 86.0282 59.6119 85.9391H59.5979ZM74.5079 102.9C74.2096 101.264 74.2525 99.5839 74.6339 97.9651C75.6909 94.3111 79.2889 91.9241 81.5499 95.6481C81.7879 96.0471 82.0189 96.4601 82.2499 96.8801C78.0079 97.7061 74.5709 102.809 74.5079 102.9ZM82.9569 102.732C75.3479 110.11 79.8419 119.028 81.8299 121.142C80.6749 119.959 73.8569 110.425 82.9149 102.627C82.9429 102.599 83.0059 102.683 82.9569 102.725V102.732ZM81.8999 95.5291C81.4419 94.6079 80.6513 93.8949 79.6879 93.5341C77.0979 92.8341 73.1359 95.8931 74.2279 103.334C74.0179 103.649 73.1429 105.147 72.9469 105.581C66.2619 101.283 65.2959 87.7591 64.4069 82.6421C67.2069 83.5731 77.6159 86.8841 77.9169 86.8421C78.1857 86.8021 78.4286 86.6594 78.5944 86.444C78.7602 86.2286 78.836 85.9573 78.8059 85.6871C79.1781 85.7971 79.5661 85.8444 79.9539 85.8271C80.604 86.8215 81.305 87.7818 82.0539 88.7041C81.9582 89.0518 81.9912 89.4224 82.1468 89.7477C82.3024 90.073 82.5702 90.3313 82.9009 90.4751C83.0717 90.5482 83.2598 90.5713 83.4433 90.5415C83.6267 90.5118 83.7979 90.4305 83.9369 90.3071C84.4689 91.7071 90.4889 94.8921 91.9659 95.5221C97.949 98.0405 104.604 98.4793 110.866 96.7681C108.269 106.197 98.1959 112.714 93.2119 113.127C85.9109 113.722 85.9039 107.674 85.5889 105.791C84.9998 102.173 83.7493 98.6942 81.8999 95.5291ZM87.4439 116.144C86.3729 114.744 85.9459 112.966 87.1499 111.657C88.4589 113.26 90.3489 113.757 92.3999 113.554C93.684 113.498 94.9539 113.262 96.1729 112.854C96.3224 113.771 96.2698 114.71 96.0189 115.605C94.2899 119.539 89.5999 118.881 87.4369 116.144H87.4439ZM106.344 131.593C105.644 131.856 104.973 132.192 104.342 132.594C103.152 130.872 101.591 129.605 100.079 128.058C98.3989 126.35 94.9549 124.446 93.0789 123.585L92.1689 123.081C93.0929 122.71 95.9349 121.576 96.6629 121.24C102.263 124.838 103.978 128.093 104.279 128.058C111.335 127.47 117.068 129.381 120.512 132.013C115.164 129.227 109.095 130.452 106.316 131.6L106.344 131.593ZM119 130.746C112.476 126.427 104.552 127.855 104.44 127.722C102.303 125.115 99.7509 122.878 96.8869 121.1C96.8918 121.09 96.8944 121.08 96.8944 121.069C96.8944 121.058 96.8918 121.047 96.8869 121.037C95.8372 120.318 94.7043 119.728 93.5129 119.28C95.7259 118.354 98.1022 117.882 100.501 117.892C102.9 117.901 105.272 118.393 107.478 119.336C108.01 119.56 108.346 119.798 108.878 119.98C108.878 119.98 112.602 123.13 114.31 124.656C116.98 127.016 119.382 129.665 121.471 132.552C120.706 131.873 119.879 131.268 119 130.746ZM120.736 132.496L121.919 133.154C122.311 132.759 122.725 132.385 123.158 132.034C123.188 132.194 123.187 132.358 123.154 132.516C123.121 132.675 123.057 132.826 122.965 132.961C122.874 133.095 122.757 133.21 122.622 133.299C122.486 133.388 122.334 133.449 122.174 133.48C122.015 133.51 121.851 133.509 121.692 133.476C121.533 133.443 121.382 133.379 121.248 133.287C121.114 133.196 120.999 133.079 120.91 132.943C120.821 132.808 120.759 132.656 120.729 132.496H120.736ZM122.024 132.818C122.406 131.996 122.916 131.24 123.536 130.578C125.846 128.156 130.893 126.154 134.26 125.384C134.96 126.658 135.597 127.939 136.241 129.227C131.6 128.681 124.334 129.941 122.017 132.818H122.024ZM19.3619 107.1C19.3509 107.095 19.339 107.092 19.3269 107.092C19.3148 107.092 19.3029 107.095 19.2919 107.1C19.2869 107.11 19.2844 107.121 19.2844 107.132C19.2844 107.143 19.2869 107.153 19.2919 107.163C19.2899 107.177 19.2909 107.191 19.2949 107.205C19.2989 107.218 19.3058 107.231 19.3151 107.242C19.3244 107.252 19.3359 107.261 19.3488 107.267C19.3617 107.272 19.3757 107.275 19.3899 107.275L21.6719 107.359C25.1719 107.499 31.1079 107.723 31.8639 107.723C31.8829 107.718 31.8996 107.706 31.9115 107.69C31.9234 107.675 31.9299 107.655 31.9299 107.636C31.9299 107.616 31.9234 107.597 31.9115 107.581C31.8996 107.565 31.8829 107.554 31.8639 107.548C30.8979 107.478 26.9639 107.324 20.0549 107.086L19.3619 107.1ZM27.9999 105.7L30.7299 105.777C30.7424 105.778 30.755 105.776 30.7668 105.772C30.7787 105.768 30.7896 105.762 30.7988 105.753C30.808 105.745 30.8153 105.734 30.8203 105.723C30.8253 105.711 30.8279 105.699 30.8279 105.686C30.8288 105.673 30.8272 105.66 30.8232 105.648C30.8191 105.636 30.8127 105.624 30.8042 105.615C30.7957 105.605 30.7854 105.597 30.7739 105.591C30.7623 105.585 30.7498 105.582 30.7369 105.581C27.9369 105.357 22.0289 105.224 18.4799 105.14H18.1999C16.7999 105.14 15.7499 105.084 15.3999 105.063C15.3825 105.063 15.3652 105.066 15.3494 105.073C15.3336 105.081 15.3197 105.092 15.3089 105.105C15.3003 105.121 15.2958 105.139 15.2958 105.158C15.2958 105.176 15.3003 105.194 15.3089 105.21C15.317 105.226 15.329 105.239 15.3437 105.249C15.3584 105.259 15.3753 105.265 15.3929 105.266C18.2699 105.42 24.3389 105.574 27.9999 105.7Z" fill="#EFEFEF"/>
<path d="M61.348 112.553C64.785 109.865 63.826 106.729 61.789 106.141C62.811 105.441 62.937 105.385 62.825 105.217C62.8064 105.189 62.7781 105.17 62.7457 105.162C62.7133 105.154 62.6791 105.159 62.65 105.175C59.787 105.462 58.905 101.787 61.663 99.54C61.6708 99.5322 61.677 99.5229 61.6813 99.5127C61.6855 99.5025 61.6877 99.4916 61.6877 99.4805C61.6877 99.4695 61.6855 99.4585 61.6813 99.4483C61.677 99.4381 61.6708 99.4288 61.663 99.421C61.6716 99.3985 61.6716 99.3735 61.663 99.351C61.6488 99.3341 61.6299 99.3218 61.6088 99.3155C61.5876 99.3093 61.5651 99.3095 61.544 99.316L55.391 98.931C55.888 98.637 56.028 98.616 56.049 98.392C56.07 98.168 55.062 97.657 55.566 96.096C55.7539 95.4336 56.0268 94.7983 56.378 94.206C58.282 93.24 58.226 93.219 58.198 93.114C58.1832 93.0616 58.1556 93.0138 58.1177 92.9747C58.0798 92.9356 58.0329 92.9065 57.981 92.89C53.032 92.54 36.344 91.749 36.281 91.798C25.081 96.425 13.748 101.955 13.181 102.431C11.879 103.495 11.634 105.609 11.648 106.358C4.19999 112.084 4.14399 112.168 3.81499 112.805C3.56826 113.297 3.49829 113.86 3.61681 114.397C3.73534 114.935 4.03515 115.416 4.46599 115.759C6.21599 117.054 8.16199 115.696 9.84199 117.607C10.142 117.935 10.3614 118.329 10.4829 118.756C10.6044 119.184 10.6246 119.634 10.542 120.071C7.67199 121.52 5.72599 121.856 6.17399 122.171C9.33799 123.368 8.44199 126.763 5.70499 127.54C5.67749 127.547 5.65301 127.562 5.63551 127.585C5.618 127.607 5.60848 127.634 5.60848 127.663C5.60848 127.691 5.618 127.718 5.63551 127.74C5.65301 127.763 5.67749 127.778 5.70499 127.785C5.81699 127.785 37.905 130.291 40.432 130.522C41.3282 130.635 42.2384 130.529 43.085 130.214C43.582 130.004 59.22 119.714 60.102 119.112C61.502 118.167 62.902 116.956 63.161 115.178C63.287 114.149 62.734 113.099 61.348 112.553ZM6.87399 122.199C6.94399 122.199 42.441 124.999 42.574 125.055C42.8345 125.107 43.0813 125.213 43.2984 125.366C43.5154 125.519 43.6979 125.716 43.834 125.944C44.604 127.561 43.659 129.759 41.034 130.242C40.285 130.2 10.808 127.897 6.29999 127.568C8.71499 126.441 9.31699 123.606 6.87399 122.199ZM8.90399 116.55C36.323 118.489 40.271 118.65 40.404 118.65C41.0107 118.81 41.5574 119.144 41.9771 119.61C42.3967 120.076 42.671 120.655 42.7662 121.275C42.8613 121.895 42.7733 122.53 42.5128 123.101C42.2523 123.671 41.8308 124.154 41.3 124.488C40.334 124.418 13.251 122.388 9.41499 122.087C11.291 121.009 11.424 117.887 8.90399 116.55ZM55.65 98.35C55.055 98.7 37.8 108.927 37.268 109.2C36.12 109.263 34.916 107.996 35.315 106.092C35.882 103.383 36.715 103.656 56.028 94.311C55.258 95.627 54.439 97.447 55.65 98.329V98.35ZM37.639 102.837H37.597C16.156 102.837 14.413 102.228 12.88 103.131C13.58 102.172 13.468 102.431 26.397 96.586C31.584 94.234 35.602 92.386 36.197 92.141C41.58 92.596 55.146 93.065 57.568 93.191C55.601 94.15 38.563 102.319 37.639 102.816V102.837ZM22.008 103.089C26.565 103.215 32.228 103.369 37.17 103.187C35.007 104.314 33.887 107.884 36.274 109.34C16.583 108.871 13.468 110.11 12.236 107.849C11.9332 107.26 11.8068 106.597 11.872 105.938C12.39 102.515 12.901 102.83 22.008 103.068V103.089ZM14.581 109.389C14.749 109.473 36.281 109.683 37.17 109.683C37.261 109.683 48.167 103.18 54.908 99.183C55.447 99.246 59.962 99.484 61.159 99.526C59.136 100.849 42.329 111.531 40.915 112.777C35.112 112.364 6.78299 111.769 6.70599 111.769C5.91321 111.716 5.12071 111.876 4.40999 112.231C4.89299 111.748 9.54099 108.206 11.585 106.631C11.767 108.5 13.3 109.606 14.581 109.396V109.389ZM62.111 105.525C59.927 106.925 42.7 117.936 41.895 118.44C40.754 117.999 39.935 117.481 39.795 115.941C39.501 112.77 41.846 112.7 60.9 99.953C58.737 102.2 59.815 105.434 62.111 105.532V105.525ZM42.385 123.9C43.568 122.255 43.204 119.602 41.251 118.65C41.951 118.65 40.873 119.574 51.359 112.756C55.622 110.061 60.823 106.771 61.495 106.309C61.8958 106.403 62.2653 106.599 62.5672 106.879C62.8691 107.159 63.093 107.512 63.217 107.905C64.099 110.586 60.942 112.574 58.597 114.17C54.747 116.809 45.052 122.451 42.385 123.9ZM40.936 118.363C21.469 117.075 6.15999 116.123 5.53699 115.969C5.18864 115.916 4.85835 115.78 4.57465 115.571C4.29096 115.362 4.0624 115.087 3.90871 114.77C3.75502 114.453 3.68084 114.103 3.69256 113.751C3.70428 113.399 3.80156 113.055 3.97599 112.749C4.23499 112.826 3.97599 112.049 6.70599 112.007C8.01499 112.007 37.177 112.819 40.698 112.952C38.871 114.884 39.305 117.397 40.936 118.391V118.363ZM8.79899 122.024C8.02899 121.975 7.39899 121.947 6.80399 121.919C7.71399 121.59 9.60399 120.799 10.36 120.407C10.0585 121.128 9.50313 121.713 8.79899 122.052V122.024ZM41.916 124.53C48.4858 120.938 54.8666 117.01 61.033 112.763C61.446 112.994 62.706 113.757 62.818 114.527C62.979 115.626 62.153 116.767 61.789 117.208C61.278 117.831 44.513 128.961 43.498 129.605C43.1284 129.838 42.7209 130.003 42.294 130.095C44.863 129.052 45.535 125.111 41.916 124.558V124.53Z" fill="#EFEFEF"/>
</svg>
