<svg width="158" height="67" viewBox="0 0 158 67" fill="none" xmlns="http://www.w3.org/2000/svg">
<g clip-path="url(#clip0_189_84)">
<path d="M63.7433 31.6242H64.0215L68.8555 42.3638H66.8954L66.5643 41.4655C66.5246 41.3598 66.3789 40.9899 66.1008 40.3559L65.4651 38.85H61.3992L59.8761 42.3638H59.0947L63.7566 31.6242H63.7433ZM65.2399 38.2819L63.452 34.0416L61.6243 38.2819H65.2399Z" fill="#EFEFEF"/>
<path d="M71.4513 31.8752H74.2193C75.5702 31.8752 76.6297 32.0073 77.3713 32.2583C78.4176 32.6017 79.2122 33.249 79.7817 34.1869C80.285 35.0191 80.5234 35.9834 80.5234 37.0666C80.5234 38.5329 80.0731 39.7482 79.1857 40.7257C78.1925 41.8222 76.6694 42.3638 74.6166 42.3638H71.4248V31.862L71.4513 31.8752ZM72.9479 41.5976C73.6101 41.7429 74.1531 41.809 74.6033 41.809C75.9013 41.809 76.9475 41.3466 77.7024 40.4219C78.4176 39.5633 78.7752 38.4669 78.7752 37.1327C78.7752 35.7985 78.4176 34.6757 77.7024 33.817C76.9343 32.9056 75.8748 32.4564 74.5504 32.4564C74.0868 32.4564 73.5571 32.5357 72.9611 32.681V41.5976H72.9479Z" fill="#EFEFEF"/>
<path d="M87.1852 42.6015H86.8939L82.2188 31.862H83.7948L87.4501 40.2106L90.8538 31.862H91.6219L87.172 42.6015H87.1852Z" fill="#EFEFEF"/>
<path d="M98.4424 31.6242C99.8992 31.6242 101.118 32.1658 102.084 33.2622C103.025 34.319 103.488 35.5739 103.488 37.0534C103.488 38.5329 103.012 39.8803 102.058 40.9371C101.065 42.0467 99.8198 42.6015 98.31 42.6015C96.8002 42.6015 95.5287 42.0599 94.5619 40.9635C93.6349 39.92 93.1846 38.6254 93.1846 37.0666C93.1846 35.4022 93.7541 34.0416 94.893 32.9848C95.8863 32.0733 97.065 31.611 98.4424 31.611V31.6242ZM98.2967 32.1922C97.3564 32.1922 96.6015 32.5357 96.032 33.2358C95.3168 34.1077 94.9725 35.3758 94.9725 37.0402C94.9725 38.7047 95.3433 40.0785 96.0717 40.9899C96.628 41.6901 97.3697 42.0467 98.31 42.0467C99.5417 42.0467 100.442 41.5315 101.025 40.488C101.489 39.669 101.727 38.5858 101.727 37.2648C101.727 35.8513 101.502 34.7285 101.065 33.8699C100.495 32.747 99.5681 32.1922 98.2967 32.1922Z" fill="#EFEFEF"/>
<path d="M112.481 41.7825C111.567 42.1788 110.693 42.377 109.845 42.377C108.097 42.377 106.746 41.7297 105.792 40.4483C105.077 39.484 104.72 38.3612 104.72 37.0534C104.72 36.0099 104.958 35.0455 105.422 34.1737C105.885 33.3019 106.534 32.6282 107.355 32.1394C108.176 31.6506 109.077 31.4129 110.07 31.4129C110.865 31.4129 111.554 31.5846 112.136 31.9412C112.838 32.3772 113.461 33.0641 113.977 33.9888L113.739 34.1473C113.116 33.2754 112.534 32.7074 112.017 32.4168C111.474 32.113 110.865 31.9677 110.189 31.9677C109.514 31.9677 108.865 32.1394 108.296 32.4961C107.09 33.2622 106.481 34.7813 106.481 37.0799C106.481 38.031 106.64 38.85 106.945 39.5501C107.249 40.2502 107.713 40.7918 108.335 41.1617C108.931 41.5183 109.633 41.7033 110.415 41.7033C110.931 41.7033 111.686 41.4259 112.653 40.8843V38.4669C112.653 38.2555 112.653 38.1366 112.613 38.1234C112.573 38.1102 112.56 38.0838 112.534 38.0574C112.375 37.7271 111.951 37.5554 111.262 37.5554V36.6439H114.176V40.8182C113.408 41.2541 112.825 41.5712 112.454 41.7957L112.481 41.7825Z" fill="#EFEFEF"/>
<path d="M121.129 31.6242H121.407L126.241 42.3638H124.281L123.95 41.4655C123.91 41.3598 123.765 40.9899 123.487 40.3559L122.851 38.85H118.785L117.262 42.3638H116.48L121.142 31.6242H121.129ZM122.626 38.2819L120.838 34.0416L119.01 38.2819H122.626Z" fill="#EFEFEF"/>
<path d="M128.837 31.8752H131.605C132.956 31.8752 134.015 32.0073 134.757 32.2583C135.803 32.6017 136.598 33.249 137.167 34.1869C137.671 35.0191 137.909 35.9834 137.909 37.0666C137.909 38.5329 137.459 39.7482 136.571 40.7257C135.578 41.8222 134.055 42.3638 132.002 42.3638H128.811V31.862L128.837 31.8752ZM130.334 41.5976C130.996 41.7429 131.539 41.809 131.989 41.809C133.287 41.809 134.333 41.3466 135.088 40.4219C135.803 39.5633 136.161 38.4669 136.161 37.1327C136.161 35.7985 135.803 34.6757 135.088 33.817C134.32 32.9056 133.261 32.4564 131.936 32.4564C131.473 32.4564 130.943 32.5357 130.347 32.681V41.5976H130.334Z" fill="#EFEFEF"/>
<path d="M144.359 31.6242C145.816 31.6242 147.035 32.1658 148.001 33.2622C148.942 34.319 149.405 35.5739 149.405 37.0534C149.405 38.5329 148.929 39.8803 147.975 40.9371C146.982 42.0467 145.737 42.6015 144.227 42.6015C142.717 42.6015 141.446 42.0599 140.479 40.9635C139.552 39.92 139.102 38.6254 139.102 37.0666C139.102 35.4022 139.671 34.0416 140.81 32.9848C141.803 32.0733 142.982 31.611 144.359 31.611V31.6242ZM144.2 32.1922C143.26 32.1922 142.505 32.5357 141.936 33.2358C141.221 34.1077 140.876 35.3758 140.876 37.0402C140.876 38.7047 141.247 40.0785 141.975 40.9899C142.532 41.6901 143.273 42.0467 144.214 42.0467C145.445 42.0467 146.346 41.5315 146.929 40.488C147.392 39.669 147.631 38.5858 147.631 37.2648C147.631 35.8513 147.406 34.7285 146.968 33.8699C146.399 32.747 145.472 32.1922 144.2 32.1922Z" fill="#EFEFEF"/>
<path d="M157.298 34.7946H156.835C156.636 33.6849 156.265 32.9716 155.722 32.6546C155.179 32.3375 154.636 32.1922 154.093 32.2187C153.616 32.2319 153.193 32.3904 152.822 32.681C152.424 32.998 152.226 33.3943 152.226 33.8567C152.226 34.1737 152.332 34.4643 152.557 34.7285C152.888 35.1116 153.643 35.6268 154.848 36.2741C155.682 36.7232 156.212 37.0138 156.451 37.1855C157.047 37.5818 157.457 38.0177 157.696 38.4801C157.881 38.8632 157.987 39.2595 157.987 39.6822C157.987 40.554 157.643 41.2674 156.967 41.8222C156.331 42.3373 155.563 42.6015 154.676 42.6015C154.371 42.6015 154.093 42.5883 153.842 42.5487C153.51 42.5091 153.153 42.4034 152.769 42.2317C152.385 42.0599 152.014 41.7033 151.643 41.1617C151.272 40.6201 151.087 39.8935 151.087 38.9689H151.55C151.55 39.669 151.656 40.1974 151.842 40.5408C152.08 41.0032 152.464 41.3598 152.981 41.6372C153.444 41.8882 153.961 42.0071 154.517 42.0071C155.073 42.0071 155.55 41.8618 155.947 41.5712C156.384 41.2541 156.61 40.8314 156.61 40.2898C156.61 39.7482 156.318 39.2198 155.735 38.7707C155.378 38.4933 154.782 38.1366 153.961 37.6875C153.14 37.2384 152.53 36.8685 152.16 36.5779C151.378 35.9702 150.994 35.2437 150.994 34.3983C150.994 33.5528 151.312 32.9188 151.934 32.3904C152.53 31.8884 153.246 31.6374 154.08 31.6374C155.034 31.6903 155.696 31.8752 156.093 32.1922C156.49 32.5093 156.755 32.8527 156.927 33.2358C157.139 33.7378 157.272 34.2662 157.298 34.8078V34.7946Z" fill="#EFEFEF"/>
<path d="M61.6504 15.7328H62.4318L68.8683 23.6059V15.7328H69.557V26.3931H69.2789L62.3391 17.9389V26.2214H61.6504V15.7196V15.7328Z" fill="#EFEFEF"/>
<path d="M79.702 26.2346H73.0801V15.7328H79.702V16.3009H74.5899V20.4487H78.8544V21.0168H74.5899V24.4777C74.5899 24.8344 74.5899 25.0325 74.5899 25.0722C74.6164 25.3099 74.7091 25.4817 74.868 25.5609C74.974 25.627 75.1726 25.6534 75.464 25.6534H79.7153V26.2214L79.702 26.2346Z" fill="#EFEFEF"/>
<path d="M87.0124 26.4724H86.721L82.0459 15.7328H83.6352L87.2905 24.0814L90.6942 15.7328H91.4623L87.0124 26.4724Z" fill="#EFEFEF"/>
<path d="M100.879 26.2346H94.2568V15.7328H100.879V16.3009H95.7666V20.4487H100.031V21.0168H95.7666V24.4777C95.7666 24.8344 95.7666 25.0325 95.7666 25.0722C95.7931 25.3099 95.8858 25.4817 96.0448 25.5609C96.1507 25.627 96.3494 25.6534 96.6407 25.6534H100.892V26.2214L100.879 26.2346Z" fill="#EFEFEF"/>
<path d="M109.448 18.6654H108.984C108.785 17.5558 108.415 16.8425 107.872 16.5254C107.329 16.2084 106.786 16.0631 106.243 16.0895C105.766 16.1027 105.342 16.2612 104.971 16.5519C104.574 16.8689 104.375 17.2652 104.375 17.7275C104.375 18.0446 104.481 18.3352 104.706 18.5994C105.037 18.9825 105.792 19.4976 106.998 20.1449C107.832 20.594 108.362 20.8847 108.6 21.0564C109.196 21.4527 109.607 21.8886 109.845 22.3509C110.03 22.734 110.136 23.1303 110.136 23.553C110.136 24.4249 109.792 25.1382 109.117 25.693C108.481 26.2082 107.713 26.4724 106.825 26.4724C106.521 26.4724 106.243 26.4592 105.991 26.4196C105.66 26.3799 105.302 26.2742 104.918 26.1025C104.534 25.9308 104.163 25.5741 103.793 25.0325C103.422 24.4909 103.236 23.7644 103.236 22.8397H103.7C103.7 23.5398 103.806 24.0682 103.991 24.4117C104.23 24.874 104.614 25.2307 105.13 25.5081C105.594 25.7591 106.11 25.878 106.666 25.878C107.223 25.878 107.699 25.7326 108.097 25.442C108.534 25.125 108.759 24.7023 108.759 24.1607C108.759 23.6191 108.468 23.0907 107.885 22.6416C107.527 22.3642 106.931 22.0075 106.11 21.5584C105.289 21.1092 104.68 20.7394 104.309 20.4487C103.528 19.8411 103.144 19.1145 103.144 18.2691C103.144 17.4237 103.461 16.7896 104.084 16.2612C104.68 15.7593 105.395 15.5083 106.229 15.5083C107.183 15.5611 107.845 15.7461 108.242 16.0631C108.64 16.3801 108.905 16.7236 109.077 17.1067C109.289 17.6086 109.421 18.137 109.448 18.6786V18.6654Z" fill="#EFEFEF"/>
<path d="M60.7767 51.5974L60.0747 53.5128H59.6377L61.6773 47.9647H62.1805L64.3128 53.5128H63.8493L63.1208 51.5974H60.7767ZM62.9752 51.2011C62.3527 49.5499 62.0348 48.7573 61.9289 48.3874C61.7965 48.8101 61.4389 49.7877 60.9356 51.2011H62.9884H62.9752Z" fill="#EFEFEF"/>
<path d="M65.3726 52.0333C65.5448 52.7731 66.0348 53.209 66.9486 53.209C67.9684 53.209 68.3525 52.707 68.3525 52.0994C68.3525 51.4917 68.0744 51.0822 66.8559 50.7784C65.6772 50.4878 65.1739 50.1047 65.1739 49.2989C65.1739 48.5724 65.7037 47.8854 66.8956 47.8854C68.0876 47.8854 68.6306 48.6252 68.7101 49.2989H68.273C68.1406 48.7045 67.7565 48.2817 66.8824 48.2817C66.0745 48.2817 65.6375 48.6516 65.6375 49.2725C65.6375 49.8933 66.0083 50.1179 67.0281 50.3689C68.5909 50.752 68.816 51.386 68.816 52.0465C68.816 52.8655 68.22 53.5657 66.9354 53.5657C65.5448 53.5657 65.0415 52.7599 64.9355 52.0201H65.3726V52.0333Z" fill="#EFEFEF"/>
<path d="M70.0874 52.0333C70.2596 52.7731 70.7496 53.209 71.6635 53.209C72.6832 53.209 73.0673 52.707 73.0673 52.0994C73.0673 51.4917 72.7892 51.0822 71.5708 50.7784C70.3921 50.4878 69.8888 50.1047 69.8888 49.2989C69.8888 48.5724 70.4185 47.8854 71.6105 47.8854C72.8024 47.8854 73.3454 48.6252 73.4249 49.2989H72.9879C72.8554 48.7045 72.4713 48.2817 71.5972 48.2817C70.7894 48.2817 70.3523 48.6516 70.3523 49.2725C70.3523 49.8933 70.7231 50.1179 71.7429 50.3689C73.3057 50.752 73.5309 51.386 73.5309 52.0465C73.5309 52.8655 72.9349 53.5657 71.6502 53.5657C70.2596 53.5657 69.7563 52.7599 69.6504 52.0201H70.0874V52.0333Z" fill="#EFEFEF"/>
<path d="M79.4378 50.6991C79.4378 52.2183 78.63 53.5921 76.9083 53.5921C75.3455 53.5921 74.4316 52.3371 74.4316 50.7388C74.4316 49.1404 75.319 47.8854 76.9612 47.8854C78.4843 47.8854 79.4246 49.0875 79.4246 50.6991H79.4378ZM74.8952 50.7256C74.8952 52.0069 75.5971 53.209 76.9347 53.209C78.3783 53.209 78.9743 52.0333 78.9743 50.7256C78.9743 49.4178 78.2856 48.3082 76.948 48.3082C75.5176 48.3082 74.8952 49.4838 74.8952 50.7388V50.7256Z" fill="#EFEFEF"/>
<path d="M84.8536 52.0333C84.5888 52.9184 83.9398 53.5789 82.7611 53.5789C81.1586 53.5789 80.3242 52.3107 80.3242 50.752C80.3242 49.1932 81.1453 47.8854 82.7743 47.8854C83.9795 47.8854 84.6815 48.5459 84.8669 49.4838H84.4431C84.1914 48.7705 83.7147 48.2817 82.7611 48.2817C81.3837 48.2817 80.801 49.5367 80.801 50.7388C80.801 51.9409 81.3705 53.1826 82.7876 53.1826C83.6882 53.1826 84.1517 52.7202 84.4298 52.0333H84.8536Z" fill="#EFEFEF"/>
<path d="M86.4834 47.9779V53.526H86.0596V47.9779H86.4834Z" fill="#EFEFEF"/>
<path d="M88.6419 51.5974L87.94 53.5128H87.5029L89.5425 47.9647H90.0458L92.178 53.5128H91.7145L90.9861 51.5974H88.6419ZM90.8404 51.2011C90.2179 49.5499 89.9001 48.7573 89.7941 48.3874C89.6617 48.8101 89.3041 49.7877 88.8008 51.2011H90.8536H90.8404Z" fill="#EFEFEF"/>
<path d="M93.1582 47.9779H94.9991C96.5222 47.9779 97.5817 49.0347 97.5817 50.6991C97.5817 52.3636 96.5487 53.5128 94.9859 53.5128H93.1582V47.9647V47.9779ZM93.582 53.1165H94.9196C96.3897 53.1165 97.1181 52.0862 97.1181 50.7123C97.1181 49.497 96.4692 48.361 94.9196 48.361H93.582V53.1165Z" fill="#EFEFEF"/>
<path d="M103.475 50.6991C103.475 52.2183 102.667 53.5921 100.945 53.5921C99.3826 53.5921 98.4688 52.3371 98.4688 50.7388C98.4688 49.1404 99.3561 47.8854 100.998 47.8854C102.521 47.8854 103.462 49.0875 103.462 50.6991H103.475ZM98.9323 50.7256C98.9323 52.0069 99.6342 53.209 100.972 53.209C102.415 53.209 103.011 52.0333 103.011 50.7256C103.011 49.4178 102.323 48.3082 100.985 48.3082C99.5548 48.3082 98.9323 49.4838 98.9323 50.7388V50.7256Z" fill="#EFEFEF"/>
<path d="M104.72 52.0333C104.892 52.7731 105.382 53.209 106.296 53.209C107.316 53.209 107.7 52.707 107.7 52.0994C107.7 51.4917 107.422 51.0822 106.204 50.7784C105.025 50.4878 104.522 50.1047 104.522 49.2989C104.522 48.5724 105.051 47.8854 106.243 47.8854C107.435 47.8854 107.978 48.6252 108.058 49.2989H107.621C107.488 48.7045 107.104 48.2817 106.23 48.2817C105.422 48.2817 104.985 48.6516 104.985 49.2725C104.985 49.8933 105.356 50.1179 106.376 50.3689C107.939 50.752 108.164 51.386 108.164 52.0465C108.164 52.8655 107.568 53.5657 106.283 53.5657C104.892 53.5657 104.389 52.7599 104.283 52.0201H104.72V52.0333Z" fill="#EFEFEF"/>
<path d="M0.490234 37.5554L3.60256 34.4511" stroke="#EFEFEF" stroke-width="0.5" stroke-miterlimit="10"/>
<path d="M0.238281 31.0958L3.76116 34.7681" stroke="#EFEFEF" stroke-width="0.5" stroke-miterlimit="10"/>
<path d="M8.78013 37.5554H0.34375" stroke="#EFEFEF" stroke-width="0.5" stroke-miterlimit="10"/>
<path d="M0.463867 31.2015L8.95322 31.1222" stroke="#EFEFEF" stroke-width="0.5" stroke-miterlimit="10"/>
<path d="M8.70117 31.0562L10.7805 33.4604" stroke="#EFEFEF" stroke-width="0.5" stroke-miterlimit="10"/>
<path d="M42.4467 33.4868H10.5156" stroke="#EFEFEF" stroke-width="0.5" stroke-miterlimit="10"/>
<path d="M8.55566 37.6215L10.8336 35.6532" stroke="#EFEFEF" stroke-width="0.5" stroke-miterlimit="10"/>
<path d="M10.5156 35.6532L17.2171 35.64" stroke="#EFEFEF" stroke-width="0.5" stroke-miterlimit="10"/>
<path d="M17.7598 35.5864V35.5739" stroke="#EFEFEF" stroke-width="0.5" stroke-miterlimit="10"/>
<path d="M42.4072 37.3308L42.4472 31.2808" stroke="#EFEFEF" stroke-width="0.5" stroke-miterlimit="10"/>
<path d="M47.8763 34.4247L42.4463 31.5582" stroke="#EFEFEF" stroke-width="0.5" stroke-miterlimit="10"/>
<path d="M47.6644 34.319L42.4463 36.9874" stroke="#EFEFEF" stroke-width="0.5" stroke-miterlimit="10"/>
<path d="M9.80078 64.0146C22.8196 64.0146 33.3617 51.32 33.3617 35.6532C33.3617 19.9864 22.8063 7.2918 9.80078 7.2918" stroke="#EFEFEF" stroke-width="0.5" stroke-miterlimit="10"/>
<path d="M42.4067 35.6268H17.124" stroke="#EFEFEF" stroke-width="0.5" stroke-miterlimit="10"/>
<path d="M51.7041 0V67" stroke="#EFEFEF" stroke-width="0.5" stroke-miterlimit="10"/>
</g>
<defs>
<clipPath id="clip0_189_84">
<rect width="158" height="67" fill="white"/>
</clipPath>
</defs>
</svg>
