<svg width="37" height="47" viewBox="0 0 37 47" fill="none" xmlns="http://www.w3.org/2000/svg">
<mask id="path-1-outside-1_65_9" maskUnits="userSpaceOnUse" x="-1" y="-2" width="39" height="50" fill="black">
<rect fill="white" x="-1" y="-2" width="39" height="50"/>
<path d="M36.5 28.3438C31.25 41.1875 18.875 33.4062 18.875 33.4062C15.125 41.0938 8.84375 46.0625 1.625 46.0625C0.125 46.0625 0.03125 43.7188 1.625 43.7188C7.625 43.7188 12.875 39.7812 16.3438 33.4062C12.5 34.9062 5.1875 36.0312 1.15625 25.7188C11.375 21.5 16.1562 26.75 17.9375 30.0312C18.875 27.6875 19.5312 25.25 19.9062 22.5312C19.9062 22.5312 6.875 24.5938 5.9375 13.3438C17.0938 8.84375 20.1875 20.5625 20.1875 20.5625C20.375 18.9688 20.5625 15.5938 20.5625 15.5C20.5625 15.5 10.5312 8.5625 17 0.03125C28.625 4.0625 22.7188 15.2188 22.7188 15.2188C22.8125 15.4062 22.8125 17.4688 22.7188 18.4062C22.7188 18.4062 26.9375 10.0625 35.4688 12.9688C35.0938 25.5312 22.25 23 22.25 23C21.7812 25.5312 21.125 27.9688 20.375 30.2188C20.375 30.2188 28.1562 21.5938 36.5 28.3438Z"/>
</mask>
<path d="M36.5 28.3438L37.4257 28.7221L37.707 28.0339L37.1289 27.5663L36.5 28.3438ZM18.875 33.4062L19.4073 32.5597L18.4645 31.9669L17.9762 32.9678L18.875 33.4062ZM16.3438 33.4062L17.2221 33.8842L18.5306 31.4794L15.9802 32.4747L16.3438 33.4062ZM1.15625 25.7188L0.774648 24.7944L-0.132386 25.1689L0.224882 26.0828L1.15625 25.7188ZM17.9375 30.0312L17.0586 30.5083L18.0749 32.3804L18.866 30.4026L17.9375 30.0312ZM19.9062 22.5312L20.8969 22.6679L21.081 21.3329L19.7499 21.5435L19.9062 22.5312ZM5.9375 13.3438L5.56342 12.4164L4.87973 12.6921L4.94095 13.4268L5.9375 13.3438ZM20.1875 20.5625L19.2206 20.8178L21.1806 20.6793L20.1875 20.5625ZM20.5625 15.5H21.5625V14.9757L21.1313 14.6775L20.5625 15.5ZM17 0.03125L17.3276 -0.913555L16.6418 -1.1514L16.2032 -0.572945L17 0.03125ZM22.7188 15.2188L21.835 14.7509L21.5942 15.2057L21.8243 15.666L22.7188 15.2188ZM22.7188 18.4062L21.7237 18.3067L23.6112 18.8575L22.7188 18.4062ZM35.4688 12.9688L36.4683 12.9986L36.4903 12.2603L35.7912 12.0222L35.4688 12.9688ZM22.25 23L22.4434 22.0189L21.4509 21.8233L21.2667 22.8179L22.25 23ZM20.375 30.2188L19.4263 29.9025L21.1175 30.8886L20.375 30.2188ZM35.5743 27.9654C34.3298 31.01 32.7056 32.7376 31.0379 33.6834C29.3622 34.6337 27.5405 34.8524 25.809 34.6955C24.0722 34.5381 22.4665 34.0054 21.2823 33.5013C20.6935 33.2506 20.2173 33.0106 19.891 32.835C19.7281 32.7473 19.6031 32.6759 19.5208 32.6277C19.4797 32.6036 19.4492 32.5853 19.4301 32.5737C19.4205 32.5679 19.4138 32.5637 19.41 32.5614C19.4081 32.5602 19.4069 32.5594 19.4064 32.5592C19.4062 32.559 19.4062 32.559 19.4063 32.5591C19.4064 32.5591 19.4066 32.5593 19.4067 32.5593C19.407 32.5595 19.4073 32.5597 18.875 33.4062C18.3427 34.2528 18.3431 34.2531 18.3436 34.2534C18.3438 34.2535 18.3444 34.2539 18.3448 34.2541C18.3457 34.2547 18.3468 34.2554 18.3481 34.2562C18.3506 34.2578 18.3539 34.2598 18.358 34.2623C18.3661 34.2673 18.3772 34.2742 18.3912 34.2827C18.4192 34.2997 18.4589 34.3236 18.5097 34.3533C18.6113 34.4128 18.7573 34.4961 18.943 34.596C19.314 34.7958 19.8455 35.0633 20.4989 35.3415C21.7991 35.895 23.6153 36.5049 25.6285 36.6873C27.647 36.8703 29.9034 36.626 32.0246 35.4231C34.1538 34.2155 36.0452 32.0994 37.4257 28.7221L35.5743 27.9654ZM17.9762 32.9678C14.3318 40.4389 8.33788 45.0625 1.625 45.0625V47.0625C9.34962 47.0625 15.9182 41.7486 19.7738 33.8447L17.9762 32.9678ZM1.625 45.0625C1.57019 45.0625 1.54496 45.0524 1.53792 45.0492C1.53035 45.0458 1.524 45.0415 1.5163 45.0329C1.49647 45.0105 1.4663 44.9536 1.46464 44.8706C1.46299 44.788 1.49027 44.7481 1.4949 44.7428C1.49557 44.742 1.49678 44.7399 1.50546 44.7362C1.51474 44.7321 1.5499 44.7188 1.625 44.7188V42.7188C0.960832 42.7188 0.384895 42.9733 -0.0114994 43.4272C-0.390664 43.8613 -0.545023 44.4073 -0.534956 44.9106C-0.515055 45.9057 0.204592 47.0625 1.625 47.0625V45.0625ZM1.625 44.7188C8.11167 44.7188 13.6445 40.4592 17.2221 33.8842L15.4654 32.9283C12.1055 39.1033 7.13833 42.7188 1.625 42.7188V44.7188ZM15.9802 32.4747C14.1535 33.1875 11.6101 33.7642 9.10031 33.0322C6.65041 32.3176 4.01739 30.2913 2.08762 25.3547L0.224882 26.0828C2.32636 31.4587 5.36521 34.0261 8.54031 34.9522C11.6555 35.8608 14.6902 35.125 16.7073 34.3378L15.9802 32.4747ZM1.53785 26.6431C6.44914 24.6155 9.90944 24.914 12.3055 25.9766C14.7322 27.0528 16.232 28.9856 17.0586 30.5083L18.8164 29.5542C17.8617 27.7957 16.0803 25.4628 13.1163 24.1484C10.1218 22.8204 6.08211 22.6033 0.774648 24.7944L1.53785 26.6431ZM18.866 30.4026C19.8339 27.9828 20.5109 25.4664 20.8969 22.6679L18.9156 22.3946C18.5516 25.0336 17.9161 27.3922 17.009 29.6599L18.866 30.4026ZM19.9062 22.5312C19.7499 21.5435 19.7503 21.5435 19.7506 21.5434C19.7506 21.5434 19.7509 21.5434 19.751 21.5434C19.7511 21.5434 19.7511 21.5434 19.7509 21.5434C19.7504 21.5435 19.7492 21.5437 19.7472 21.544C19.7432 21.5446 19.7361 21.5456 19.7261 21.5471C19.7061 21.5499 19.6744 21.5544 19.6316 21.5599C19.5459 21.571 19.4163 21.5864 19.2488 21.6025C18.9135 21.6347 18.4282 21.6695 17.8413 21.6778C16.6613 21.6946 15.1001 21.6041 13.5286 21.1894C11.9571 20.7746 10.422 20.0486 9.23174 18.8274C8.05543 17.6205 7.15103 15.8646 6.93405 13.2607L4.94095 13.4268C5.19272 16.4479 6.26879 18.6529 7.79951 20.2234C9.31631 21.7796 11.2148 22.6472 13.0183 23.1231C14.8217 23.5991 16.577 23.696 17.8697 23.6776C18.519 23.6684 19.0592 23.6299 19.4402 23.5933C19.6308 23.575 19.7821 23.5571 19.8878 23.5434C19.9407 23.5366 19.9822 23.5308 20.0115 23.5266C20.0262 23.5245 20.0379 23.5227 20.0464 23.5214C20.0507 23.5208 20.0542 23.5203 20.0569 23.5198C20.0582 23.5196 20.0594 23.5195 20.0603 23.5193C20.0608 23.5192 20.0614 23.5191 20.0616 23.5191C20.0621 23.519 20.0626 23.519 19.9062 22.5312ZM6.31158 14.2711C8.94037 13.2108 11.0082 13.1375 12.6275 13.5432C14.2529 13.9505 15.5231 14.8649 16.5086 15.941C17.4985 17.0218 18.1814 18.2456 18.6184 19.2133C18.8356 19.6942 18.9886 20.1044 19.0864 20.3908C19.1352 20.5338 19.1701 20.6454 19.1921 20.719C19.2031 20.7557 19.2109 20.7829 19.2156 20.7996C19.218 20.808 19.2195 20.8138 19.2204 20.8168C19.2208 20.8184 19.221 20.8192 19.2211 20.8194C19.2211 20.8195 19.2211 20.8194 19.221 20.8191C19.2209 20.819 19.2209 20.8186 19.2208 20.8186C19.2207 20.8182 19.2206 20.8178 20.1875 20.5625C21.1544 20.3072 21.1542 20.3067 21.1541 20.3062C21.154 20.3059 21.1539 20.3053 21.1537 20.3048C21.1535 20.3039 21.1532 20.3027 21.1528 20.3014C21.1521 20.2987 21.1512 20.2953 21.1501 20.2912C21.1478 20.283 21.1448 20.2721 21.141 20.2584C21.1333 20.2311 21.1223 20.193 21.108 20.145C21.0792 20.0491 21.0367 19.9133 20.9792 19.7447C20.8642 19.4078 20.6884 18.9376 20.4412 18.3902C19.9495 17.3013 19.1617 15.8766 17.9836 14.5902C16.8011 13.2991 15.2061 12.1276 13.1137 11.6032C11.0153 11.0774 8.51276 11.2267 5.56342 12.4164L6.31158 14.2711ZM21.1806 20.6793C21.3714 19.0582 21.5625 15.6428 21.5625 15.5H19.5625C19.5625 15.4855 19.5539 15.669 19.5319 16.0487C19.5116 16.4006 19.4825 16.8781 19.4475 17.4022C19.3772 18.4578 19.2848 19.6769 19.1943 20.4457L21.1806 20.6793ZM20.5625 15.5C21.1313 14.6775 21.1316 14.6777 21.1319 14.6779C21.1319 14.678 21.1322 14.6781 21.1323 14.6782C21.1324 14.6783 21.1325 14.6783 21.1323 14.6782C21.1321 14.6781 21.1312 14.6775 21.1298 14.6765C21.1269 14.6744 21.1217 14.6708 21.1143 14.6655C21.0995 14.6549 21.0758 14.6379 21.0441 14.6145C20.9805 14.5678 20.8848 14.4959 20.7634 14.4C20.5201 14.2082 20.1751 13.922 19.7786 13.5518C18.9816 12.8076 17.9977 11.7439 17.2104 10.4461C16.4236 9.14916 15.8545 7.65469 15.8275 6.03074C15.8008 4.42391 16.3027 2.60601 17.7968 0.635445L16.2032 -0.572945C14.463 1.72211 13.793 3.97062 13.8278 6.06399C13.8623 8.14024 14.5882 9.97975 15.5005 11.4835C16.4124 12.9866 17.5321 14.1904 18.4137 15.0136C18.8566 15.4272 19.2448 15.7495 19.5249 15.9704C19.665 16.081 19.7785 16.1664 19.8588 16.2255C19.8989 16.255 19.9308 16.278 19.9535 16.2942C19.9649 16.3023 19.974 16.3087 19.9807 16.3134C19.9841 16.3158 19.9869 16.3177 19.989 16.3192C19.9901 16.32 19.991 16.3206 19.9918 16.3212C19.9922 16.3214 19.9927 16.3218 19.9929 16.3219C19.9933 16.3222 19.9937 16.3225 20.5625 15.5ZM16.6724 0.976055C19.4131 1.92648 21.0288 3.26175 21.9672 4.66177C22.9096 6.06769 23.2295 7.62932 23.2188 9.1296C23.2081 10.6361 22.8633 12.0473 22.5119 13.0945C22.3373 13.6148 22.1639 14.037 22.0357 14.3261C21.9717 14.4704 21.9192 14.5809 21.8838 14.6533C21.8661 14.6895 21.8528 14.7161 21.8444 14.7326C21.8402 14.7408 21.8372 14.7465 21.8356 14.7495C21.8348 14.7511 21.8344 14.752 21.8343 14.7522C21.8342 14.7523 21.8342 14.7522 21.8343 14.752C21.8344 14.7519 21.8346 14.7516 21.8346 14.7516C21.8348 14.7512 21.835 14.7509 22.7188 15.2188C23.6025 15.6866 23.6028 15.6862 23.603 15.6857C23.6032 15.6855 23.6035 15.6849 23.6037 15.6845C23.6042 15.6836 23.6047 15.6825 23.6054 15.6812C23.6067 15.6788 23.6083 15.6756 23.6103 15.6718C23.6143 15.6641 23.6197 15.6537 23.6263 15.6407C23.6396 15.6147 23.6579 15.5781 23.6807 15.5316C23.7261 15.4386 23.7892 15.3056 23.8639 15.1369C24.0133 14.8001 24.2105 14.3193 24.408 13.7307C24.8008 12.5601 25.206 10.9303 25.2187 9.14384C25.2315 7.35115 24.8482 5.36786 23.6285 3.54819C22.4048 1.72263 20.3994 0.151643 17.3276 -0.913555L16.6724 0.976055ZM21.8243 15.666C21.7902 15.5977 21.7734 15.5426 21.7672 15.5214C21.7596 15.4955 21.7559 15.4773 21.7547 15.4713C21.7524 15.4598 21.7534 15.4623 21.7561 15.4857C21.7613 15.5312 21.7674 15.6066 21.7727 15.714C21.7833 15.9258 21.7891 16.2125 21.7891 16.5312C21.7891 17.1758 21.7657 17.8872 21.7237 18.3067L23.7138 18.5058C23.7656 17.9878 23.7891 17.1992 23.7891 16.5312C23.7891 16.1938 23.7831 15.8711 23.7702 15.6141C23.7639 15.4872 23.7553 15.3634 23.7429 15.2565C23.7368 15.2037 23.7284 15.1418 23.7158 15.079C23.7079 15.0393 23.6821 14.9094 23.6132 14.7715L21.8243 15.666ZM22.7188 18.4062C23.6112 18.8575 23.611 18.8579 23.6108 18.8582C23.6108 18.8583 23.6106 18.8586 23.6105 18.8588C23.6104 18.8591 23.6103 18.8592 23.6102 18.8593C23.6102 18.8594 23.6104 18.859 23.6108 18.8582C23.6117 18.8564 23.6136 18.8528 23.6165 18.8473C23.6223 18.8362 23.6321 18.8178 23.6459 18.7925C23.6735 18.7419 23.7171 18.6641 23.7767 18.5637C23.8959 18.3628 24.0783 18.0729 24.3237 17.731C24.8165 17.0444 25.5517 16.1644 26.525 15.3739C28.4447 13.8148 31.2794 12.598 35.1463 13.9153L35.7912 12.0222C31.1269 10.4332 27.5865 11.9352 25.2641 13.8214C24.1163 14.7536 23.2636 15.7779 22.6988 16.5649C22.4153 16.9598 22.2015 17.2991 22.0567 17.5431C21.9842 17.6652 21.9289 17.7638 21.8905 17.834C21.8714 17.8691 21.8564 17.8972 21.8457 17.9175C21.8404 17.9277 21.8361 17.936 21.8329 17.9423C21.8313 17.9454 21.8299 17.948 21.8288 17.9502C21.8283 17.9512 21.8278 17.9522 21.8274 17.953C21.8272 17.9534 21.8269 17.9539 21.8268 17.9541C21.8266 17.9546 21.8263 17.955 22.7188 18.4062ZM34.4692 12.9389C34.3807 15.9019 33.5634 17.8736 32.4725 19.201C31.3764 20.5348 29.9317 21.3057 28.4422 21.7343C26.9472 22.1645 25.4427 22.2386 24.2966 22.1998C23.7271 22.1805 23.255 22.1336 22.9286 22.0922C22.7656 22.0715 22.6395 22.0522 22.5565 22.0386C22.515 22.0318 22.4843 22.0264 22.4652 22.0229C22.4556 22.0212 22.449 22.0199 22.4453 22.0192C22.4434 22.0189 22.4424 22.0187 22.442 22.0186C22.4419 22.0186 22.4419 22.0186 22.4421 22.0186C22.4422 22.0187 22.4425 22.0187 22.4426 22.0187C22.443 22.0188 22.4434 22.0189 22.25 23C22.0566 23.9811 22.0571 23.9812 22.0577 23.9813C22.0579 23.9814 22.0585 23.9815 22.059 23.9816C22.0601 23.9818 22.0612 23.982 22.0626 23.9823C22.0654 23.9828 22.069 23.9835 22.0733 23.9843C22.082 23.986 22.0938 23.9882 22.1085 23.9909C22.138 23.9962 22.1795 24.0035 22.2322 24.0121C22.3375 24.0294 22.4877 24.0523 22.6767 24.0763C23.0541 24.1242 23.5884 24.1769 24.2288 24.1986C25.5026 24.2418 27.2325 24.1636 28.9953 23.6563C30.7636 23.1474 32.6002 22.1957 34.0177 20.4709C35.4405 18.7397 36.3693 16.3169 36.4683 12.9986L34.4692 12.9389ZM21.2667 22.8179C20.8073 25.2987 20.1634 27.6912 19.4263 29.9025L21.3237 30.535C22.0866 28.2463 22.7552 25.7638 23.2333 23.1821L21.2667 22.8179ZM20.375 30.2188C21.1175 30.8886 21.1172 30.8889 21.117 30.8892C21.1169 30.8892 21.1167 30.8895 21.1166 30.8896C21.1165 30.8897 21.1164 30.8898 21.1165 30.8897C21.1166 30.8896 21.1172 30.8889 21.1182 30.8878C21.1203 30.8855 21.1243 30.8812 21.13 30.875C21.1415 30.8627 21.1603 30.8427 21.186 30.8159C21.2375 30.7622 21.317 30.6811 21.4227 30.5784C21.6342 30.3728 21.9494 30.0817 22.3542 29.7507C23.1673 29.0858 24.3234 28.2749 25.7107 27.6656C28.4455 26.4644 32.0585 26.0369 35.8711 29.1212L37.1289 27.5663C32.5977 23.9006 28.1482 24.4106 24.9065 25.8344C23.3055 26.5376 21.9948 27.4611 21.0882 28.2024C20.6331 28.5745 20.2752 28.9046 20.0286 29.1443C19.9052 29.2642 19.8094 29.3619 19.7428 29.4312C19.7096 29.4659 19.6836 29.4935 19.6651 29.5134C19.6559 29.5233 19.6485 29.5313 19.6431 29.5373C19.6404 29.5402 19.6381 29.5427 19.6364 29.5446C19.6355 29.5456 19.6347 29.5464 19.6341 29.5472C19.6338 29.5475 19.6334 29.5479 19.6332 29.5481C19.6328 29.5485 19.6325 29.5489 20.375 30.2188Z" fill="#937AFA" mask="url(#path-1-outside-1_65_9)"/>
</svg>
