<svg width="140" height="140" viewBox="0 0 140 140" fill="none" xmlns="http://www.w3.org/2000/svg">
<path d="M16.3675 66.8883C14.9843 55.3299 15.6066 43.7232 18.1357 32.2964C18.5032 30.6367 20.0243 32.1466 30.7476 29.7449C31.568 29.5615 32.3814 29.3697 33.1871 29.1716C33.5483 28.5031 33.9487 27.8374 34.3939 27.1822C25.0566 29.3991 17.729 30.1523 17.4679 30.3798C17.0045 30.783 16.8603 30.9538 16.5362 32.3426C13.4156 45.7196 13.3344 59.8925 15.8411 73.4774C15.965 71.3165 16.1407 69.0968 16.3668 66.8876L16.3675 66.8883Z" fill="#EFEFEF"/>
<path d="M120.988 39.2347C119.154 37.4791 116.062 35.5968 114.749 35.1299C112.92 34.4789 96.6817 32.9221 73.6923 19.2266C65.1019 14.1096 66.1722 13.2052 62.9774 15.4907C61.8588 16.2908 60.6877 17.0489 59.476 17.7664C60.0038 17.8469 60.5274 17.9407 61.0475 18.0485C65.2517 15.4445 64.6098 14.9055 65.5996 15.6475C75.6152 23.1585 93.5114 32.0485 110.862 35.58C112.733 35.9608 113.785 35.4281 113.49 37.1823C113.053 39.7814 112.026 55.5076 104.492 73.8098C94.6377 97.7477 74.2971 119.748 55.0471 129.951C53.5862 130.725 52.1134 131.787 50.1191 130.23C45.5663 126.674 42.3484 123.879 38.1435 118.867C30.8348 110.155 28.4212 105.917 25.2089 98.3329C24.6986 98.1383 24.1568 97.9297 23.5422 97.6994C23.4708 97.6728 23.4001 97.6462 23.3301 97.6196C28.2721 108.642 35.0607 118.51 43.3746 126.236C44.9286 127.68 55.7849 137.101 57.9493 136.471C64.4488 134.58 82.73 122.388 95.4336 106.673C118.381 78.2849 122.279 40.473 120.987 39.2361L120.988 39.2347ZM120.067 40.1867C117.029 76.8779 97.3131 112.339 64.1485 132.125C56.9406 136.425 57.4222 135.774 55.9487 134.679C55.5749 134.401 53.5064 132.841 53.4546 132.788C52.826 132.156 52.6111 132.956 57.6217 130.175C74.6422 120.732 89.1658 104.538 98.6368 88.8962C106.547 75.8321 110.099 64.8883 112.661 52.1693C116.156 34.8296 113.764 35.8635 116.233 37.2355C117.469 37.9215 118.589 38.7832 119.763 39.5623C120.077 39.7709 120.075 39.7779 120.067 40.1867Z" fill="#EFEFEF"/>
<path d="M44.2376 41.8947C67.7422 42.4974 67.4503 45.4171 67.7373 42.6591C68.6732 33.6578 63.727 28.601 55.7358 28.139C51.708 30.1256 47.6151 31.6285 43.7798 32.7744C42.7641 34.1674 42.0004 35.8537 41.4404 37.8102C41.0323 39.2368 40.9133 40.2784 40.9161 41.5531C40.9168 42.0116 40.886 41.8086 44.2376 41.8947Z" fill="#EFEFEF"/>
<path d="M28.8454 42.3986C29.901 42.379 29.5608 41.8568 29.6098 41.6048C29.8002 40.6255 30.0109 38.4226 30.6906 35.7276C27.1899 36.296 24.924 36.5165 24.6783 36.6999C24.4053 36.9029 24.1673 37.1535 24.0938 37.5175C23.6318 39.7911 23.2552 42.0227 22.957 44.2109C24.6888 43.1392 27.094 42.4315 28.8454 42.3986Z" fill="#EFEFEF"/>
<path d="M103.807 40.9427C102.917 40.634 92.4005 39.2578 78.7106 32.4517C78.5279 32.3614 78.3487 32.2711 78.1709 32.1822C78.4159 32.9599 78.6154 33.767 78.7659 34.6028C80.2247 42.7011 77.6774 45.3772 78.8779 45.7055C84.8209 47.333 87.7014 48.4047 88.7892 55.0988C90.0681 62.9703 87.0469 83.2122 84.2665 94.3443C93.2804 81.5882 102.184 60.1059 104.553 42.1985C104.565 41.3018 104.474 41.1737 103.808 40.9427H103.807Z" fill="#EFEFEF"/>
<path d="M67.5734 104.519C59.2924 104.519 52.8377 105.203 34.1064 100.948C42.484 114.783 52.4058 121.886 53.8744 121.438C57.4962 120.333 62.532 116.314 64.6117 114.733C70.0577 110.595 73.5213 107.364 76.7707 103.708C73.823 104.335 70.3475 104.365 67.5734 104.519Z" fill="#EFEFEF"/>
<path d="M88.7899 55.0987C87.7021 48.4046 84.8216 47.3329 78.8786 45.7054C77.6781 45.3764 80.2254 42.701 78.7666 34.6027C76.0009 19.2482 56.7614 13.721 43.0414 19.9209C30.8971 25.4089 30.1656 38.7411 29.6098 41.6055C29.5608 41.8575 29.901 42.379 28.8454 42.3986C26.2113 42.4483 22.0974 44.0233 21.0229 46.0673C16.1376 55.3619 14.3155 84.2285 16.6024 91.1914C17.2471 93.1542 16.937 95.2283 23.5415 97.6993C26.9134 98.9607 28.102 99.5781 33.8112 100.881C52.7707 105.21 59.2492 104.519 67.5736 104.519C72.9272 104.223 80.8953 104.388 82.6369 99.828C85.6399 91.9635 90.3285 64.5718 88.7892 55.0994L88.7899 55.0987ZM31.1519 42.0038C31.1939 40.0774 32.7234 33.2895 34.9158 29.492C37.1838 25.5629 39.4518 23.6463 42.5276 21.9075C46.3671 19.7375 53.4959 18.8919 54.3464 18.8751C59.2534 18.7778 64.054 20.2464 67.8466 22.2575C73.3192 25.159 75.5823 28.5946 76.6918 32.9878C77.6935 36.9547 77.662 41.6916 77.1216 44.6477C76.9172 45.7642 77.0817 45.2224 69.4888 44.1304C69.22 44.0919 69.1549 44.0233 69.1955 43.7202C71.9507 23.1626 46.8914 22.4038 41.0835 34.3766C39.4399 37.7646 39.5204 41.7588 39.5176 41.7777C39.4483 42.169 36.2871 41.8848 36.2871 41.9919C30.9349 41.9919 31.1456 42.3125 31.1519 42.0038ZM67.7381 42.659C67.4511 45.417 67.743 42.4973 44.2384 41.8946C40.8868 41.8085 40.9169 42.0122 40.9162 41.553C40.9141 40.2783 41.0324 39.236 41.4405 37.8101C43.2612 31.4457 47.2428 27.9331 55.0079 28.1095C63.4254 28.3006 68.7013 33.3875 67.7374 42.6583L67.7381 42.659ZM82.5564 94.3288C81.1963 100.283 81.2712 100.837 75.7797 102.09C72.7816 102.775 59.168 103.104 56.1181 102.716C53.8893 102.433 53.7759 103.567 38.0385 100.294C14.732 95.4488 18.9285 93.5343 17.2835 85.7398C16.335 64.6761 20.7191 48.9653 22.0267 47.1684C23.0907 45.7068 23.9846 45.5157 24.8624 44.8864C25.1382 44.689 25.0248 44.8157 26.4269 44.3502C27.4391 44.0142 29.0162 43.9624 29.033 43.9624C43.4754 42.7759 55.6323 43.9918 69.99 45.9462C77.088 46.9122 85.4789 47.5968 86.7795 53.054C88.9355 62.1008 84.5192 85.7405 82.5571 94.3281L82.5564 94.3288Z" fill="#EFEFEF"/>
<path d="M42.0313 59.8265C39.8347 63.8753 40.562 69.266 44.5821 72.7751C44.7522 72.9235 44.8187 73.0894 44.7872 73.3043C44.475 75.4554 43.9836 80.5213 43.9955 83.1995C44.0158 87.6739 44.2041 90.1477 47.9883 91.7458C50.6672 92.8777 53.4616 91.8291 54.5844 88.348C55.0541 86.8906 55.0842 85.8175 55.6414 80.7656C56.3393 74.4425 55.7933 74.6392 56.4261 74.3648C59.448 73.0544 62.3768 69.294 62.3026 64.8469C62.7324 54.8222 47.3324 50.0552 42.0306 59.8258L42.0313 59.8265ZM48.1612 77.4819C46.8081 90.2576 48.7226 91.582 46.5589 89.8523C45.0889 88.677 45.0252 85.8749 45.0476 83.8274C45.1386 75.531 46.6653 73.116 45.7462 72.3103C42.3778 69.3605 40.6621 64.534 43.6175 59.7551C44.3056 58.6428 45.8876 57.4563 45.994 57.3555C47.1812 56.2334 48.9837 56.1123 48.2914 56.8774C43.7456 61.9062 45.4928 67.4642 48.7604 69.9933C49.3918 70.4819 48.9186 70.3209 48.1598 77.4812L48.1612 77.4819Z" fill="#EFEFEF"/>
<path d="M79.1032 55.7694C78.8806 64.8148 75.6137 100.805 74.122 96.6039C73.744 95.5399 78.0861 56.7186 78.0581 55.1436C77.9986 51.806 77.1768 51.4175 77.6703 51.1487C78.0287 50.9534 78.4431 51.5421 78.5726 51.8837C79.043 53.1255 79.1367 54.4415 79.1038 55.7701L79.1032 55.7694Z" fill="#EFEFEF"/>
<path d="M13.2265 119.982C12.8247 119.846 16.5438 116.015 16.4759 115.304C16.4192 114.709 15.7115 114.366 15.232 114.792C14.5796 115.373 13.3595 116.657 12.4103 117.625C12.0099 118.034 12.2199 114.667 10.8353 112.08C10.5056 111.464 9.69784 111.611 9.67474 112.359C9.62784 113.884 10.3957 117.927 10.6561 119.147C9.34014 118.813 5.55807 117.772 5.52657 119.147C5.51957 119.454 5.69527 119.635 5.93187 119.752C8.76684 121.149 9.52844 120.83 9.23164 121.225C7.65104 123.328 7.14914 123.881 6.87757 124.69C6.68367 125.266 6.83627 125.908 7.47254 125.913C8.16904 125.918 8.40004 125.342 9.94774 123.472C11.9966 120.997 10.913 121.647 12.271 125.404C12.6091 126.339 12.6938 126.574 13.1334 126.508C13.8922 126.394 13.3882 123.888 13.23 122.52C13.1537 121.861 16.9736 124.038 17.5182 122.646C17.9725 121.485 15.9369 120.902 13.2265 119.981V119.982Z" fill="#EFEFEF"/>
<path d="M107.555 11.458C107.011 11.2921 108.892 10.4577 110.257 8.56207C110.65 8.01537 110.157 7.43577 108.815 8.27087C106.05 9.99147 106.015 10.6306 105.933 10.2064C105.632 8.66777 105.469 7.48967 104.986 6.62376C104.475 5.70956 103.131 5.43866 103.54 8.33807C104.046 11.9186 104.636 10.5305 101.659 10.6824C100.301 10.7517 99.8148 11.5693 100.227 12.1069C100.47 12.424 100.876 12.4863 101.71 12.6641C103.337 13.0106 103.022 12.4016 100.415 14.9615C100.14 15.231 99.791 15.8323 100.159 16.2446C100.802 16.9635 101.906 15.8624 104.309 13.9696C104.634 13.7141 104.365 13.9626 105.158 16.2138C105.424 16.9677 105.589 17.478 106.138 17.4815C106.6 17.485 107.078 16.988 106.955 16.0738C106.299 11.185 105.907 14.4953 110.215 13.0883C111.7 12.6032 108.951 11.8836 107.555 11.458Z" fill="#EFEFEF"/>
<path d="M106.253 128.784C105.684 130.942 109.06 131.028 108.87 129.15C108.997 127.816 106.733 126.964 106.253 128.784Z" fill="#EFEFEF"/>
<path d="M29.6726 3.5045C28.7101 3.4457 25.8471 4.5286 26.8698 6.6664C27.6601 8.31841 29.9561 8.73981 31.2924 7.24601C32.7953 5.566 31.2651 3.3911 29.6726 3.5045ZM29.3317 6.8092C27.8463 6.9142 27.6013 5.1922 28.1207 5.0151C28.6037 4.8506 29.0678 4.6007 29.6026 4.6357C31.1272 4.7358 30.6806 6.9261 29.3317 6.8092Z" fill="#EFEFEF"/>
<path d="M134.277 82.7201C133.137 80.1609 129.321 81.157 128.185 82.4303C125.909 84.979 129.347 89.9378 132.864 86.9341C134.054 85.9177 134.861 84.0312 134.277 82.7201ZM130.489 86.4252C129.999 86.4924 128.807 85.3423 129.109 83.9899C129.308 83.1016 130.177 82.4114 130.589 82.4856C130.855 82.5339 131.135 82.494 131.407 82.5129C134.002 82.6928 132.625 86.3265 130.489 86.4252Z" fill="#EFEFEF"/>
</svg>
