<svg width="157" height="50" viewBox="0 0 157 50" fill="none" xmlns="http://www.w3.org/2000/svg">
<g clip-path="url(#clip0_189_149)">
<path d="M18.1935 49.5407C18.1251 49.6766 17.9772 49.788 17.7554 49.8723C17.5309 49.9565 17.2817 50 17.0078 50C16.4574 50 16.096 49.8451 15.9262 49.5407C15.2745 47.9725 13.8806 44.5208 11.753 39.183C9.62253 33.8452 6.92526 26.6429 3.66116 17.5708C3.48865 17.0245 3.25589 16.6495 2.96562 16.4456C2.67262 16.2418 2.407 16.1385 2.16603 16.1385H0.309432C0.104057 16.1385 0 15.8993 0 15.421C0 15.2172 0.0246451 15.0133 0.0766735 14.8068C0.128702 14.6029 0.205376 14.4996 0.309432 14.4996C0.79138 14.4996 1.39929 14.5078 2.13864 14.5241C2.878 14.5431 3.60639 14.5594 4.32932 14.5757C5.0495 14.5948 5.59991 14.6002 5.9778 14.6002C6.28723 14.6002 6.78561 14.5921 7.47293 14.5757C8.16025 14.5594 8.90782 14.5513 9.71563 14.5513C10.5234 14.5513 11.2957 14.5431 12.035 14.5268C12.7744 14.5105 13.3494 14.5024 13.7629 14.5024C13.9354 14.5024 14.0641 14.6138 14.149 14.8339C14.2339 15.0568 14.2777 15.2688 14.2777 15.4726C14.2777 15.8803 14.1052 16.0869 13.7629 16.0869H10.7726C10.1538 16.0869 9.7923 16.2662 9.69099 16.625C9.58693 16.9837 9.62253 17.5029 9.79504 18.185C10.0689 19.2069 10.455 20.5224 10.9534 22.1232C11.4517 23.7267 12.0186 25.4824 12.6539 27.3931C13.2892 29.3037 13.9409 31.2469 14.6118 33.2255C15.2827 35.2041 15.9262 37.112 16.5451 38.9547C17.1639 40.7947 17.6952 42.4172 18.1415 43.8142H18.3469C19.9625 39.3814 21.3618 35.4079 22.5475 31.8965C23.7332 28.3851 24.6861 25.5014 25.4091 23.2511C26.132 21.0007 26.5592 19.5521 26.6961 18.9025C26.7645 18.5275 26.8248 18.2041 26.8768 17.9296C26.9288 17.6578 26.9535 17.4186 26.9535 17.212C26.9535 16.4973 26.7974 16.1385 26.4907 16.1385H23.0897C22.8131 16.1385 22.6762 15.9156 22.6762 15.4726C22.6762 15.2688 22.7118 15.0541 22.7803 14.8339C22.8487 14.6111 22.9528 14.5024 23.0897 14.5024C23.9824 14.5024 25.064 14.5214 26.3374 14.554C27.6079 14.5893 28.7252 14.6056 29.6863 14.6056C30.1327 14.6056 30.7433 14.5975 31.5156 14.5812C32.2878 14.5649 33.0518 14.5486 33.8075 14.5295C34.5633 14.5132 35.1137 14.5051 35.456 14.5051C35.5929 14.5051 35.697 14.6084 35.7655 14.8122C35.8339 15.016 35.8695 15.2199 35.8695 15.4264C35.8695 15.8694 35.7326 16.0923 35.456 16.0923H32.9833C32.5014 16.0923 32.1235 16.2554 31.8496 16.5788C31.5731 16.9022 31.3348 17.3045 31.1295 17.7801C30.0286 20.3729 28.8785 23.1777 27.6764 26.1945C26.4743 29.2113 25.2886 32.2036 24.1193 35.1715C22.95 38.1394 21.852 40.8762 20.8196 43.3821C19.7872 45.8879 18.9137 47.9426 18.1908 49.5461L18.1935 49.5407Z" fill="#EFEFEF"/>
<path d="M46.0182 13.4125C47.8392 13.4125 49.5836 13.755 51.2485 14.4344C52.9161 15.1166 54.3921 16.0542 55.6818 17.2474C56.9689 18.4405 57.9821 19.813 58.7214 21.3649C59.4608 22.9168 59.8304 24.5611 59.8304 26.3005C59.8304 28.0399 59.4608 29.744 58.7214 31.3122C57.9821 32.8804 56.9689 34.2719 55.6818 35.4813C54.3948 36.6935 52.9161 37.6393 51.2485 38.3215C49.5808 39.0036 47.8392 39.3434 46.0182 39.3434C44.1972 39.3434 42.4529 39.0009 40.788 38.3215C39.1204 37.6393 37.6444 36.6935 36.3546 35.4813C35.0676 34.2719 34.0517 32.8804 33.3151 31.3122C32.5757 29.744 32.2061 28.0725 32.2061 26.3005C32.2061 24.5285 32.5757 22.9168 33.3151 21.3649C34.0544 19.813 35.0676 18.4405 36.3546 17.2474C37.6417 16.0542 39.1204 15.1166 40.788 14.4344C42.4529 13.7522 44.1972 13.4125 46.0182 13.4125ZM46.0182 15.2552C44.2657 15.2552 42.7459 15.758 41.4562 16.7636C40.1691 17.7692 39.1614 19.1091 38.4413 20.7778C37.7211 22.4493 37.3596 24.2893 37.3596 26.3032C37.3596 28.3171 37.7211 30.1734 38.4413 31.8775C39.1614 33.5843 40.1691 34.9459 41.4562 35.9705C42.7432 36.9952 44.2657 37.5061 46.0182 37.5061C47.7708 37.5061 49.2906 36.9952 50.5803 35.9705C51.8701 34.9459 52.875 33.5843 53.5952 31.8775C54.3154 30.1734 54.6769 28.3144 54.6769 26.3032C54.6769 24.292 54.3154 22.4493 53.5952 20.7778C52.875 19.1064 51.8673 17.7692 50.5803 16.7636C49.2933 15.758 47.7708 15.2552 46.0182 15.2552Z" fill="#EFEFEF"/>
<path d="M65.6247 33.2473C65.6247 34.6796 65.7288 35.677 65.9341 36.2396C66.1395 36.8022 66.3805 37.0848 66.6543 37.0848H67.9934C69.609 37.0522 71.1452 36.8973 72.6075 36.6255C74.067 36.3538 75.1404 35.9787 75.8278 35.5004L76.0852 33.5055C76.118 33.4022 76.2303 33.3261 76.4192 33.2744C76.6082 33.2228 76.7697 33.1983 76.9094 33.1983C77.0819 33.1983 77.2353 33.2147 77.3722 33.25C77.5091 33.2853 77.5611 33.3696 77.5255 33.5055C77.3886 34.3915 77.301 35.3889 77.2681 36.4978C77.2325 37.6067 77.2161 38.6204 77.2161 39.5418C77.2161 39.6451 77.1394 39.713 76.9833 39.7456C76.83 39.7782 76.6985 39.7972 76.5972 39.7972C76.4603 39.7972 76.296 39.7782 76.1071 39.7456C75.9181 39.7103 75.825 39.6423 75.825 39.5418V38.7237H66.961C64.8634 38.7237 63.2506 38.7319 62.1169 38.7482C60.9832 38.7645 60.1398 38.7808 59.5921 38.7998C59.0417 38.8161 58.5789 38.8243 58.2011 38.8243C58.0641 38.8243 57.9683 38.721 57.9163 38.5171C57.8642 38.3133 57.8396 38.1421 57.8396 38.0062C57.8396 37.835 57.8642 37.6746 57.9163 37.5197C57.9683 37.3648 58.045 37.2887 58.149 37.2887H60.4684C60.8463 37.2887 61.0681 37.2044 61.1393 37.0332C61.2078 36.862 61.2434 36.4543 61.2434 35.8048V19.6907C61.2434 18.2584 61.1475 17.2175 60.9586 16.5706C60.7696 15.9238 60.5204 15.5977 60.211 15.5977H58.3571C57.9437 15.5977 57.7383 15.3422 57.7383 14.8312C57.7383 14.2849 57.9272 14.0132 58.3051 14.0132C58.9568 14.0132 59.7291 14.0376 60.6245 14.0893C61.5172 14.1409 62.4291 14.149 63.3574 14.1137C63.9762 14.1137 64.7046 14.1056 65.548 14.0893C66.3887 14.0729 67.4457 14.0458 68.7163 14.0132C68.8203 14.0132 68.9052 14.0974 68.9737 14.2686C69.0421 14.4399 69.0777 14.6111 69.0777 14.7796C69.0777 15.2579 68.9408 15.4944 68.6643 15.4944H66.2929C66.0519 15.4944 65.8794 15.546 65.778 15.6466C65.6767 15.7471 65.6247 15.97 65.6247 16.3124V33.2445V33.2473Z" fill="#EFEFEF"/>
<path d="M87.0438 33.1685C87.0438 34.6008 87.1479 35.6063 87.3532 36.1852C87.5586 36.7669 87.7996 37.055 88.0734 37.055H90.6502C90.7542 37.055 90.8474 37.1392 90.9322 37.3104C91.0171 37.4817 91.0609 37.6855 91.0609 37.9247C91.0609 38.0959 91.0363 38.2562 90.9843 38.4112C90.9322 38.5661 90.8556 38.6422 90.7515 38.6422C90.1326 38.6422 89.3248 38.634 88.3281 38.6177C87.3313 38.6014 86.1456 38.5933 84.771 38.5933C83.1225 38.5933 81.9532 38.6177 81.2659 38.6693C80.5786 38.721 80.0282 38.7454 79.6174 38.7454C79.4805 38.7454 79.3847 38.6422 79.3326 38.4383C79.2806 38.2345 79.256 38.0633 79.256 37.9274C79.256 37.7562 79.2806 37.5958 79.3326 37.4409C79.3847 37.286 79.4613 37.2099 79.5654 37.2099H81.8848C82.2627 37.2099 82.4845 37.1256 82.5557 36.9544C82.6241 36.7832 82.6597 36.3755 82.6597 35.7259V20.1772C82.6597 18.8129 82.5721 17.8073 82.4023 17.1604C82.2298 16.5136 82.008 16.1548 81.7314 16.0869C80.4252 16.0869 79.2642 16.1222 78.2537 16.1901C77.2405 16.2581 76.3205 16.394 75.4962 16.5978C75.0499 16.7337 74.7048 17.1088 74.4639 17.723C74.2229 18.3372 74.0504 18.8835 73.949 19.3591C73.949 19.495 73.8724 19.5902 73.7163 19.6418C73.563 19.6934 73.4151 19.7179 73.2782 19.7179C73.1412 19.7179 72.9769 19.6934 72.788 19.6418C72.5991 19.5902 72.5224 19.4977 72.5552 19.3591C72.6593 18.5764 72.7278 17.5953 72.7606 16.4184C72.7935 15.2416 72.8126 14.1925 72.8126 13.2739C72.8126 13.206 72.9167 13.138 73.1221 13.0701C73.3274 13.0021 73.5 12.9668 73.6369 12.9668C73.7409 12.9668 73.8587 12.9913 73.9983 13.0429C74.1353 13.0945 74.2037 13.1706 74.2037 13.2739V13.9398C74.4776 13.9398 74.9759 13.9479 75.6989 13.9642C76.4218 13.9833 77.2542 13.9996 78.199 14.0159C79.1437 14.0349 80.0638 14.0403 80.9565 14.0403H86.9096C87.9228 14.0403 89.0127 14.0322 90.1819 14.0159C91.3485 13.9996 92.4055 13.9833 93.3502 13.9642C94.2949 13.9479 94.9384 13.9398 95.2835 13.9398H95.4368V13.2739C95.4368 13.1706 95.5053 13.0945 95.6422 13.0429C95.7791 12.9913 95.8996 12.9668 96.0036 12.9668C96.1762 12.9668 96.3569 13.0021 96.5458 13.0701C96.7348 13.138 96.8306 13.206 96.8306 13.2739C96.8306 14.1953 96.847 15.2443 96.8826 16.4184C96.9155 17.5953 96.9867 18.5764 97.088 19.3591C97.1209 19.495 97.0524 19.5902 96.8826 19.6418C96.7101 19.6934 96.5376 19.7179 96.3678 19.7179C96.2309 19.7179 96.0858 19.6934 95.9297 19.6418C95.7764 19.5902 95.697 19.4977 95.697 19.3591C95.5929 18.8835 95.4313 18.3372 95.2068 17.723C94.9822 17.1088 94.6317 16.7337 94.1498 16.5978C93.3584 16.4266 92.4931 16.3097 91.5484 16.2391C90.6036 16.1711 89.5987 16.1195 88.5335 16.0869H87.5531C87.2081 16.1222 87.0383 16.394 87.0383 16.9049V33.1712L87.0438 33.1685Z" fill="#EFEFEF"/>
<path d="M105.905 13.6299C106.042 13.3228 106.387 13.1706 106.938 13.1706C107.452 13.1706 107.778 13.3418 107.918 13.6816C108.09 14.4317 108.425 15.4726 108.923 16.8017C109.421 18.1307 110.013 19.6228 110.7 21.2779C111.387 22.9331 112.099 24.6209 112.839 26.3412C113.578 28.0644 114.298 29.7005 115.002 31.2524C115.706 32.8043 116.316 34.1251 116.831 35.2177C117.245 36.0711 117.623 36.6065 117.965 36.8294C118.307 37.0522 118.841 37.1609 119.564 37.1609C119.769 37.1609 119.874 37.3648 119.874 37.7752C119.874 37.9464 119.857 38.1176 119.822 38.2861C119.786 38.4574 119.717 38.5416 119.616 38.5416C118.551 38.5416 117.658 38.5226 116.935 38.49C116.215 38.4546 115.457 38.4383 114.668 38.4383C114.016 38.4383 113.225 38.4546 112.297 38.49C111.368 38.5226 110.303 38.5416 109.101 38.5416C108.964 38.5416 108.876 38.4655 108.844 38.3106C108.808 38.1584 108.791 38.0116 108.791 37.8757C108.791 37.4327 108.896 37.2099 109.101 37.2099H111.574C111.952 37.2099 112.14 37.0577 112.14 36.7506C112.14 36.6473 112.004 36.2233 111.727 35.4732C111.45 34.7231 111.1 33.7691 110.67 32.6086C110.24 31.4508 109.769 30.2033 109.252 28.8743H102.088C101.368 30.6463 100.765 32.1819 100.283 33.4783C99.8015 34.7747 99.5633 35.6607 99.5633 36.139C99.5633 36.5494 99.6317 36.8212 99.7687 36.9571C99.9056 37.093 100.042 37.1609 100.182 37.1609H102.296C102.57 37.1609 102.71 37.3648 102.71 37.7752C102.71 37.9464 102.685 38.1176 102.633 38.2861C102.581 38.4574 102.504 38.5416 102.403 38.5416C101.543 38.5416 100.864 38.5335 100.366 38.5171C99.8672 38.4981 99.4209 38.4818 99.0266 38.4655C98.6322 38.4465 98.1777 38.441 97.6601 38.441C97.0413 38.441 96.4306 38.4574 95.8309 38.4927C95.2285 38.5253 94.4837 38.5443 93.5882 38.5443C93.4513 38.5443 93.3555 38.4682 93.3062 38.3133C93.2541 38.1611 93.2295 38.0143 93.2295 37.8785C93.2295 37.4354 93.35 37.2126 93.591 37.2126H95.2394C95.6173 37.2126 95.8912 37.0604 96.0637 36.7533C96.406 36.207 96.8961 35.2449 97.5314 33.8642C98.1667 32.4836 98.8787 30.8719 99.6701 29.0292C100.459 27.1892 101.258 25.2949 102.066 23.3516C102.874 21.4084 103.621 19.5766 104.309 17.8535C104.996 16.1331 105.527 14.7252 105.905 13.6327V13.6299ZM108.586 27.1321C108.104 25.7352 107.633 24.3545 107.168 22.9902C106.705 21.6258 106.283 20.4164 105.905 19.3591H105.752C105.306 20.6202 104.824 21.9329 104.309 23.2973C103.794 24.6616 103.296 25.939 102.814 27.1349H108.586V27.1321Z" fill="#EFEFEF"/>
<path d="M128.392 33.2092C128.392 34.6415 128.496 35.6471 128.702 36.226C128.907 36.8076 129.148 37.0957 129.422 37.0957H131.998C132.103 37.0957 132.196 37.18 132.281 37.3512C132.365 37.5224 132.409 37.7263 132.409 37.9654C132.409 38.1367 132.385 38.297 132.333 38.4519C132.281 38.6068 132.204 38.6829 132.1 38.6829C131.481 38.6829 130.673 38.6748 129.676 38.6585C128.68 38.6422 127.494 38.634 126.119 38.634C124.471 38.634 123.302 38.6585 122.614 38.7101C121.927 38.7618 121.376 38.7862 120.966 38.7862C120.829 38.7862 120.733 38.6829 120.681 38.4791C120.629 38.2753 120.604 38.104 120.604 37.9681C120.604 37.7969 120.629 37.6366 120.681 37.4817C120.733 37.3267 120.81 37.2506 120.914 37.2506H123.233C123.611 37.2506 123.833 37.1664 123.904 36.9952C123.972 36.8239 124.008 36.4163 124.008 35.7667V19.6527C124.008 18.2204 123.912 17.1794 123.723 16.5326C123.534 15.8857 123.285 15.5596 122.976 15.5596H121.122C120.708 15.5596 120.503 15.3041 120.503 14.7932C120.503 14.2469 120.692 13.9751 121.07 13.9751C121.721 13.9751 122.494 13.9996 123.389 14.0512C124.282 14.1028 125.194 14.111 126.122 14.0757C126.741 14.0757 127.469 14.0675 128.313 14.0512C129.153 14.0349 130.21 14.0077 131.481 13.9751C131.585 13.9751 131.67 14.0594 131.738 14.2306C131.807 14.4018 131.842 14.573 131.842 14.7415C131.842 15.2199 131.705 15.4563 131.429 15.4563H129.058C128.817 15.4563 128.644 15.508 128.543 15.6085C128.441 15.7091 128.389 15.9319 128.389 16.2744V33.2065L128.392 33.2092Z" fill="#EFEFEF"/>
<path d="M141.383 33.625C141.383 34.7502 141.487 35.5955 141.693 36.1581C141.898 36.7207 142.139 37.0033 142.413 37.0033H144.579C144.716 37.0033 144.82 37.1066 144.888 37.3104C144.957 37.5143 144.992 37.7018 144.992 37.873C144.992 38.0442 144.968 38.2046 144.916 38.3595C144.864 38.5144 144.803 38.5905 144.735 38.5905H139.477C138.514 38.5905 137.75 38.5987 137.183 38.615C136.616 38.6313 136.101 38.6476 135.636 38.6666C135.173 38.6829 134.614 38.6911 133.96 38.6911C133.856 38.6911 133.771 38.596 133.702 38.4084C133.634 38.2209 133.598 38.0578 133.598 37.9219C133.598 37.7507 133.623 37.5822 133.675 37.411C133.727 37.2398 133.787 37.1555 133.856 37.1555H136.38C136.794 37.1555 136.999 36.8674 136.999 36.2858V19.5086C136.999 16.8152 136.621 15.4672 135.866 15.4672H134.061C133.683 15.4672 133.494 15.2117 133.494 14.7008C133.494 14.4969 133.538 14.3094 133.623 14.1382C133.708 13.967 133.82 13.8827 133.957 13.8827C135.742 13.918 137.35 13.9425 138.776 13.9588C140.2 13.9778 141.704 13.9833 143.286 13.9833C146.652 13.9833 149.188 14.6817 150.888 16.0814C152.589 17.4811 153.437 19.1689 153.437 21.1448C153.437 22.4058 153.103 23.5147 152.432 24.4687C151.762 25.4226 150.877 26.1836 149.779 26.7462C148.681 27.3088 147.495 27.6404 146.222 27.7437C146.909 28.1867 147.536 28.7574 148.103 29.4586C148.67 30.1571 149.322 30.9425 150.061 31.8123C150.8 32.682 151.71 33.5761 152.794 34.4975C153.876 35.4188 155.275 36.3211 156.995 37.2072C156.718 37.7534 156.307 38.2291 155.757 38.6395C155.206 39.0498 154.538 39.2537 153.747 39.2537C152.578 39.2537 151.573 38.9303 150.732 38.2807C149.889 37.6339 149.16 36.8158 148.541 35.8265C147.922 34.8372 147.364 33.8071 146.865 32.7309C146.367 31.6573 145.869 30.6762 145.37 29.7902C144.872 28.9042 144.33 28.2546 143.746 27.8469L141.375 27.6947V33.6278L141.383 33.625ZM142.413 15.5161C141.726 15.5161 141.383 16.0787 141.383 17.2039V25.6944C141.865 25.7977 142.344 25.8466 142.826 25.8466C143.788 25.8466 144.708 25.6672 145.584 25.3085C146.46 24.9497 147.172 24.4062 147.723 23.6723C148.273 22.9385 148.547 22.0444 148.547 20.9871C148.547 20.2044 148.35 19.3836 147.955 18.5329C147.561 17.6822 146.915 16.9647 146.022 16.3858C145.129 15.8069 143.927 15.5161 142.416 15.5161H142.413Z" fill="#EFEFEF"/>
<path d="M131.41 0.516389L128.754 4.29146C128.6 4.50889 128.759 4.80785 129.025 4.80785L131.051 4.7997C131.336 4.7997 131.489 5.13399 131.298 5.34598L125.172 12.1433C124.92 12.4232 124.471 12.1324 124.624 11.79L126.314 8.07197C126.413 7.85454 126.251 7.60722 126.01 7.60994L123.88 7.6344C123.644 7.63711 123.48 7.40066 123.57 7.18324L126.415 0.222862C126.465 0.10056 126.585 0.0190248 126.719 0.0190248L131.139 0C131.407 0 131.563 0.296244 131.41 0.516389Z" fill="#EFEFEF"/>
<path d="M37.4307 45.3362C37.3376 45.3498 37.2554 45.3579 37.1842 45.3661C37.4526 45.4639 37.6799 45.6216 37.8634 45.8363C38.0468 46.051 38.2056 46.2874 38.3371 46.5456C38.4685 46.8038 38.5945 47.0539 38.7122 47.293C38.83 47.5349 38.9614 47.7333 39.1011 47.891C39.2435 48.0486 39.4187 48.1247 39.6296 48.1247C39.7336 48.1247 39.8213 48.0975 39.8897 48.0459C39.9582 47.9942 40.0266 47.9344 40.0924 47.8692C40.1307 47.8366 40.1773 47.842 40.2265 47.8828C40.2758 47.9236 40.2868 47.9616 40.2621 47.9942C40.1581 48.1383 40.013 48.2878 39.8322 48.4454C39.6515 48.603 39.4352 48.6791 39.186 48.6791C38.9368 48.6791 38.7177 48.6112 38.5315 48.478C38.3453 48.3448 38.1755 48.1709 38.0249 47.9535C37.8743 47.7388 37.7347 47.5023 37.606 47.2496C37.4773 46.9941 37.3485 46.7468 37.2226 46.5021C37.0939 46.2575 36.957 46.0401 36.8146 45.8471C36.6694 45.6542 36.5024 45.5129 36.3107 45.4204C36.3107 45.415 36.308 45.4096 36.2998 45.4096C36.2395 45.4041 36.182 45.396 36.1218 45.3851C36.0615 45.3742 36.0068 45.3661 35.9547 45.3607V47.3664C35.9547 47.6137 35.9657 47.8013 35.9903 47.9236C36.0122 48.0486 36.0424 48.1301 36.0752 48.1682C36.1081 48.2062 36.1382 48.228 36.1628 48.228H36.7352C36.7872 48.228 36.8146 48.2905 36.8146 48.4128C36.8146 48.44 36.8091 48.4671 36.8009 48.4998C36.7899 48.5324 36.7708 48.5487 36.7379 48.5487C36.5353 48.5487 36.3244 48.5487 36.1108 48.5432C35.8972 48.5405 35.6919 48.5378 35.4947 48.5378C35.2181 48.5378 34.9991 48.5378 34.8348 48.5432C34.6705 48.546 34.5363 48.5514 34.4295 48.5568C34.3254 48.5623 34.2186 48.5677 34.1146 48.5677C34.0872 48.5677 34.068 48.5514 34.0543 48.5188C34.0406 48.4862 34.0352 48.4508 34.0352 48.4101C34.0352 48.3639 34.0406 48.3231 34.0543 48.2878C34.068 48.2524 34.0872 48.2334 34.1146 48.2334H34.539C34.7088 48.2334 34.8211 48.2008 34.8703 48.1356C34.9196 48.0703 34.9443 47.9535 34.9443 47.7822V43.1456C34.9443 42.8901 34.9333 42.7026 34.9087 42.583C34.8868 42.4634 34.8594 42.3819 34.8293 42.3439C34.7992 42.3058 34.769 42.2841 34.7362 42.2841H34.1639C34.1118 42.2841 34.0844 42.2216 34.0844 42.0993C34.0844 42.0666 34.0899 42.0367 34.0981 42.0068C34.1091 41.977 34.1283 41.9634 34.1611 41.9634C34.4295 41.9634 34.6677 41.9661 34.8758 41.9742C35.0839 41.9797 35.2592 41.9851 35.4043 41.9851H36.538C37.1541 41.9851 37.6552 42.0639 38.0359 42.2243C38.4165 42.3846 38.6985 42.5939 38.8793 42.8548C39.06 43.1157 39.1504 43.3929 39.1504 43.6865C39.1504 43.98 39.0737 44.2273 38.9176 44.4502C38.7643 44.673 38.5562 44.8551 38.296 45.0019C38.0359 45.1487 37.7483 45.2574 37.4334 45.3308L37.4307 45.3362ZM38.0824 43.7897C38.0824 43.5614 38.0194 43.3386 37.8962 43.1239C37.7703 42.9092 37.5813 42.7298 37.3239 42.5912C37.0665 42.4499 36.7379 42.3819 36.3381 42.3819C36.193 42.3819 36.0944 42.4172 36.0369 42.4852C35.9821 42.5531 35.952 42.6537 35.952 42.7841V45.0046C36.13 45.0427 36.3025 45.0644 36.475 45.0644C36.831 45.0644 37.1267 45.0046 37.3622 44.8823C37.5977 44.7627 37.7785 44.6051 37.899 44.4121C38.0194 44.2192 38.0824 44.0126 38.0824 43.7897Z" fill="#EFEFEF"/>
<path d="M42.0942 46.07C42.305 46.0646 42.5077 46.0537 42.6994 46.0401C42.891 46.0265 43.0554 46.0129 43.1868 45.9966C43.3182 45.9803 43.3894 45.9695 43.4031 45.9613L43.4716 45.5509C43.4853 45.5183 43.5318 45.502 43.6085 45.502C43.6277 45.502 43.655 45.5074 43.6879 45.5156C43.7208 45.5264 43.7372 45.5427 43.7372 45.5699C43.7235 45.6732 43.7153 45.7738 43.7071 45.8689C43.7016 45.964 43.6961 46.0673 43.6961 46.176C43.6961 46.2738 43.6989 46.3798 43.7071 46.494C43.7126 46.6081 43.7235 46.7196 43.7372 46.831C43.7372 46.85 43.718 46.8663 43.6824 46.8745C43.6468 46.8854 43.6112 46.8881 43.5784 46.8881C43.551 46.8881 43.5263 46.8854 43.5044 46.8772C43.4825 46.8718 43.4688 46.8609 43.4688 46.8473L43.3894 46.426C43.3894 46.426 43.3045 46.3989 43.1786 46.388C43.0499 46.3744 42.891 46.3608 42.6994 46.3499C42.5077 46.3364 42.305 46.3282 42.0887 46.32V47.505C42.0887 47.7795 42.1079 47.9698 42.149 48.0785C42.1873 48.1872 42.2338 48.2388 42.2859 48.2388H42.6008C42.9102 48.2334 43.2032 48.2035 43.4825 48.1519C43.7618 48.1002 43.9672 48.0269 44.0987 47.9372L44.1479 47.5567C44.1534 47.5376 44.1753 47.5213 44.2109 47.5132C44.2465 47.505 44.2794 47.4996 44.304 47.4996C44.3369 47.4996 44.367 47.5023 44.3917 47.5105C44.419 47.5159 44.4273 47.5322 44.4218 47.5594C44.3944 47.7279 44.378 47.9209 44.3725 48.1328C44.367 48.3448 44.3615 48.5378 44.3615 48.7145C44.3615 48.7335 44.3478 48.7471 44.3177 48.7525C44.2876 48.7579 44.263 48.7634 44.2438 48.7634C44.2164 48.7634 44.1863 48.7607 44.1507 48.7525C44.1151 48.7471 44.0959 48.7335 44.0959 48.7145V48.5568H42.3406C41.9408 48.5568 41.6314 48.5568 41.4151 48.5623C41.1988 48.5677 41.0372 48.5677 40.9331 48.5731C40.8291 48.5759 40.7387 48.5786 40.6675 48.5786C40.6401 48.5786 40.6237 48.5595 40.6127 48.5188C40.6018 48.4807 40.5991 48.4481 40.5991 48.4209C40.5991 48.3883 40.6045 48.3584 40.6127 48.3285C40.6237 48.2986 40.6374 48.285 40.6566 48.285H41.1002C41.1714 48.285 41.2152 48.2687 41.2289 48.2361C41.2426 48.2035 41.248 48.1247 41.248 48.0024V44.9204C41.248 44.6459 41.2289 44.4475 41.1933 44.3224C41.1577 44.1974 41.1084 44.1376 41.0509 44.1376H40.6949C40.6155 44.1376 40.5771 44.0887 40.5771 43.9909C40.5771 43.8876 40.6127 43.8332 40.6867 43.8332C40.8126 43.8332 40.9633 43.836 41.144 43.8441C41.3247 43.8495 41.5082 43.855 41.6917 43.855H43.7317V43.6973C43.7317 43.6783 43.7454 43.662 43.7701 43.6539C43.7974 43.643 43.8221 43.6403 43.8495 43.6403C43.8769 43.6403 43.907 43.6457 43.9426 43.6539C43.9782 43.6647 43.9973 43.6783 43.9973 43.6973C43.9973 43.874 44.0028 44.067 44.011 44.2735C44.022 44.4828 44.0384 44.6595 44.0658 44.8008C44.0713 44.8198 44.0631 44.8361 44.0357 44.8443C44.0083 44.8524 43.9836 44.8579 43.9563 44.8579C43.9289 44.8579 43.896 44.8524 43.8522 44.8443C43.8084 44.8361 43.7892 44.8198 43.7892 44.8008C43.7618 44.7084 43.7317 44.6105 43.6961 44.5073C43.6605 44.404 43.603 44.3306 43.5236 44.2925C43.3976 44.2463 43.2443 44.211 43.0608 44.1838C42.8774 44.1567 42.6309 44.1458 42.3215 44.1458C42.2284 44.1512 42.1681 44.1811 42.1353 44.23C42.1024 44.279 42.086 44.3578 42.086 44.4692V46.0727L42.0942 46.07Z" fill="#EFEFEF"/>
<path d="M45.21 46.3635C45.21 45.9586 45.2866 45.5944 45.4427 45.2737C45.5961 44.9503 45.8097 44.673 46.078 44.442C46.3464 44.211 46.6558 44.0316 47.0008 43.9093C47.3459 43.7843 47.7046 43.7245 48.0797 43.7245C48.3043 43.7245 48.5097 43.7517 48.6959 43.8088C48.8821 43.8631 49.0518 43.9311 49.2025 44.0099V43.8441C49.2025 43.7979 49.2408 43.7762 49.3202 43.7762C49.3476 43.7762 49.375 43.7816 49.4051 43.7897C49.4352 43.8006 49.4489 43.8169 49.4489 43.8441C49.4489 44.0208 49.4599 44.2355 49.479 44.4909C49.4982 44.7464 49.5228 44.9584 49.5475 45.1269C49.553 45.1541 49.542 45.1731 49.5119 45.1867C49.4818 45.2003 49.4516 45.2057 49.4188 45.2057C49.3914 45.2057 49.364 45.2003 49.3312 45.1867C49.2983 45.1731 49.2791 45.1541 49.2709 45.1269L49.1915 44.6078C48.9943 44.4176 48.7944 44.2844 48.5891 44.2056C48.3864 44.1268 48.1619 44.0887 47.9182 44.0887C47.6087 44.0887 47.324 44.1811 47.0611 44.3632C46.7982 44.5453 46.5873 44.7953 46.4313 45.1106C46.2724 45.4286 46.1958 45.7901 46.1958 46.2005C46.1958 46.6109 46.2806 46.9778 46.4477 47.2958C46.6147 47.6165 46.8365 47.8665 47.1131 48.0486C47.3897 48.2307 47.6936 48.3231 48.0304 48.3231C48.2742 48.3231 48.4987 48.2878 48.7068 48.2198C48.9149 48.1519 49.1258 48.0459 49.3421 47.9018L49.3914 47.3447C49.3914 47.293 49.4352 47.2659 49.5201 47.2659C49.5475 47.2659 49.5803 47.2713 49.6187 47.2794C49.657 47.2903 49.6735 47.3093 49.668 47.342C49.6488 47.4398 49.6351 47.5648 49.6296 47.7143C49.6242 47.8638 49.6187 48.016 49.6159 48.1682C49.6132 48.3204 49.6105 48.4563 49.6105 48.5731C49.6105 48.5922 49.5913 48.6085 49.5557 48.6166C49.5201 48.6275 49.4872 48.6302 49.4626 48.6302C49.3832 48.6302 49.3449 48.6112 49.3449 48.5704V48.4046C48.8903 48.5867 48.4412 48.6791 47.9949 48.6791C47.4691 48.6791 46.9954 48.584 46.5764 48.3965C46.1547 48.2062 45.8233 47.9399 45.5796 47.5947C45.3359 47.2496 45.2154 46.8392 45.2154 46.3608L45.21 46.3635Z" fill="#EFEFEF"/>
<path d="M52.5135 43.8088C52.5409 43.749 52.6066 43.7218 52.7106 43.7218C52.8092 43.7218 52.8722 43.7544 52.8968 43.8196C52.9297 43.9637 52.9927 44.1621 53.0885 44.4176C53.1844 44.673 53.2966 44.9584 53.4281 45.2737C53.5595 45.589 53.6964 45.9124 53.8361 46.2412C53.9785 46.5701 54.1154 46.8826 54.2496 47.1816C54.3838 47.4779 54.5015 47.7306 54.6001 47.9399C54.6795 48.103 54.7507 48.2062 54.8164 48.247C54.8821 48.2878 54.9835 48.3095 55.1231 48.3095C55.1614 48.3095 55.1834 48.3476 55.1834 48.4264C55.1834 48.459 55.1806 48.4916 55.1724 48.5242C55.1669 48.5568 55.1532 48.5731 55.1341 48.5731C54.9314 48.5731 54.7589 48.5704 54.622 48.5623C54.4851 48.5568 54.3399 48.5514 54.1893 48.5514C54.0634 48.5514 53.9128 48.5541 53.7348 48.5623C53.5568 48.5677 53.3541 48.5731 53.1241 48.5731C53.0967 48.5731 53.0803 48.5595 53.0748 48.5297C53.0694 48.4998 53.0639 48.4726 53.0639 48.4454C53.0639 48.3611 53.083 48.3177 53.1241 48.3177H53.5978C53.669 48.3177 53.7074 48.2878 53.7074 48.2307C53.7074 48.2117 53.68 48.1301 53.628 47.9861C53.5759 47.842 53.5075 47.6599 53.4253 47.4371C53.3432 47.2142 53.2528 46.9778 53.1542 46.7223H51.7851C51.6482 47.062 51.5331 47.3555 51.44 47.6029C51.3469 47.8502 51.3031 48.0214 51.3031 48.1111C51.3031 48.1899 51.3168 48.2416 51.3415 48.2687C51.3661 48.2959 51.3935 48.3068 51.4209 48.3068H51.8261C51.8782 48.3068 51.9056 48.3448 51.9056 48.4237C51.9056 48.4563 51.9001 48.4889 51.8919 48.5215C51.8836 48.5541 51.8672 48.5704 51.8481 48.5704C51.6837 48.5704 51.555 48.5704 51.4592 48.565C51.3634 48.5623 51.2785 48.5595 51.2018 48.5541C51.1251 48.5514 51.0402 48.5487 50.9417 48.5487C50.8239 48.5487 50.7062 48.5514 50.5912 48.5595C50.4761 48.565 50.3337 48.5704 50.1612 48.5704C50.1338 48.5704 50.1174 48.5568 50.1065 48.5269C50.0955 48.497 50.0928 48.4699 50.0928 48.4427C50.0928 48.3584 50.1147 48.3149 50.1612 48.3149H50.4761C50.5473 48.3149 50.6021 48.285 50.635 48.228C50.7007 48.1247 50.7938 47.9399 50.917 47.6763C51.0375 47.4126 51.1744 47.1028 51.325 46.7522C51.4756 46.3989 51.629 46.0374 51.7823 45.6651C51.9357 45.2927 52.0781 44.9421 52.2122 44.6133C52.3464 44.2844 52.445 44.0153 52.5189 43.8061L52.5135 43.8088ZM53.0255 46.3934C52.9324 46.1271 52.8421 45.8607 52.7544 45.5998C52.6668 45.3389 52.5847 45.1079 52.5135 44.9041H52.4833C52.3985 45.1459 52.3054 45.396 52.2068 45.6569C52.1082 45.9178 52.0124 46.1624 51.922 46.3907H53.0255V46.3934Z" fill="#EFEFEF"/>
<path d="M57.1661 47.6056C57.1661 47.8203 57.1852 47.9834 57.2263 48.0894C57.2646 48.1981 57.3112 48.2497 57.3632 48.2497H57.7767C57.8041 48.2497 57.8233 48.2687 57.8369 48.3095C57.8506 48.3476 57.8561 48.3856 57.8561 48.4182C57.8561 48.4508 57.8506 48.4807 57.8424 48.5106C57.8315 48.5405 57.8205 48.5541 57.8068 48.5541H56.8019C56.6184 48.5541 56.4705 48.5541 56.3637 48.5595C56.2542 48.5623 56.1556 48.565 56.068 48.5704C55.9804 48.5731 55.8736 48.5759 55.7476 48.5759C55.7284 48.5759 55.712 48.5568 55.6983 48.5215C55.6846 48.4862 55.6791 48.4536 55.6791 48.4291C55.6791 48.3965 55.6846 48.3639 55.6928 48.3312C55.701 48.2986 55.7147 48.2823 55.7284 48.2823H56.2104C56.2898 48.2823 56.3281 48.228 56.3281 48.1165V44.9068C56.3281 44.3904 56.2569 44.1349 56.1118 44.1349H55.7668C55.6956 44.1349 55.6572 44.086 55.6572 43.9882C55.6572 43.9501 55.6654 43.912 55.6819 43.8794C55.6983 43.8468 55.7202 43.8305 55.7449 43.8305C56.0871 43.836 56.3938 43.8414 56.6677 43.8441C56.9415 43.8468 57.229 43.8495 57.5303 43.8495C58.1738 43.8495 58.6584 43.9827 58.9843 44.2518C59.3102 44.5181 59.4717 44.8416 59.4717 45.2193C59.4717 45.4612 59.4088 45.6732 59.28 45.8553C59.1513 46.0374 58.9816 46.1842 58.7735 46.2902C58.5626 46.3989 58.3353 46.4614 58.0943 46.4804C58.2258 46.5647 58.3463 46.6734 58.4531 46.8093C58.5626 46.9424 58.6858 47.0919 58.8282 47.2604C58.9706 47.4262 59.1431 47.5974 59.3512 47.7741C59.5594 47.9508 59.825 48.122 60.1536 48.2932C60.1016 48.3965 60.0221 48.4889 59.9181 48.5677C59.814 48.6465 59.6853 48.6846 59.5347 48.6846C59.3102 48.6846 59.1185 48.6221 58.9569 48.4998C58.7954 48.3747 58.6557 48.2198 58.538 48.0296C58.4202 47.8393 58.3134 47.6436 58.2176 47.4371C58.1217 47.2305 58.0259 47.043 57.9328 46.8745C57.8369 46.706 57.7329 46.581 57.6234 46.5021L57.1688 46.4723V47.6083L57.1661 47.6056ZM57.3632 44.1431C57.2318 44.1431 57.1661 44.2518 57.1661 44.4665V46.0918C57.2592 46.1108 57.3495 46.1216 57.4426 46.1216C57.6261 46.1216 57.8013 46.0863 57.9711 46.0184C58.1382 45.9504 58.2751 45.8444 58.3791 45.7058C58.4832 45.5645 58.538 45.3933 58.538 45.1922C58.538 45.0427 58.4996 44.885 58.4257 44.722C58.349 44.5589 58.2258 44.423 58.056 44.3116C57.8862 44.2001 57.6562 44.1458 57.366 44.1458L57.3632 44.1431Z" fill="#EFEFEF"/>
<path d="M65.2223 47.1055C65.2223 47.4697 65.2278 47.7605 65.236 47.9725C65.247 48.1845 65.2579 48.3448 65.2743 48.4508C65.2908 48.5595 65.3045 48.6356 65.3127 48.6846C65.3236 48.7335 65.3264 48.7797 65.3264 48.8259C65.3264 48.8857 65.2935 48.9129 65.2278 48.9129C65.1758 48.9129 65.1319 48.8667 65.0936 48.777C65.058 48.6846 65.0224 48.5949 64.9895 48.5079C64.9567 48.4209 64.9101 48.3747 64.8526 48.3747C64.8252 48.3747 64.7486 48.4019 64.6171 48.4536C64.4857 48.5052 64.3187 48.5568 64.1188 48.6058C63.9189 48.6547 63.7053 48.6791 63.4835 48.6791C62.9522 48.6791 62.4675 48.5922 62.0294 48.4155C61.5913 48.2388 61.2462 47.9806 60.9888 47.6382C60.7314 47.2958 60.6055 46.8745 60.6055 46.3717C60.6055 45.9423 60.6876 45.5618 60.8519 45.2329C61.0162 44.9041 61.238 44.6268 61.5173 44.4013C61.7966 44.1757 62.1116 44.0072 62.4648 43.893C62.818 43.7789 63.1822 43.7218 63.5629 43.7218C63.8121 43.7218 64.0202 43.7435 64.1845 43.7897C64.3488 43.836 64.5295 43.9012 64.7267 43.9854V43.8278C64.7267 43.7762 64.7705 43.749 64.8554 43.749C64.9403 43.749 64.9841 43.7762 64.9841 43.8278C64.9841 44.0045 64.9895 44.1838 64.9978 44.3714C65.0087 44.5562 65.0251 44.7356 65.0525 44.9041C65.0662 44.9557 65.0169 44.9829 64.9047 44.9829C64.8335 44.9829 64.7897 44.9611 64.776 44.9149L64.7267 44.6024C64.524 44.4121 64.3132 44.279 64.0969 44.2001C63.8805 44.1213 63.6505 44.0833 63.4068 44.0833C63.0974 44.0833 62.8044 44.1648 62.5305 44.3279C62.2539 44.491 62.0321 44.7301 61.8596 45.0427C61.6898 45.3552 61.6022 45.7412 61.6022 46.1977C61.6022 46.6217 61.6844 46.9941 61.8487 47.3121C62.013 47.63 62.2375 47.8801 62.5196 48.0595C62.8016 48.2388 63.122 48.3285 63.4752 48.3285C63.6724 48.3285 63.8394 48.3068 63.9736 48.2606C64.1078 48.2144 64.2447 48.1492 64.3816 48.0649V47.4099C64.3816 47.1354 64.3652 46.9642 64.3323 46.8908C64.2995 46.8201 64.2666 46.7821 64.2338 46.7821H63.4752C63.4287 46.7821 63.4068 46.7332 63.4068 46.6353C63.4068 46.6081 63.4123 46.581 63.4205 46.5484C63.4287 46.5157 63.4479 46.4994 63.4752 46.4994H63.8641C64.0257 46.4994 64.1845 46.4994 64.3433 46.5049C64.5021 46.5103 64.6281 46.5103 64.7267 46.5103C65.0361 46.5103 65.2552 46.5076 65.3811 46.4994C65.5098 46.494 65.6303 46.4886 65.7399 46.4886C65.759 46.4886 65.7755 46.5049 65.7891 46.5375C65.8028 46.5701 65.8083 46.6027 65.8083 46.6353C65.8083 46.6625 65.8028 46.6924 65.7946 46.7277C65.7837 46.7631 65.7672 46.7821 65.7399 46.7821H65.5235C65.3976 46.7821 65.3154 46.8038 65.2771 46.85C65.2387 46.8962 65.2168 46.9805 65.2168 47.1055H65.2223Z" fill="#EFEFEF"/>
<path d="M68.5135 43.8088C68.5408 43.749 68.6066 43.7218 68.7106 43.7218C68.8092 43.7218 68.8722 43.7544 68.8968 43.8196C68.9297 43.9637 68.9927 44.1621 69.0885 44.4176C69.1844 44.673 69.2966 44.9584 69.4281 45.2737C69.5595 45.589 69.6964 45.9124 69.8361 46.2412C69.9785 46.5701 70.1154 46.8826 70.2496 47.1816C70.3838 47.4779 70.5015 47.7306 70.6001 47.9399C70.6795 48.103 70.7507 48.2062 70.8164 48.247C70.8821 48.2878 70.9835 48.3095 71.1231 48.3095C71.1614 48.3095 71.1834 48.3476 71.1834 48.4264C71.1834 48.459 71.1806 48.4916 71.1724 48.5242C71.1669 48.5568 71.1532 48.5731 71.1341 48.5731C70.9314 48.5731 70.7589 48.5704 70.622 48.5623C70.4851 48.5568 70.3399 48.5514 70.1893 48.5514C70.0634 48.5514 69.9128 48.5541 69.7348 48.5623C69.5568 48.5677 69.3541 48.5731 69.1241 48.5731C69.0967 48.5731 69.0803 48.5595 69.0748 48.5297C69.0693 48.4998 69.0639 48.4726 69.0639 48.4454C69.0639 48.3611 69.083 48.3177 69.1241 48.3177H69.5978C69.669 48.3177 69.7074 48.2878 69.7074 48.2307C69.7074 48.2117 69.68 48.1301 69.628 47.9861C69.5759 47.842 69.5075 47.6599 69.4253 47.4371C69.3432 47.2142 69.2528 46.9778 69.1542 46.7223H67.7851C67.6481 47.062 67.5331 47.3555 67.44 47.6029C67.3469 47.8502 67.3031 48.0214 67.3031 48.1111C67.3031 48.1899 67.3168 48.2416 67.3415 48.2687C67.3661 48.2959 67.3935 48.3068 67.4209 48.3068H67.8261C67.8782 48.3068 67.9056 48.3448 67.9056 48.4237C67.9056 48.4563 67.9001 48.4889 67.8919 48.5215C67.8836 48.5541 67.8672 48.5704 67.8481 48.5704C67.6837 48.5704 67.555 48.5704 67.4592 48.565C67.3634 48.5623 67.2785 48.5595 67.2018 48.5541C67.1251 48.5514 67.0402 48.5487 66.9417 48.5487C66.8239 48.5487 66.7062 48.5514 66.5911 48.5595C66.4761 48.565 66.3337 48.5704 66.1612 48.5704C66.1338 48.5704 66.1174 48.5568 66.1065 48.5269C66.0955 48.497 66.0928 48.4699 66.0928 48.4427C66.0928 48.3584 66.1147 48.3149 66.1612 48.3149H66.4761C66.5473 48.3149 66.6021 48.285 66.635 48.228C66.7007 48.1247 66.7938 47.9399 66.917 47.6763C67.0375 47.4126 67.1744 47.1028 67.325 46.7522C67.4756 46.3989 67.629 46.0374 67.7823 45.6651C67.9357 45.2927 68.0781 44.9421 68.2122 44.6133C68.3464 44.2844 68.445 44.0153 68.5189 43.8061L68.5135 43.8088ZM69.0255 46.3934C68.9324 46.1271 68.8421 45.8607 68.7544 45.5998C68.6668 45.3389 68.5847 45.1079 68.5135 44.9041H68.4833C68.3985 45.1459 68.3054 45.396 68.2068 45.6569C68.1082 45.9178 68.0123 46.1624 67.922 46.3907H69.0255V46.3934Z" fill="#EFEFEF"/>
<path d="M76.3011 43.8495C76.8925 43.8495 77.4019 43.9583 77.8291 44.1784C78.2562 44.3958 78.5876 44.6866 78.8203 45.0454C79.0531 45.4041 79.1708 45.7955 79.1708 46.2195C79.1708 46.7033 79.0504 47.1191 78.8121 47.4724C78.5739 47.8257 78.2453 48.0948 77.8318 48.2796C77.4183 48.4644 76.9555 48.5595 76.4407 48.5595H75.3673C75.1838 48.5595 75.0359 48.5595 74.9292 48.565C74.8196 48.5677 74.721 48.5704 74.6334 48.5759C74.5458 48.5786 74.439 48.5813 74.313 48.5813C74.2939 48.5813 74.2774 48.5623 74.2637 48.5269C74.25 48.4916 74.2446 48.459 74.2446 48.4345C74.2446 48.4019 74.25 48.3693 74.2583 48.3367C74.2665 48.3041 74.2802 48.2878 74.2939 48.2878H74.7758C74.8552 48.2878 74.8936 48.2334 74.8936 48.122V44.9122C74.8936 44.3958 74.8224 44.1403 74.6772 44.1403H74.3322C74.261 44.1403 74.2227 44.0914 74.2227 43.9936C74.2227 43.9555 74.2309 43.9175 74.2473 43.8849C74.2637 43.8523 74.2856 43.8359 74.3103 43.8359C74.7375 43.8495 75.0825 43.855 75.3454 43.855H76.3011V43.8495ZM76.2901 48.2416C76.9144 48.2416 77.3854 48.0676 77.7004 47.717C78.0153 47.3691 78.1741 46.9261 78.1741 46.3907C78.1741 45.9722 78.1002 45.5971 77.9523 45.2655C77.8044 44.934 77.5716 44.6676 77.2513 44.4692C76.9309 44.2708 76.5119 44.1621 75.9944 44.1403C75.8164 44.1268 75.7287 44.2219 75.7287 44.423V47.4751C75.7287 47.7415 75.7479 47.9372 75.7835 48.0567C75.8191 48.1763 75.8711 48.2388 75.9369 48.2388H76.2928L76.2901 48.2416Z" fill="#EFEFEF"/>
<path d="M81.4467 46.07C81.6576 46.0646 81.8602 46.0537 82.0519 46.0401C82.2436 46.0265 82.4079 46.0129 82.5393 45.9966C82.6708 45.9803 82.742 45.9695 82.7556 45.9613L82.8241 45.5509C82.8378 45.5183 82.8843 45.502 82.961 45.502C82.9802 45.502 83.0076 45.5074 83.0404 45.5156C83.0733 45.5264 83.0897 45.5427 83.0897 45.5699C83.076 45.6732 83.0678 45.7738 83.0596 45.8689C83.0541 45.964 83.0487 46.0673 83.0487 46.176C83.0487 46.2738 83.0514 46.3798 83.0596 46.494C83.0651 46.6081 83.076 46.7196 83.0897 46.831C83.0897 46.85 83.0706 46.8663 83.035 46.8745C82.9994 46.8854 82.9638 46.8881 82.9309 46.8881C82.9035 46.8881 82.8789 46.8854 82.857 46.8772C82.8351 46.8718 82.8214 46.8609 82.8214 46.8473L82.742 46.426C82.742 46.426 82.6571 46.3989 82.5311 46.388C82.4024 46.3744 82.2436 46.3608 82.0519 46.3499C81.8602 46.3364 81.6576 46.3282 81.4412 46.32V47.505C81.4412 47.7795 81.4604 47.9698 81.5015 48.0785C81.5398 48.1872 81.5864 48.2388 81.6384 48.2388H81.9533C82.2627 48.2334 82.5558 48.2035 82.8351 48.1519C83.1144 48.1002 83.3197 48.0269 83.4512 47.9372L83.5005 47.5567C83.506 47.5376 83.5279 47.5213 83.5635 47.5132C83.5991 47.505 83.6319 47.4996 83.6566 47.4996C83.6894 47.4996 83.7195 47.5023 83.7442 47.5105C83.7716 47.5159 83.7798 47.5322 83.7743 47.5594C83.7469 47.7279 83.7305 47.9209 83.725 48.1328C83.7195 48.3448 83.7141 48.5378 83.7141 48.7145C83.7141 48.7335 83.7004 48.7471 83.6703 48.7525C83.6401 48.7579 83.6155 48.7634 83.5963 48.7634C83.5689 48.7634 83.5388 48.7607 83.5032 48.7525C83.4676 48.7471 83.4484 48.7335 83.4484 48.7145V48.5568H81.6932C81.2934 48.5568 80.9839 48.5568 80.7676 48.5623C80.5513 48.5677 80.3897 48.5677 80.2857 48.5731C80.1816 48.5759 80.0912 48.5786 80.02 48.5786C79.9927 48.5786 79.9762 48.5595 79.9653 48.5188C79.9543 48.4807 79.9516 48.4481 79.9516 48.4209C79.9516 48.3883 79.9571 48.3584 79.9653 48.3285C79.9762 48.2986 79.9899 48.285 80.0091 48.285H80.4527C80.5239 48.285 80.5677 48.2687 80.5814 48.2361C80.5951 48.2035 80.6006 48.1247 80.6006 48.0024V44.9204C80.6006 44.6459 80.5814 44.4475 80.5458 44.3224C80.5102 44.1974 80.4609 44.1376 80.4034 44.1376H80.0474C79.968 44.1376 79.9297 44.0887 79.9297 43.9909C79.9297 43.8876 79.9653 43.8332 80.0392 43.8332C80.1652 43.8332 80.3158 43.836 80.4965 43.8441C80.6772 43.8495 80.8607 43.855 81.0442 43.855H83.0843V43.6973C83.0843 43.6783 83.0979 43.662 83.1226 43.6539C83.15 43.643 83.1746 43.6403 83.202 43.6403C83.2294 43.6403 83.2595 43.6457 83.2951 43.6539C83.3307 43.6647 83.3499 43.6783 83.3499 43.6973C83.3499 43.874 83.3553 44.067 83.3636 44.2735C83.3745 44.4828 83.3909 44.6595 83.4183 44.8008C83.4238 44.8198 83.4156 44.8361 83.3882 44.8443C83.3608 44.8524 83.3362 44.8579 83.3088 44.8579C83.2814 44.8579 83.2486 44.8524 83.2047 44.8443C83.1609 44.8361 83.1418 44.8198 83.1418 44.8008C83.1144 44.7084 83.0843 44.6105 83.0487 44.5073C83.0131 44.404 82.9555 44.3306 82.8761 44.2925C82.7502 44.2463 82.5968 44.211 82.4134 44.1838C82.2299 44.1567 81.9834 44.1458 81.674 44.1458C81.5809 44.1512 81.5207 44.1811 81.4878 44.23C81.4549 44.279 81.4385 44.3578 81.4385 44.4692V46.0727L81.4467 46.07Z" fill="#EFEFEF"/>
<path d="M87.126 46.3635C87.126 45.9586 87.2026 45.5944 87.3587 45.2737C87.5121 44.9503 87.7257 44.673 87.994 44.442C88.2624 44.211 88.5718 44.0316 88.9168 43.9093C89.2619 43.7843 89.6206 43.7245 89.9958 43.7245C90.2203 43.7245 90.4257 43.7517 90.6119 43.8088C90.7981 43.8631 90.9679 43.9311 91.1185 44.0099V43.8441C91.1185 43.7979 91.1568 43.7762 91.2362 43.7762C91.2636 43.7762 91.291 43.7816 91.3211 43.7897C91.3512 43.8006 91.3649 43.8169 91.3649 43.8441C91.3649 44.0208 91.3759 44.2355 91.395 44.4909C91.4142 44.7464 91.4389 44.9584 91.4635 45.1269C91.469 45.1541 91.458 45.1731 91.4279 45.1867C91.3978 45.2003 91.3677 45.2057 91.3348 45.2057C91.3074 45.2057 91.28 45.2003 91.2472 45.1867C91.2143 45.1731 91.1951 45.1541 91.1869 45.1269L91.1075 44.6078C90.9104 44.4176 90.7105 44.2844 90.5051 44.2056C90.3024 44.1268 90.0779 44.0887 89.8342 44.0887C89.5248 44.0887 89.24 44.1811 88.9771 44.3632C88.7142 44.5453 88.5034 44.7953 88.3473 45.1106C88.1885 45.4286 88.1118 45.7901 88.1118 46.2005C88.1118 46.6109 88.1967 46.9778 88.3637 47.2958C88.5307 47.6165 88.7525 47.8665 89.0291 48.0486C89.3057 48.2307 89.6096 48.3231 89.9465 48.3231C90.1902 48.3231 90.4147 48.2878 90.6228 48.2198C90.8309 48.1519 91.0418 48.0459 91.2581 47.9018L91.3074 47.3447C91.3074 47.293 91.3512 47.2659 91.4361 47.2659C91.4635 47.2659 91.4964 47.2713 91.5347 47.2794C91.573 47.2903 91.5895 47.3093 91.584 47.342C91.5648 47.4398 91.5511 47.5648 91.5457 47.7143C91.5402 47.8638 91.5347 48.016 91.532 48.1682C91.5292 48.3204 91.5265 48.4563 91.5265 48.5731C91.5265 48.5922 91.5073 48.6085 91.4717 48.6166C91.4361 48.6275 91.4033 48.6302 91.3786 48.6302C91.2992 48.6302 91.2609 48.6112 91.2609 48.5704V48.4046C90.8063 48.5867 90.3572 48.6791 89.9109 48.6791C89.3851 48.6791 88.9114 48.584 88.4924 48.3965C88.0707 48.2062 87.7394 47.9399 87.4956 47.5947C87.2519 47.2496 87.1315 46.8392 87.1315 46.3608L87.126 46.3635Z" fill="#EFEFEF"/>
<path d="M94.4295 43.8088C94.4569 43.749 94.5226 43.7218 94.6266 43.7218C94.7252 43.7218 94.7882 43.7544 94.8128 43.8196C94.8457 43.9637 94.9087 44.1621 95.0045 44.4176C95.1004 44.673 95.2126 44.9584 95.3441 45.2737C95.4755 45.589 95.6124 45.9124 95.7521 46.2412C95.8945 46.5701 96.0314 46.8826 96.1656 47.1816C96.2998 47.4779 96.4175 47.7306 96.5161 47.9399C96.5955 48.103 96.6667 48.2062 96.7324 48.247C96.7981 48.2878 96.8995 48.3095 97.0391 48.3095C97.0775 48.3095 97.0994 48.3476 97.0994 48.4264C97.0994 48.459 97.0966 48.4916 97.0884 48.5242C97.0829 48.5568 97.0692 48.5731 97.0501 48.5731C96.8474 48.5731 96.6749 48.5704 96.538 48.5623C96.4011 48.5568 96.256 48.5514 96.1053 48.5514C95.9794 48.5514 95.8288 48.5541 95.6508 48.5623C95.4728 48.5677 95.2702 48.5731 95.0401 48.5731C95.0128 48.5731 94.9963 48.5595 94.9908 48.5297C94.9854 48.4998 94.9799 48.4726 94.9799 48.4454C94.9799 48.3611 94.9991 48.3177 95.0401 48.3177H95.5139C95.5851 48.3177 95.6234 48.2878 95.6234 48.2307C95.6234 48.2117 95.596 48.1301 95.544 47.9861C95.492 47.842 95.4235 47.6599 95.3414 47.4371C95.2592 47.2142 95.1688 46.9778 95.0703 46.7223H93.7011C93.5642 47.062 93.4492 47.3555 93.3561 47.6029C93.263 47.8502 93.2191 48.0214 93.2191 48.1111C93.2191 48.1899 93.2328 48.2416 93.2575 48.2687C93.2821 48.2959 93.3095 48.3068 93.3369 48.3068H93.7422C93.7942 48.3068 93.8216 48.3448 93.8216 48.4237C93.8216 48.4563 93.8161 48.4889 93.8079 48.5215C93.7997 48.5541 93.7832 48.5704 93.7641 48.5704C93.5998 48.5704 93.4711 48.5704 93.3752 48.565C93.2794 48.5623 93.1945 48.5595 93.1178 48.5541C93.0411 48.5514 92.9563 48.5487 92.8577 48.5487C92.7399 48.5487 92.6222 48.5514 92.5072 48.5595C92.3922 48.565 92.2498 48.5704 92.0772 48.5704C92.0499 48.5704 92.0334 48.5568 92.0225 48.5269C92.0115 48.497 92.0088 48.4699 92.0088 48.4427C92.0088 48.3584 92.0307 48.3149 92.0772 48.3149H92.3922C92.4634 48.3149 92.5181 48.285 92.551 48.228C92.6167 48.1247 92.7098 47.9399 92.833 47.6763C92.9535 47.4126 93.0904 47.1028 93.241 46.7522C93.3917 46.3989 93.545 46.0374 93.6983 45.6651C93.8517 45.2927 93.9941 44.9421 94.1283 44.6133C94.2624 44.2844 94.361 44.0153 94.435 43.8061L94.4295 43.8088ZM94.9415 46.3934C94.8484 46.1271 94.7581 45.8607 94.6705 45.5998C94.5828 45.3389 94.5007 45.1079 94.4295 44.9041H94.3994C94.3145 45.1459 94.2214 45.396 94.1228 45.6569C94.0242 45.9178 93.9284 46.1624 93.838 46.3907H94.9415V46.3934Z" fill="#EFEFEF"/>
<path d="M99.0821 47.6056C99.0821 47.8203 99.1012 47.9834 99.1423 48.0894C99.1806 48.1981 99.2272 48.2497 99.2792 48.2497H99.6927C99.7201 48.2497 99.7393 48.2687 99.753 48.3095C99.7667 48.3476 99.7721 48.3856 99.7721 48.4182C99.7721 48.4508 99.7666 48.4807 99.7584 48.5106C99.7475 48.5405 99.7365 48.5541 99.7228 48.5541H98.7179C98.5344 48.5541 98.3865 48.5541 98.2797 48.5595C98.1702 48.5623 98.0716 48.565 97.984 48.5704C97.8964 48.5731 97.7896 48.5759 97.6636 48.5759C97.6444 48.5759 97.628 48.5568 97.6143 48.5215C97.6006 48.4862 97.5951 48.4536 97.5951 48.4291C97.5951 48.3965 97.6006 48.3639 97.6088 48.3312C97.6171 48.2986 97.6307 48.2823 97.6444 48.2823H98.1264C98.2058 48.2823 98.2441 48.228 98.2441 48.1165V44.9068C98.2441 44.3904 98.1729 44.1349 98.0278 44.1349H97.6828C97.6116 44.1349 97.5732 44.086 97.5732 43.9882C97.5732 43.9501 97.5815 43.912 97.5979 43.8794C97.6143 43.8468 97.6362 43.8305 97.6609 43.8305C98.0032 43.836 98.3099 43.8414 98.5837 43.8441C98.8575 43.8468 99.145 43.8495 99.4463 43.8495C100.09 43.8495 100.574 43.9827 100.9 44.2518C101.226 44.5181 101.388 44.8416 101.388 45.2193C101.388 45.4612 101.325 45.6732 101.196 45.8553C101.067 46.0374 100.898 46.1842 100.689 46.2902C100.479 46.3989 100.251 46.4614 100.01 46.4804C100.142 46.5647 100.262 46.6734 100.369 46.8093C100.479 46.9424 100.602 47.0919 100.744 47.2604C100.887 47.4262 101.059 47.5974 101.267 47.7741C101.475 47.9508 101.741 48.122 102.07 48.2932C102.018 48.3965 101.938 48.4889 101.834 48.5677C101.73 48.6465 101.601 48.6846 101.451 48.6846C101.226 48.6846 101.035 48.6221 100.873 48.4998C100.711 48.3747 100.572 48.2198 100.454 48.0296C100.336 47.8393 100.229 47.6436 100.134 47.4371C100.038 47.2305 99.9419 47.043 99.8488 46.8745C99.753 46.706 99.6489 46.581 99.5394 46.5021L99.0848 46.4723V47.6083L99.0821 47.6056ZM99.2792 44.1431C99.1478 44.1431 99.0821 44.2518 99.0821 44.4665V46.0918C99.1752 46.1108 99.2655 46.1216 99.3586 46.1216C99.5421 46.1216 99.7174 46.0863 99.8871 46.0184C100.054 45.9504 100.191 45.8444 100.295 45.7058C100.399 45.5645 100.454 45.3933 100.454 45.1922C100.454 45.0427 100.416 44.885 100.342 44.722C100.265 44.5589 100.142 44.423 99.972 44.3116C99.8022 44.2001 99.5722 44.1458 99.282 44.1458L99.2792 44.1431Z" fill="#EFEFEF"/>
<path d="M104.011 47.6056C104.011 47.8203 104.03 47.9834 104.071 48.0894C104.109 48.1981 104.156 48.2497 104.208 48.2497H104.621C104.649 48.2497 104.668 48.2687 104.682 48.3095C104.695 48.3476 104.701 48.3856 104.701 48.4182C104.701 48.4508 104.695 48.4807 104.687 48.5106C104.676 48.5405 104.665 48.5541 104.652 48.5541H103.647C103.463 48.5541 103.315 48.5541 103.208 48.5595C103.099 48.5623 103 48.565 102.913 48.5704C102.825 48.5731 102.718 48.5759 102.592 48.5759C102.573 48.5759 102.557 48.5568 102.543 48.5215C102.529 48.4862 102.524 48.4536 102.524 48.4291C102.524 48.3965 102.529 48.3639 102.538 48.3312C102.546 48.2986 102.559 48.2823 102.573 48.2823H103.055C103.135 48.2823 103.173 48.228 103.173 48.1165V44.9068C103.173 44.3904 103.102 44.1349 102.957 44.1349H102.611C102.54 44.1349 102.502 44.086 102.502 43.9882C102.502 43.9501 102.51 43.912 102.527 43.8794C102.543 43.8468 102.565 43.8305 102.59 43.8305C102.932 43.836 103.239 43.8414 103.512 43.8441C103.786 43.8468 104.074 43.8495 104.375 43.8495C105.018 43.8495 105.503 43.9827 105.829 44.2518C106.155 44.5181 106.316 44.8416 106.316 45.2193C106.316 45.4612 106.253 45.6732 106.125 45.8553C105.996 46.0374 105.826 46.1842 105.618 46.2902C105.407 46.3989 105.18 46.4614 104.939 46.4804C105.071 46.5647 105.191 46.6734 105.298 46.8093C105.407 46.9424 105.531 47.0919 105.673 47.2604C105.815 47.4262 105.988 47.5974 106.196 47.7741C106.404 47.9508 106.67 48.122 106.998 48.2932C106.946 48.3965 106.867 48.4889 106.763 48.5677C106.659 48.6465 106.53 48.6846 106.379 48.6846C106.155 48.6846 105.963 48.6221 105.802 48.4998C105.64 48.3747 105.5 48.2198 105.383 48.0296C105.265 47.8393 105.158 47.6436 105.062 47.4371C104.966 47.2305 104.871 47.043 104.778 46.8745C104.682 46.706 104.578 46.581 104.468 46.5021L104.014 46.4723V47.6083L104.011 47.6056ZM104.208 44.1431C104.076 44.1431 104.011 44.2518 104.011 44.4665V46.0918C104.104 46.1108 104.194 46.1216 104.287 46.1216C104.471 46.1216 104.646 46.0863 104.816 46.0184C104.983 45.9504 105.12 45.8444 105.224 45.7058C105.328 45.5645 105.383 45.3933 105.383 45.1922C105.383 45.0427 105.344 44.885 105.27 44.722C105.194 44.5589 105.071 44.423 104.901 44.3116C104.731 44.2001 104.501 44.1458 104.211 44.1458L104.208 44.1431Z" fill="#EFEFEF"/>
<path d="M110.073 43.7218C110.421 43.7218 110.755 43.787 111.073 43.9175C111.39 44.0479 111.675 44.2273 111.922 44.4556C112.168 44.6839 112.363 44.9475 112.502 45.2438C112.645 45.54 112.713 45.8553 112.713 46.1869C112.713 46.5185 112.642 46.8446 112.502 47.1463C112.36 47.4452 112.168 47.7116 111.922 47.9426C111.675 48.1736 111.393 48.3557 111.073 48.4862C110.755 48.6166 110.421 48.6818 110.073 48.6818C109.726 48.6818 109.392 48.6166 109.074 48.4862C108.753 48.3557 108.471 48.1736 108.225 47.9426C107.979 47.7116 107.784 47.4452 107.644 47.1463C107.502 46.8473 107.434 46.5266 107.434 46.1869C107.434 45.8472 107.505 45.54 107.644 45.2438C107.787 44.9475 107.979 44.6839 108.225 44.4556C108.471 44.2273 108.753 44.0479 109.074 43.9175C109.392 43.787 109.726 43.7218 110.073 43.7218ZM110.073 44.0724C109.739 44.0724 109.446 44.1675 109.2 44.3605C108.953 44.5535 108.762 44.8089 108.622 45.1296C108.485 45.4503 108.414 45.8009 108.414 46.1869C108.414 46.5728 108.482 46.9261 108.622 47.2523C108.762 47.5784 108.953 47.8393 109.2 48.035C109.446 48.2307 109.737 48.3285 110.073 48.3285C110.41 48.3285 110.7 48.2307 110.947 48.035C111.193 47.8393 111.385 47.5784 111.525 47.2523C111.664 46.9261 111.733 46.5701 111.733 46.1869C111.733 45.8037 111.664 45.4503 111.525 45.1296C111.388 44.8117 111.193 44.5535 110.947 44.3605C110.7 44.1675 110.41 44.0724 110.073 44.0724Z" fill="#EFEFEF"/>
<path d="M116.117 43.8767C116.111 43.8441 116.106 43.8169 116.103 43.7925C116.101 43.7707 116.098 43.7517 116.098 43.7381C116.098 43.6783 116.131 43.6511 116.196 43.6511C116.248 43.6511 116.287 43.6593 116.309 43.6756C116.331 43.6919 116.35 43.7354 116.363 43.8088C116.396 43.9121 116.418 44.0072 116.426 44.0887C116.437 44.1702 116.448 44.2491 116.462 44.3279C116.481 44.4121 116.5 44.4882 116.517 44.5589C116.533 44.6296 116.552 44.7356 116.572 44.8878C116.572 44.9394 116.528 44.9666 116.443 44.9666C116.415 44.9666 116.391 44.9611 116.363 44.953C116.336 44.9421 116.317 44.9231 116.303 44.8905C116.218 44.6486 116.084 44.4502 115.898 44.2925C115.712 44.1349 115.506 44.0534 115.276 44.0479C115.093 44.0479 114.918 44.1077 114.748 44.2246C114.581 44.3415 114.496 44.5045 114.496 44.7138C114.496 44.9231 114.567 45.1052 114.712 45.2628C114.857 45.4204 115.038 45.5672 115.254 45.7031C115.471 45.839 115.687 45.9858 115.906 46.1434C116.122 46.301 116.303 46.4858 116.448 46.7005C116.593 46.9153 116.665 47.1789 116.665 47.4942C116.665 47.7605 116.58 47.9834 116.413 48.16C116.246 48.3367 116.035 48.4671 115.783 48.5568C115.531 48.6438 115.271 48.69 115.008 48.69C114.824 48.69 114.638 48.6655 114.452 48.6166C114.266 48.5677 114.112 48.5161 113.995 48.4644C113.995 48.5351 113.989 48.5813 113.981 48.6003C113.973 48.6193 113.937 48.6356 113.877 48.6492H113.839C113.787 48.6492 113.756 48.6221 113.751 48.5704C113.732 48.3421 113.707 48.1356 113.677 47.948C113.647 47.7632 113.617 47.5322 113.584 47.2577C113.584 47.2251 113.6 47.2006 113.633 47.1843C113.666 47.168 113.702 47.1599 113.743 47.1599C113.803 47.1599 113.836 47.1762 113.841 47.2088C113.902 47.4045 113.989 47.592 114.107 47.7714C114.225 47.9508 114.37 48.0975 114.54 48.2117C114.709 48.3258 114.898 48.3829 115.101 48.3829C115.293 48.3829 115.473 48.3258 115.649 48.2117C115.824 48.0975 115.909 47.9236 115.909 47.6871C115.909 47.4507 115.838 47.2604 115.693 47.0946C115.547 46.9288 115.369 46.7739 115.156 46.6299C114.942 46.4858 114.729 46.3364 114.515 46.1787C114.301 46.0211 114.123 45.8471 113.978 45.6515C113.833 45.4558 113.762 45.2166 113.762 44.9367C113.762 44.6758 113.839 44.4583 113.989 44.2817C114.14 44.105 114.337 43.9718 114.575 43.8794C114.813 43.787 115.071 43.7435 115.339 43.7435C115.504 43.7435 115.654 43.7571 115.788 43.787C115.923 43.8169 116.032 43.8468 116.12 43.8794L116.117 43.8767Z" fill="#EFEFEF"/>
</g>
<defs>
<clipPath id="clip0_189_149">
<rect width="157" height="50" fill="white"/>
</clipPath>
</defs>
</svg>
