<svg width="158" height="45" viewBox="0 0 158 45" fill="none" xmlns="http://www.w3.org/2000/svg">
<g clip-path="url(#clip0_189_128)">
<path d="M12.4527 32.0714L10.2401 27.0772H2.90298L0.584136 32.0714H0L8.04515 14.7016L15.7009 32.0714H12.4527ZM3.14194 26.5506H10.0277L6.67331 18.9321L3.13309 26.5506H3.14194Z" fill="#EFEFEF"/>
<path d="M46.3857 27.1738C46.3857 28.1129 46.1379 28.9731 45.6334 29.7367C45.1289 30.5091 44.4209 31.1147 43.4916 31.5535C42.5711 32.0012 41.4825 32.2206 40.2346 32.2206C39.0574 32.2206 37.9069 31.9748 36.774 31.4745C35.6411 30.9743 34.8269 30.2545 34.3224 29.3154L34.641 28.8941C35.1189 29.7981 35.8889 30.4915 36.9599 30.9743C38.0308 31.457 39.1194 31.694 40.2346 31.694C41.4294 31.694 42.3764 31.4131 43.0756 30.8602C43.7748 30.3072 44.1199 29.5173 44.1199 28.5079C44.1199 27.7267 43.7659 27.0246 43.049 26.4014C42.341 25.7782 41.2258 25.1551 39.7124 24.5319C38.3936 23.9702 37.3581 23.4786 36.6147 23.0573C35.8712 22.6273 35.296 22.1358 34.8977 21.5652C34.4994 20.9947 34.3047 20.3101 34.3047 19.5114C34.3047 18.502 34.5702 17.6331 35.1101 16.9046C35.65 16.1849 36.3669 15.6319 37.2608 15.2545C38.1547 14.8771 39.1371 14.6928 40.1903 14.6928C41.3851 14.6928 42.5091 14.9649 43.5712 15.5003C44.6244 16.0445 45.3856 16.773 45.837 17.6946L45.4918 18.1159C45.0493 17.2118 44.3324 16.5009 43.3322 15.983C42.3321 15.4652 41.2966 15.2106 40.2434 15.2106C39.0132 15.2106 38.0485 15.4564 37.3404 15.9391C36.6412 16.4307 36.2872 17.1416 36.2872 18.0807C36.2872 18.6249 36.4465 19.0901 36.774 19.4851C37.1015 19.88 37.5351 20.2224 38.0927 20.5208C38.6503 20.8192 39.4823 21.2229 40.5886 21.7232L41.3763 22.0919C43.0844 22.8642 44.3412 23.6191 45.1643 24.3651C45.9786 25.1112 46.3945 26.0503 46.3945 27.165L46.3857 27.1738Z" fill="#EFEFEF"/>
<path d="M61.8214 14.8508V15.3774H56.6261V32.0714H53.6435V15.3774H48.4482V14.8508H61.8214Z" fill="#EFEFEF"/>
<path d="M78.3625 32.0714H75.3002L74.5391 28.385C74.2735 27.1299 73.8399 26.1381 73.2292 25.4008C72.6185 24.6723 71.9016 24.2861 71.0785 24.251H67.9631V32.0714H64.9805V14.8508H72.5831C73.831 14.8508 74.8842 15.079 75.7516 15.5442C76.6101 16.0094 77.2473 16.5974 77.6633 17.3259C78.0793 18.0544 78.2828 18.7917 78.2828 19.5377C78.2828 20.5295 77.9377 21.4687 77.2385 22.3552C76.5393 23.2329 75.5303 23.8209 74.1939 24.093C75.017 24.3563 75.725 24.7952 76.3003 25.4271C76.8756 26.0591 77.2296 26.691 77.3535 27.3405L78.3536 32.0802L78.3625 32.0714ZM67.9631 23.7244H71.7069C72.3087 23.7244 72.884 23.5401 73.4327 23.1714C73.9903 22.8028 74.4329 22.3025 74.778 21.653C75.1232 21.0035 75.2914 20.2926 75.2914 19.5114C75.2914 18.7302 75.1232 18.0456 74.778 17.4049C74.4329 16.773 73.9903 16.2727 73.4327 15.9128C72.8752 15.553 72.2999 15.3774 71.7069 15.3774H67.9631V23.7244Z" fill="#EFEFEF"/>
<path d="M93.8512 32.0714L91.6385 27.0772H84.3014L81.9826 32.0714H81.3984L89.4436 14.7016L97.0993 32.0714H93.8512ZM84.5404 26.5506H91.4261L88.0718 18.9321L84.5315 26.5506H84.5404Z" fill="#EFEFEF"/>
<path d="M127.757 32.0714L125.545 27.0772H118.208L115.889 32.0714H115.305L123.35 14.7016L131.006 32.0714H127.757ZM118.438 26.5506H125.324L121.969 18.9321L118.429 26.5506H118.438ZM126.828 12.3405C126.527 12.6741 126.244 12.9374 125.987 13.1217C125.722 13.3148 125.377 13.4552 124.961 13.543C124.607 13.6132 124.323 13.6483 124.12 13.6483C123.518 13.6483 123.005 13.4728 122.562 13.1217C122.491 13.069 122.359 12.9637 122.155 12.8057C121.951 12.6477 121.766 12.5249 121.597 12.4371C121.429 12.3493 121.27 12.3054 121.111 12.3054C120.951 12.323 120.819 12.3581 120.704 12.4195C120.588 12.481 120.491 12.5512 120.403 12.639C120.314 12.7267 120.252 12.7882 120.217 12.8233L119.845 12.4546C120.128 12.1387 120.403 11.8841 120.677 11.6823C120.951 11.4804 121.297 11.3312 121.721 11.2259C122.04 11.1556 122.297 11.1205 122.482 11.1205C123.102 11.1205 123.651 11.3049 124.146 11.6735C124.235 11.7437 124.377 11.8578 124.571 12.0158C124.766 12.1738 124.943 12.2879 125.102 12.3581C125.262 12.4283 125.421 12.4634 125.58 12.4634C125.739 12.4634 125.872 12.4283 125.987 12.3581C126.102 12.2879 126.2 12.2177 126.288 12.1387C126.377 12.0597 126.439 12.007 126.474 11.9719L126.846 12.3405H126.828Z" fill="#EFEFEF"/>
<path d="M150.291 23.4611C150.291 25.0322 149.893 26.4892 149.105 27.8321C148.317 29.175 147.246 30.2458 145.901 31.0357C144.556 31.8256 143.095 32.2294 141.511 32.2294C139.927 32.2294 138.467 31.8344 137.121 31.0532C135.776 30.2721 134.705 29.2013 133.917 27.8584C133.13 26.5155 132.731 25.0497 132.731 23.4611C132.731 21.8724 133.13 20.4067 133.917 19.0638C134.705 17.7209 135.776 16.6589 137.121 15.8689C138.467 15.0878 139.927 14.6928 141.511 14.6928C143.095 14.6928 144.556 15.0878 145.901 15.8865C147.246 16.6852 148.317 17.7472 149.105 19.0901C149.893 20.433 150.291 21.89 150.291 23.4611ZM147.176 23.4611C147.176 21.3897 146.937 19.8186 146.467 18.7654C145.99 17.7121 145.326 16.852 144.458 16.1849C143.618 15.553 142.626 15.2458 141.502 15.2458C140.378 15.2458 139.369 15.5617 138.546 16.1849C137.67 16.852 136.997 17.7033 136.528 18.7654C136.059 19.8186 135.829 21.3897 135.829 23.4611C135.829 25.5325 136.059 27.1036 136.528 28.1568C136.997 29.2101 137.67 30.0702 138.546 30.7373C139.387 31.3868 140.378 31.7027 141.502 31.7027C142.626 31.7027 143.6 31.378 144.458 30.7373C145.317 30.079 145.99 29.2188 146.467 28.1568C146.945 27.1036 147.176 25.5325 147.176 23.4611Z" fill="#EFEFEF"/>
<path d="M18.1175 30.5442C18.7194 29.7455 19.5248 29.1223 20.5426 28.6834C19.454 27.7618 18.9052 26.5331 18.9052 25.0234C18.9052 24.409 19.0468 23.8385 19.3389 23.3119C19.631 22.7765 20.0027 22.3288 20.4629 21.9602C20.9055 21.6267 21.4807 21.3634 22.2065 21.1615C22.9322 20.9596 23.7022 20.8631 24.5253 20.8631H30.5172V38.0837H23.8438C22.7198 38.0837 21.7551 37.9608 20.9586 37.7063C20.162 37.4517 19.4717 37.0743 18.8875 36.5652C18.3388 36.0737 17.9317 35.5471 17.6485 34.9678C17.3652 34.3885 17.2236 33.8005 17.2236 33.1861C17.2236 32.2294 17.5246 31.3429 18.1175 30.5442ZM21.0559 36.2229C21.6489 37.1094 22.5782 37.557 23.8615 37.557H27.5257V29.1837H23.835C22.5517 29.1837 21.6224 29.5787 21.0382 30.3774C20.4541 31.1761 20.1709 32.1065 20.1709 33.1861C20.1709 34.3183 20.4629 35.3365 21.0559 36.2229ZM24.5253 21.3897C23.6668 21.3897 23.0119 21.7408 22.5605 22.4517C22.1091 23.1627 21.8879 24.014 21.8879 25.0322C21.8879 26.0503 22.1357 26.8578 22.6402 27.5863C23.1447 28.3148 23.7996 28.6747 24.605 28.6747H27.5345V21.3985H24.5253V21.3897Z" fill="#EFEFEF"/>
<path d="M101.082 37.3727C99.976 36.8286 99.0201 36.0913 98.2324 35.1521L98.5776 34.7572C100.303 36.732 102.41 37.715 104.915 37.715C106.003 37.715 106.986 37.3903 107.871 36.7496C108.747 36.0913 109.42 35.2311 109.889 34.1691C110.358 33.1159 110.588 31.5448 110.588 29.4734C110.588 27.402 110.358 25.8309 109.889 24.7776C109.42 23.7244 108.747 22.8643 107.871 22.1972C106.994 21.5477 106.003 21.2317 104.915 21.2317C102.56 21.2317 100.542 22.1006 98.8697 23.8473L98.5245 23.4523C99.3476 22.5834 100.312 21.9076 101.41 21.4248C102.507 20.9421 103.676 20.7051 104.906 20.7051C106.49 20.7051 107.95 21.1001 109.296 21.8812C110.641 22.6624 111.712 23.7332 112.5 25.0761C113.287 26.419 113.685 27.8847 113.685 29.4734C113.685 31.062 113.305 32.4664 112.535 33.7917C111.774 35.117 110.738 36.1791 109.437 36.969C108.136 37.7589 106.711 38.189 105.162 38.2417V39.3125H104.844C104.384 39.3125 104.153 39.7425 104.153 40.5939C104.153 41.0854 104.215 41.4102 104.339 41.5857C104.463 41.7613 104.649 41.849 104.897 41.849C105.145 41.849 105.331 41.7613 105.454 41.5857C105.578 41.4102 105.64 41.0767 105.64 40.5939H107.225C107.225 41.2083 107.012 41.6559 106.587 41.9456C106.163 42.2352 105.605 42.3757 104.897 42.3757C104.189 42.3757 103.622 42.2352 103.198 41.9456C102.773 41.6559 102.551 41.2083 102.551 40.5939C102.551 40.0322 102.746 39.6109 103.136 39.3125C103.525 39.014 104.021 38.8473 104.64 38.8122V38.2329C103.375 38.1978 102.189 37.9081 101.082 37.3727Z" fill="#EFEFEF"/>
<path d="M51.2893 11.1732H49.3244L48.8288 8.8034C48.6606 7.99591 48.3774 7.35519 47.988 6.89C47.5986 6.41604 47.1383 6.17028 46.6073 6.15273H44.6071V11.182H42.6865V0.105331H47.572C48.3774 0.105331 49.0501 0.254541 49.6077 0.552962C50.1652 0.851382 50.5724 1.2288 50.8379 1.69398C51.1034 2.15916 51.2362 2.63313 51.2362 3.11586C51.2362 3.75659 51.0149 4.36221 50.5635 4.92394C50.121 5.49445 49.466 5.86308 48.6075 6.03863C49.1386 6.20539 49.59 6.49503 49.9617 6.89878C50.3334 7.30252 50.5635 7.71504 50.6432 8.12757L51.2893 11.1732ZM44.6071 5.80165H47.0144C47.395 5.80165 47.7667 5.68754 48.1208 5.45056C48.4748 5.21358 48.7668 4.88883 48.9881 4.47631C49.2094 4.06379 49.3156 3.5986 49.3156 3.09831C49.3156 2.59802 49.2094 2.15039 48.9881 1.74664C48.7668 1.33412 48.4748 1.01815 48.1208 0.789942C47.7667 0.561739 47.395 0.447637 47.0144 0.447637H44.6071V5.81042V5.80165Z" fill="#EFEFEF"/>
<path d="M61.3257 7.32007H55.2366C55.2366 7.93447 55.272 8.4962 55.3516 9.00527C55.4313 9.51434 55.6348 9.95319 55.9534 10.3394C56.2721 10.7256 56.7588 10.9187 57.4049 10.9187C58.051 10.9187 58.6529 10.7695 59.2193 10.4623C59.7857 10.1638 60.246 9.74254 60.5911 9.19836L60.9009 9.40024C60.5026 9.9883 59.9981 10.4447 59.3786 10.7695C58.7591 11.0942 58.1041 11.2698 57.4049 11.2698C56.8474 11.2698 56.3252 11.1644 55.8207 10.9626C55.3162 10.7607 54.8648 10.4535 54.4577 10.0585C54.0594 9.65477 53.7585 9.20714 53.5461 8.70685C53.3337 8.20656 53.2363 7.67993 53.2363 7.13576C53.2363 6.59158 53.3425 6.05618 53.5372 5.55588C53.7408 5.05559 54.0329 4.59918 54.4046 4.21299C54.8029 3.81803 55.2454 3.51961 55.741 3.30896C56.2367 3.09831 56.7677 3.00176 57.3164 3.00176C57.8652 3.00176 58.3962 3.10708 58.883 3.30896C59.3786 3.51961 59.8034 3.81803 60.184 4.21299C60.5469 4.60796 60.8301 5.05559 61.0248 5.55588C61.2195 6.06495 61.3169 6.59158 61.3169 7.13576V7.32007H61.3257ZM55.2366 6.96021H59.3255C59.3167 6.32826 59.2724 5.77531 59.2016 5.29257C59.1308 4.80983 58.9449 4.37098 58.644 3.97601C58.3431 3.58104 57.8917 3.3704 57.281 3.33529C56.6703 3.3704 56.219 3.58104 55.918 3.97601C55.6171 4.37098 55.4313 4.80983 55.3605 5.29257C55.2897 5.78409 55.2543 6.32827 55.2543 6.95144L55.2366 6.96021Z" fill="#EFEFEF"/>
<path d="M69.7777 3.0983H70.1494L66.2995 11.2698L62.4141 3.0983H64.5382L67.1668 8.64541L69.7777 3.0983Z" fill="#EFEFEF"/>
<path d="M73.2382 1.90463C72.9638 1.90463 72.7337 1.80808 72.5479 1.62376C72.362 1.43944 72.2646 1.22001 72.2646 0.956703C72.2646 0.693391 72.362 0.473965 72.5567 0.280869C72.7514 0.0877739 72.9727 -0.0087738 73.2382 -0.0087738C73.5037 -0.0087738 73.725 0.0877739 73.9197 0.280869C74.1144 0.473965 74.2118 0.693391 74.2118 0.956703C74.2118 1.22001 74.1233 1.43944 73.9285 1.62376C73.7338 1.80808 73.5126 1.90463 73.2382 1.90463ZM74.1852 11.1732H72.2646V3.09831H74.1852V11.1732Z" fill="#EFEFEF"/>
<path d="M79.717 11.2698C79.1594 11.2698 78.6284 11.1644 78.1239 10.9626C77.6194 10.7607 77.1592 10.4535 76.7698 10.0585L77.0264 9.80398C77.3805 10.1638 77.7876 10.4359 78.2567 10.629C78.7258 10.8221 79.2125 10.9187 79.7259 10.9187C80.1684 10.9187 80.5401 10.8572 80.8499 10.7256C81.1597 10.5939 81.3986 10.4359 81.5491 10.2516C81.7084 10.0673 81.788 9.88298 81.788 9.70743C81.788 9.47045 81.7084 9.26858 81.5491 9.10182C81.3898 8.93505 81.1685 8.77707 80.8853 8.63663C80.6021 8.4962 80.133 8.28555 79.4781 8.00468L79.0532 7.82037C78.5222 7.60972 78.0885 7.40784 77.761 7.21475C77.4336 7.02165 77.1592 6.76712 76.9291 6.45114C76.699 6.13517 76.5928 5.72265 76.5928 5.23113C76.5928 4.73962 76.7609 4.31832 77.0973 3.96723C77.4336 3.61615 77.8673 3.36162 78.416 3.19485C78.8674 3.0632 79.3187 2.99298 79.7524 2.99298C80.31 2.99298 80.8322 3.09831 81.3367 3.30896C81.8411 3.5196 82.2837 3.81802 82.6643 4.20422L82.4076 4.45875C82.0447 4.09889 81.6376 3.8268 81.1774 3.63371C80.7171 3.44061 80.2392 3.34406 79.7259 3.34406C79.186 3.34406 78.7346 3.44939 78.3717 3.66004C78.0089 3.87069 77.7876 4.10767 77.7079 4.37098C77.6814 4.45875 77.6725 4.52897 77.6725 4.57285C77.6725 4.85372 77.8318 5.0907 78.1682 5.29257C78.4956 5.49444 78.9913 5.73142 79.6639 6.01229C79.7701 6.0474 79.9206 6.10884 80.1241 6.19661L80.4428 6.32826C81.0711 6.60035 81.5668 6.82856 81.912 7.01288C82.2571 7.19719 82.5492 7.4254 82.7882 7.70626C83.0271 7.97835 83.1422 8.31188 83.1422 8.68929C83.1422 9.25103 82.9121 9.76887 82.4607 10.2341C82.2571 10.4359 81.9297 10.6554 81.4871 10.9011C81.0446 11.1469 80.4516 11.261 79.717 11.261V11.2698Z" fill="#EFEFEF"/>
<path d="M89.2673 10.8485C89.4708 10.8485 89.6921 10.8133 89.9311 10.7431L90.0373 11.0767C89.9576 11.1205 89.7983 11.1644 89.5682 11.1995C89.3381 11.2346 89.1168 11.261 88.9133 11.261C88.5858 11.261 88.1964 11.1995 87.7361 11.0679C87.2759 10.9362 86.913 10.7256 86.6387 10.4359C86.3997 10.1902 86.2315 9.88298 86.1253 9.51434C86.0191 9.14571 85.966 8.69808 85.966 8.17145V3.61616H84.249V3.26507H85.966V0.105331H87.8866V3.26507H89.4797V3.61616H87.8866V8.95261C87.8866 9.50556 87.9928 9.9532 88.2141 10.3131C88.4353 10.6729 88.7894 10.8485 89.2761 10.8485H89.2673Z" fill="#EFEFEF"/>
<path d="M99.472 3.09831V11.1732H97.5515V10.6202C96.8611 11.0591 96.1088 11.2785 95.2946 11.2785C94.737 11.2785 94.2148 11.1732 93.7103 10.9713C93.2059 10.7695 92.7545 10.4623 92.3473 10.0673C91.9491 9.66355 91.6482 9.21592 91.4357 8.71563C91.2233 8.21533 91.126 7.68871 91.126 7.14453C91.126 6.60035 91.2322 6.06495 91.4357 5.56466C91.6482 5.06437 91.9491 4.60796 92.3473 4.22177C92.7545 3.8268 93.2059 3.52838 93.7103 3.31773C94.2148 3.10708 94.7459 3.01054 95.2946 3.01054C96.1088 3.01054 96.8611 3.22996 97.5515 3.66882V3.11586H99.472V3.09831ZM97.5603 10.1902V4.06378C96.9054 3.58105 96.1531 3.34406 95.3034 3.34406C94.6219 3.34406 94.1263 3.55471 93.8077 3.97601C93.4891 4.39731 93.2944 4.8625 93.2324 5.36279C93.1616 5.87186 93.1262 6.45992 93.1262 7.12698C93.1262 7.79403 93.1616 8.39088 93.2324 8.89117C93.3032 9.39146 93.4891 9.85664 93.8077 10.2779C94.1263 10.6992 94.6219 10.9099 95.3034 10.9099C96.1531 10.9099 96.9054 10.6641 97.5603 10.1902Z" fill="#EFEFEF"/>
<path d="M34.6238 7.84669L20.7196 4.37098L17.2236 18.1685L34.6238 7.84669Z" fill="#EFEFEF"/>
<path d="M142.573 40.5325L153.495 45L158 34.1691L142.573 40.5325Z" fill="#EFEFEF"/>
</g>
<defs>
<clipPath id="clip0_189_128">
<rect width="158" height="45" fill="white"/>
</clipPath>
</defs>
</svg>
