<svg width="140" height="140" viewBox="0 0 140 140" fill="none" xmlns="http://www.w3.org/2000/svg">
<path d="M78.5267 105.98C78.4728 105.995 78.4271 106.03 78.3995 106.079C78.3719 106.128 78.3648 106.185 78.3797 106.239C78.3945 106.293 78.4301 106.339 78.4787 106.366C78.5273 106.394 78.5848 106.401 78.6386 106.386C80.4076 105.999 82.066 105.216 83.4896 104.097C88.9007 100.1 88.6207 94.43 91.7006 89.243C94.1646 85.288 96.3276 85.743 96.1596 85.232C96.1534 85.2118 96.1431 85.1931 96.1293 85.177C96.1155 85.161 96.0985 85.148 96.0795 85.1388C96.0604 85.1296 96.0397 85.1244 96.0186 85.1236C95.9974 85.1228 95.9764 85.1263 95.9566 85.134C86.2687 88.697 91.7426 101.402 78.5267 105.98ZM117.734 93.534C118.007 93.247 118.28 92.946 118.546 92.645C120.604 90.146 122.046 86.275 121.906 83.426C121.902 83.3953 121.89 83.3661 121.871 83.3418C121.852 83.3174 121.827 83.2988 121.798 83.2879C121.769 83.277 121.737 83.2744 121.707 83.2802C121.677 83.2861 121.649 83.3002 121.626 83.321C121.416 83.524 122.004 84.644 120.527 88.172C119.127 91.518 117.902 92.372 116.523 93.933C115.287 95.3593 114.348 97.0175 113.761 98.8106C113.173 100.604 112.948 102.496 113.1 104.377C113.108 104.417 113.129 104.452 113.16 104.478C113.192 104.503 113.231 104.517 113.271 104.517C113.312 104.517 113.351 104.503 113.382 104.478C113.413 104.452 113.435 104.417 113.443 104.377C113.395 102.374 113.75 100.382 114.487 98.5197C115.224 96.657 116.328 94.9615 117.734 93.534ZM56.2737 63.308C56.9737 62.825 56.9247 61.348 56.2737 60.802C56.0896 60.6534 55.875 60.5472 55.6452 60.491C55.4154 60.4347 55.176 60.4298 54.9441 60.4766C54.7122 60.5234 54.4934 60.6207 54.3034 60.7616C54.1134 60.9026 53.9567 61.0836 53.8447 61.292C53.7147 61.6177 53.6913 61.9761 53.7778 62.3159C53.8643 62.6557 54.0562 62.9594 54.326 63.1833C54.5958 63.4072 54.9297 63.5399 55.2796 63.5623C55.6295 63.5847 55.9775 63.4957 56.2737 63.308ZM54.3487 61.705C54.5587 60.907 55.9377 60.795 56.1477 61.593C56.2877 62.139 56.2247 62.524 55.9447 62.734C55.7764 62.8386 55.585 62.9004 55.3873 62.9138C55.1895 62.9272 54.9915 62.8919 54.8107 62.811C54.6212 62.7047 54.4729 62.538 54.3891 62.3376C54.3054 62.1371 54.2912 61.9145 54.3487 61.705ZM80.1926 50.358C80.1658 50.3561 80.1388 50.3597 80.1133 50.3687C80.0879 50.3777 80.0646 50.3918 80.0449 50.4102C80.0252 50.4286 80.0095 50.4509 79.9988 50.4756C79.9881 50.5003 79.9826 50.527 79.9827 50.554C79.9827 51.254 78.7997 51.954 78.5827 52.024C78.5409 52.0342 78.5049 52.0606 78.4826 52.0973C78.4602 52.1341 78.4534 52.1782 78.4636 52.22C78.4739 52.2618 78.5002 52.2978 78.537 52.3201C78.5738 52.3424 78.6179 52.3492 78.6597 52.339C80.5007 51.961 80.7806 50.344 80.1926 50.358ZM77.7357 49.287C77.6517 49.238 77.2807 48.965 77.1477 48.86C77.1477 48.769 77.4767 47.6 77.5396 47.376C77.6026 47.152 77.3156 47.096 77.2386 47.278C76.9458 47.8455 76.7113 48.4412 76.5387 49.056C76.5947 49.259 77.5677 49.525 77.6377 49.525C77.6668 49.529 77.6965 49.5232 77.722 49.5085C77.7475 49.4938 77.7674 49.4711 77.7786 49.4438C77.7898 49.4166 77.7917 49.3865 77.7839 49.3581C77.7761 49.3297 77.7592 49.3047 77.7357 49.287ZM75.4257 45.535C75.4156 45.4745 75.3844 45.4195 75.3376 45.3798C75.2908 45.3402 75.2315 45.3184 75.1702 45.3184C75.1088 45.3184 75.0495 45.3402 75.0027 45.3798C74.9559 45.4195 74.9247 45.4745 74.9146 45.535C74.888 46.0176 74.888 46.5014 74.9146 46.984C74.9585 47.0557 75.0251 47.1108 75.1037 47.1405C75.1824 47.1702 75.2688 47.1728 75.3491 47.1479C75.4294 47.123 75.4992 47.072 75.5473 47.003C75.5954 46.934 75.6191 46.851 75.6147 46.767C75.5177 46.3623 75.4545 45.9502 75.4257 45.535ZM80.3187 46.76C80.2289 46.3586 80.1658 45.9517 80.1297 45.542C80.1297 45.4733 80.1024 45.4074 80.0538 45.3588C80.0052 45.3103 79.9393 45.283 79.8707 45.283C79.802 45.283 79.7361 45.3103 79.6875 45.3588C79.6389 45.4074 79.6117 45.4733 79.6117 45.542C79.5862 46.0083 79.5862 46.4757 79.6117 46.942C79.6156 46.9962 79.6314 47.0489 79.6579 47.0963C79.6844 47.1437 79.721 47.1847 79.7651 47.2164C79.8092 47.2482 79.8598 47.2698 79.9132 47.2798C79.9666 47.2899 80.0216 47.288 80.0742 47.2745C80.1268 47.2609 80.1758 47.236 80.2177 47.2014C80.2596 47.1669 80.2935 47.1235 80.3168 47.0744C80.3401 47.0254 80.3524 46.9718 80.3527 46.9174C80.353 46.8631 80.3414 46.8093 80.3187 46.76Z" fill="#EFEFEF"/>
<path d="M135.1 37.226C135.051 32.865 133.588 31.143 129.073 31.276C127.785 31.276 104.818 31.507 103.173 31.563C102.07 31.5633 100.979 31.7896 99.9673 32.228C99.3863 32.459 96.3483 33.978 96.0123 34.783C95.6483 35.357 96.0753 51.709 96.0123 55.083C95.5259 54.8061 95.026 54.5537 94.5143 54.327C94.4218 53.8672 94.2255 53.4346 93.9404 53.0622C93.6554 52.6897 93.289 52.3873 92.8693 52.178C92.2253 51.926 91.3993 52.227 90.9233 51.772C90.4473 51.317 91.3013 51.072 91.3923 50.372C91.3895 49.8866 91.3331 49.403 91.2243 48.93C90.8023 46.3925 90.213 43.8857 89.4603 41.426C88.8303 39.403 88.1723 37.688 86.3593 36.589C86.3593 33.187 86.0163 13.251 85.8273 12.194C85.6409 11.1508 85.0845 10.2099 84.2603 9.5438C83.4361 8.87774 82.3993 8.53128 81.3403 8.56802C81.2703 8.56802 33.0963 8.56802 33.0403 8.62402C31.1153 9.77202 30.5973 12.334 30.4713 14.224C30.4293 15.169 31.2553 34.251 31.5843 40.313C28.1753 40.383 10.9553 40.845 9.96827 41.37C7.73527 41.916 5.26427 43.47 4.78127 45.997C4.48027 47.621 5.08927 78.82 5.29227 80.297C5.43765 81.8924 6.15049 83.3826 7.30127 84.497C8.55427 85.596 10.2623 85.799 11.7673 85.855L43.7083 85.253C40.5863 92.323 36.9883 102.347 34.6083 108.584C34.5971 108.602 34.5912 108.622 34.5912 108.644C34.5912 108.665 34.5971 108.685 34.6083 108.703C35.2524 109.336 35.9556 109.905 36.7083 110.404C35.5673 114.303 35.6933 114.52 35.4413 114.835C33.2783 117.488 30.6673 119.035 28.0913 119.287C26.8943 119.42 25.7113 119.63 25.2913 120.792C24.9483 121.849 25.8583 122.556 26.9223 122.85C27.6223 123.039 32.3963 124.096 33.1033 124.18C33.7298 124.285 34.3725 124.142 34.8953 123.781C35.3993 123.41 37.0583 121.45 37.6953 120.862C36.5403 126.462 35.7353 124.677 38.4863 125.874C38.5247 125.895 38.5672 125.906 38.6106 125.908C38.6541 125.91 38.6975 125.903 38.7377 125.886C38.7779 125.869 38.8139 125.844 38.843 125.811C38.8722 125.779 38.8938 125.741 38.9063 125.699C39.3963 124.299 42.7143 116.298 44.0653 114.219C44.3943 122.675 44.3383 122.234 44.4573 122.269C44.9263 122.388 45.4373 122.5 45.9623 122.605C45.9623 123.781 45.9973 124.985 46.0953 126.301C46.0953 126.343 46.0393 126.413 45.9833 126.525C44.2473 130.333 42.3013 131.887 40.1873 132.825C39.2493 133.245 37.9543 133.819 37.9893 135.114C37.9893 136.234 39.1373 136.591 40.2503 136.549C41.9233 136.493 44.0863 136.269 45.0663 136.22C47.8663 136.052 47.9363 135.52 49.1263 133.119C49.3993 132.566 49.7213 131.908 49.9033 131.586C50.2323 135.52 49.7983 136.101 50.3373 136.073C51.8003 135.996 52.4373 136.395 52.4373 135.87C52.4933 134.428 53.1373 128.758 53.4733 127.365C53.4733 127.204 53.3613 127.113 53.1933 127.078C53.4033 125.776 53.8933 123.214 53.9563 122.745C54.3063 122.696 54.6563 122.64 54.9293 122.577C55.0063 122.577 54.9293 122.948 56.1123 118.069C64.6103 121.422 73.6753 122.227 81.8093 120.316C82.0963 121.429 84.1753 129.017 85.3093 132.342C85.6957 133.428 86.2103 134.465 86.8423 135.429C87.0033 135.583 87.2763 135.856 87.5423 135.856C87.8083 135.856 88.1023 135.485 88.1723 135.107C88.2423 134.729 87.1433 123.69 86.7723 119.707C88.4354 119.295 90.0481 118.701 91.5813 117.936L93.8493 125.468C93.9157 125.58 94.0156 125.669 94.135 125.721C94.2544 125.774 94.3872 125.787 94.5147 125.76C94.6423 125.733 94.7581 125.667 94.846 125.57C94.9338 125.474 94.9892 125.353 95.0043 125.223L94.7873 116.2C95.8471 115.509 96.8618 114.752 97.8253 113.932C98.2628 114.355 98.7548 114.717 99.2883 115.01C99.3431 115.04 99.4077 115.048 99.468 115.031C99.5282 115.014 99.5794 114.974 99.6103 114.919C100.192 114.039 100.846 113.208 101.563 112.434C101.423 113.337 101.15 115.185 101.115 115.759C101.114 115.796 101.121 115.833 101.135 115.867C101.148 115.902 101.169 115.933 101.195 115.959C101.221 115.985 101.253 116.006 101.287 116.02C101.321 116.033 101.358 116.04 101.395 116.039C102.139 116.016 102.881 116.113 103.593 116.326C101.311 117.425 100.268 118.356 100.408 119.126C100.682 120.501 101.066 121.852 101.556 123.165C101.934 124.257 102.326 125.391 103.502 125.867C108.892 128.149 116.9 126.483 122.311 124.208C126.903 122.409 127.575 119.497 127.169 115.381C127.085 114.597 126.175 114.506 124.264 114.555L128.919 108.668C130.319 106.995 129.101 107.051 128.66 103.768C129.082 104.393 129.588 104.956 130.165 105.441C130.2 105.468 130.239 105.487 130.281 105.498C130.323 105.509 130.367 105.511 130.41 105.504C130.599 105.469 130.452 105.567 132.188 102.445C132.221 102.388 132.234 102.322 132.224 102.257C132.213 102.192 132.181 102.132 132.132 102.088C131.369 101.458 129.528 99.988 129.528 99.988C130.477 99.7634 131.412 99.483 132.328 99.148C132.547 99.0917 132.744 98.9742 132.898 98.8092C133.052 98.6443 133.155 98.4388 133.196 98.217C133.287 97.671 133.294 86.674 133.308 85.176C133.308 84.931 132.916 84.861 132.874 85.127C132.055 90.678 128.296 95.298 123.494 96.677C123.648 96.054 124.04 94.703 123.823 94.332C123.032 93.8337 122.189 93.4207 121.31 93.1C122.185 92.603 124.208 91.308 124.355 90.909C124.446 90.678 123.998 79.877 123.977 78.694C123.974 78.6453 123.955 78.5989 123.924 78.5615C123.892 78.5241 123.849 78.4977 123.802 78.486C123.755 78.4743 123.705 78.478 123.659 78.4965C123.614 78.5151 123.576 78.5474 123.55 78.589C122.195 81.2652 120.19 83.5588 117.719 85.26C117.432 85.456 115.367 86.555 115.206 86.702C114.688 87.199 115.332 87.808 115.605 88.193C115.801 88.459 116.473 89.362 116.606 89.551C114.142 89.852 113.491 89.005 113.365 89.551C113.123 90.2641 112.797 90.9456 112.392 91.581C112.537 92.1946 112.721 92.7979 112.945 93.387C112.535 93.4545 112.117 93.4545 111.706 93.387C111.633 93.3713 111.557 93.3834 111.492 93.4209C111.427 93.4585 111.379 93.5187 111.356 93.59C111.16 94.227 111.006 94.759 110.866 95.256C110.018 93.817 109.083 92.4308 108.066 91.105C107.569 87.311 105.777 82.88 101.99 82.292C104.839 81.102 106.708 78.043 107.156 74.942C108.5 74.942 127.918 74.886 128.702 74.942C132.951 75.061 134.848 73.437 135.247 69.104C135.408 67.375 135.1 37.541 135.1 37.226ZM38.4373 120.568C38.4549 120.494 38.4438 120.416 38.4061 120.35C38.3684 120.283 38.307 120.234 38.2343 120.211C37.6673 120.001 37.2333 120.498 36.9183 120.855C36.1208 121.826 35.2453 122.729 34.3003 123.557C33.7753 123.809 27.6643 122.542 26.9013 122.304C26.4906 122.211 26.1333 121.959 25.9073 121.604C25.8189 121.346 25.8285 121.064 25.9343 120.812C26.0402 120.561 26.2348 120.357 26.4813 120.239C27.0203 119.91 27.4193 119.938 28.9313 119.658C30.4433 119.378 31.9413 119.105 34.5733 116.627C34.94 116.276 35.2815 115.899 35.5953 115.5C36.0323 116.472 36.768 117.278 37.6953 117.803C38.9375 118.355 40.3249 118.49 41.6503 118.188C40.9503 119.588 39.0183 123.963 38.5353 125.3C38.1503 125.146 37.7583 125.006 37.3733 124.894C37.8068 123.473 38.162 122.028 38.4373 120.568ZM99.9113 82.236C98.9267 82.2782 97.9488 82.4189 96.9923 82.656C93.8569 83.0104 90.7045 83.1927 87.5493 83.202C87.0873 80.402 87.2273 80.92 87.1083 80.143C87.0593 79.807 86.9893 79.345 87.2343 79.198C90.5873 77.7 94.0733 76.342 97.4123 74.879C98.1123 75.39 98.1683 75.327 98.2313 75.285C98.2613 75.2527 98.278 75.2102 98.278 75.166C98.278 75.1219 98.2613 75.0794 98.2313 75.047C97.9581 74.7709 97.6707 74.5092 97.3703 74.263C94.683 71.8599 92.8113 68.6791 92.0153 65.163C92.006 65.1213 91.9805 65.0849 91.9444 65.0619C91.9083 65.0389 91.8645 65.0312 91.8228 65.0405C91.781 65.0498 91.7446 65.0753 91.7216 65.1114C91.6987 65.1475 91.691 65.1913 91.7003 65.233C92.2934 68.8896 94.1846 72.2098 97.0273 74.585L87.3743 78.575C87.0952 78.6569 86.8499 78.8262 86.6743 79.058C86.1911 78.9267 85.7545 78.6623 85.4143 78.295C83.5943 76.832 82.8663 77.833 80.5143 79.695C80.2869 79.8666 80.0717 80.0537 79.8703 80.255C78.627 79.1492 77.3879 78.0385 76.1533 76.923C75.8383 76.461 72.9683 66.563 71.7923 62.587C72.7013 60.3829 74.168 58.4531 76.0483 56.987C76.2657 57.651 76.5397 58.295 76.8673 58.912C77.3923 59.416 78.0713 59.171 78.7293 59.01C78.548 59.3862 78.4434 59.7948 78.4218 60.2118C78.4001 60.6289 78.4618 61.0461 78.6033 61.439C79.0989 62.5501 79.8728 63.5146 80.8503 64.239C83.2443 66.339 83.1253 66.283 83.2653 66.283C83.3299 66.2798 83.3911 66.2532 83.4375 66.2081C83.4839 66.163 83.5122 66.1025 83.5173 66.038C83.7553 63.595 84.5393 62.923 86.7513 62.146C87.961 61.7511 88.9846 60.9275 89.6293 59.8303C90.2739 58.7331 90.4952 57.438 90.2513 56.189C91.7143 56.2001 93.1721 56.0117 94.5843 55.629C94.651 55.614 94.709 55.5731 94.7458 55.5154C94.7825 55.4577 94.7949 55.3878 94.7803 55.321C94.7803 55.202 94.7313 55.062 94.6963 54.915C104.909 59.878 111.132 75.341 102.893 81.088C101.997 81.6881 100.978 82.0803 99.9113 82.236ZM102.263 83.034C104.062 83.419 105.567 84.931 106.547 87.591C111.223 100.226 100.324 115.535 86.7933 119.091C86.7093 118.244 86.2473 113.33 86.1563 112.966C86.0892 112.645 85.9044 112.36 85.6383 112.168C84.7773 111.692 83.3003 112.217 82.5163 112.679C81.7689 113.175 81.101 113.782 80.5353 114.478C80.5353 114.702 81.5153 118.923 81.7253 119.784C73.2174 121.563 64.3742 120.804 56.2943 117.6C57.5403 112.42 59.1923 105.329 59.6543 103.131C64.4703 104.629 71.2393 104.489 71.3093 104.482C71.3317 104.476 71.3515 104.463 71.3656 104.445C71.3797 104.426 71.3874 104.404 71.3874 104.381C71.3874 104.357 71.3797 104.335 71.3656 104.316C71.3515 104.298 71.3317 104.285 71.3093 104.279C67.4243 102.984 64.0713 99.645 61.8733 94.871C58.4923 87.738 51.4783 87.822 48.7483 91.371C44.8003 96.495 44.1633 111.405 44.1003 113.204C43.8553 113.652 42.4483 116.403 41.9163 117.523C37.7163 118.524 36.5193 116.123 36.0083 115.094C35.9243 114.919 35.9663 115.381 37.2683 110.782C37.9683 111.125 42.9453 112.882 42.9523 112.364C43.0083 106.414 44.4503 92.26 48.3563 89.005C51.1563 86.709 57.2113 87.108 59.8923 89.096C61.5967 90.6517 62.9909 92.5163 64.0013 94.591C66.2483 99.414 70.1193 102.991 74.4173 103.887C79.9263 103.404 86.3173 94.626 88.1443 89.012C91.5183 84.735 97.0833 82.285 102.263 83.034ZM113.218 111.503C113.228 111.545 113.253 111.581 113.289 111.604C113.325 111.627 113.369 111.635 113.411 111.626C113.453 111.616 113.489 111.591 113.512 111.555C113.535 111.519 113.543 111.475 113.533 111.433C113.092 109.179 111.846 107.233 111.062 105.133C109.704 101.542 110.691 97.685 111.839 94.038C112.351 94.1337 112.881 94.0651 113.351 93.842C113.736 93.541 113.428 93.03 112.994 91.742C113.351 91.2023 113.631 90.6157 113.827 89.999C114.921 90.2579 116.059 90.2722 117.159 90.041C117.202 90.0301 117.242 90.0093 117.275 89.9802C117.308 89.9511 117.334 89.9146 117.35 89.8737C117.366 89.8328 117.373 89.7886 117.369 89.7446C117.365 89.7007 117.351 89.6584 117.327 89.621C116.858 89.005 115.619 87.318 115.556 87.192C115.493 87.066 115.556 87.08 115.759 86.989C119.105 85.4664 121.849 82.873 123.557 79.618C123.641 81.907 123.914 90.426 123.837 90.769C122.75 91.5562 121.603 92.2583 120.407 92.869C120.355 92.8978 120.313 92.9415 120.285 92.9945C120.258 93.0475 120.247 93.1074 120.254 93.1666C120.26 93.2259 120.285 93.2818 120.323 93.3272C120.362 93.3727 120.413 93.4057 120.47 93.422C121.461 93.7607 122.421 94.1822 123.34 94.682C123.466 94.885 123.025 96.488 122.948 96.901L122.248 97.041C122.179 97.0593 122.119 97.1036 122.081 97.1649C122.043 97.2261 122.03 97.2996 122.045 97.37C122.227 98.609 122.64 101.661 122.64 101.661C120.631 99.792 120.645 98.756 120.211 98.714C120.168 98.7086 120.125 98.7141 120.084 98.73C120.044 98.7459 120.008 98.7717 119.98 98.805C116.689 102.624 114.841 107.477 114.758 112.518C114.766 112.556 114.787 112.59 114.817 112.614C114.847 112.639 114.884 112.652 114.923 112.652C114.961 112.652 114.999 112.639 115.029 112.614C115.059 112.59 115.079 112.556 115.087 112.518C115.351 107.748 117.12 103.185 120.141 99.484C120.837 100.683 121.751 101.742 122.836 102.606C122.882 102.647 122.94 102.673 123.002 102.679C123.064 102.685 123.125 102.672 123.179 102.641C123.232 102.61 123.275 102.562 123.3 102.506C123.325 102.45 123.332 102.387 123.319 102.326C123.319 102.326 122.815 98.917 122.619 97.531C127.386 96.684 131.481 92.631 132.86 87.465C132.86 90.342 132.762 97.475 132.762 97.545C132.762 98 132.762 98.434 132.356 98.637C131.208 99.0403 130.04 99.3838 128.856 99.666C128.808 99.6788 128.764 99.7044 128.728 99.7401C128.693 99.7757 128.668 99.8202 128.656 99.8689C128.644 99.9175 128.645 99.9685 128.659 100.017C128.674 100.065 128.701 100.108 128.737 100.142C129.066 100.408 130.956 101.955 131.579 102.452C131.579 102.452 130.725 104.083 130.291 104.888C129.581 104.231 128.994 103.454 128.555 102.592C128.527 102.543 128.483 102.505 128.431 102.483C128.379 102.461 128.321 102.457 128.266 102.471C128.211 102.486 128.162 102.518 128.128 102.562C128.093 102.607 128.073 102.661 128.072 102.718C128.268 107.394 129.766 106.785 128.527 108.318C124.257 113.687 123.508 115.423 118.909 116.781C119.833 112.581 122.997 110.88 124.264 107.849C124.964 106.19 124.81 104.349 125.363 102.683C125.748 101.527 126.378 100.467 127.209 99.5755C128.04 98.6841 129.053 97.9821 130.179 97.517C130.22 97.5031 130.254 97.4735 130.273 97.4348C130.292 97.3961 130.295 97.3514 130.281 97.3105C130.267 97.2697 130.237 97.236 130.199 97.217C130.16 97.198 130.115 97.1951 130.074 97.209C128.607 97.7266 127.313 98.6413 126.335 99.8513C125.358 101.061 124.735 102.519 124.537 104.062C124.236 106.211 124.299 107.268 122.955 109.151C121.471 111.216 119.042 113.043 118.258 116.956C117.041 117.259 115.795 117.433 114.541 117.474C114.394 116.221 113.624 115.486 113.078 115.458C112.574 114.576 107.261 106.491 105.301 104.72C107.469 100.819 108.465 96.3766 108.171 91.924C109.011 93.163 110.446 95.487 110.698 95.942C108.255 105.364 112.245 106.778 113.218 111.503ZM102.179 111.811C102.179 111.762 102.165 111.713 102.138 111.672C102.111 111.63 102.073 111.597 102.028 111.577C101.983 111.556 101.934 111.549 101.885 111.556C101.836 111.562 101.79 111.583 101.752 111.615C100.857 112.504 100.044 113.471 99.3233 114.506C98.9111 114.265 98.5241 113.984 98.1683 113.666C99.8601 112.196 101.394 110.554 102.746 108.766C110.18 117.684 109.823 117.425 110.033 117.257C110.05 117.246 110.064 117.231 110.075 117.215C110.085 117.198 110.092 117.179 110.096 117.16C110.099 117.14 110.098 117.12 110.094 117.1C110.089 117.081 110.08 117.063 110.068 117.047C109.578 116.305 104.587 110.047 103.068 108.29C103.79 107.293 104.449 106.253 105.042 105.175C107.842 107.912 112.189 115.115 112.595 115.794C112.209 116.35 112.028 117.023 112.084 117.698C111.2 117.945 110.271 117.986 109.368 117.817C108.297 117.607 104.293 115.64 101.668 115.563C101.836 114.8 102.102 112.469 102.2 111.811H102.179ZM83.8533 112.7H83.9723C84.5183 112.574 85.3723 112.385 85.5753 112.938C85.6803 113.316 87.7943 134.197 87.7943 134.841C87.8055 134.943 87.7944 135.045 87.7618 135.142C87.7291 135.239 87.6757 135.327 87.6053 135.401C85.7853 134.701 81.3053 116.13 81.1303 114.555C81.8357 113.682 82.7829 113.037 83.8533 112.7ZM9.31727 79.646C9.31727 78.043 8.25327 46.263 8.35827 45.115C8.54027 42.952 9.31727 41.979 11.0323 41.755C12.8453 41.405 29.7713 40.922 31.6193 40.873C31.6613 41.573 31.6963 42.063 31.7103 42.154C31.7879 42.7047 32.0505 43.2127 32.4551 43.5943C32.8596 43.976 33.382 44.2086 33.9363 44.254C33.9363 44.184 33.4743 44.254 47.9363 44.303C47.9363 46.487 48.0693 56.749 48.0763 57.232C43.9603 57.386 39.7183 57.554 38.9063 57.631C38.7943 57.631 38.6963 57.834 38.7383 57.932C39.9563 60.942 45.3813 73.164 46.9003 76.3C47.042 76.6564 47.2854 76.9631 47.6003 77.182C47.7963 77.476 48.0273 77.805 48.3003 78.134C46.0813 79.905 45.2833 81.865 43.9953 84.735C38.0663 84.861 14.0353 85.358 13.4963 85.337C11.9983 85.274 10.9413 84.84 10.2833 84.014C9.28227 82.824 9.32427 81.2 9.31727 79.646ZM90.3003 51.688C90.4473 52.22 91.0003 52.507 91.8543 52.528C93.3243 52.465 93.9543 53.732 94.2203 55.188C92.7893 55.4677 91.3377 55.6292 89.8803 55.671C89.8381 55.6715 89.7966 55.6817 89.759 55.7009C89.7214 55.7201 89.6888 55.7477 89.6637 55.7816C89.6386 55.8155 89.6217 55.8548 89.6144 55.8963C89.607 55.9379 89.6094 55.9805 89.6213 56.021C89.8448 56.8201 89.8469 57.6649 89.6274 58.4651C89.408 59.2653 88.9752 59.9908 88.3753 60.564C86.4923 62.377 83.4753 61.376 83.0343 65.555C82.4043 65.009 80.0733 63.028 79.5973 62.447C78.7783 61.502 78.4493 59.934 79.2893 58.947C81.088 58.653 82.9059 58.4916 84.7283 58.464C84.7691 58.464 84.8083 58.4478 84.8372 58.4189C84.866 58.39 84.8823 58.3509 84.8823 58.31C84.8823 58.2692 84.866 58.23 84.8372 58.2011C84.8083 58.1722 84.7691 58.156 84.7283 58.156C82.6316 58.0074 80.5244 58.1582 78.4703 58.604C77.6863 58.821 77.3013 58.975 76.9513 58.24C76.7763 57.869 75.7333 54.691 75.5513 54.103C75.2293 53.34 75.4253 53.571 76.0133 53.207C76.5894 53.6939 77.2361 54.0904 77.9313 54.383C77.9313 54.467 78.2953 55.58 78.3513 55.783C78.375 55.9512 78.4592 56.105 78.588 56.2158C78.7167 56.3265 78.8814 56.3867 79.0513 56.385C80.6836 56.535 82.3283 56.296 83.8505 55.6876C85.3726 55.0792 86.729 54.1188 87.8083 52.885C87.8297 52.8557 87.8395 52.8194 87.8358 52.7833C87.832 52.7471 87.815 52.7136 87.7881 52.6893C87.7611 52.6649 87.7261 52.6514 87.6897 52.6513C87.6534 52.6513 87.6183 52.6647 87.5913 52.689C86.5071 53.7848 85.2046 54.6403 83.7683 55.1999C82.332 55.7594 80.794 56.0106 79.2543 55.937C78.7643 55.902 78.8273 56.007 78.4143 54.537C80.3043 55.069 80.7803 54.348 80.1083 55.013C80.0864 55.0392 80.0742 55.0722 80.074 55.1063C80.0738 55.1404 80.0854 55.1736 80.1069 55.2001C80.1284 55.2266 80.1585 55.2447 80.192 55.2515C80.2254 55.2582 80.2602 55.2531 80.2903 55.237C82.8365 53.3333 84.694 50.6526 85.5823 47.6C85.5887 47.5803 85.5911 47.5594 85.5892 47.5387C85.5874 47.518 85.5814 47.4979 85.5716 47.4796C85.5618 47.4613 85.5484 47.4452 85.5322 47.4322C85.5159 47.4192 85.4973 47.4096 85.4773 47.404C85.1133 47.278 85.3583 47.999 83.6503 50.792C82.9503 47.992 83.4193 45.031 82.6633 42.217C82.6531 42.1771 82.6274 42.1429 82.592 42.1219C82.5565 42.1009 82.5142 42.0948 82.4743 42.105C82.4344 42.1152 82.4001 42.1409 82.3791 42.1763C82.3581 42.2118 82.3521 42.2541 82.3623 42.294C82.4849 42.8895 82.5644 43.4931 82.6003 44.1C81.1093 42.623 77.9593 40.264 75.4743 40.803C74.9389 40.8195 74.4316 41.0462 74.0621 41.434C73.6927 41.8218 73.4908 42.3395 73.5003 42.875C72.8983 42.063 73.3183 40.824 73.8643 40.138C75.3063 38.255 77.8683 37.338 80.4233 36.638C82.6843 36.036 85.7083 36.12 87.4233 38.164C88.1672 39.1841 88.7047 40.3398 89.0053 41.566C89.8994 44.3294 90.523 47.1731 90.8673 50.057C90.8939 50.1733 90.8885 50.2947 90.8515 50.4081C90.8145 50.5216 90.7474 50.6228 90.6573 50.701C90.5175 50.8206 90.4112 50.9745 90.3486 51.1474C90.286 51.3204 90.2694 51.5067 90.3003 51.688ZM47.4113 76.132C46.7533 74.732 40.2503 60.312 39.2143 57.932C41.5313 57.932 67.6763 56.973 68.1313 56.959C69.0203 59.815 74.2003 77.063 74.2003 77.21C74.2003 77.21 68.0123 77.364 64.6733 77.497C59.0383 74.655 53.8233 74.963 50.0293 76.972C47.8873 76.881 47.7893 76.923 47.4113 76.132ZM74.0113 47.096C73.9133 44.996 74.0113 43.533 74.3403 43.386C75.5443 42.84 77.7913 42.686 80.2903 43.477C80.6053 43.582 81.6133 44.107 82.6283 44.534C82.7403 46.774 82.6283 49.147 83.3283 51.317C82.7095 52.402 81.9147 53.3767 80.9763 54.201C76.7413 54.761 74.2003 51.373 73.9973 47.096H74.0113ZM80.4373 88.956C80.2693 89.278 83.1183 91.42 83.4263 91.651C84.4343 92.603 83.2023 93.121 82.1803 92.204C76.5803 87.171 71.8063 81.403 65.5833 77.959C69.2093 77.84 73.6963 77.707 74.4663 77.7C75.2433 78.449 84.2663 86.898 86.5973 88.9C80.0873 88.949 80.5003 88.844 80.4233 88.956H80.4373ZM87.3113 88.858C87.2413 88.795 75.4113 78.106 74.9563 77.574C74.6903 77.126 69.7833 60.473 68.6563 57.12C69.3477 57.5916 69.8605 58.2819 70.1123 59.08C70.5323 60.277 75.2993 76.237 75.3203 76.314C75.3775 76.7016 75.5507 77.0628 75.8173 77.35C77.6583 79.121 85.4703 86.205 88.0113 88.305C87.8643 88.487 87.7173 88.669 87.5773 88.858H87.3113ZM86.8003 82.131C85.5823 82.033 85.1973 81.893 84.8963 82.264C84.7983 82.418 84.5183 82.761 84.1613 82.684C84.0994 82.6696 84.0411 82.6425 83.9901 82.6046C83.9392 82.5666 83.8966 82.5185 83.865 82.4633C83.8335 82.4081 83.8137 82.347 83.8068 82.2838C83.8 82.2206 83.8063 82.1567 83.8253 82.096C84.1683 81.774 84.5253 81.494 84.8473 81.151C84.8645 81.1268 84.8731 81.0976 84.8718 81.0679C84.8704 81.0383 84.8592 81.0099 84.8399 80.9873C84.8206 80.9648 84.7943 80.9494 84.7652 80.9435C84.736 80.9377 84.7058 80.9417 84.6793 80.955C84.3223 81.186 83.9793 81.557 83.5733 81.802C83.5397 81.8025 83.5067 81.8102 83.4765 81.8247C83.4463 81.8393 83.4196 81.8602 83.3983 81.886C83.3144 81.9201 83.2238 81.9342 83.1336 81.9275C83.0433 81.9208 82.9558 81.8934 82.8779 81.8473C82.8 81.8012 82.7338 81.7378 82.6844 81.662C82.6351 81.5861 82.6039 81.4999 82.5933 81.41C82.5933 80.85 83.1953 80.479 83.5453 80.066C83.6853 79.926 83.4753 79.716 83.3283 79.849C82.9532 80.1657 82.6044 80.5121 82.2853 80.885C81.8819 81.0133 81.4703 81.1139 81.0533 81.186C80.8643 81.186 81.0533 81.305 80.2273 80.598C81.0885 79.7902 82.0262 79.0682 83.0273 78.442C84.7283 77.322 85.0433 79.261 86.5763 79.485C86.5748 80.3718 86.6498 81.2571 86.8003 82.131ZM88.3753 87.899L81.3263 81.599C81.5819 81.5486 81.8343 81.4831 82.0823 81.403C82.0766 81.555 82.1064 81.7062 82.1693 81.8447C82.2322 81.9832 82.3264 82.1052 82.4446 82.2009C82.5628 82.2967 82.7016 82.3636 82.8501 82.3964C82.9986 82.4293 83.1527 82.4271 83.3003 82.39C83.3283 82.5385 83.391 82.6782 83.4832 82.7979C83.5755 82.9175 83.6947 83.0137 83.8312 83.0785C83.9677 83.1433 84.1175 83.175 84.2685 83.1709C84.4196 83.1668 84.5675 83.1271 84.7003 83.055C85.6663 82.614 84.7003 82.446 86.2613 82.586C86.4643 82.586 86.6813 82.628 86.8913 82.635C86.9543 82.964 87.0173 83.265 87.0873 83.552C87.1041 83.6093 87.1392 83.6594 87.1873 83.6948C87.2353 83.7302 87.2936 83.7489 87.3533 83.748C99.8693 83.482 93.7233 81.753 88.3613 87.899H88.3753ZM71.5753 61.831C70.7843 59.178 70.3713 57.036 68.7753 56.49C68.7753 56.574 69.3703 56.399 48.6503 57.19C48.6503 53.781 48.5033 45.535 48.4823 44.282H73.5773C73.3813 47.313 73.5773 50.582 75.6773 52.836C75.4253 52.934 74.9773 53.144 74.8723 53.319C75.1304 54.4504 75.4768 55.5598 75.9083 56.637C74.0302 57.9624 72.5277 59.7519 71.5473 61.831H71.5753ZM68.6983 40.194C68.6983 39.214 68.4743 33.943 68.4253 32.977H70.2103C70.2103 33.971 70.3433 39.221 70.3853 40.187C69.8253 40.173 69.2583 40.18 68.6983 40.194ZM58.4433 40.404C58.4503 38.5 58.2053 22.4 58.1703 20.3H59.9553C59.9553 25.62 60.1093 38.927 60.1373 40.376L58.4433 40.404ZM47.3973 23.002H49.1893C49.1893 27.601 49.3363 39.214 49.3713 40.593H47.6773C47.6843 38.871 47.4393 24.92 47.3973 23.002ZM32.2003 41.846C32.1023 41.251 31.2903 22.61 30.9613 15.47C30.8843 13.272 31.4653 10.57 32.9423 9.31702C32.9423 14.217 33.5723 41.258 33.7123 43.708C33.3003 43.5891 32.9346 43.347 32.6643 43.0141C32.394 42.6813 32.2321 42.2736 32.2003 41.846ZM96.4253 36.029C96.3677 35.5721 96.4771 35.1097 96.7333 34.727C97.2812 34.2956 97.8696 33.9182 98.4903 33.6C97.7903 34.86 97.9723 34.51 98.3433 56.63C97.7659 56.1899 97.1653 55.781 96.5443 55.405C96.4743 51.877 96.4393 39.053 96.4463 36.029H96.4253ZM102.543 43.806C102.869 43.3443 103.301 42.9682 103.803 42.7098C104.305 42.4514 104.862 42.3183 105.427 42.322C108.276 42.322 109.312 45.71 109.872 48.468C110.362 50.631 110.397 53.179 111.972 54.943C119.294 61.579 119.847 52.318 124.299 52.675C125.699 52.836 126.63 54.117 127.631 55.041C128.059 55.5216 128.659 55.814 129.302 55.8547C129.944 55.8953 130.576 55.6809 131.061 55.258V65.205C129.339 65.205 107.471 65.044 105.07 65.072C104.486 63.8486 103.797 62.6776 103.012 61.572C103.096 60.725 102.578 44.562 102.564 43.806H102.543ZM105.343 65.548C108.563 65.597 128.996 65.653 131.117 65.653C131.12 65.9197 131.137 66.186 131.166 66.451C131.171 66.5074 131.197 66.5599 131.238 66.5986C131.28 66.6373 131.334 66.6595 131.39 66.661C131.803 66.661 131.614 67.298 131.544 48.314C131.544 48.2676 131.526 48.2231 131.493 48.1903C131.46 48.1575 131.416 48.139 131.369 48.139C131.323 48.139 131.278 48.1575 131.246 48.1903C131.213 48.2231 131.194 48.2676 131.194 48.314C131.194 49.56 131.117 53.676 131.11 54.488C130.95 54.741 130.731 54.9524 130.473 55.1048C130.215 55.2572 129.925 55.3462 129.625 55.3647C129.326 55.3831 129.027 55.3304 128.752 55.2109C128.477 55.0914 128.235 54.9084 128.044 54.677C126.021 52.577 124.019 50.827 121.093 53.529C118.699 56 117.383 58.086 114.093 55.951C112.761 55.2412 111.757 54.0414 111.293 52.605C110.187 48.636 110.495 42.511 105.819 41.699C105.194 41.6351 104.563 41.7255 103.981 41.9623C103.399 42.199 102.883 42.5749 102.48 43.057C102.48 41.993 102.403 40.957 102.361 39.879C102.361 39.8345 102.344 39.7917 102.312 39.7602C102.281 39.7287 102.238 39.711 102.193 39.711C102.149 39.711 102.106 39.7287 102.074 39.7602C102.043 39.7917 102.025 39.8345 102.025 39.879C102.025 41.041 102.389 57.267 102.501 60.83C101.423 59.4183 100.182 58.1379 98.8053 57.015C98.8053 54.348 98.5673 37.03 98.5393 35.959C98.4973 34.013 99.2743 32.886 101.066 32.417C102.536 32.011 128.968 31.605 131.481 31.948C133.147 32.158 134.099 33.789 134.337 35.203C134.631 36.96 134.715 66.003 134.722 66.388C134.778 69.818 134.372 73.731 130.802 74.214C129.997 74.326 110.082 74.375 107.191 74.347C107.281 71.3106 106.652 68.2959 105.357 65.548H105.343ZM84.8473 11.06C85.6873 12.53 85.2113 12.124 85.8063 36.302C82.9083 34.993 78.8063 36.197 76.0063 37.702V16.961C76.0063 16.8 76.3703 16.849 73.9063 16.849C73.7523 16.849 73.7663 15.407 74.2843 38.864C73.8642 39.2432 73.499 39.679 73.1993 40.159H70.8473C70.8473 39.249 70.5813 32.795 70.5533 32.739C70.5452 32.7026 70.5247 32.6702 70.4953 32.6472C70.466 32.6242 70.4295 32.6121 70.3923 32.613C69.6359 32.5877 68.8788 32.604 68.1243 32.662C68.1019 32.6773 68.0842 32.6984 68.073 32.7231C68.0619 32.7478 68.0579 32.7751 68.0613 32.802C68.0613 33.502 68.1873 39.186 68.2363 40.194L65.5973 40.25C65.7303 28.294 65.7793 28.924 65.5973 28.91C63.7003 28.987 63.6583 28.952 63.6583 29.092V40.292L60.5783 40.355C60.5783 38.794 60.3403 21.154 60.2913 20.132C60.2933 20.086 60.2779 20.0409 60.248 20.0058C60.2181 19.9707 60.176 19.9483 60.1303 19.943C60.1303 19.943 57.9393 19.943 57.8693 20.013C57.6663 20.174 57.9813 39.613 57.9813 40.411L54.6563 40.474V30.023C54.6315 30.0133 54.604 30.0133 54.5793 30.023C52.6473 30.023 52.6683 30.023 52.6683 30.177V40.516L49.8263 40.6C49.6303 22.526 49.4693 22.855 49.5393 22.855C49.5396 22.8102 49.5233 22.7668 49.4936 22.7332C49.4639 22.6996 49.4228 22.6782 49.3783 22.673C49.3783 22.673 47.2013 22.673 47.1313 22.729C46.8933 22.876 47.2293 39.41 47.2293 40.656L43.3793 40.726C43.4003 13.447 43.4773 14.7 43.2953 14.7L41.5803 14.763C41.4613 14.763 41.5033 13.09 41.5033 40.754C38.6193 40.81 38.7033 40.754 38.6613 40.866C38.6478 40.8878 38.6403 40.9128 38.6395 40.9384C38.6387 40.9641 38.6446 40.9895 38.6566 41.0121C38.6686 41.0348 38.6864 41.0539 38.7081 41.0675C38.7298 41.0812 38.7547 41.0889 38.7803 41.09C43.0293 41.09 68.7613 40.831 72.9543 40.705C72.5343 41.776 72.6113 42.959 73.5843 43.582V43.736C69.5383 43.855 34.9163 43.736 34.2933 43.736C34.2933 42.819 33.5093 10.794 33.5023 9.00202C38.3533 9.00202 81.1023 9.06502 82.2153 9.24702C82.7609 9.33539 83.28 9.54388 83.7352 9.85743C84.1904 10.171 84.5702 10.5817 84.8473 11.06ZM8.54727 42.49C7.74227 43.652 7.70027 45.164 7.70027 46.627C7.70027 46.949 8.68027 81.403 8.82727 82.243C8.91099 82.8526 9.12422 83.4373 9.45262 83.9577C9.78103 84.4781 10.217 84.9221 10.7313 85.26C9.90847 85.2186 9.10409 85.0014 8.37227 84.623C6.81827 83.769 6.23027 82.012 6.02027 81.039C5.64927 79.289 5.15927 49.231 5.24327 47.677C5.19427 45.101 6.06927 43.708 8.53327 42.49H8.54727ZM113.547 121.653C116.349 121.458 119.094 120.766 121.653 119.609C123.473 118.769 125.741 117.439 126.679 116.382C126.826 119.686 126.154 121.821 122.759 123.382C118.265 125.482 107.604 128.058 102.998 124.985C102.585 124.586 101.598 121.555 101.206 120.155C103.215 121.492 109.067 122.01 113.533 121.653H113.547ZM50.2393 130.823C49.6513 130.774 49.3713 131.362 49.1753 131.789C47.5373 135.289 47.5583 135.513 45.8923 135.625C45.3673 135.66 40.4253 136.066 40.0613 136.066C38.7873 136.157 38.0803 135.282 38.9833 134.211C39.498 133.823 40.0694 133.516 40.6773 133.301C42.6233 132.398 45.7033 130.011 46.3823 127.057C47.0849 127.882 48.0434 128.449 49.1053 128.667C50.4199 128.808 51.7459 128.536 52.8993 127.89C52.6333 129.402 52.0173 134.113 51.9403 135.59C51.5311 135.547 51.1197 135.528 50.7083 135.534C50.7013 135.135 50.5683 130.851 50.2253 130.823H50.2393ZM52.8153 127.218C51.9056 127.861 50.8143 128.197 49.7003 128.177C49.111 128.133 48.5371 127.967 48.0145 127.692C47.4918 127.416 47.0315 127.035 46.6623 126.574C46.6623 126.357 46.5853 124.012 46.6063 122.752C48.8743 122.931 51.151 122.975 53.4243 122.885C53.3123 123.501 52.9553 126 52.8013 127.218H52.8153Z" fill="#EFEFEF"/>
<path d="M122.5 36.862C122.54 36.854 122.575 36.8325 122.601 36.8013C122.627 36.77 122.64 36.7309 122.64 36.6905C122.64 36.6502 122.627 36.611 122.601 36.5798C122.575 36.5485 122.54 36.5271 122.5 36.519H121.324C112.525 36.792 112.812 36.785 112.819 37.03C112.826 37.275 112.553 37.331 122.5 36.862ZM122.794 38.5C121.226 38.5 115.094 38.584 113.519 38.71C113.464 38.7196 113.414 38.7484 113.378 38.7913C113.342 38.8342 113.322 38.8885 113.322 38.9445C113.322 39.0006 113.342 39.0549 113.378 39.0978C113.414 39.1407 113.464 39.1694 113.519 39.179C115.122 39.179 121.219 38.864 122.801 38.801C122.836 38.7928 122.866 38.7731 122.887 38.7452C122.909 38.7173 122.92 38.6829 122.919 38.6477C122.919 38.6125 122.906 38.5786 122.883 38.5518C122.86 38.5249 122.829 38.5066 122.794 38.5ZM121.254 41.076C120.162 41.118 116.655 41.076 113.309 41.076C113.235 41.076 113.164 41.1055 113.111 41.158C113.059 41.2105 113.029 41.2818 113.029 41.356C113.029 41.4303 113.059 41.5015 113.111 41.554C113.164 41.6065 113.235 41.636 113.309 41.636C114.009 41.685 120.575 41.412 121.261 41.384C121.302 41.3831 121.341 41.366 121.369 41.3364C121.397 41.3069 121.413 41.2674 121.412 41.2265C121.411 41.1857 121.394 41.1469 121.364 41.1187C121.335 41.0904 121.295 41.0751 121.254 41.076ZM98.7003 6.09702C97.88 6.29846 97.1298 6.71865 96.5294 7.31281C95.9291 7.90698 95.5012 8.65287 95.2913 9.47102C94.5143 12.446 97.2093 15.687 100.31 15.169C100.988 15.0259 101.629 14.746 102.195 14.3464C102.761 13.9468 103.239 13.4359 103.6 12.845C103.953 12.1929 104.154 11.4691 104.187 10.7283C104.219 9.98738 104.084 9.24875 103.789 8.56802C103.369 7.36402 102.123 5.43902 98.7003 6.09702ZM100.394 11.998C99.0433 12.929 97.4613 11.235 98.0843 10.192C99.2043 8.33002 101.192 9.73702 101.241 10.437C101.241 10.7478 101.162 11.0535 101.013 11.3261C100.864 11.5988 100.649 11.8298 100.387 11.998H100.394ZM100.31 8.81302C99.8379 8.66436 99.3295 8.67648 98.8647 8.84746C98.3999 9.01844 98.0048 9.33865 97.7413 9.75802C97.526 10.1356 97.4447 10.5749 97.5108 11.0045C97.5769 11.4341 97.7864 11.8287 98.1053 12.124C98.3593 12.3679 98.6717 12.5424 99.0125 12.631C99.3533 12.7197 99.7111 12.7194 100.052 12.6302C100.392 12.541 100.704 12.3659 100.958 12.1216C101.212 11.8773 101.398 11.5721 101.5 11.235C102.098 11.6268 102.766 11.8979 103.467 12.033C103.219 12.6377 102.839 13.1792 102.355 13.6177C101.87 14.0562 101.294 14.3806 100.667 14.567C97.8673 15.379 95.3753 12.838 95.6903 10.094C95.7826 9.45494 96.0188 8.84518 96.3812 8.31074C96.7435 7.77631 97.2225 7.33117 97.7821 7.00893C98.3416 6.68668 98.9671 6.49576 99.6112 6.45056C100.255 6.40536 100.901 6.50707 101.5 6.74802C100.946 7.33379 100.536 8.04089 100.303 8.81302H100.31Z" fill="#EFEFEF"/>
<path d="M92.4006 18.116C94.1086 18.025 125.385 17.787 127.667 17.108C129.424 16.786 130.026 15.974 129.935 14.203C129.935 13.615 130.033 6.874 129.851 5.677C129.69 4.2 128.899 3.5 127.233 3.409C125.833 3.276 93.3876 3.78 91.8546 4.109C90.6086 4.354 89.7546 4.809 89.5866 6.209C89.5096 6.636 89.8456 14.539 89.8876 15.309C89.9856 16.975 90.8186 17.962 92.4006 18.116ZM95.1306 17.64C94.7184 17.5903 94.3225 17.4496 93.9714 17.2281C93.6203 17.0065 93.3229 16.7097 93.1006 16.359C92.6072 15.5092 92.3532 14.5416 92.3656 13.559C92.2886 12.369 92.0646 7.959 92.0366 6.895C92.0366 6.461 92.0366 5.019 93.1006 4.501C94.7456 4.333 125.392 3.878 126.701 3.92C127.401 3.92 128.346 3.976 128.878 4.515C129.662 5.306 129.41 6.615 129.459 14.14C129.613 16.058 128.885 16.478 127.093 16.737C125.483 16.982 95.4106 17.64 95.1446 17.64H95.1306ZM91.5606 6.006C91.4696 6.636 91.8406 12.656 91.8756 13.454C91.9596 15.435 92.5266 16.842 93.6466 17.654H92.9466C91.2386 17.654 90.4616 16.835 90.3846 15.092C90.3426 14.098 90.0206 6.692 90.0906 6.272C90.2376 4.998 91.0986 4.718 92.2396 4.578C91.8859 4.98056 91.6551 5.47617 91.5746 6.006H91.5606Z" fill="#EFEFEF"/>
<path d="M108.081 7.819C108.34 7.819 116.376 7.616 116.306 7.616C116.342 7.60834 116.374 7.58852 116.397 7.55985C116.421 7.53118 116.433 7.4954 116.433 7.4585C116.433 7.42159 116.421 7.38581 116.397 7.35714C116.374 7.32847 116.342 7.30865 116.306 7.301C115.711 7.301 108.774 7.182 108.067 7.301C108.013 7.32053 107.966 7.35655 107.934 7.40395C107.902 7.45135 107.885 7.50771 107.887 7.56505C107.888 7.62238 107.908 7.67777 107.943 7.72335C107.978 7.76894 108.026 7.8024 108.081 7.819ZM118.77 10.017C117.762 10.115 107.64 9.772 107.57 10.283C107.57 10.381 107.661 10.458 107.731 10.472C108.613 10.577 118.735 10.36 118.805 10.353C118.827 10.3507 118.848 10.3441 118.868 10.3335C118.887 10.3229 118.904 10.3086 118.918 10.2914C118.932 10.2742 118.943 10.2544 118.949 10.2331C118.956 10.2119 118.958 10.1896 118.955 10.1675C118.953 10.1454 118.946 10.124 118.936 10.1045C118.925 10.085 118.911 10.0678 118.894 10.0538C118.876 10.0399 118.857 10.0294 118.835 10.0231C118.814 10.0168 118.792 10.0147 118.77 10.017ZM118.567 12.705C116.838 12.705 108.123 12.663 107.668 12.74C107.623 12.7519 107.583 12.7782 107.555 12.8149C107.527 12.8516 107.512 12.8967 107.512 12.943C107.512 12.9893 107.527 13.0344 107.555 13.0711C107.583 13.1078 107.623 13.1341 107.668 13.146C108.151 13.223 117.86 12.999 118.574 12.978C118.605 12.9702 118.632 12.9522 118.651 12.9268C118.67 12.9015 118.68 12.8704 118.679 12.8387C118.679 12.807 118.667 12.7764 118.646 12.7521C118.626 12.7278 118.598 12.7112 118.567 12.705ZM19.6008 57.547C24.3398 57.162 26.8528 51.058 23.1708 47.67C23.0378 47.551 23.2898 47.285 19.4118 52.892C14.7218 48.447 14.9738 48.615 14.8688 48.692C11.1588 52.353 14.8338 57.939 19.6008 57.547Z" fill="#EFEFEF"/>
<path d="M19.0824 50.596C19.2154 50.743 19.1524 50.764 22.3234 45.416C22.331 45.4041 22.3361 45.3909 22.3385 45.377C22.3408 45.3631 22.3404 45.3488 22.3371 45.3351C22.3338 45.3214 22.3278 45.3085 22.3195 45.2971C22.3111 45.2857 22.3005 45.2762 22.2884 45.269C21.1702 44.6805 19.889 44.4775 18.6436 44.6914C17.3982 44.9053 16.2582 45.5242 15.4004 46.452C15.3164 46.557 15.1904 46.354 19.0824 50.596ZM11.7674 76.531C11.9469 76.5299 12.1221 76.4756 12.2709 76.3751C12.4197 76.2746 12.5354 76.1323 12.6035 75.9662C12.6716 75.8001 12.689 75.6175 12.6536 75.4415C12.6182 75.2655 12.5315 75.1039 12.4044 74.977C12.7544 74.41 15.0224 70.679 15.6874 69.671C15.8597 69.7507 16.0521 69.7766 16.2394 69.7454C16.4267 69.7142 16.6002 69.6273 16.7374 69.496L19.9714 71.988C19.9187 72.144 19.9093 72.3114 19.9442 72.4724C19.9791 72.6333 20.0571 72.7818 20.1697 72.9019C20.2824 73.022 20.4255 73.1093 20.5839 73.1545C20.7423 73.1997 20.9099 73.201 21.069 73.1584C21.2281 73.1158 21.3726 73.0308 21.4872 72.9125C21.6018 72.7942 21.6821 72.647 21.7196 72.4866C21.7571 72.3263 21.7504 72.1587 21.7001 72.0019C21.6499 71.845 21.5581 71.7048 21.4344 71.596L22.5824 70.084C22.7879 70.178 23.0208 70.1929 23.2365 70.1257C23.4523 70.0585 23.6356 69.9141 23.7514 69.72L27.0974 70.854C27.0793 71.0046 27.0991 71.1573 27.1551 71.2982C27.211 71.4392 27.3013 71.5639 27.4177 71.6611C27.5341 71.7583 27.673 71.8248 27.8217 71.8547C27.9704 71.8846 28.1241 71.8768 28.2691 71.8321C28.414 71.7874 28.5454 71.7072 28.6515 71.5988C28.7575 71.4904 28.8348 71.3572 28.8762 71.2113C28.9177 71.0655 28.922 70.9116 28.8889 70.7636C28.8557 70.6156 28.7861 70.4783 28.6864 70.364C28.9664 69.363 31.3884 61.964 31.6334 61.264C31.8685 61.2435 32.0866 61.1332 32.2424 60.956C32.9074 61.481 34.9024 62.972 35.5464 63.406C35.5096 63.5509 35.5091 63.7026 35.5448 63.8478C35.5806 63.9929 35.6516 64.127 35.7515 64.2382C35.8514 64.3494 35.9772 64.4343 36.1177 64.4853C36.2582 64.5364 36.4091 64.552 36.5571 64.5309C36.7051 64.5097 36.8456 64.4525 36.9662 64.3641C37.0868 64.2758 37.1837 64.1591 37.2485 64.0244C37.3133 63.8896 37.3439 63.741 37.3376 63.5917C37.3313 63.4423 37.2883 63.2968 37.2124 63.168C39.0744 60.2 39.1584 60.249 38.9624 60.116C38.9255 60.0931 38.8815 60.0848 38.8388 60.0925C38.7961 60.1003 38.7578 60.1236 38.7314 60.158C38.4024 60.634 36.8484 62.818 36.8484 62.818C36.6828 62.7365 36.4969 62.7056 36.3138 62.7293C36.1308 62.753 35.9588 62.8301 35.8194 62.951C35.1684 62.496 33.1034 61.019 32.4454 60.508C32.4735 60.3465 32.4575 60.1803 32.3989 60.0272C32.3404 59.874 32.2416 59.7395 32.1129 59.6379C31.9842 59.5362 31.8305 59.4713 31.6679 59.4498C31.5054 59.4284 31.34 59.4512 31.1894 59.516C31.0388 59.5808 30.9084 59.685 30.8122 59.8178C30.7159 59.9505 30.6573 60.1068 30.6426 60.2701C30.6278 60.4334 30.6575 60.5977 30.7284 60.7455C30.7993 60.8934 30.9088 61.0193 31.0454 61.11C30.4434 62.748 28.6934 68.418 28.2454 70.07C28.0772 70.0266 27.9002 70.0312 27.7344 70.0831C27.5687 70.1351 27.4207 70.2324 27.3074 70.364C26.6074 70.126 24.5074 69.489 23.8704 69.286C23.8704 69.0465 23.7753 68.8169 23.6059 68.6475C23.4366 68.4782 23.2069 68.383 22.9674 68.383C22.7279 68.383 22.4982 68.4782 22.3289 68.6475C22.1595 68.8169 22.0644 69.0465 22.0644 69.286C22.0659 69.486 22.1322 69.68 22.2534 69.839L21.0004 71.4C20.8804 71.3737 20.7562 71.3726 20.6357 71.3967C20.5152 71.4208 20.4011 71.4696 20.3004 71.54L16.9614 69.013C16.9978 68.7963 16.954 68.5738 16.8382 68.3871C16.7223 68.2004 16.5423 68.0624 16.332 67.9988C16.1217 67.9353 15.8954 67.9506 15.6955 68.042C15.4957 68.1333 15.336 68.2944 15.2464 68.495C15.1768 68.6393 15.1484 68.8 15.1645 68.9594C15.1805 69.1187 15.2404 69.2706 15.3374 69.398C14.6794 70.385 12.2924 74.2 11.9494 74.753C11.8238 74.7215 11.6928 74.7173 11.5654 74.7408C11.438 74.7644 11.3172 74.815 11.2111 74.8894C11.105 74.9637 11.0162 75.06 10.9506 75.1718C10.8851 75.2835 10.8443 75.408 10.8311 75.5369C10.8179 75.6657 10.8326 75.7959 10.8742 75.9186C10.9158 76.0413 10.9832 76.1536 11.0721 76.2479C11.1609 76.3422 11.2689 76.4163 11.3889 76.4652C11.5089 76.514 11.638 76.5365 11.7674 76.531ZM23.9474 79.009C23.8954 79.009 23.8456 79.0297 23.8088 79.0664C23.772 79.1032 23.7514 79.153 23.7514 79.205C23.7514 79.257 23.772 79.3069 23.8088 79.3436C23.8456 79.3804 23.8954 79.401 23.9474 79.401C25.1724 79.401 39.5504 78.841 40.0474 78.834C40.08 78.8268 40.1092 78.8086 40.1302 78.7825C40.1511 78.7564 40.1625 78.724 40.1625 78.6905C40.1625 78.6571 40.1511 78.6246 40.1302 78.5985C40.1092 78.5724 40.08 78.5543 40.0474 78.547C38.0944 78.554 25.2004 78.869 23.9474 79.009ZM30.1004 74.004C30.145 74.004 30.1877 73.9863 30.2192 73.9548C30.2507 73.9233 30.2684 73.8806 30.2684 73.836C30.2684 73.7915 30.2507 73.7487 30.2192 73.7172C30.1877 73.6857 30.145 73.668 30.1004 73.668C29.5474 73.668 27.5454 73.549 27.0764 73.57C26.9947 73.57 26.9164 73.6025 26.8586 73.6602C26.8008 73.718 26.7684 73.7963 26.7684 73.878C26.7684 73.9597 26.8008 74.038 26.8586 74.0958C26.9164 74.1536 26.9947 74.186 27.0764 74.186C27.5384 74.242 29.5194 74.053 30.1004 74.004ZM22.6174 74.9H19.6004C19.5352 74.9031 19.4719 74.9236 19.4174 74.9595C19.3628 74.9954 19.3189 75.0453 19.2903 75.104C19.2616 75.1627 19.2493 75.2281 19.2546 75.2932C19.2599 75.3583 19.2826 75.4207 19.3204 75.474C19.5094 75.754 19.6564 75.537 22.6314 75.285C22.6683 75.2674 22.6993 75.2393 22.7205 75.2043C22.7417 75.1693 22.7522 75.1288 22.7507 75.0879C22.7492 75.047 22.7358 75.0075 22.7121 74.9741C22.6884 74.9407 22.6555 74.9149 22.6174 74.9ZM10.6824 78.638C10.8294 78.638 12.9574 78.407 13.4264 78.386C13.4784 78.386 13.5282 78.3654 13.565 78.3286C13.6017 78.2919 13.6224 78.242 13.6224 78.19C13.6224 78.138 13.6017 78.0882 13.565 78.0514C13.5282 78.0147 13.4784 77.994 13.4264 77.994C13.1534 77.994 10.7874 78.092 10.6264 78.169C10.5837 78.1947 10.5493 78.2323 10.5273 78.2771C10.5054 78.3219 10.4969 78.3721 10.5028 78.4216C10.5087 78.4712 10.5288 78.5179 10.5607 78.5563C10.5925 78.5947 10.6348 78.6231 10.6824 78.638Z" fill="#EFEFEF"/>
<path d="M35.3859 66.5H35.4979C38.4729 66.234 38.3679 66.437 38.4939 66.297C38.5171 66.2695 38.5324 66.2362 38.538 66.2007C38.5435 66.1651 38.5392 66.1287 38.5255 66.0955C38.5117 66.0622 38.4891 66.0334 38.4601 66.0121C38.431 65.9909 38.3967 65.978 38.3609 65.975C37.3179 65.975 36.3379 65.884 35.3999 65.926C35.0009 65.933 35.0359 66.5 35.3859 66.5ZM19.7339 60.389C19.6577 60.389 19.5847 60.4192 19.5309 60.4731C19.4771 60.5269 19.4469 60.5999 19.4469 60.676C19.4469 60.7521 19.4771 60.8251 19.5309 60.8789C19.5847 60.9328 19.6577 60.963 19.7339 60.963C20.7349 60.963 24.6339 60.606 25.5789 60.508C25.6236 60.4994 25.664 60.4755 25.6931 60.4404C25.7221 60.4052 25.738 60.3611 25.738 60.3155C25.738 60.2699 25.7221 60.2257 25.6931 60.1906C25.664 60.1555 25.6236 60.1316 25.5789 60.123C24.6059 60.2 20.6999 60.305 19.7339 60.389ZM19.2579 62.027C19.2016 62.041 19.1523 62.075 19.1193 62.1227C19.0863 62.1705 19.0719 62.2286 19.0788 62.2862C19.0857 62.3438 19.1134 62.3969 19.1567 62.4356C19.2 62.4742 19.2559 62.4957 19.3139 62.496C20.4199 62.496 24.7599 62.104 25.8519 62.097C25.9001 62.097 25.9464 62.0778 25.9806 62.0437C26.0147 62.0096 26.0339 61.9633 26.0339 61.915C26.0339 61.8667 26.0147 61.8204 25.9806 61.7863C25.9464 61.7522 25.9001 61.733 25.8519 61.733C23.6498 61.6845 21.4469 61.7827 19.2579 62.027ZM25.2919 63.147C23.46 63.1206 21.628 63.193 19.8039 63.364C19.4679 63.406 19.4539 63.917 19.8039 63.917C20.4269 63.917 23.8289 63.567 25.2989 63.511C25.3228 63.5105 25.3463 63.5054 25.3682 63.4958C25.3902 63.4862 25.41 63.4724 25.4265 63.4552C25.4431 63.438 25.4561 63.4177 25.4648 63.3954C25.4736 63.3732 25.4778 63.3494 25.4774 63.3255C25.4769 63.3016 25.4717 63.278 25.4622 63.2561C25.4526 63.2342 25.4388 63.2144 25.4216 63.1978C25.4044 63.1812 25.384 63.1682 25.3618 63.1595C25.3395 63.1508 25.3158 63.1465 25.2919 63.147ZM27.5949 48.069C27.9379 48.069 31.4309 47.705 32.1169 47.656C32.1651 47.656 32.2114 47.6368 32.2456 47.6027C32.2797 47.5686 32.2989 47.5223 32.2989 47.474C32.2989 47.4257 32.2797 47.3794 32.2456 47.3453C32.2114 47.3112 32.1651 47.292 32.1169 47.292C31.7739 47.292 28.0289 47.404 27.6159 47.432C27.2029 47.46 27.2029 48.069 27.5949 48.069ZM28.3159 49.483C29.4149 49.483 33.6989 49.077 34.7839 49.007C34.8234 48.999 34.859 48.9775 34.8845 48.9462C34.9101 48.915 34.924 48.8759 34.924 48.8355C34.924 48.7951 34.9101 48.756 34.8845 48.7247C34.859 48.6935 34.8234 48.672 34.7839 48.664C33.6919 48.713 29.3799 48.734 28.3089 48.846C28.2326 48.8582 28.1633 48.8973 28.1135 48.9563C28.0637 49.0154 28.0368 49.0903 28.0376 49.1675C28.0384 49.2447 28.067 49.3191 28.1181 49.377C28.1692 49.4349 28.2394 49.4725 28.3159 49.483Z" fill="#EFEFEF"/>
</svg>
