<svg width="140" height="140" viewBox="0 0 140 140" fill="none" xmlns="http://www.w3.org/2000/svg">
<path d="M105.174 51.5342C105.909 47.9292 101.891 47.1102 101.163 50.7152C100.855 52.2272 104.439 55.1462 105.174 51.5342ZM99.9104 119.7C132.362 111.237 132.81 110.754 99.8474 119.441C89.1444 122.227 72.7994 126.7 99.9104 119.7ZM118.355 117.285C77.2514 130.718 72.6734 133.126 118.411 117.46C123.458 115.731 123.199 115.843 123.178 115.766C123.168 115.759 123.156 115.756 123.143 115.756C123.131 115.756 123.119 115.759 123.108 115.766L118.355 117.285ZM91.2654 131.67C91.27 131.675 91.2754 131.679 91.2815 131.681C91.2875 131.684 91.2939 131.685 91.3004 131.685C91.307 131.685 91.3134 131.684 91.3194 131.681C91.3254 131.679 91.3309 131.675 91.3354 131.67C105.258 126.679 117.893 122.696 122.548 120.876C123.528 120.498 121.687 121.037 120.7 121.373C112.202 124.271 91.1674 131.397 91.2654 131.67ZM32.8994 89.4812C32.8994 88.6482 32.6124 88.5992 32.5564 88.9772C32.4481 90.4329 32.42 91.8935 32.4724 93.3522C31.1309 92.5862 29.7256 91.9375 28.2724 91.4132C28.2724 89.8662 28.2304 88.6692 28.1814 87.9902C28.1254 87.1782 27.8244 87.4022 27.8244 87.8222V89.4672C27.7614 92.2672 27.7754 94.6752 27.8874 95.7112C27.9224 96.0682 28.1184 96.1802 28.1884 95.8302C28.3075 94.4335 28.3356 93.0306 28.2724 91.6302C29.6182 92.3882 31.0227 93.0366 32.4724 93.5692C32.4724 95.8442 32.4724 97.0692 32.5354 97.9232C32.5354 98.3222 32.9344 98.5322 32.9204 97.8812C32.8994 95.0532 32.8994 91.5182 32.8994 89.4812ZM37.4494 91.0562C37.0997 94.3527 37.0061 97.6713 37.1694 100.982C37.1694 101.304 37.4494 101.332 37.4774 101.108C37.5334 100.506 37.4774 96.2082 37.9744 91.4692C38.9361 91.9121 39.9279 92.2863 40.9424 92.5892C41.3134 92.6732 41.2224 92.3932 41.0614 92.3092C38.3244 90.9512 35.9444 90.1742 34.9714 89.7122C34.7544 89.6142 34.2014 89.7122 34.8524 90.0762C35.3284 90.3422 36.0214 90.4472 37.4494 91.0562ZM48.3694 94.9902C48.3306 94.9842 48.2909 94.9904 48.2558 95.0079C48.2207 95.0255 48.1919 95.0536 48.1734 95.0882L45.6464 100.408C42.2164 89.7542 42.7274 88.5642 42.6504 102.83C42.6504 102.977 42.8534 103.082 42.9234 102.942C42.9934 102.802 42.9234 103.558 43.1264 93.5622C45.5554 101.262 45.3524 101.087 45.5974 101.101C45.8424 101.115 46.2414 100.401 48.2294 96.0962C48.5864 100.814 48.6074 103.46 48.7964 104.587C48.8664 104.979 49.1954 104.888 49.1604 104.482C49.0204 102.837 48.8804 101.332 48.6914 98.1192C48.6284 96.9572 48.5514 95.0252 48.3694 94.9902ZM52.3734 106.4C52.3734 100.38 52.4364 97.8042 52.3734 96.8522C52.3734 96.3762 51.9674 96.4742 51.9814 96.8522C51.8974 105.322 51.9814 106.582 52.1074 106.652C54.1164 107.555 55.7754 108.437 56.6504 108.752C56.8254 108.815 57.0074 108.647 56.6504 108.437C55.9014 108.003 54.4594 107.352 52.3734 106.4ZM58.5264 118.916C58.0084 120.071 57.3784 121.471 56.8464 122.619C57.7113 122.661 58.562 122.856 59.3594 123.193C59.0864 121.884 58.7994 120.225 58.5264 118.916Z" fill="#EFEFEF"/>
<path d="M126.049 107.8L123.2 106.54C123.417 106.12 124.18 93.8141 124.404 88.8161C124.404 88.7251 124.467 88.7601 122.829 88.3051C118.629 87.1151 113.449 85.8341 109.704 84.9871C125.412 80.5771 124.467 80.8501 124.481 80.7171C125.104 75.0331 126.077 67.1511 125.965 67.1091L109.606 61.9711C113.883 45.0241 114.961 41.1181 115.115 40.1451C115.171 39.7881 115.206 39.7041 115.031 39.6831C112.777 39.5361 105.931 39.0881 95.6827 38.4371C95.5987 38.0451 95.3467 36.8831 94.8987 35.2591C94.6397 34.3071 94.3107 33.2011 93.9117 31.9901C92.52 28.5745 89.9425 25.7757 86.6527 24.1081C85.1617 21.5251 87.6187 17.4791 86.0647 9.60414C84.5107 1.72914 76.2647 2.56214 73.4647 6.23714C68.7957 12.4111 71.8337 16.3031 63.9867 21.7771C62.7897 21.9871 57.3787 24.3531 53.9767 26.7611C52.126 28.1991 50.5914 30.0029 49.4687 32.0601C47.7715 35.0912 46.4392 38.3127 45.4997 41.6571C45.4905 41.6924 45.4947 41.7298 45.5115 41.7622C45.5283 41.7945 45.5565 41.8194 45.5907 41.8321C45.5907 41.8321 46.4797 42.1681 47.8937 42.6371C47.1937 46.0671 46.8017 51.7371 49.0627 54.5371L13.8037 60.9981V80.6821L21.6017 82.6491C21.6017 82.7331 22.6867 95.4871 22.8547 95.5711L29.7497 98.9941L15.7497 102.858C44.7507 110.019 82.3127 119.854 82.2497 120.092C82.1867 120.33 39.1997 109.417 15.5117 103.019V119.504L83.4117 136.416C83.3557 136.619 83.1107 136.654 93.7367 133.07C101.206 130.55 126.182 122.045 126.182 121.828C126.105 108.5 126.112 108.115 126.049 107.8ZM32.7247 112.749C32.9417 116.662 33.8377 121.625 30.0507 121.604C27.3417 121.527 27.2507 118.104 27.5797 118.104C27.9087 118.104 27.5797 119.056 28.3777 120.204C28.5725 120.442 28.8154 120.636 29.0905 120.774C29.3656 120.912 29.6666 120.99 29.9739 121.003C30.2812 121.016 30.5878 120.964 30.8736 120.851C31.1595 120.737 31.4182 120.565 31.6327 120.344C32.0107 119.879 32.2312 119.305 32.2627 118.706C32.2627 118.146 32.2277 116.487 32.4377 112.693C29.5817 112.084 29.3577 111.993 27.5377 111.475C27.5043 111.468 27.4752 111.447 27.4568 111.418C27.4384 111.39 27.4323 111.355 27.4397 111.321C27.4471 111.288 27.4675 111.259 27.4964 111.24C27.5253 111.222 27.5603 111.216 27.5937 111.223C37.1767 112.56 41.9997 114.667 32.7247 112.749ZM43.0637 123.557C42.9097 123.557 42.9517 123.746 42.0207 119.812C41.0819 119.815 40.1526 119.624 39.2907 119.252C37.8907 122.374 37.9677 122.339 37.8067 122.276C37.6457 122.213 38.6257 119.476 40.8167 113.939C40.8412 113.876 40.8856 113.822 40.9431 113.786C41.0007 113.75 41.0683 113.733 41.136 113.739C41.2037 113.744 41.2678 113.772 41.3187 113.817C41.3697 113.862 41.4047 113.922 41.4187 113.988C41.4187 113.988 41.6287 114.989 41.9017 116.333C42.8047 120.834 42.8467 121.611 43.1617 123.41C43.1679 123.443 43.1611 123.476 43.1428 123.504C43.1245 123.531 43.0961 123.55 43.0637 123.557ZM50.8477 123.319C49.5597 126.035 49.6157 126.042 49.3217 126.014C49.2581 126.009 49.1975 125.985 49.1476 125.945C49.0978 125.905 49.0609 125.851 49.0417 125.79C48.5727 124.173 47.9427 122.29 46.8927 118.328C46.5077 116.928 46.2347 115.822 46.2347 115.822C46.2245 115.79 46.2276 115.754 46.2434 115.724C46.2591 115.694 46.2862 115.671 46.3187 115.661C46.3512 115.651 46.3864 115.654 46.4166 115.67C46.4468 115.686 46.4695 115.713 46.4797 115.745C47.5997 119.063 47.7817 119.413 49.4197 124.845C54.2917 114.8 54.8097 114.947 50.8477 123.319ZM60.4097 127.4C60.2277 127.435 60.2767 127.463 59.4507 123.634C58.4838 123.608 57.5318 123.389 56.6507 122.99C55.8877 124.614 54.8377 126.728 54.8027 126.805C54.7831 126.817 54.7607 126.824 54.7377 126.825C54.7147 126.826 54.6918 126.821 54.6714 126.81C54.6509 126.8 54.6335 126.784 54.621 126.765C54.6084 126.745 54.6011 126.723 54.5997 126.7C54.5997 126.7 54.9777 125.734 55.5027 124.439C59.4647 114.639 58.7437 115.066 60.5287 127.239C60.5328 127.258 60.5328 127.277 60.5289 127.295C60.5249 127.314 60.517 127.331 60.5057 127.347C60.4945 127.362 60.4801 127.375 60.4635 127.384C60.4469 127.393 60.4286 127.399 60.4097 127.4ZM123.942 88.8161C122.255 89.1101 114.996 90.3841 106.246 91.9381C107.366 89.2221 108.108 87.3041 108.885 85.2321L109.354 85.0991C113.498 86.2751 119.105 87.7241 123.942 88.8021V88.8161ZM57.0917 70.2731C55.4231 69.0975 54.0832 67.5142 53.1997 65.6741L53.7667 65.3591C54.6197 66.7691 55.6765 68.0452 56.9027 69.1461C58.1566 70.2963 59.6512 71.1524 61.2777 71.6521C65.2257 72.7721 73.4717 74.3681 77.5107 75.1031C76.5727 81.0811 76.7617 91.0561 79.2747 101.703L79.0227 101.668C77.9542 98.3443 77.2753 94.9076 76.9997 91.4271C76.5397 86.1269 76.4461 80.8013 76.7197 75.4881C76.7897 74.5431 63.0837 74.5781 57.0917 70.2591V70.2731ZM85.4347 64.1271C89.3897 65.6111 91.8747 69.4051 90.9507 74.7531C89.8587 81.1371 86.1347 95.1651 84.4407 101.416C82.7958 101.841 81.0838 101.941 79.4007 101.71C75.4667 83.8461 78.3997 74.9001 77.6997 74.7741C77.6227 74.7741 65.6037 72.5481 61.2917 71.3651C59.6993 70.8956 58.2312 70.0778 56.9937 68.9711C55.7889 67.898 54.7467 66.6554 53.8997 65.2821C54.6557 64.8691 55.3767 64.4841 56.3987 63.9731C60.4937 61.9361 65.5547 59.9621 70.1047 59.7171V60.9491C70.0627 61.1241 69.1807 60.9001 85.4347 64.1131V64.1271ZM97.0757 97.0271L96.9497 96.9431C96.8753 94.0515 96.9688 91.158 97.2297 88.2771C97.7337 82.2781 98.1887 79.4921 98.7277 77.8541C99.1967 76.4541 99.5607 75.6351 99.2947 75.5651C98.5177 75.3691 97.9647 75.2081 91.4477 73.6191C91.4787 73.0829 91.4787 72.5454 91.4477 72.0091C94.2337 73.1964 97.1197 74.1334 100.072 74.8091C98.6295 79.8559 97.6915 85.0332 97.2717 90.2651C97.1247 92.4001 97.0477 94.6541 97.0757 97.0131V97.0271ZM96.8097 93.6111L86.3097 95.5011C86.8627 93.5341 87.1777 92.3511 87.4857 91.2031C90.5027 90.3631 93.4777 89.5441 96.9917 88.5571C96.9847 88.6901 96.8447 90.5801 96.8097 93.5971V93.6111ZM90.6707 78.0851C93.5617 77.7701 96.5157 77.3011 98.7277 76.8741C98.3226 78.4168 98.0001 79.9801 97.7617 81.5571C95.0807 81.9771 92.1617 82.5371 89.5297 83.1601C89.9497 81.3681 90.3417 79.6531 90.6707 78.0711V78.0851ZM89.4947 83.3001C92.4417 82.8451 95.2767 82.2711 97.7337 81.6971C97.5167 83.0971 97.3767 84.2801 97.2437 85.5961C94.8077 85.9951 91.5667 86.6251 88.4937 87.3601C88.8507 85.9251 89.1447 84.7421 89.4947 83.3001ZM88.4587 87.5001C91.4019 87.011 94.3273 86.4203 97.2297 85.7291C97.1527 86.5061 97.0827 87.3181 97.0197 88.1861L87.5837 90.8461C87.8777 89.7261 88.1997 88.6061 88.4587 87.5001ZM97.6077 90.3001C98.7487 78.5821 100.702 74.9631 100.478 74.5921C100.448 74.552 100.406 74.5226 100.359 74.5081C97.325 73.8704 94.3492 72.9831 91.4617 71.8551C91.4617 71.6311 91.4617 71.4771 91.4057 71.2951C94.5019 72.6293 97.7053 73.6995 100.982 74.4941C99.3852 79.6401 98.3226 84.9366 97.8107 90.3001C97.6147 92.5121 97.5097 94.8571 97.5377 97.3001L97.2087 97.1041C97.2997 96.9921 97.1457 95.0601 97.6077 90.3001ZM91.4337 73.7941C93.4987 74.3611 96.9497 75.3131 99.0287 75.8941C98.9727 76.0621 98.8817 76.3631 98.7627 76.7831C96.6627 77.0141 93.6877 77.4341 90.6987 78.0011C90.9507 76.7341 91.3357 74.8371 91.4337 73.7661V73.7941ZM83.4047 106.155C84.3497 105.987 80.6047 106.582 89.6067 105.231L95.6337 104.321C95.5516 104.508 95.4432 104.683 95.3117 104.839C94.6507 105.507 94.1837 106.342 93.9607 107.254L95.4167 108.171L83.6707 110.159C83.178 108.873 83.0852 107.467 83.4047 106.127V106.155ZM89.5647 104.965L83.4397 105.903C83.6987 104.321 84.3567 102.445 86.1977 95.9071L96.8097 93.9821V96.9151C96.8097 96.9571 96.5227 102.039 95.7527 104.027L89.5647 104.965ZM97.6847 97.3631C97.8527 83.4541 101.619 74.6971 101.36 74.2631C101.349 74.24 101.332 74.2201 101.311 74.2054C101.29 74.1906 101.266 74.1816 101.241 74.1791C99.8721 73.914 98.5209 73.5657 97.1947 73.1361C94.5627 72.3171 91.9937 71.3441 91.3847 71.1061C91.1657 69.5441 90.5301 68.0698 89.5448 66.8381C88.5594 65.6064 87.2606 64.6627 85.7847 64.1061L108.885 62.6571C109.978 62.9944 110.913 63.7153 111.517 64.6871C114.569 69.2931 111.559 76.8881 108.549 84.9871C105.224 93.9471 102.949 98.7981 102.949 98.9381C101.077 98.8535 99.2535 98.3231 97.6287 97.3911C97.6287 97.3911 97.6847 97.3491 97.6847 97.3351V97.3631ZM124.18 80.6051C118.916 82.0541 113.82 83.4821 109.053 84.8051C109.599 83.3351 109.886 82.5301 110.208 81.6201C122.808 79.6251 122.941 78.5331 110.257 81.4871C110.67 80.3181 111.055 79.1771 111.405 78.0781C127.211 75.1801 127.001 74.1581 111.447 77.9451C112.147 75.7191 113.253 72.1281 113.19 69.7971L125.895 67.2001L124.18 80.6051ZM114.8 40.0331L109.151 62.2581L85.2387 63.7911L70.3427 60.8441V59.7031C70.4827 59.7031 77.2657 61.2571 85.2177 62.5031C85.2372 62.5074 85.2575 62.5039 85.2745 62.4935C85.2915 62.483 85.3037 62.4664 85.3087 62.4471L91.1607 38.4441C97.8737 38.9131 108.451 39.6201 114.8 40.0331ZM71.3227 59.6681L85.8617 59.3741L85.1617 62.3491C80.6467 61.3411 75.8657 60.4171 71.3227 59.6681ZM79.7227 11.4941C79.7227 11.4941 83.1457 11.4941 85.1057 12.7541C85.1057 12.7541 85.9737 21.3291 80.1217 21.3291C76.1177 21.3291 73.8777 16.1421 79.7367 11.4941H79.7227ZM45.7727 41.5941C46.7372 38.3176 48.081 35.165 49.7767 32.2001C50.8791 30.1914 52.3825 28.4307 54.1937 27.0271C57.2006 25.0039 60.445 23.3582 63.8537 22.1271C69.0407 25.3751 74.3537 37.1141 78.7707 39.4381C83.1877 41.7621 85.2597 32.4381 85.1197 30.1141C85.0007 28.1821 86.1907 25.2141 86.5687 24.3741C89.7913 25.9955 92.3213 28.7243 93.6947 32.0601C94.1077 33.2641 94.4437 34.3631 94.7167 35.3081C95.1647 36.8691 95.4167 38.0031 95.5217 38.4231C90.6217 38.1151 90.9157 38.0801 90.8737 38.2551L85.8967 59.2551C69.2997 59.5281 71.4557 59.4441 70.0487 59.4721C65.4007 59.4721 60.2977 61.5721 56.2097 63.6721C54.9987 64.3091 53.6127 65.1281 52.4927 65.8701C51.1054 62.7778 50.6224 59.3557 51.0997 56.0001C56.5457 57.8201 61.4877 56.0981 65.8767 56.1051C70.5107 56.1051 72.7087 54.5651 73.9127 57.6451C74.2557 59.0031 75.4667 59.0451 75.4037 58.0301C76.1457 59.1571 77.0557 58.9121 76.3697 57.0641C76.7057 57.6381 76.8877 58.5131 77.4967 58.5691C78.8267 58.6811 78.0287 54.0261 73.2127 52.4441C66.5417 50.2601 64.6447 47.5441 59.9127 46.9701C60.9627 42.2381 62.0127 35.9311 61.1097 31.1571C60.1017 25.7181 57.2457 26.0051 57.1827 25.9351C57.1623 25.9351 57.1427 25.9433 57.1283 25.9577C57.1138 25.9721 57.1057 25.9917 57.1057 26.0121C57.1057 26.0326 57.1138 26.0521 57.1283 26.0666C57.1427 26.081 57.1623 26.0891 57.1827 26.0891C57.3087 26.2431 62.7827 25.5921 60.4447 42.6441C60.3257 43.5191 60.1857 44.4361 60.0247 45.4021C58.057 45.1738 56.1083 44.8042 54.1937 44.2961C51.3478 43.5428 48.5418 42.6456 45.7867 41.6081L45.7727 41.5941ZM48.0057 42.7001C51.5757 43.8831 56.3147 45.2201 60.0457 45.5561C59.9687 46.0111 59.8847 46.4801 59.7937 46.9561C56.2937 46.5641 52.4577 47.9641 52.5277 48.1461C52.5309 48.1558 52.5359 48.1648 52.5426 48.1725C52.5492 48.1802 52.5574 48.1866 52.5665 48.1911C52.5756 48.1957 52.5855 48.1984 52.5957 48.1991C52.6059 48.1998 52.6161 48.1984 52.6257 48.1951C61.8447 44.7511 64.8897 50.0151 73.1287 52.7731C77.7627 54.3131 78.1827 58.5901 77.4547 58.1701C77.0697 57.9391 77.1257 57.4701 76.5027 56.5461C76.1979 56.0947 75.866 55.6623 75.5087 55.2511C75.4945 55.2318 75.4766 55.2155 75.456 55.2031C75.4354 55.1908 75.4127 55.1825 75.3889 55.179C75.3652 55.1754 75.341 55.1765 75.3177 55.1823C75.2944 55.1881 75.2725 55.1984 75.2532 55.2126C75.2339 55.2269 75.2176 55.2448 75.2052 55.2654C75.1928 55.2859 75.1846 55.3087 75.181 55.3324C75.1775 55.3561 75.1786 55.3803 75.1844 55.4036C75.1902 55.4269 75.2005 55.4488 75.2147 55.4681C76.8317 58.2681 76.5097 59.7941 74.9277 56.2801C74.5707 55.3421 74.5007 55.1041 74.2697 55.2021C73.9267 55.3491 74.4587 55.8251 74.8997 57.3021C75.0107 57.6163 75.0583 57.9494 75.0397 58.2821C75.0397 58.3451 74.8087 58.3591 74.6407 58.2051C73.9407 57.5051 74.3397 55.0481 70.3637 55.4051C69.1807 55.5031 67.7177 55.7551 65.8977 55.7551C61.2567 55.7551 57.2107 57.4211 51.3727 55.7971C46.9627 54.5511 47.1447 47.1941 48.0057 42.7001ZM54.9147 71.4631L58.0997 72.2751C55.7399 70.7157 53.8326 68.5621 52.5697 66.0311L53.0387 65.7511C53.9218 67.6283 55.2685 69.2496 56.9517 70.4621C59.8917 72.6461 63.0207 73.3391 69.5517 74.5501C73.0937 75.2501 75.6837 75.5511 76.3627 75.6351C75.9217 83.1461 76.2507 94.5351 78.8337 101.612C78.3087 101.521 77.9377 101.43 77.7907 101.395C76.2219 95.8739 75.4026 90.1668 75.3547 84.4271C75.3127 77.9101 76.3207 76.9161 75.7607 76.9161C75.5787 76.8741 65.4217 76.9511 58.6877 72.6671L54.8517 71.7711C3.34571 59.7451 2.70871 57.9041 54.9147 71.4491V71.4631ZM72.0717 77.0631C73.7657 77.2381 75.0257 77.2801 75.5157 77.2941C74.5217 82.2361 75.0467 89.0191 75.9637 94.1431L72.0717 95.2631V77.0631ZM52.3247 80.9551C56.0627 81.1931 57.7917 85.1551 56.0977 86.9051C54.6277 88.4101 50.9527 87.6051 49.6577 85.7921C48.9909 84.8107 48.7393 83.6054 48.9577 82.4391C48.9577 82.3061 49.3287 82.1311 49.4127 82.6911C49.6087 83.2721 48.3697 86.0441 52.6677 86.8421C58.1067 87.8781 56.6367 82.0961 52.1777 81.8161C47.9007 81.5361 48.2717 76.4751 49.7907 75.2081C51.3097 73.9411 53.8227 74.9421 55.2787 76.2441C56.9377 77.7211 57.0217 79.4431 56.6787 79.4151C56.6227 79.4151 56.2867 79.5411 56.1397 79.0441C55.6847 77.4831 55.0757 76.4261 53.2627 75.7611C51.2187 75.0121 49.4827 75.5161 49.5387 77.3851C49.6507 79.5621 50.2947 80.8221 52.3247 80.9481V80.9551ZM39.5987 77.1751C44.8487 77.5111 45.9897 85.0431 39.9137 83.7551C35.4617 82.7891 36.0567 78.5331 36.4137 78.5821C37.0437 78.6661 35.8607 82.3201 40.2987 83.1461C45.7517 84.1891 43.6937 78.1551 39.2557 77.8821C36.9527 77.7281 35.9517 76.1251 36.1477 73.6401C36.5887 68.1171 44.4777 71.9321 44.1487 75.5371C44.1487 75.6001 43.9387 75.9081 43.8827 75.9011C43.8267 75.8941 43.4137 75.9011 43.4417 75.3201C43.5957 72.1281 37.2187 69.6711 36.6447 73.6821C36.3017 75.8311 37.5687 77.0421 39.5987 77.1681V77.1751ZM27.4817 78.7641C28.9918 80.0478 30.8156 80.9077 32.7667 81.2561C32.9067 81.2561 33.1447 82.0121 32.4727 81.8161C32.0527 81.6901 24.8917 80.8431 24.8917 73.6611C24.8917 68.0611 32.5917 70.0001 32.6827 69.9931C32.7737 69.9861 32.7247 70.0771 32.7667 70.1191C32.9207 70.3151 32.9207 70.4901 32.3607 70.5181C32.2907 70.5181 25.6407 69.8181 25.6407 74.0181C25.6407 75.9501 26.0187 77.3781 27.4817 78.7571V78.7641ZM23.0997 95.2911C22.7917 92.1971 22.3997 88.0671 21.7417 82.6911C44.8417 90.6851 49.4757 92.4911 68.2357 99.0991C68.0677 104.748 68.1027 111.776 68.2357 115.759C40.9357 103.383 45.4997 106.344 23.0997 95.2911ZM24.4997 83.3911L72.0997 95.4591C72.3797 95.3891 72.0997 95.4591 76.0267 94.3601C76.1947 95.2911 76.3907 96.2571 76.6147 97.2511L68.3337 98.7001C61.2217 96.2081 36.7847 87.5771 24.4997 83.3771V83.3911ZM68.4107 115.787C68.5367 111.587 68.5787 104.699 68.4107 99.1131L76.6847 97.6151C77.4757 100.737 78.3717 104.482 78.4907 106.666C68.6907 108.199 68.0957 108.388 78.4907 106.862C78.6447 110.194 78.0567 109.025 77.7487 111.174C69.4467 112.63 67.9487 112.966 77.7487 111.384C77.7189 111.663 77.7189 111.945 77.7487 112.224L79.7787 112.763C79.7787 112.224 80.5207 112.154 83.3277 113.54C86.1347 114.926 87.9757 114.401 87.1777 113.54C86.5617 112.84 84.7557 112 83.8457 110.383L96.5437 108.241C97.423 108.769 98.2281 109.412 98.9377 110.152C101.199 112.308 103.138 112.364 102.62 111.307C102.249 110.523 100.912 109.256 100.443 107.583C106.414 106.561 110.614 105.812 113.008 105.483C114.793 105.252 116.06 104.783 112.252 105.364C109.809 105.749 105.875 106.393 100.352 107.31C100.058 105.98 100.471 104.776 100.975 103.481C107.975 102.417 109.193 102.221 115.563 101.227C120.785 100.401 120.554 100.464 120.547 100.38C120.543 100.367 120.535 100.355 120.523 100.347C120.512 100.339 120.498 100.336 120.484 100.338L115.535 101.038C108.598 102.046 107.191 102.263 101.087 103.18C101.706 101.741 102.407 100.339 103.187 98.9801C103.656 98.0911 106.127 92.3021 106.162 92.2321L124.236 88.9001C123.417 97.2581 123.053 106.449 123.053 106.519L101.99 110.089C102.269 110.443 102.522 110.817 102.746 111.209C103.271 112.336 101.619 112.798 99.0917 110.579L86.4427 112.7C86.7414 112.907 87.0202 113.142 87.2757 113.4C87.3748 113.484 87.445 113.596 87.4764 113.722C87.5078 113.848 87.4988 113.98 87.4507 114.1C86.8417 115.276 83.7477 113.911 82.5507 113.351L68.4107 115.787ZM125.874 121.723C117.859 124.432 97.2577 131.523 83.5027 136.367L82.5437 120.078L125.944 107.912C125.93 110.18 125.881 117.159 125.86 121.709L125.874 121.723Z" fill="#EFEFEF"/>
<path d="M41.006 115.157C40.348 116.781 39.893 117.873 39.459 118.867C40.3011 118.902 41.1315 119.077 41.916 119.385C41.608 118.034 41.195 116.074 41.006 115.157ZM79.506 14.6092C79.772 14.7002 79.807 14.3152 79.912 14.0422C79.9298 14.0157 79.9415 13.9857 79.9463 13.9541C79.9512 13.9226 79.949 13.8904 79.9399 13.8598C79.9309 13.8292 79.9152 13.8009 79.894 13.7771C79.8728 13.7533 79.8466 13.7344 79.8173 13.7218C79.788 13.7092 79.7562 13.7033 79.7244 13.7044C79.6925 13.7055 79.6612 13.7136 79.6328 13.7282C79.6044 13.7427 79.5796 13.7633 79.5601 13.7886C79.5406 13.8138 79.5269 13.8431 79.52 13.8742C79.408 14.1612 79.24 14.5182 79.506 14.6092ZM83.713 15.6382C83.804 15.3582 84.007 15.0502 83.755 14.9382C83.503 14.8262 83.412 15.1972 83.314 15.4982C83.3 15.6102 83.615 15.9252 83.713 15.6382ZM79.709 18.4172C79.8 18.4592 79.849 18.3192 79.758 18.2842C79.548 18.1173 79.3793 17.9041 79.2652 17.6612C79.151 17.4184 79.0945 17.1525 79.1 16.8842C79.1027 16.8649 79.0985 16.8453 79.0883 16.8287C79.0781 16.8121 79.0624 16.7995 79.044 16.7932C78.897 16.7932 78.792 17.2972 78.841 17.5842C78.893 17.7905 79.0019 17.978 79.1554 18.1253C79.3089 18.2726 79.5007 18.3738 79.709 18.4172ZM82.369 16.7512C82.53 16.6462 82.712 14.3222 82.537 14.3012C82.362 14.2802 82.131 16.1772 82.11 16.4012C79.856 15.8202 82.159 16.8912 82.369 16.7512Z" fill="#EFEFEF"/>
</svg>
