<svg width="61" height="48" viewBox="0 0 61 48" fill="none" xmlns="http://www.w3.org/2000/svg">
<mask id="path-1-outside-1_65_8" maskUnits="userSpaceOnUse" x="-1" y="-1" width="63" height="50" fill="black">
<rect fill="white" x="-1" y="-1" width="63" height="50"/>
<path d="M59 39C59.75 39 60.5 39.75 60.5 40.5V42C60.5 45.375 57.7812 48 54.5 48H6.5C3.125 48 0.5 45.375 0.5 42V40.5C0.5 39.75 1.15625 39 2 39H24.4062C24.3125 40.4062 25.7188 42 27.5 42H33.125C34.8125 42 36.125 40.875 36.2188 39H59ZM54.5 4.5V36H6.5V4.5C6.5 2.0625 8.46875 0 11 0H50C52.4375 0 54.5 2.0625 54.5 4.5ZM48.5 30V6H12.5V30H48.5Z"/>
</mask>
<path d="M24.4062 39L25.404 39.0665L25.4751 38H24.4062V39ZM36.2188 39V38H35.2675L35.22 38.9501L36.2188 39ZM54.5 36V37H55.5V36H54.5ZM6.5 36H5.5V37H6.5V36ZM48.5 30V31H49.5V30H48.5ZM48.5 6H49.5V5H48.5V6ZM12.5 6V5H11.5V6H12.5ZM12.5 30H11.5V31H12.5V30ZM59 40C59.0498 40 59.1832 40.035 59.3241 40.1759C59.465 40.3168 59.5 40.4502 59.5 40.5H61.5C61.5 39.7998 61.16 39.1832 60.7384 38.7616C60.3168 38.34 59.7002 38 59 38V40ZM59.5 40.5V42H61.5V40.5H59.5ZM59.5 42C59.5 44.8126 57.2392 47 54.5 47V49C58.3233 49 61.5 45.9374 61.5 42H59.5ZM54.5 47H6.5V49H54.5V47ZM6.5 47C3.67728 47 1.5 44.8227 1.5 42H-0.5C-0.5 45.9273 2.57272 49 6.5 49V47ZM1.5 42V40.5H-0.5V42H1.5ZM1.5 40.5C1.5 40.4106 1.54428 40.2768 1.65558 40.1607C1.76115 40.0505 1.8844 40 2 40V38C0.564281 38 -0.5 39.2383 -0.5 40.5H1.5ZM2 40H24.4062V38H2V40ZM23.4085 38.9335C23.3385 39.983 23.8222 40.9988 24.5356 41.7271C25.2602 42.4668 26.3055 43 27.5 43V41C26.9132 41 26.3648 40.7364 25.9644 40.3276C25.5528 39.9074 25.3803 39.4232 25.404 39.0665L23.4085 38.9335ZM27.5 43H33.125V41H27.5V43ZM33.125 43C34.1937 43 35.1968 42.641 35.953 41.9331C36.7128 41.2218 37.1591 40.2181 37.2175 39.0499L35.22 38.9501C35.1847 39.6569 34.9278 40.1532 34.5861 40.4731C34.2407 40.7965 33.7438 41 33.125 41V43ZM36.2188 40H59V38H36.2188V40ZM53.5 4.5V36H55.5V4.5H53.5ZM54.5 35H6.5V37H54.5V35ZM7.5 36V4.5H5.5V36H7.5ZM7.5 4.5C7.5 2.60117 9.03455 1 11 1V-1C7.90295 -1 5.5 1.52383 5.5 4.5H7.5ZM11 1H50V-1H11V1ZM50 1C51.8852 1 53.5 2.61478 53.5 4.5H55.5C55.5 1.51022 52.9898 -1 50 -1V1ZM49.5 30V6H47.5V30H49.5ZM48.5 5H12.5V7H48.5V5ZM11.5 6V30H13.5V6H11.5ZM12.5 31H48.5V29H12.5V31Z" fill="#937AFA" mask="url(#path-1-outside-1_65_8)"/>
</svg>
