<svg width="140" height="140" viewBox="0 0 140 140" fill="none" xmlns="http://www.w3.org/2000/svg">
<path fill-rule="evenodd" clip-rule="evenodd" d="M125.652 51.2154C128.088 53.5702 130.037 56.4122 131.498 59.4978H131.499C135.476 68.6958 132.536 79.7922 128.007 88.7312C127.92 88.9468 127.72 88.9566 127.575 88.8572C127.516 88.9734 127.456 89.0889 127.396 89.2044C126.429 88.7718 125.436 88.3322 124.459 87.9003H124.458L124.457 87.8996L124.453 87.8975C122.407 86.9924 120.43 86.1188 118.912 85.402H118.911C118.255 85.0919 117.531 84.8336 116.719 84.7524C116.58 84.7524 116.445 84.7622 116.315 84.7804L113.309 83.2089V83.2096C112.767 82.8484 112.267 82.9184 111.685 83.2096C111.431 83.3426 111.183 83.4854 110.943 83.6373L108.923 82.2345V82.2352C108.436 81.9104 108.03 81.4232 108.03 80.7736C107.056 77.2008 104.782 74.034 101.615 72.0033C100.473 71.1654 99.2232 70.4703 97.9079 69.9186C98.092 59.2054 97.8547 48.4223 96.4183 38.0603C79.6092 35.7055 62.1505 34.8935 45.5038 38.4663C44.2988 47.4254 43.7023 58.9871 44.2812 70.7524C43.5512 71.1472 42.8471 71.591 42.1739 72.0845C39.0071 74.1145 36.7335 77.2813 35.7591 80.8541C35.7591 81.1789 35.5967 81.5037 35.4343 81.7473L35.3769 81.8047C35.3316 81.8509 35.294 81.8887 35.2554 81.9251C35.0721 82.098 34.8624 82.2429 33.6584 83.0759L33.6552 83.078L33.6513 83.0808C33.4117 83.246 33.1331 83.4392 32.8077 83.6646C32.554 83.5029 32.2926 83.3517 32.0239 83.2103V83.2096C31.5619 82.9023 31.0005 82.8638 30.4811 83.2096L27.4769 84.7797C27.3456 84.7615 27.2106 84.7517 27.0707 84.7517C26.2587 84.8329 25.5349 85.0912 24.8783 85.4013C23.4839 86.0593 21.3659 87.2241 19.0847 88.5093C19.7749 83.7829 20.2699 80.0036 19.0312 74.3588C17.9301 69.3391 15.4619 64.451 12.2916 60.7165C11.1744 59.4005 10.0712 58.0565 9.12482 56.6565C5.44142 51.2077 6.12042 43.9886 8.96242 38.3046C13.2408 29.7478 22.6558 22.9032 30.8871 20.5211C33.6727 19.7165 36.2131 19.4548 38.8101 19.1873C42.7719 18.7791 46.8655 18.3574 52.1622 15.9739C56.1706 14.081 58.2638 12.57 60.3267 11.0809C61.5669 10.1856 62.7962 9.29817 64.4241 8.34043C68.0774 6.28523 73.8937 4.95733 77.904 4.44283C84.4812 3.46843 91.302 2.90003 97.7987 4.52403C107.05 6.86763 114.896 13.8613 115.42 23.2819C115.495 25.0148 115.239 26.7128 114.982 28.4083C114.686 30.3673 114.39 32.3228 114.608 34.3251C115.226 40.2993 119.503 44.7641 123.509 48.9464C124.241 49.7097 124.962 50.4636 125.652 51.2154ZM109.33 96.8512C110.467 98.1721 113.062 101.083 115.851 104.096C111.631 107.441 106.633 109.605 100.628 110.066C101.292 109.497 101.612 108.848 101.453 107.896V107.895C100.672 102.824 98.8067 97.1963 96.5016 92.5854C91.1221 90.806 84.3321 89.2793 78.8287 88.2706C85.4297 88.0739 91.3979 88.0963 97.3115 88.4876L97.3416 87.7253C97.3759 86.8496 97.4102 85.9718 97.4445 85.0912V85.0919C97.8848 85.6155 98.3223 86.1363 98.7731 86.6193C99.4227 87.3501 100.235 87.9185 101.047 88.4057C101.5 88.6773 101.877 88.6969 102.277 88.7165C102.594 88.7326 102.926 88.7494 103.32 88.8929C103.359 88.9118 103.402 88.9314 103.447 88.9517C103.593 89.0168 103.765 89.0938 103.889 89.2177C104.615 89.7623 105.367 90.3328 106.101 90.9138C106.055 91.212 106.021 91.513 106.001 91.8168C106.001 92.3803 106.024 92.9158 106.569 93.2784C107.289 94.0533 108.046 94.7904 108.841 95.4645C108.841 96.1736 108.948 96.3213 109.167 96.6209C109.216 96.6874 109.27 96.7616 109.33 96.8512ZM23.0587 109.394C23.8173 109.987 24.648 110.492 25.5272 110.9C29.3972 112.631 33.5214 112.017 37.2855 111.44C37.1732 111.043 37.241 110.595 37.5455 110.088C39.5762 105.459 42.0934 101.156 45.179 97.176C45.311 97.0003 45.4207 96.8477 45.5174 96.7133L45.5184 96.7119L45.5189 96.7112L45.5192 96.7105C46.1116 95.8859 46.2207 95.7347 48.0343 94.9745C52.9752 92.8787 58.9897 90.6646 64.2887 88.9314C61.7836 89.07 59.1708 89.2212 56.4304 89.3794H56.43H56.4278L56.4216 89.3801H56.4192H56.4118L56.4059 89.3808C53.2488 89.5628 49.9225 89.7553 46.397 89.9492C46.1546 88.6129 45.9332 87.2612 45.7317 85.8976C45.4952 86.1727 45.2574 86.4422 45.0159 86.7012C44.3663 87.432 43.5543 88.0004 42.7423 88.4876C42.2891 88.7592 41.9118 88.7788 41.5117 88.7984C41.1947 88.8145 40.8634 88.8313 40.4687 88.9748C40.4304 88.9937 40.3875 89.0133 40.3423 89.0336C40.1959 89.0987 40.0244 89.1757 39.9003 89.2996C39.1153 89.8533 38.3565 90.4336 37.624 91.0258C37.6621 91.2869 37.6901 91.5515 37.7079 91.8175C37.7079 92.4195 37.6799 92.8024 37.2207 93.2791C36.513 94.0134 35.7885 94.7295 35.029 95.3882V95.3889C35.0447 96.2331 34.9409 96.3752 34.7044 96.7007L34.704 96.7014L34.7036 96.7021C34.6553 96.7686 34.6014 96.8421 34.5418 96.9317C32.7214 99.0457 27.1633 105.237 23.0587 109.394ZM97.8372 73.3025L97.8358 73.3403C97.9331 73.4075 98.029 73.4761 98.1242 73.5461C98.0297 73.4635 97.9338 73.383 97.8372 73.3025ZM54.7606 24.012C55.1183 24.3697 59.7761 31.3417 60.005 31.7925V31.7918C60.6203 33.0035 59.6774 32.9965 59.0719 32.454C58.3173 31.7778 53.9486 25.9601 53.4614 24.7428C53.2178 23.9308 54.1922 23.5248 54.7606 24.012ZM72.3005 31.4831C72.7338 28.3044 72.9431 21.905 72.7065 20.6016C72.5441 19.952 71.4773 19.9506 71.4073 20.6016C71.3884 20.7745 71.6264 30.2357 71.7321 31.4019C71.6509 31.8079 72.2193 31.8891 72.3005 31.4831ZM89.4344 27.0164C88.929 28.0279 86.3145 31.614 84.7395 33.1043C84.2089 33.6062 83.854 33.1358 84.1865 32.6024C84.9586 31.3648 88.0176 27.0766 88.5412 26.448C88.866 26.2044 89.5968 26.448 89.4344 27.0164Z" fill="#EFEFEF"/>
<path d="M78.6346 128.764C77.4327 129.725 76.9728 129.682 75.7926 130.469C75.6253 130.637 75.7072 130.9 76.1741 130.753C76.9245 130.516 78.0865 129.95 78.9594 129.251C79.2261 129.118 79.0749 128.544 78.6346 128.764Z" fill="#EFEFEF"/>
<path d="M78.5857 130.747C76.471 132.157 76.1616 132.156 75.652 132.367C75.5589 132.406 75.5974 132.929 76.0209 132.859C77.2921 132.653 78.4093 131.729 78.8517 131.433C80.0872 130.609 79.3592 129.972 78.585 130.746L78.5857 130.747Z" fill="#EFEFEF"/>
<path d="M74.0479 90.0512C73.9667 95.4125 73.9261 100.019 74.4945 105.297C74.4945 105.622 75.3527 105.567 75.2715 105.161C74.7843 99.8015 74.8823 95.3838 74.8417 90.0239C74.8368 89.3379 74.0598 89.2553 74.0479 90.0512Z" fill="#EFEFEF"/>
<path fill-rule="evenodd" clip-rule="evenodd" d="M63.3176 88.9859C57.0888 91.1349 48.1034 94.6398 46.1844 95.4707C45.7744 95.6478 45.669 95.8025 45.5468 95.9817C45.5244 96.0139 45.5014 96.0475 45.476 96.0825C42.1293 100.17 39.6576 104.833 37.3833 109.601C36.9927 110.421 36.5713 111.306 37.2209 112.118C37.8705 112.768 38.6013 113.255 39.4945 113.58C39.4945 113.58 44.4372 116.091 45.4081 116.573C45.7084 118.896 46.0505 120.354 46.3131 121.474C46.3725 121.727 46.4278 121.963 46.4777 122.188C46.5589 123 47.0461 123.73 47.6145 124.218C48.5889 124.786 49.5633 125.273 50.5377 125.679C51.3595 126.076 52.1433 126.456 52.8962 126.82C60.4089 130.454 64.8726 132.613 73.8428 136.48C74.0682 136.554 74.2243 136.421 74.3104 136.208C81.0269 133.127 87.2282 129.102 93.0067 124.462C93.2552 124.262 93.5058 124.063 93.7578 123.863C94.8799 122.971 96.0223 122.063 97.0667 121.051C98.1538 119.998 98.2007 118.475 98.2462 117.019C98.2553 116.707 98.2651 116.398 98.2847 116.098C98.3078 115.75 98.3316 115.401 98.3561 115.053C98.4219 114.094 98.4891 113.133 98.5283 112.167C99.1597 111.727 99.7834 111.279 100.396 110.82C101.127 110.414 101.695 109.764 101.939 108.952C102.02 108.059 101.939 107.084 101.695 106.191L101.696 106.19C100.836 101.654 99.474 97.1395 97.2347 93.0249C96.8756 92.3641 96.6355 92.1422 96.2155 92.0232C92.3172 90.9165 85.509 89.3198 79.8019 88.2432C78.7106 88.2726 77.6025 88.3076 76.4748 88.3489C76.5721 88.3678 76.6694 88.3867 76.7667 88.4063C83.633 89.5508 89.4185 90.7457 96.1007 92.6973C90.4293 96.8224 84.4436 100.399 78.0659 103.429C76.8451 104.013 75.3485 104.518 73.9142 105.001C73.2716 105.218 72.6416 105.43 72.0543 105.644C71.698 105.374 64.7044 102.89 59.7698 101.137C59.0485 100.881 58.3713 100.64 57.7652 100.425C57.0041 100.154 56.2334 99.8891 55.4589 99.6238C52.4188 98.5815 49.3175 97.5175 46.4875 95.9495C53.6533 93.0403 56.5963 92.0232 59.8339 90.9039C61.2992 90.3978 62.8248 89.87 64.8296 89.1371H64.8303C65.0931 89.0412 65.357 88.9481 65.6217 88.8585C64.8637 88.8998 64.0959 88.9418 63.3176 88.9859ZM37.6269 110.656C37.3021 111.874 38.2842 112.345 39.1697 112.767C42.0241 114.129 44.4157 115.318 46.514 116.362C50.576 118.382 53.5381 119.856 56.6284 120.969C56.9861 121.098 57.346 121.243 57.7029 121.386C58.3098 121.63 58.9078 121.871 59.4704 122.025C59.6762 122.081 59.8951 122.154 60.1209 122.23C60.8747 122.483 61.7062 122.762 62.3936 122.512C63.1029 122.253 63.4538 121.535 63.7715 120.884C63.8539 120.715 63.934 120.551 64.0176 120.401C64.6779 118.97 65.9965 116.588 67.4854 113.897C68.8329 111.462 70.3197 108.775 71.5846 106.314C71.2731 106.137 65.2006 103.902 55.4916 100.506C54.9573 100.319 54.4185 100.136 53.8778 99.9514C51.1672 99.0288 48.4106 98.0908 45.9625 96.6264C43.236 100.096 40.8098 103.811 38.9261 107.814C38.4389 108.707 37.9517 109.681 37.6269 110.656ZM49.2867 124.322C49.4669 124.395 49.6431 124.467 49.8076 124.542L49.8234 124.549C57.67 128.353 65.5175 132.158 73.5152 135.509C72.4855 127.621 71.8275 117.411 71.9822 107.189C70.8895 109.247 69.7687 111.291 68.6476 113.334C67.3886 115.629 66.1297 117.923 64.9115 120.238C64.5055 121.213 64.0183 122.025 63.3687 122.755C62.7191 123.324 61.7447 123.486 60.9327 123.243C56.2224 121.794 50.4103 119.04 46.0213 116.875C46.2355 118.203 46.7955 121.586 47.2904 122.837C47.6073 123.637 48.4881 123.996 49.2867 124.322ZM97.4251 116.618C97.4496 115.944 97.4769 115.168 97.5553 114.229C97.5875 113.748 97.6148 113.265 97.6386 112.781C96.9127 113.277 96.1791 113.766 95.4455 114.255L95.3629 114.311C89.0853 118.495 82.0034 121.528 79.041 122.268C78.3102 122.431 77.5794 121.943 77.417 121.213C77.3666 121.061 77.2623 120.659 77.109 120.071C76.4258 117.441 74.7787 111.1 72.7095 106.951C72.7256 107.154 72.7228 107.685 72.7179 108.511C72.6955 112.302 72.636 122.314 74.2488 135.408C82.0335 131.969 88.561 127.438 95.1193 121.7C95.8501 121.213 96.4997 120.563 96.9869 119.832C97.3453 118.847 97.3782 117.923 97.4251 116.618ZM95.7689 113.093C97.3929 112.037 98.9588 111.009 100.397 109.763V109.763C101.146 109.114 101.071 108.307 100.99 107.435C100.982 107.346 100.973 107.255 100.966 107.164C100.756 104.648 99.131 98.7138 96.4787 93.3952C94.4459 94.9737 87.9142 99.4929 82.3646 102.406C79.6038 103.932 76.3733 105.212 73.2814 106.221C75.4542 109.707 77.739 119.105 78.0638 120.441C78.0883 120.54 78.1016 120.594 78.103 120.599C78.3347 121.254 78.5538 121.619 79.2034 121.456C79.6906 121.375 80.0966 121.213 80.5026 121.05C86.034 119.04 91.5367 116.023 95.7689 113.093Z" fill="#EFEFEF"/>
<path fill-rule="evenodd" clip-rule="evenodd" d="M36.8141 77.3636C38.4582 74.3585 41.1713 71.947 44.2621 70.351C44.2724 70.5722 44.2832 70.7934 44.2944 71.0146C40.7683 72.9382 37.9171 75.7844 36.4081 79.556C36.3133 79.8171 36.2461 80.0985 36.1783 80.3827C36.0141 81.0715 35.8462 81.7757 35.2713 82.2356C34.5359 82.8012 33.8004 83.3276 33.0376 83.8148C32.903 83.7238 32.766 83.6363 32.627 83.5516C33.6618 82.7816 33.9404 82.5919 34.1558 82.4449C34.3112 82.3385 34.4338 82.2552 34.7841 81.992C35.1089 81.7484 35.3525 81.3424 35.4337 80.9364C35.7585 79.7184 36.1645 78.5004 36.8141 77.3636ZM37.6796 91.4756C38.149 91.0899 38.6162 90.7105 39.0884 90.3563C39.4944 89.9503 39.9816 89.6255 40.4688 89.3819C40.7936 89.2734 41.1184 89.2377 41.4432 89.2013C41.6056 89.1831 41.768 89.1656 41.9304 89.1383C42.9048 88.8947 43.7168 88.4075 44.4476 87.6767C44.905 87.2196 45.3623 86.7618 45.7905 86.29C45.7498 86.0205 45.7099 85.7496 45.6707 85.4787C44.0657 87.2714 42.9622 88.4887 41.0372 88.4887C40.0628 88.7323 39.1696 89.2195 38.4388 89.9503C38.1384 90.1757 37.8457 90.4011 37.5583 90.6286C37.6103 90.9079 37.6509 91.1907 37.6796 91.4756Z" fill="#EFEFEF"/>
<path fill-rule="evenodd" clip-rule="evenodd" d="M102.49 88.85C100.448 88.85 98.8144 87.0636 97.4326 85.3913L97.4655 84.5492C97.6874 84.8012 97.8834 85.0315 98.0689 85.2478C98.813 86.1221 99.3751 86.7815 100.721 87.7566C101.05 87.9946 101.533 88.1626 102.02 88.2438C103.595 88.2438 104.631 89.1342 106.178 90.4831C106.136 90.6938 106.1 90.9059 106.071 91.1201C105.455 90.6119 104.825 90.1121 104.195 89.662C103.708 89.256 103.14 88.9312 102.49 88.85ZM111.209 83.4747C110.863 83.2143 110.311 82.7985 109.393 82.1104V82.1097C109.068 81.9473 108.743 81.6225 108.5 81.2977C108.256 80.7293 108.094 80.1609 108.012 79.5113C107.559 77.9258 105.707 74.7611 102.978 72.5281C101.575 71.3591 99.7958 70.2748 97.9156 69.4648L97.9072 69.9581C102.333 71.8981 106.262 75.6466 107.543 80.1238C107.624 80.6922 107.868 81.2606 108.192 81.7478C108.68 82.1538 109.167 82.5598 109.735 82.8846C110.117 83.1709 110.499 83.4292 110.881 83.6763C110.989 83.607 111.098 83.5405 111.209 83.4747ZM98.0416 73.5466C97.9723 73.5004 97.9037 73.4549 97.8344 73.4101C97.8407 73.1511 97.847 72.8921 97.8533 72.6324C98.0262 72.771 98.1977 72.9138 98.3664 73.0594C98.6912 73.303 98.3664 73.709 98.0416 73.5466Z" fill="#EFEFEF"/>
<path d="M79.8529 62.2585C79.7871 61.6068 79.3657 60.9593 78.7973 60.6345C78.1477 60.3909 77.4981 60.3909 76.8485 60.5533C74.1283 61.1448 68.9448 61.0615 66.6978 60.6331C66.0482 60.3895 65.3174 60.3083 64.5866 60.3895C62.6602 60.9411 62.621 63.368 64.2618 64.1247C64.343 64.1247 64.343 64.2059 64.4242 64.2059C65.3524 64.5538 66.5263 63.7572 66.9414 65.8299C67.1241 66.2863 68.7278 71.3319 68.9609 71.9388C69.054 72.1817 69.6021 71.8933 69.5727 71.6826C69.4159 70.5703 68.2455 67.9222 67.9158 66.7238C67.6911 65.9062 67.4286 65.0998 67.0226 64.2878C66.6166 63.7194 65.967 63.3946 65.2362 63.4758C64.4242 63.4758 63.6122 62.9074 63.8558 62.0142C64.1806 60.9586 65.2362 61.121 66.1294 61.2834C68.753 61.9673 74.1437 61.9687 76.7673 61.2841C77.5793 61.1217 78.7161 60.9593 79.0409 62.0149C79.2845 62.9081 78.4725 63.4765 77.6605 63.4765C77.0109 63.3953 76.3613 63.7201 75.9553 64.2073C75.032 66.0546 74.0814 70.403 73.5858 71.5811C73.3744 72.083 74.1304 72.0081 74.2228 71.7645C74.8367 70.1426 75.5815 67.0906 76.2801 65.3441C76.3613 64.9381 76.6049 64.6133 76.9297 64.4509C77.3357 64.3697 77.6605 64.3697 78.0665 64.3697C79.1221 64.2885 79.9593 63.3113 79.8529 62.2585Z" fill="#EFEFEF"/>
<path d="M37.8709 91.2482C37.53 88.178 35.374 84.6402 31.8621 82.8846C31.5373 82.7222 31.2125 82.641 30.8877 82.7222C30.4817 82.8846 30.0757 83.1282 29.6697 83.3718C28.8948 83.7295 28.164 84.1313 27.4451 84.5765C24.6059 84.2559 20.5613 87.6894 9.04417 93.9285C8.96297 94.0097 9.12398 94.2498 9.28778 94.1721C14.2977 91.7851 19.3587 88.4874 24.0669 86.1333C24.9601 85.5649 26.0157 85.2401 27.0713 85.0777C28.3705 85.2401 29.5885 85.8085 30.5629 86.7017C32.5929 88.3257 33.8921 90.5993 34.3793 93.1172C34.5417 93.6856 34.6229 94.3352 34.6229 94.9848C34.7041 95.3096 34.7041 95.6344 34.6229 96.0404C34.5417 96.284 34.3793 96.5276 34.1357 96.7712C33.8109 97.1772 33.4861 97.5832 33.0801 97.908C26.8333 104.825 23.5643 108.428 18.9506 112.687C18.5446 113.012 19.113 113.499 19.4378 113.174C22.0047 111.036 23.5153 109.259 26.1774 106.597C29.9595 102.692 32.1974 100.044 34.541 97.3396C34.8658 97.0148 35.0282 96.69 35.1906 96.284C35.2137 96.0964 35.2305 95.9088 35.2403 95.7212C36.3526 94.7202 36.8034 94.2085 37.5454 93.3601C37.9514 92.7105 38.1138 91.9797 37.8702 91.2489L37.8709 91.2482ZM35.6785 94.4962C35.5322 94.6264 35.3859 94.7496 35.2396 94.8693C35.0814 92.0182 33.9131 89.4163 32.1057 87.3506C30.8296 85.9464 29.0355 84.9531 28.0597 84.6927C29.872 83.8478 30.012 83.4768 31.1306 83.2906C31.6178 83.3718 32.105 83.5342 32.511 83.859C35.766 85.9646 37.3123 89.2259 37.383 92.0602C37.4075 93.0346 36.4086 93.8466 35.6778 94.4962H35.6785Z" fill="#EFEFEF"/>
<path d="M132.392 91.4106C127.844 88.9396 119.26 85.2254 118.181 84.8334C117.598 84.6094 116.967 84.5338 116.341 84.5926C115.284 83.9388 113.613 83.0015 113.274 82.8391C112.979 82.6977 112.683 82.6067 112.416 82.6403C111.685 82.8027 110.954 83.2087 110.386 83.6959C108.692 84.9048 107.467 86.3314 106.488 88.5679C106.244 89.2175 106.001 89.9483 105.92 90.6791C105.757 91.4099 105.757 92.1407 105.92 92.7903C106.326 93.6023 106.975 94.2519 107.625 94.8203C108.679 96.0054 108.387 95.2025 108.518 96.1195C108.762 96.6879 109.168 97.2563 109.574 97.6623C109.842 97.9311 120.256 109.921 124.272 113.01C124.596 113.335 125.165 112.766 124.759 112.523C122.81 110.817 120.989 108.988 119.237 107.082C117.113 104.771 112.4 99.9002 110.061 97.0939C109.574 96.5255 109.086 96.1195 109.086 95.3075C109.086 94.0895 109.33 92.9527 109.655 91.8159C110.304 89.6235 111.685 87.6747 113.552 86.2943C114.446 85.4823 115.664 85.0763 116.882 84.9139C117.937 85.0763 118.993 85.4011 119.886 85.9695C124.027 87.7559 128.169 89.6235 132.229 91.4911C132.473 91.7347 132.635 91.4911 132.392 91.4099V91.4106ZM108.762 92.791C108.62 93.7843 108.621 93.1389 108.48 94.7419C108.324 94.611 108.174 94.4766 108.031 94.3338C107.381 93.6842 106.3 92.9527 106.326 91.8978C106.366 90.1912 106.894 88.5686 107.787 87.1875C108.992 85.0182 111.357 83.4299 112.593 83.2241C113.03 83.2864 114.839 84.2608 115.655 84.7109C112.675 85.4648 109.561 88.7919 108.762 92.7903V92.791Z" fill="#EFEFEF"/>
<path d="M85.8624 48.7792C81.3642 36.7854 62.9248 36.098 57.6034 47.8048C55.0862 53.2452 57.035 59.5795 59.9582 64.5327C61.6718 67.4139 63.608 70.0711 65.0535 73.0055C64.581 73.0832 64.2443 73.2036 64.0994 73.7083C63.8558 75.0887 63.6934 76.4691 63.7746 77.8502C63.6934 79.393 63.7746 80.9358 63.8558 82.4786C63.8558 82.641 63.937 82.8034 64.0994 82.8034C66.7111 83.3438 74.192 83.936 78.8785 82.9658C79.0409 82.8846 79.1221 82.8034 79.1221 82.641C79.26 80.0139 79.3356 76.4614 78.8785 73.8714C78.7203 73.3191 78.3332 73.2267 77.8642 73.1476C81.9018 65.3664 84.0858 64.5768 86.1053 57.3059C86.9173 54.4639 86.8361 51.5407 85.8617 48.7792H85.8624ZM78.3108 74.6834C78.5453 77.1894 78.6286 79.771 78.4886 82.2826C75.0761 82.9791 68.1048 82.8587 64.4893 82.1202C64.4319 81.1346 64.3997 80.1378 64.399 79.1396C68.5759 79.1634 75.2882 79.3377 77.5793 79.393C77.7417 79.393 77.8229 79.2306 77.8229 79.0682C77.8229 78.987 77.7417 78.9058 77.5793 78.8246C76.7505 78.8141 65.8956 78.5915 64.4025 78.6041C64.4123 77.7851 64.4452 76.9668 64.5061 76.152C66.6446 76.1429 68.7915 75.9679 71.0091 75.9679C77.0137 75.9679 75.9868 76.0715 77.6605 76.0715C77.9853 76.0715 77.9853 75.5843 77.6605 75.5843C72.9411 75.2469 68.403 75.4373 64.539 75.7411C64.5747 75.333 64.6174 74.9256 64.6678 74.521C64.6678 73.639 64.7581 73.5466 65.8046 73.5466C70.4729 72.9628 76.3893 73.3702 78.0665 73.7902C78.2289 73.9526 78.2289 74.3586 78.3101 74.6834H78.3108ZM82.046 64.7763C80.3772 67.479 78.1568 70.0669 77.2258 73.0692C71.5768 72.3965 70.5373 72.3762 65.7059 72.9243C64.2625 68.4688 60.3495 65.6877 57.8477 57.9555C56.0893 52.52 57.4298 46.6113 62.3949 42.9328C69.8254 37.5295 81.4454 40.0516 84.9692 48.5356C87.2428 53.976 84.888 60.0667 82.046 64.7763Z" fill="#EFEFEF"/>
<path d="M31.27 85.4346C31.6229 85.4346 31.9091 85.1483 31.9091 84.7955C31.9091 84.4427 31.6229 84.1564 31.27 84.1564C30.917 84.1564 30.6309 84.4427 30.6309 84.7955C30.6309 85.1483 30.917 85.4346 31.27 85.4346Z" fill="#EFEFEF"/>
<path d="M112.123 85.5523C112.476 85.5523 112.763 85.266 112.763 84.9132C112.763 84.5604 112.476 84.2741 112.123 84.2741C111.771 84.2741 111.484 84.5604 111.484 84.9132C111.484 85.266 111.771 85.5523 112.123 85.5523Z" fill="#EFEFEF"/>
<path d="M51.432 74.4391C51.3508 73.7083 50.7838 73.534 50.214 73.4647C49.4041 73.3667 48.59 73.3835 47.778 73.4647C44.5349 73.6187 40.8501 74.9459 38.1957 77.4435C37.9521 77.5247 38.1145 77.7683 38.3581 77.6871C39.8197 76.6315 41.429 75.7845 43.1489 75.0887C45.6892 74.0611 47.7619 74.1143 49.7261 74.1143C50.2133 74.1143 50.8629 74.1955 50.4569 74.7639C48.5578 76.6623 46.1617 78.0798 43.3113 78.9863C43.1489 79.0675 43.0677 79.1487 43.0677 79.3111C43.0677 81.6974 42.1031 83.8331 40.5505 85.6447C40.0633 86.2131 39.4137 86.7003 38.8453 87.1875C38.5198 87.3506 38.8887 87.947 39.2513 87.7559C39.9912 87.366 40.6317 86.7808 41.1189 86.1319C42.7373 84.2818 43.7264 82.2427 43.795 79.5617C46.1351 78.8239 48.2505 77.6332 50.2133 76.0624C50.7005 75.6564 51.5125 75.1692 51.4313 74.4384L51.432 74.4391Z" fill="#EFEFEF"/>
<path fill-rule="evenodd" clip-rule="evenodd" d="M96.9057 37.8977C96.9057 37.6541 96.7433 37.4917 96.4997 37.4917C79.1656 35.1656 62.654 34.5489 45.504 37.9789C45.1687 38.0265 45.0812 38.3639 45.1827 38.5991C44.4043 43.4312 43.9262 51.9047 43.7988 56.9811C43.6668 62.721 43.7476 68.5924 44.1473 74.43C44.4518 74.3418 44.7588 74.262 45.0682 74.1906C44.1527 61.6556 44.947 51.2662 45.6596 41.9448C45.7418 40.8696 45.8229 39.8086 45.9002 38.7601C55.4664 36.8659 62.7527 36.4221 71.04 36.4606C71.0344 37.0216 71.0715 37.8183 71.1275 38.997C71.2584 41.7658 71.4887 46.6418 71.4887 55.5188C71.6924 72.414 71.3634 77.9545 70.8538 86.5365C70.8237 87.0426 70.7936 87.5592 70.7621 88.0891C62.3601 88.5175 52.7921 89.1321 48.3156 89.4198L48.3149 89.4205L48.2901 89.4219C47.7742 89.4548 47.3267 89.4835 46.9572 89.5073C46.2939 85.672 45.802 82.0201 45.4472 78.5306C45.1417 78.6622 44.8321 78.7868 44.519 78.9037C44.8848 82.6319 45.3933 86.3286 46.0724 89.9497C46.1536 90.1121 46.2348 90.1933 46.3972 90.1933C53.0556 89.7873 59.6335 89.4625 66.2919 89.1377L67.3691 89.0845C78.0805 88.5546 87.4669 88.0905 97.3117 88.7317C97.5553 88.7317 97.7135 88.5693 97.7177 88.3257C97.7611 85.9625 97.8654 83.2745 97.9795 80.3219V80.3212C98.0033 79.694 98.0285 79.0542 98.053 78.4032C97.8507 78.3115 97.6498 78.2163 97.451 78.1176C97.3901 80.0097 97.2676 81.913 97.1458 83.8142V83.8149C97.0583 85.1743 96.9715 86.533 96.9064 87.8847C88.5078 87.4017 80.1092 87.6264 71.7323 88.0394C72.7928 74.3803 72.0676 40.8272 71.7323 36.4648C77.1118 36.511 84.2924 36.8071 96.0405 38.3149C97.4839 50.0317 97.7562 62.1139 97.5455 73.9645C97.7667 73.9988 97.9872 74.038 98.2063 74.0807C98.5416 63.646 98.6445 50.9386 96.9057 37.8984V37.8977Z" fill="#EFEFEF"/>
<path d="M105.594 77.363C103.32 75.0082 99.9099 73.7902 96.7424 73.4654C95.9304 73.3842 95.0372 73.303 94.2252 73.3842C93.6568 73.3842 92.926 73.4654 92.6012 73.9526C92.2764 74.4398 92.7636 75.1706 93.1696 75.4954C95.1387 77.307 97.4907 78.6601 100.076 79.4812C100.121 81.0954 100.565 82.6473 101.29 84.0221C102.005 85.3787 103.262 87.0426 104.619 87.7573C104.779 87.842 104.944 87.8385 105.025 87.6761C105.106 87.5137 105.106 87.3513 104.944 87.2701C104.375 86.7017 103.807 86.2957 103.238 85.7273C101.639 83.8611 100.844 81.7331 100.721 79.3937C100.721 79.2313 100.64 79.0689 100.478 79.0689C98.6912 78.5005 96.986 77.6885 95.4432 76.6329C95.0372 76.3893 94.6312 76.0645 94.3064 75.7397C93.9004 75.4961 93.5756 75.1713 93.332 74.8465C92.926 74.2781 93.6568 74.1969 94.0628 74.1969C98.3055 74.1969 101.516 74.9424 105.431 77.7697C105.593 77.7697 105.756 77.5261 105.593 77.3637L105.594 77.363Z" fill="#EFEFEF"/>
</svg>
