<svg width="48" height="48" viewBox="0 0 48 48" fill="none" xmlns="http://www.w3.org/2000/svg">
<mask id="path-1-outside-1_65_7" maskUnits="userSpaceOnUse" x="-1" y="-1" width="50" height="50" fill="black">
<rect fill="white" x="-1" y="-1" width="50" height="50"/>
<path d="M9.75 21C10.9688 21 12 22.0312 12 23.25V45.75C12 47.0625 10.9688 48 9.75 48H2.25C0.9375 48 0 47.0625 0 45.75V23.25C0 22.0312 0.9375 21 2.25 21H9.75ZM6 44.25C7.21875 44.25 8.25 43.3125 8.25 42C8.25 40.7812 7.21875 39.75 6 39.75C4.6875 39.75 3.75 40.7812 3.75 42C3.75 43.3125 4.6875 44.25 6 44.25ZM36 7.6875C36 11.625 33.5625 13.875 32.8125 16.5H42.375C45.4688 16.5 47.9062 19.125 47.9062 22.0312C48 23.7188 47.25 25.5 46.125 26.625C47.0625 28.7812 46.875 31.875 45.2812 34.0312C46.0312 36.4688 45.2812 39.4688 43.6875 41.0625C44.1562 42.75 43.9688 44.1562 43.125 45.2812C41.25 48 36.4688 48 32.4375 48H32.1562C27.6562 48 24 46.4062 21 45.0938C19.5 44.4375 17.5312 43.5938 16.0312 43.5938C15.4688 43.5 15 43.0312 15 42.4688V22.4062C15 22.125 15.0938 21.8438 15.2812 21.5625C19.0312 17.9062 20.625 14.0625 23.625 10.9688C25.0312 9.5625 25.5 7.5 26.0625 5.4375C26.4375 3.75 27.2812 0 29.25 0C31.5 0 36 0.75 36 7.6875Z"/>
</mask>
<path d="M32.8125 16.5L31.851 16.2253L31.4868 17.5H32.8125V16.5ZM47.9062 22.0312H46.9062V22.059L46.9078 22.0867L47.9062 22.0312ZM46.125 26.625L45.4179 25.9179L44.9365 26.3993L45.2079 27.0237L46.125 26.625ZM45.2812 34.0312L44.4771 33.4369L44.177 33.8428L44.3255 34.3253L45.2812 34.0312ZM43.6875 41.0625L42.9804 40.3554L42.5678 40.768L42.724 41.3301L43.6875 41.0625ZM43.125 45.2812L42.325 44.6813L42.3131 44.6972L42.3018 44.7135L43.125 45.2812ZM16.0312 43.5938L15.8669 44.5801L15.9485 44.5938H16.0312V43.5938ZM15.2812 21.5625L14.5831 20.8465L14.5077 20.9201L14.4492 21.0078L15.2812 21.5625ZM23.625 10.9688L22.9179 10.2616L22.9125 10.2671L22.9071 10.2726L23.625 10.9688ZM26.0625 5.4375L27.0273 5.70062L27.0335 5.67766L27.0387 5.65443L26.0625 5.4375ZM9.75 22C10.4165 22 11 22.5835 11 23.25H13C13 21.479 11.521 20 9.75 20V22ZM11 23.25V45.75H13V23.25H11ZM11 45.75C11 46.4831 10.444 47 9.75 47V49C11.4935 49 13 47.6419 13 45.75H11ZM9.75 47H2.25V49H9.75V47ZM2.25 47C1.48978 47 1 46.5102 1 45.75H-1C-1 47.6148 0.385215 49 2.25 49V47ZM1 45.75V23.25H-1V45.75H1ZM1 23.25C1 22.556 1.51691 22 2.25 22V20C0.358088 20 -1 21.5065 -1 23.25H1ZM2.25 22H9.75V20H2.25V22ZM6 45.25C7.74351 45.25 9.25 43.8919 9.25 42H7.25C7.25 42.7331 6.69399 43.25 6 43.25V45.25ZM9.25 42C9.25 40.229 7.77103 38.75 6 38.75V40.75C6.66647 40.75 7.25 41.3335 7.25 42H9.25ZM6 38.75C4.10809 38.75 2.75 40.2565 2.75 42H4.75C4.75 41.306 5.26691 40.75 6 40.75V38.75ZM2.75 42C2.75 43.8648 4.13522 45.25 6 45.25V43.25C5.23978 43.25 4.75 42.7602 4.75 42H2.75ZM35 7.6875C35 9.43244 34.4656 10.816 33.7961 12.1327C33.4244 12.8638 33.1238 13.3701 32.7399 14.1076C32.3951 14.77 32.066 15.4726 31.851 16.2253L33.774 16.7747C33.934 16.2149 34.1908 15.6519 34.514 15.0311C34.798 14.4854 35.2475 13.6909 35.5789 13.0392C36.3156 11.5902 37 9.88006 37 7.6875H35ZM32.8125 17.5H42.375V15.5H32.8125V17.5ZM42.375 17.5C44.8947 17.5 46.9062 19.6552 46.9062 22.0312H48.9062C48.9062 18.5948 46.0428 15.5 42.375 15.5V17.5ZM46.9078 22.0867C46.9847 23.4714 46.3554 24.9804 45.4179 25.9179L46.8321 27.3321C48.1446 26.0196 49.0153 23.9661 48.9047 21.9758L46.9078 22.0867ZM45.2079 27.0237C46.0126 28.8744 45.8448 31.5864 44.4771 33.4369L46.0854 34.6256C47.9052 32.1636 48.1124 28.6881 47.0421 26.2263L45.2079 27.0237ZM44.3255 34.3253C44.973 36.4298 44.2971 39.0387 42.9804 40.3554L44.3946 41.7696C46.2654 39.8988 47.0895 36.5077 46.237 33.7372L44.3255 34.3253ZM42.724 41.3301C43.1322 42.7998 42.9373 43.8648 42.325 44.6813L43.925 45.8812C45.0002 44.4477 45.1803 42.7002 44.651 40.7949L42.724 41.3301ZM42.3018 44.7135C41.5959 45.737 40.2672 46.35 38.4167 46.6753C36.5851 46.9972 34.4736 47 32.4375 47V49C34.4327 49 36.7274 49.0028 38.7629 48.6451C40.7796 48.2906 42.7791 47.5442 43.9482 45.849L42.3018 44.7135ZM32.4375 47H32.1562V49H32.4375V47ZM32.1562 47C27.8893 47 24.4085 45.4934 21.4008 44.1776L20.5992 46.0099C23.5915 47.3191 27.4232 49 32.1562 49V47ZM21.4008 44.1776C20.6531 43.8505 19.7491 43.4589 18.8357 43.1503C17.9345 42.8458 16.9447 42.5938 16.0312 42.5938V44.5938C16.6178 44.5938 17.3623 44.7636 18.1956 45.0451C19.0165 45.3224 19.8469 45.6808 20.5992 46.0099L21.4008 44.1776ZM16.1956 42.6074C16.1321 42.5968 16.0718 42.563 16.0329 42.5217C16.015 42.5027 16.0064 42.4872 16.0028 42.4787C16.0011 42.4745 16.0005 42.472 16.0002 42.4709C16 42.4699 16 42.4694 16 42.4688H14C14 43.6086 14.915 44.4215 15.8669 44.5801L16.1956 42.6074ZM16 42.4688V22.4062H14V42.4688H16ZM16 22.4062C16 22.3593 16.0129 22.2678 16.1133 22.1172L14.4492 21.0078C14.1746 21.4197 14 21.8907 14 22.4062H16ZM15.9794 22.2785C17.9288 20.3778 19.3108 18.4338 20.5581 16.6217C21.818 14.7912 22.9144 13.138 24.3429 11.6649L22.9071 10.2726C21.3356 11.8932 20.1351 13.7088 18.9106 15.4877C17.6736 17.285 16.3837 19.091 14.5831 20.8465L15.9794 22.2785ZM24.3321 11.6759C25.97 10.0379 26.4944 7.65431 27.0273 5.70062L25.0977 5.17438C24.5056 7.34569 24.0925 9.08706 22.9179 10.2616L24.3321 11.6759ZM27.0387 5.65443C27.2289 4.79854 27.5156 3.5331 27.9743 2.48774C28.204 1.96439 28.4493 1.56203 28.6965 1.30385C28.9329 1.0569 29.1102 1 29.25 1V-1C28.4054 -1 27.739 -0.588151 27.2518 -0.0792357C26.7753 0.418444 26.4171 1.05905 26.1429 1.68414C25.5937 2.93565 25.2711 4.38896 25.0863 5.22057L27.0387 5.65443ZM29.25 1C30.2919 1 31.7183 1.17931 32.8687 2.04219C33.9648 2.86421 35 4.45252 35 7.6875H37C37 3.98498 35.7852 1.72954 34.0688 0.442188C32.4067 -0.804314 30.4581 -1 29.25 -1V1Z" fill="#937AFA" mask="url(#path-1-outside-1_65_7)"/>
</svg>
