<svg width="91" height="53" viewBox="0 0 91 53" fill="none" xmlns="http://www.w3.org/2000/svg">
<path d="M11.0848 25.0119C8.51629 25.0119 6.49208 24.4732 5.01084 23.3944C3.52961 22.3156 2.72977 20.8074 2.61133 18.8672H6.9073C7.04571 19.798 7.47025 20.4847 8.18092 20.9301C8.89159 21.3755 9.91901 21.5982 11.2618 21.5982C13.5336 21.5982 14.6688 20.9448 14.6688 19.6393C14.6688 19.0859 14.4958 18.6592 14.1498 18.3632C13.8037 18.0658 13.2262 17.8391 12.417 17.6805L8.47637 16.9377C5.01883 16.2656 3.29139 14.6215 3.29139 12.0092C3.29139 10.3277 3.95282 8.98623 5.27701 7.98612C6.59987 6.98736 8.41781 6.4873 10.7295 6.4873C13.0412 6.4873 14.9416 6.99669 16.3151 8.01679C17.6872 9.0369 18.4537 10.4757 18.6108 12.3359H14.3441C14.1258 11.4451 13.7172 10.7971 13.1144 10.3917C12.5115 9.98633 11.6478 9.78364 10.5219 9.78364C9.51443 9.78364 8.74387 9.94233 8.2102 10.2584C7.67653 10.5757 7.41036 11.0398 7.41036 11.6532C7.41036 12.1092 7.57805 12.4746 7.91475 12.7519C8.25012 13.0293 8.78379 13.2373 9.51443 13.3747L13.515 14.1468C15.3316 14.5028 16.6651 15.0975 17.5155 15.9283C18.3646 16.759 18.7891 17.8778 18.7891 19.2833C18.7891 21.0848 18.1277 22.4903 16.8035 23.4984C15.4793 24.5078 13.5735 25.0119 11.0848 25.0119Z" fill="white"/>
<path d="M52.1268 25.0119V11.6225H49.9336V7.19939H54.4372V10.6437H55.6815C56.1753 9.45562 56.9352 8.55552 57.9626 7.94213C58.99 7.32873 60.1651 7.02203 61.488 7.02203H62.9692V10.8224H61.2804C59.6607 10.8224 58.455 11.2878 57.6658 12.2172C56.8753 13.148 56.48 14.3841 56.48 15.9283V25.0132H52.1242L52.1268 25.0119Z" fill="white"/>
<path d="M70.7935 25.0119C68.7187 25.0119 67.0938 24.5065 65.9186 23.4984C64.7435 22.489 64.1553 21.1528 64.1553 19.49C64.1553 17.8272 64.7528 16.403 65.9479 15.4522C67.143 14.5028 68.8665 14.0268 71.1183 14.0268H76.5401V13.3147C76.5401 11.1371 75.2758 10.049 72.7472 10.049C70.5939 10.049 69.3003 10.8211 68.8651 12.3653H64.4507C64.826 10.4651 65.7243 9.01559 67.147 8.01548C68.5697 7.01671 70.4355 6.51666 72.7472 6.51666C75.3543 6.51666 77.34 7.10606 78.7028 8.28351C80.0655 9.46097 80.7469 11.1785 80.7469 13.4347V20.2634H82.851V24.6865H78.3181V21.8369H77.0738C76.4603 22.8463 75.6365 23.6291 74.5998 24.1825C73.563 24.7359 72.2934 25.0132 70.7922 25.0132L70.7935 25.0119ZM71.4457 21.5982C72.4132 21.5982 73.2822 21.4155 74.0528 21.0488C74.8233 20.6821 75.4302 20.1874 75.8747 19.5647C76.3192 18.9419 76.5415 18.2432 76.5415 17.4711V17.0551H71.3565C69.3602 17.0551 68.3634 17.7978 68.3634 19.282C68.3634 20.0141 68.6349 20.5834 69.1779 20.9888C69.7209 21.3942 70.4768 21.5969 71.4443 21.5969L71.4457 21.5982Z" fill="white"/>
<path d="M86.2598 25.0119V0.0733032H90.6742V25.0119H86.2598Z" fill="white"/>
<path d="M6.55575 51.7773C5.43384 51.7773 4.5648 51.492 3.94729 50.9213C3.32978 50.3505 3.02102 49.4838 3.02102 48.3223V37.9559H0V34.6436H3.0503V29.5031H7.21186V34.6436H11.3441V37.9559H7.26775V48.437H11.7434V51.7787H6.55575V51.7773Z" fill="white"/>
<path d="M22.4883 52.12C20.6637 52.12 19.072 51.7533 17.7145 51.0213C16.3557 50.2892 15.311 49.2504 14.579 47.9076C13.8471 46.5648 13.4824 44.9806 13.4824 43.1525C13.4824 41.3243 13.8431 39.7494 14.5657 38.4253C15.2884 37.1025 16.3145 36.0837 17.644 35.369C18.9735 34.6556 20.5319 34.2982 22.3179 34.2982C24.1039 34.2982 25.5678 34.6369 26.8215 35.3117C28.0765 35.9877 29.0453 36.9585 29.7294 38.2253C30.4134 39.4921 30.7555 40.9909 30.7555 42.7231V44.2086H17.5588C17.7292 45.6554 18.2375 46.7648 19.084 47.5356C19.929 48.3063 21.0549 48.6917 22.4616 48.6917C23.5064 48.6917 24.3568 48.497 25.0129 48.1063C25.669 47.7169 26.1295 47.1315 26.3956 46.3501H30.6716C30.2724 48.1596 29.3554 49.5731 27.9208 50.5906C26.4861 51.6093 24.6762 52.1187 22.4909 52.1187L22.4883 52.12ZM17.6706 41.3243H26.6778C26.526 40.1442 26.0736 39.2441 25.3243 38.6253C24.5737 38.0066 23.5716 37.6972 22.3166 37.6972C21.0616 37.6972 20.0648 38.0119 19.2663 38.64C18.4678 39.2681 17.9368 40.1628 17.6706 41.3243Z" fill="white"/>
<path d="M41.7271 52.12C39.9597 52.12 38.4106 51.7533 37.0811 51.0213C35.7502 50.2892 34.7148 49.2558 33.9736 47.9223C33.2323 46.5901 32.8623 45.0193 32.8623 43.2098C32.8623 41.4003 33.2283 39.8308 33.9589 38.4973C34.6896 37.1652 35.721 36.1317 37.0518 35.3983C38.3813 34.6663 39.9397 34.2982 41.7257 34.2982C43.9296 34.2982 45.7542 34.8556 47.1982 35.9691C48.6421 37.0825 49.5538 38.6293 49.9344 40.6095H45.6877C45.4029 39.7521 44.9278 39.1054 44.2623 38.668C43.5969 38.2306 42.7518 38.0106 41.7257 38.0106C40.319 38.0106 39.1985 38.4626 38.3627 39.3667C37.5269 40.2708 37.109 41.551 37.109 43.2085C37.109 44.866 37.5269 46.1461 38.3627 47.0502C39.1985 47.9543 40.319 48.4063 41.7257 48.4063C43.9296 48.4063 45.2791 47.4542 45.7728 45.55H50.0489C49.6882 47.6249 48.7846 49.2384 47.3406 50.3905C45.8966 51.5427 44.0241 52.1187 41.7257 52.1187L41.7271 52.12Z" fill="white"/>
<path d="M52.3301 51.7773V27.7882H56.5768V37.1838H56.6913C57.2422 36.2517 57.9928 35.5423 58.9431 35.0556C59.8933 34.5702 61.0139 34.3275 62.3061 34.3275C64.4528 34.3275 66.1589 34.9756 67.4219 36.2691C68.6862 37.5639 69.317 39.2867 69.317 41.4376V51.776H65.0703V42.2377C65.0703 40.8856 64.7096 39.8574 63.987 39.1534C63.2643 38.4493 62.2103 38.0973 60.8235 38.0973C59.4368 38.0973 58.3814 38.4493 57.6601 39.1534C56.9375 39.8574 56.5768 40.8856 56.5768 42.2377V51.776H52.3301V51.7773Z" fill="white"/>
<path d="M75.8148 47.4115H71.4004V51.8346H75.8148V47.4115Z" fill="white"/>
<path d="M42.0225 25.0119V7.1994H46.4369V25.0119H42.0225Z" fill="white"/>
<path d="M46.4369 0H42.0225V4.42312H46.4369V0Z" fill="white"/>
<path d="M22.4052 31.974V11.4585H20.2119V7.03542H24.7448V9.88504H25.9891C26.6013 8.85561 27.4304 8.06486 28.4778 7.51013C29.5238 6.95674 30.7895 6.67938 32.2707 6.67938C34.0873 6.67938 35.6284 7.06075 36.8927 7.82217C38.157 8.58491 39.1153 9.65835 39.7674 11.0438C40.4195 12.4293 40.7455 14.0628 40.7455 15.943C40.7455 17.8232 40.4248 19.4567 39.782 20.8408C39.1405 22.2263 38.2169 23.3011 37.0112 24.0625C35.8068 24.8239 34.3548 25.2053 32.6553 25.2053C31.3112 25.2053 30.156 24.9479 29.1885 24.4332C28.2209 23.9185 27.4703 23.1971 26.9367 22.2663H26.8182V31.974H22.4038H22.4052Z" fill="white"/>
<path d="M33.3896 21.9903C32.4274 21.9903 31.4878 21.7049 30.672 21.1555C29.5874 20.4248 28.8514 19.3154 28.5999 18.0312C28.3843 16.9338 28.6092 15.8177 29.2321 14.8896C29.8549 13.9615 30.8011 13.3307 31.8964 13.1161L32.4088 15.7337C32.0109 15.8123 31.6675 16.0404 31.4413 16.3777C31.215 16.7151 31.1338 17.1205 31.2124 17.5192C31.3268 18.1046 31.6622 18.61 32.1573 18.9433C32.6523 19.2767 33.2459 19.3967 33.8301 19.2807C35.4578 18.9607 36.5091 17.3458 36.2762 15.5243C36.1046 14.1748 35.3699 13.3881 34.7844 12.964C33.8315 12.276 32.5698 12.0213 31.3215 12.2666C29.8469 12.556 28.5746 13.4041 27.7362 14.6535C26.8978 15.903 26.597 17.4045 26.8858 18.8806L24.2747 19.394C23.8488 17.2178 24.2933 15.0069 25.5283 13.1654C26.762 11.3252 28.6385 10.0757 30.8091 9.64903C32.7774 9.26232 34.7937 9.68237 36.3414 10.8011C37.7734 11.8359 38.6877 13.3934 38.9166 15.1856C39.3292 18.4179 37.3635 21.3036 34.3425 21.8983C34.0258 21.961 33.7064 21.9916 33.391 21.9916L33.3896 21.9903Z" fill="#151295"/>
</svg>
