<?xml version="1.0" encoding="UTF-8"?>
<svg id="Camada_1" data-name="Camada 1" xmlns="http://www.w3.org/2000/svg" viewBox="0 0 424.41 243.47">
  <defs>
    <style>
      .cls-1 {
        fill: #0801a6;
      }

      .cls-1, .cls-2, .cls-3 {
        stroke-width: 0px;
      }

      .cls-2 {
        fill: #fff;
      }

      .cls-3 {
        fill: #937afa;
      }
    </style>
  </defs>
  <path class="cls-3" d="M51.88,116.84c-12.02,0-21.5-2.52-28.43-7.56-6.93-5.04-10.68-12.09-11.23-21.15h20.11c.65,4.35,2.64,7.56,5.96,9.64,3.33,2.08,8.13,3.12,14.42,3.12,10.63,0,15.95-3.05,15.95-9.15,0-2.59-.81-4.58-2.43-5.96-1.62-1.39-4.32-2.45-8.11-3.19l-18.44-3.47c-16.18-3.14-24.27-10.82-24.27-23.02,0-7.86,3.1-14.12,9.29-18.79,6.19-4.67,14.7-7,25.52-7s19.71,2.38,26.14,7.14c6.43,4.76,10.01,11.49,10.75,20.18h-19.97c-1.02-4.16-2.94-7.19-5.76-9.08-2.82-1.89-6.86-2.84-12.13-2.84-4.72,0-8.32.74-10.82,2.22-2.5,1.48-3.74,3.65-3.74,6.52,0,2.13.78,3.84,2.36,5.13,1.57,1.3,4.07,2.27,7.49,2.91l18.72,3.61c8.51,1.66,14.75,4.44,18.72,8.32,3.97,3.88,5.96,9.11,5.96,15.67,0,8.41-3.1,14.98-9.29,19.69-6.2,4.72-15.12,7.07-26.77,7.07Z"/>
  <path class="cls-3" d="M243.98,116.84v-62.55h-10.26v-20.66h21.08v16.09h5.83c2.31-5.55,5.87-9.75,10.68-12.62,4.81-2.86,10.31-4.3,16.5-4.3h6.93v17.75h-7.91c-7.58,0-13.22,2.17-16.92,6.52-3.7,4.35-5.55,10.12-5.55,17.34v42.44h-20.39Z"/>
  <path class="cls-3" d="M331.35,116.84c-9.71,0-17.31-2.36-22.81-7.07-5.5-4.72-8.25-10.96-8.25-18.72s2.8-14.42,8.39-18.86c5.59-4.44,13.66-6.66,24.2-6.66h25.38v-3.33c0-10.17-5.92-15.26-17.75-15.26-10.08,0-16.14,3.61-18.17,10.82h-20.66c1.76-8.88,5.96-15.65,12.62-20.32,6.66-4.67,15.39-7,26.21-7,12.2,0,21.5,2.75,27.88,8.25,6.38,5.5,9.57,13.52,9.57,24.06v31.9h9.85v20.66h-21.22v-13.31h-5.82c-2.87,4.72-6.73,8.37-11.58,10.96-4.85,2.59-10.8,3.88-17.82,3.88ZM334.4,100.89c4.53,0,8.6-.85,12.2-2.57,3.6-1.71,6.45-4.02,8.53-6.93,2.08-2.91,3.12-6.17,3.12-9.78v-1.94h-24.27c-9.34,0-14.01,3.47-14.01,10.4,0,3.42,1.27,6.08,3.81,7.97,2.54,1.9,6.08,2.84,10.61,2.84Z"/>
  <path class="cls-3" d="M403.74,116.84V.34h20.66v116.5h-20.66Z"/>
  <g>
    <path class="cls-1" d="M30.69,241.87c-5.25,0-9.32-1.33-12.21-4-2.89-2.67-4.34-6.71-4.34-12.14v-48.43H0v-15.47h14.27v-24.01h19.48v24.01h19.34v15.47h-19.08v48.96h20.95v15.61h-24.28Z"/>
    <path class="cls-1" d="M105.26,243.47c-8.54,0-15.99-1.71-22.35-5.14-6.36-3.42-11.25-8.27-14.68-14.54-3.42-6.27-5.14-13.67-5.14-22.21s1.69-15.9,5.07-22.08c3.38-6.18,8.18-10.94,14.41-14.28,6.22-3.33,13.52-5,21.88-5s15.21,1.58,21.08,4.74c5.87,3.16,10.41,7.69,13.61,13.61,3.2,5.92,4.8,12.92,4.8,21.01v6.94h-61.77c.8,6.76,3.18,11.94,7.14,15.54,3.96,3.6,9.23,5.4,15.81,5.4,4.89,0,8.87-.91,11.94-2.73,3.07-1.82,5.22-4.56,6.47-8.2h20.01c-1.87,8.45-6.16,15.05-12.87,19.81-6.72,4.76-15.19,7.14-25.41,7.14ZM82.71,193.04h42.16c-.71-5.51-2.83-9.72-6.34-12.61-3.52-2.89-8.21-4.34-14.08-4.34s-10.54,1.47-14.27,4.4c-3.74,2.93-6.23,7.12-7.47,12.54Z"/>
    <path class="cls-1" d="M195.31,243.47c-8.27,0-15.52-1.71-21.75-5.14-6.23-3.42-11.07-8.25-14.54-14.48-3.47-6.22-5.2-13.56-5.2-22.01s1.71-15.79,5.14-22.01c3.42-6.22,8.25-11.05,14.47-14.47,6.23-3.42,13.52-5.14,21.88-5.14,10.32,0,18.85,2.6,25.61,7.8,6.76,5.2,11.03,12.43,12.81,21.68h-19.88c-1.33-4-3.56-7.03-6.67-9.07-3.12-2.04-7.07-3.07-11.87-3.07-6.58,0-11.83,2.11-15.74,6.34-3.91,4.22-5.87,10.21-5.87,17.94s1.95,13.72,5.87,17.94c3.91,4.23,9.16,6.34,15.74,6.34,10.32,0,16.63-4.45,18.94-13.34h20.01c-1.69,9.7-5.92,17.23-12.67,22.61-6.76,5.38-15.52,8.07-26.28,8.07Z"/>
    <path class="cls-1" d="M244.94,241.87v-112.06h19.88v43.89h.53c2.58-4.36,6.09-7.67,10.54-9.94,4.45-2.27,9.69-3.4,15.74-3.4,10.05,0,18.03,3.02,23.95,9.07,5.91,6.05,8.87,14.1,8.87,24.15v48.29h-19.88v-44.56c0-6.31-1.69-11.12-5.07-14.41-3.38-3.29-8.32-4.94-14.81-4.94s-11.43,1.65-14.81,4.94c-3.38,3.29-5.07,8.09-5.07,14.41v44.56h-19.88Z"/>
  </g>
  <rect class="cls-1" x="334.19" y="221.48" width="20.66" height="20.66"/>
  <path class="cls-3" d="M196.69,116.84V33.63h20.66v83.21h-20.66Z"/>
  <rect class="cls-3" x="196.69" width="20.66" height="20.66"/>
  <path class="cls-3" d="M104.86,149.36V53.53h-10.26v-20.66h21.22v13.31h5.82c2.87-4.81,6.75-8.5,11.65-11.09,4.9-2.59,10.82-3.88,17.75-3.88,8.5,0,15.72,1.78,21.63,5.34,5.92,3.56,10.4,8.58,13.45,15.05,3.05,6.47,4.58,14.1,4.58,22.88s-1.5,16.41-4.51,22.88c-3.01,6.47-7.33,11.49-12.97,15.05-5.64,3.56-12.44,5.34-20.39,5.34-6.29,0-11.7-1.2-16.23-3.61-4.53-2.4-8.04-5.78-10.54-10.12h-.55v45.35h-20.66ZM131.49,54.71"/>
  <path class="cls-2" d="M149.6,103.92c-4.39-1-8.38-3.27-11.54-6.62-4.19-4.45-6.4-10.27-6.22-16.38.16-5.22,2.34-10.07,6.14-13.65s8.77-5.47,14-5.31l-.37,12.45c-1.9-.06-3.7.63-5.08,1.93-1.38,1.3-2.17,3.06-2.23,4.96-.08,2.79.92,5.44,2.83,7.47,1.91,2.03,4.5,3.19,7.28,3.28,7.76.23,14.23-6.03,15.06-14.57.61-6.32-1.92-10.67-4.16-13.21-3.63-4.12-9.13-6.59-15.08-6.77-7.03-.21-13.72,2.33-18.83,7.15-5.12,4.82-8.05,11.34-8.26,18.37l-12.45-.37c.31-10.35,4.63-19.97,12.17-27.07,7.54-7.1,17.39-10.84,27.75-10.53,9.38.28,18.15,4.29,24.05,10.99,5.46,6.2,8.02,14.24,7.21,22.64-1.47,15.15-13.43,26.26-27.83,25.82-1.51-.05-3-.24-4.44-.56Z"/>
</svg>