<svg width="140" height="140" viewBox="0 0 140 140" fill="none" xmlns="http://www.w3.org/2000/svg">
<path d="M115.227 34.559C115.512 34.4986 115.773 34.3549 115.976 34.146C115.952 34.262 115.922 34.3765 115.885 34.489C115.829 34.678 116.039 34.734 116.109 34.615C116.356 34.2475 116.454 33.7992 116.382 33.362C116.378 33.3207 116.363 33.2813 116.337 33.2485C116.312 33.2156 116.278 33.1908 116.239 33.1768C116.2 33.1628 116.158 33.1603 116.117 33.1695C116.077 33.1788 116.04 33.1994 116.011 33.229C115.717 33.586 115.661 34.09 115.164 34.244C115.124 34.2547 115.091 34.28 115.069 34.3147C115.048 34.3494 115.04 34.3909 115.048 34.4309C115.056 34.4709 115.079 34.5064 115.112 34.5301C115.145 34.5539 115.186 34.5642 115.227 34.559ZM113.848 32.2C113.887 32.2251 113.932 32.2392 113.978 32.2409C114.025 32.2426 114.071 32.2318 114.112 32.2096C114.152 32.1874 114.186 32.1547 114.21 32.1148C114.234 32.075 114.247 32.0294 114.247 31.983C114.247 31.927 114.247 31.864 113.911 31.36C113.841 31.255 113.757 31.059 113.575 31.157C113.393 31.255 113.519 31.437 113.617 31.682C113.813 32.2 113.813 32.2 113.848 32.2ZM113.736 30.919C114.079 30.919 114.317 30.919 114.359 31.206C114.364 31.2487 114.387 31.2874 114.421 31.3137C114.455 31.3399 114.498 31.3516 114.541 31.346C114.584 31.3404 114.622 31.3181 114.649 31.284C114.675 31.2499 114.686 31.2067 114.681 31.164C114.625 30.9372 114.492 30.7372 114.304 30.5989C114.116 30.4607 113.885 30.3931 113.652 30.408C113.596 30.431 113.551 30.4721 113.521 30.5245C113.492 30.5769 113.482 30.6376 113.491 30.6968C113.501 30.7559 113.531 30.8101 113.575 30.8504C113.619 30.8907 113.676 30.9149 113.736 30.919ZM28.1188 52.255C26.1554 53.2048 23.9946 53.6752 21.814 53.6278C19.6334 53.5803 17.4951 53.0163 15.5748 51.982C15.5396 51.9607 15.4972 51.9542 15.4572 51.964C15.4172 51.9739 15.3827 51.9992 15.3613 52.0345C15.34 52.0698 15.3335 52.1121 15.3434 52.1521C15.3532 52.1922 15.3786 52.2267 15.4138 52.248C19.2498 54.747 24.8848 54.887 28.2238 52.437C28.248 52.4231 28.2656 52.4001 28.2728 52.3732C28.28 52.3463 28.2763 52.3176 28.2623 52.2935C28.2484 52.2694 28.2255 52.2517 28.1986 52.2445C28.1716 52.2373 28.143 52.2411 28.1188 52.255ZM27.6008 31.5C27.9998 31.661 28.6578 31.5 28.4828 31.129C28.366 30.8459 28.2837 30.5498 28.2378 30.247C28.2378 30.2043 28.2209 30.1633 28.1907 30.1332C28.1605 30.103 28.1195 30.086 28.0768 30.086C28.0341 30.086 27.9932 30.103 27.963 30.1332C27.9328 30.1633 27.9158 30.2043 27.9158 30.247C27.9116 30.5432 27.9398 30.8389 27.9998 31.129C27.9043 31.1833 27.7939 31.2054 27.6848 31.192C27.6646 31.1865 27.6435 31.185 27.6227 31.1877C27.6019 31.1903 27.5818 31.197 27.5636 31.2074C27.5454 31.2178 27.5295 31.2317 27.5166 31.2483C27.5038 31.2648 27.4943 31.2838 27.4888 31.304C27.4833 31.3242 27.4818 31.3453 27.4845 31.3661C27.4871 31.3869 27.4938 31.407 27.5042 31.4252C27.5146 31.4434 27.5285 31.4594 27.5451 31.4722C27.5617 31.485 27.5806 31.4945 27.6008 31.5ZM26.7958 29.967C26.9042 29.7152 26.9932 29.4554 27.0618 29.19C27.0681 29.1656 27.0694 29.1403 27.0657 29.1154C27.062 29.0905 27.0534 29.0666 27.0404 29.0451C27.0274 29.0236 27.0102 29.0049 26.9898 28.9901C26.9694 28.9753 26.9463 28.9647 26.9218 28.959C26.7118 28.896 26.6768 29.12 26.5718 29.393C26.5115 29.5288 26.4624 29.6693 26.4248 29.813C26.4246 29.8561 26.4372 29.8983 26.461 29.9341C26.4849 29.97 26.5188 29.998 26.5586 30.0145C26.5984 30.0311 26.6422 30.0354 26.6845 30.0269C26.7267 30.0184 26.7655 29.9976 26.7958 29.967ZM29.1268 30.625C29.1667 30.6425 29.211 30.6472 29.2536 30.6384C29.2963 30.6296 29.3351 30.6078 29.3648 30.576C29.4722 30.3238 29.5611 30.0641 29.6308 29.799C29.6382 29.7751 29.6406 29.7499 29.6378 29.7251C29.635 29.7002 29.6271 29.6762 29.6146 29.6545C29.6022 29.6329 29.5854 29.614 29.5653 29.5991C29.5452 29.5842 29.5222 29.5736 29.4978 29.568C29.2808 29.505 29.2388 29.757 29.1478 29.995C29.0568 30.233 28.8818 30.527 29.1268 30.625ZM25.7668 32.06C26.0181 32.1858 26.306 32.2181 26.5788 32.151C26.7538 32.074 26.6348 31.808 26.4668 31.864C26.2819 31.8513 26.1045 31.7857 25.9558 31.675C25.8611 31.6129 25.7796 31.5327 25.7159 31.439C25.6523 31.3453 25.6077 31.2399 25.5848 31.129C25.5358 30.835 25.0738 30.947 25.1438 31.241C25.1778 31.4162 25.2517 31.5812 25.3597 31.7232C25.4678 31.8653 25.6071 31.9805 25.7668 32.06ZM75.5298 108.689C75.5298 108.503 75.4561 108.325 75.3248 108.194C75.1935 108.063 75.0155 107.989 74.8298 107.989C74.6442 107.989 74.4661 108.063 74.3349 108.194C74.2036 108.325 74.1298 108.503 74.1298 108.689C74.1298 108.875 74.2036 109.053 74.3349 109.184C74.4661 109.315 74.6442 109.389 74.8298 109.389C75.0155 109.389 75.1935 109.315 75.3248 109.184C75.4561 109.053 75.5298 108.875 75.5298 108.689ZM75.5158 115.584C75.6264 115.594 75.738 115.582 75.8434 115.546C75.9487 115.511 76.0456 115.454 76.1277 115.38C76.2099 115.305 76.2755 115.214 76.3204 115.112C76.3653 115.01 76.3885 114.901 76.3885 114.79C76.3885 114.678 76.3653 114.569 76.3204 114.467C76.2755 114.365 76.2099 114.274 76.1277 114.199C76.0456 114.125 75.9487 114.068 75.8434 114.033C75.738 113.997 75.6264 113.985 75.5158 113.995C75.4052 113.985 75.2937 113.997 75.1883 114.033C75.0829 114.068 74.9861 114.125 74.9039 114.199C74.8218 114.274 74.7562 114.365 74.7113 114.467C74.6664 114.569 74.6432 114.678 74.6432 114.79C74.6432 114.901 74.6664 115.01 74.7113 115.112C74.7562 115.214 74.8218 115.305 74.9039 115.38C74.9861 115.454 75.0829 115.511 75.1883 115.546C75.2937 115.582 75.4052 115.594 75.5158 115.584ZM75.7188 121.254C75.5282 121.272 75.3512 121.361 75.2224 121.503C75.0935 121.644 75.0222 121.829 75.0222 122.021C75.0222 122.212 75.0935 122.397 75.2224 122.538C75.3512 122.68 75.5282 122.769 75.7188 122.787C75.9095 122.769 76.0865 122.68 76.2153 122.538C76.3441 122.397 76.4155 122.212 76.4155 122.021C76.4155 121.829 76.3441 121.644 76.2153 121.503C76.0865 121.361 75.9095 121.272 75.7188 121.254ZM71.4698 90.853C71.8147 92.6805 72.0485 94.5272 72.1698 96.383C72.1698 96.448 72.1956 96.5103 72.2416 96.5562C72.2875 96.6022 72.3499 96.628 72.4148 96.628C72.4798 96.628 72.5421 96.6022 72.5881 96.5562C72.634 96.5103 72.6598 96.448 72.6598 96.383C72.5225 94.4964 72.2346 92.6237 71.7988 90.783C71.781 90.7495 71.7527 90.7227 71.7183 90.7067C71.6838 90.6906 71.6451 90.6862 71.608 90.6941C71.5708 90.7021 71.5373 90.7218 71.5123 90.7505C71.4874 90.7791 71.4725 90.8151 71.4698 90.853ZM72.7998 111.349C72.7998 111.301 72.7807 111.254 72.7465 111.22C72.7124 111.186 72.6661 111.167 72.6178 111.167C72.5696 111.167 72.5233 111.186 72.4891 111.22C72.455 111.254 72.4358 111.301 72.4358 111.349C72.3658 116.144 72.2818 127.603 72.3238 128.849C72.3334 128.904 72.3622 128.954 72.4051 128.99C72.448 129.027 72.5023 129.046 72.5583 129.046C72.6144 129.046 72.6687 129.027 72.7116 128.99C72.7545 128.954 72.7833 128.904 72.7928 128.849C72.8908 126.588 72.7998 112.469 72.7998 111.349ZM91.5878 63.203C91.5953 63.2226 91.6088 63.2393 91.6265 63.2506C91.6441 63.262 91.6649 63.2674 91.6858 63.266C93.5339 62.3116 95.1978 61.0364 96.5998 59.5C96.6195 59.4792 96.6305 59.4516 96.6305 59.423C96.6305 59.3944 96.6195 59.3668 96.5998 59.346C94.9968 58.212 90.4678 56.329 90.4608 56.861C90.4253 59.0278 90.808 61.1811 91.5878 63.203ZM40.0538 73.36C40.621 73.3834 41.1812 73.2286 41.6558 72.9172C42.1304 72.6058 42.4955 72.1536 42.6998 71.624C42.8888 71.029 42.8188 70.924 42.2448 67.459C42.6634 67.7947 43.1029 68.1033 43.5608 68.383C43.7049 68.4385 43.8644 68.4386 44.0085 68.3832C44.1526 68.3278 44.271 68.2209 44.3408 68.0831C44.4105 67.9454 44.4266 67.7867 44.386 67.6377C44.3454 67.4888 44.2509 67.3602 44.1208 67.277C42.9498 66.6679 42.0504 65.641 41.6008 64.4C41.5378 64.183 40.7188 64.113 40.4108 64.638C40.4108 64.701 41.4818 70.651 41.4958 70.714C41.5415 70.8931 41.5415 71.0809 41.4958 71.26C41.3918 71.4848 41.2327 71.6797 41.0332 71.8265C40.8337 71.9734 40.6004 72.0675 40.3548 72.1C40.1591 72.1387 39.9576 72.1381 39.7621 72.0982C39.5665 72.0583 39.3809 71.9799 39.216 71.8676C39.051 71.7552 38.9101 71.6113 38.8013 71.444C38.6925 71.2767 38.6181 71.0894 38.5824 70.8931C38.5466 70.6968 38.5503 70.4953 38.5931 70.3004C38.636 70.1055 38.7171 69.9211 38.8319 69.7579C38.9467 69.5946 39.0928 69.4559 39.2617 69.3496C39.4306 69.2434 39.619 69.1718 39.8158 69.139C39.9801 69.1102 40.1263 69.0174 40.2221 68.8808C40.3179 68.7443 40.3556 68.5753 40.3268 68.411C40.2981 68.2467 40.2052 68.1006 40.0687 68.0047C39.9321 67.9089 39.7631 67.8712 39.5988 67.9C39.1132 67.9811 38.6575 68.1888 38.2778 68.5022C37.898 68.8156 37.6076 69.2236 37.4358 69.685C37.2782 70.1022 37.2257 70.5518 37.283 70.9941C37.3403 71.4364 37.5056 71.8577 37.7644 72.221C38.0231 72.5842 38.3674 72.8781 38.7667 73.0768C39.166 73.2754 39.608 73.3727 40.0538 73.36Z" fill="#EFEFEF"/>
<path d="M47.8102 68.509C47.7367 67.0946 47.2414 65.7346 46.388 64.6043C45.5347 63.474 44.3624 62.6251 43.0222 62.167C36.9812 60.123 31.4232 67.2 35.0002 72.569C35.8441 73.826 37.0727 74.7755 38.5019 75.2751C39.931 75.7748 41.4837 75.7976 42.9269 75.3402C44.3701 74.8828 45.6261 73.9698 46.5066 72.7381C47.387 71.5065 47.8444 70.0226 47.8102 68.509ZM36.6102 64.029C40.9012 60.081 47.2012 63.329 47.3692 68.516C47.3533 69.8373 46.9722 71.1284 46.268 72.2465C45.5638 73.3645 44.564 74.266 43.3792 74.851C39.4732 76.552 34.7552 73.619 34.4262 69.489C34.3398 68.4736 34.4902 67.452 34.8655 66.5046C35.2408 65.5572 35.8309 64.7097 36.5892 64.029H36.6102ZM86.8002 63.07C87.4082 64.0007 88.231 64.7717 89.1993 65.318C90.1676 65.8643 91.253 66.1698 92.364 66.2089C93.4751 66.248 94.5793 66.0194 95.5835 65.5426C96.5878 65.0657 97.4627 64.3544 98.1346 63.4687C98.8065 62.5829 99.2557 61.5487 99.4443 60.453C99.6329 59.3574 99.5554 58.2325 99.2184 57.1731C98.8813 56.1136 98.2946 55.1507 97.5076 54.3655C96.7206 53.5803 95.7564 52.9957 94.6962 52.661C88.4102 50.715 83.3562 58.037 86.8002 63.07ZM88.4102 54.537C92.7852 50.505 99.0012 53.998 99.1622 59.024C99.1482 60.3421 98.7709 61.6309 98.0719 62.7486C97.3729 63.8662 96.3793 64.7695 95.2002 65.359C91.3012 67.06 86.5762 64.134 86.2402 59.997C86.1556 58.9792 86.3096 57.9557 86.6899 57.0079C87.0703 56.06 87.6665 55.214 88.4312 54.537H88.4102ZM43.6312 29.932C38.4582 19.012 25.2002 14.357 14.5042 21.637C0.644186 31.108 3.92019 51.1 19.5022 56.476C34.7202 61.88 51.3312 46.2 43.6312 29.932ZM33.8802 55.062C32.6099 55.684 31.2706 56.1539 29.8902 56.462C29.9812 55.594 30.0932 53.354 30.1352 52.304C30.7932 53.354 31.9832 54.404 33.4602 54.194C34.7482 53.991 35.8892 52.794 36.9602 50.694C38.0088 48.3991 38.5985 45.9212 38.6962 43.4C38.8103 43.1082 38.8833 42.8019 38.9132 42.49C39.2689 41.6704 39.683 40.8773 40.1522 40.117C40.4042 39.8974 40.6234 39.6428 40.8032 39.361C40.9988 38.8184 41.0424 38.2326 40.9292 37.667C40.9072 37.0997 40.698 36.5558 40.3342 36.12C40.6212 35.539 41.4192 32.886 41.5522 32.368C41.5636 32.3125 41.5542 32.2547 41.5258 32.2057C41.4975 32.1566 41.452 32.1197 41.3982 32.102C39.9948 31.888 38.5753 31.799 37.1562 31.836C37.1072 31.745 34.5872 38.941 34.3562 39.536C34.3455 39.5686 34.3416 39.603 34.3447 39.6372C34.3478 39.6714 34.3579 39.7046 34.3743 39.7347C34.3907 39.7649 34.413 39.7913 34.44 39.8125C34.467 39.8337 34.498 39.8492 34.5312 39.858C35.2269 39.9659 35.9279 40.036 36.6312 40.068C36.6312 40.369 36.4982 41.202 36.4492 41.468C36.2496 41.7214 36.087 42.0019 35.9662 42.301C35.0971 43.0569 34.4853 44.065 34.2162 45.185C32.9772 39.746 32.1162 37.408 27.2162 34.685C26.9712 34.552 26.6772 34.454 26.4112 34.279C29.7992 35.091 30.1772 35.476 30.3032 35.308C34.1392 29.904 32.3542 23.723 28.4202 21.238C24.7382 18.578 21.1052 21.091 19.7822 25.298C18.8022 28.609 20.4822 31.507 21.3502 32.711C20.5522 32.788 20.2792 32.879 19.6422 32.949C14.2522 33.53 9.88419 39.991 7.88219 45.038C1.91119 31.339 14.9172 15.743 30.0372 19.355C47.3202 24.094 50.4632 47.04 33.8802 55.062ZM12.4672 51.562C12.9992 50.736 14.3292 48.44 14.6372 47.901C18.5292 50.897 25.8372 51.289 29.6732 48.734C29.6732 48.853 29.4982 55.601 29.4982 56.56C26.4663 57.1149 23.3466 56.9518 20.389 56.0839C17.4315 55.216 14.7184 53.6673 12.4672 51.562ZM34.4262 46.746C34.4135 46.5276 34.3878 46.3103 34.3492 46.095C34.4122 45.899 34.4542 45.724 34.5172 45.493C34.9722 46.249 36.4772 47.593 37.1002 47.67C37.1315 47.6724 37.1628 47.6643 37.189 47.6468C37.2151 47.6293 37.2346 47.6035 37.2443 47.5736C37.254 47.5437 37.2534 47.5114 37.2424 47.4819C37.2315 47.4524 37.211 47.4274 37.1842 47.411C36.1478 46.7668 35.3153 45.8421 34.7832 44.744C34.9444 44.3048 35.1813 43.8974 35.4832 43.54C36.0319 44.4013 36.8035 45.0979 37.7162 45.556C37.7323 45.5601 37.749 45.5611 37.7655 45.5587C37.7819 45.5564 37.7977 45.5508 37.812 45.5424C37.8263 45.5339 37.8388 45.5227 37.8488 45.5095C37.8588 45.4962 37.8661 45.4811 37.8702 45.465C37.8743 45.4489 37.8753 45.4322 37.8729 45.4157C37.8706 45.3993 37.865 45.3834 37.8566 45.3691C37.8481 45.3548 37.8369 45.3423 37.8237 45.3324C37.8104 45.3224 37.7953 45.3151 37.7792 45.311C36.9605 44.7483 36.2865 43.9999 35.8122 43.127C35.9032 43.015 36.0012 42.903 36.0992 42.798C36.6614 43.3513 37.4108 43.6736 38.1992 43.701C38.0754 45.799 37.6438 47.8675 36.9182 49.84C36.3446 51.2268 35.4468 52.4558 34.3002 53.424C35.2648 51.5514 35.4849 49.3832 34.9162 47.355C34.9022 47.307 34.8725 47.2651 34.8319 47.2359C34.7913 47.2067 34.7421 47.192 34.6922 47.194C34.0972 47.194 34.9302 49.63 30.7372 52.325C30.5206 52.0149 30.3264 51.6898 30.1562 51.352C30.1982 48.972 30.1002 46.599 30.0022 44.303C30.0022 44.2603 29.9852 44.2193 29.955 44.1891C29.9248 44.159 29.8839 44.142 29.8412 44.142C29.7985 44.142 29.7575 44.159 29.7273 44.1891C29.6972 44.2193 29.6802 44.2603 29.6802 44.303C29.7222 45.521 29.6802 46.725 29.6802 48.167C27.3282 49.644 24.6332 50.155 21.1892 49.77C18.8982 49.6493 16.691 48.869 14.8332 47.523C15.0782 47.075 16.1002 45.115 16.3872 44.59C16.401 44.5661 16.4082 44.5389 16.4079 44.5113C16.4076 44.4837 16.3999 44.4566 16.3856 44.433C16.3713 44.4094 16.3509 44.3901 16.3265 44.377C16.3022 44.364 16.2748 44.3578 16.2472 44.359C16.0792 44.359 16.2472 44.317 14.8472 46.718C12.639 45.853 10.8558 44.1602 9.87719 42C11.0102 39.8371 12.4959 37.8782 14.2732 36.204C15.1861 37.4715 16.3445 38.5425 17.6796 39.3535C19.0146 40.1644 20.499 40.6988 22.0447 40.9247C23.5903 41.1506 25.1655 41.0636 26.6768 40.6687C28.1881 40.2738 29.6047 39.5791 30.8422 38.626C30.8659 38.6007 30.8799 38.5678 30.8818 38.5331C30.8836 38.4985 30.8731 38.4643 30.8521 38.4367C30.8312 38.409 30.8011 38.3897 30.7673 38.382C30.7334 38.3744 30.698 38.379 30.6672 38.395C29.6513 39.0931 28.5474 39.6533 27.3842 40.061C25.0897 40.7878 22.6245 40.7731 20.3388 40.0192C18.0531 39.2652 16.063 37.8103 14.6512 35.861C15.3216 35.317 16.0492 34.8476 16.8212 34.461C19.4742 40.432 26.0192 40.859 29.1832 36.561C30.8212 37.835 31.3252 37.996 32.6342 41.16C29.6312 43.778 26.8942 45.08 24.2762 45.052C22.1007 45.0672 19.9502 44.588 17.987 43.6507C16.0238 42.7133 14.2991 41.3423 12.9432 39.641C12.8312 39.487 12.5792 39.641 12.6912 39.809C14.7912 43.008 18.7742 45.108 23.6462 45.57C26.9432 45.892 30.4432 44.009 32.7952 41.615C33.1592 42.819 33.6002 44.59 33.6492 44.8C33.4322 45.5 31.0872 47.677 30.7162 47.761C30.4992 47.81 30.6112 48.146 30.8072 48.062C31.9354 47.4091 32.9516 46.5796 33.8172 45.605C33.8942 45.969 34.0342 46.62 34.0552 46.781C34.0762 46.942 34.4402 46.97 34.4262 46.746ZM38.6262 36.19C38.5394 36.1656 38.448 36.1627 38.3599 36.1817C38.2718 36.2007 38.1897 36.2409 38.1207 36.2989C38.0517 36.3568 37.9979 36.4308 37.964 36.5143C37.9301 36.5978 37.9171 36.6883 37.9262 36.778C37.1772 36.939 37.2262 37.478 37.6602 37.828C38.0898 38.0991 38.5338 38.3468 38.9902 38.57C38.8292 38.955 38.7032 39.27 38.5352 39.641C37.8352 39.641 35.6582 39.508 34.9022 39.445C35.1822 38.57 36.6592 34.503 37.4712 32.305C38.1712 32.34 40.3622 32.396 41.0692 32.508C40.9012 33.208 40.1872 35.245 39.9842 35.882C39.8761 35.8107 39.7547 35.762 39.6273 35.7389C39.4999 35.7158 39.3692 35.7187 39.2429 35.7475C39.1167 35.7762 38.9976 35.8303 38.8928 35.9063C38.788 35.9824 38.6997 36.0789 38.6332 36.19H38.6262ZM38.9342 39.977C39.0532 39.599 39.2002 39.235 39.3962 38.759C39.4274 38.7645 39.4595 38.7597 39.4878 38.7455C39.516 38.7313 39.5389 38.7083 39.5531 38.6799C39.5673 38.6516 39.5719 38.6195 39.5663 38.5883C39.5608 38.5572 39.5453 38.5286 39.5222 38.507C39.3472 38.346 37.7232 37.485 37.7862 37.317C37.8492 37.149 38.2552 37.268 38.4862 37.401C38.9418 37.5886 39.4095 37.7453 39.8862 37.87C39.9168 37.8733 39.9477 37.8664 39.974 37.8505C40.0003 37.8345 40.0206 37.8102 40.0318 37.7815C40.0429 37.7528 40.0443 37.7213 40.0357 37.6917C40.0271 37.6621 40.009 37.6362 39.9842 37.618C39.4375 37.4196 38.9044 37.1858 38.3882 36.918C38.2832 36.82 38.2342 36.554 38.3882 36.561C38.9025 36.6835 39.3816 36.9231 39.7882 37.261C39.8043 37.2762 39.8232 37.288 39.8439 37.2959C39.8645 37.3037 39.8865 37.3074 39.9086 37.3068C39.9307 37.3061 39.9525 37.3011 39.9727 37.2921C39.9928 37.283 40.011 37.2701 40.0262 37.254C40.0414 37.2379 40.0532 37.219 40.0611 37.1983C40.0689 37.1777 40.0726 37.1556 40.072 37.1335C40.0713 37.1114 40.0663 37.0897 40.0573 37.0695C40.0482 37.0493 40.0353 37.0312 40.0192 37.016C39.7562 36.8084 39.4777 36.6212 39.1862 36.456C38.8362 36.253 39.0882 36.001 39.4382 36.05C39.9072 36.12 40.5092 36.75 40.4462 38.045C40.5045 38.3928 40.4593 38.7501 40.3162 39.0725C40.173 39.3948 39.9383 39.668 39.6412 39.858C39.1901 40.5738 38.808 41.3309 38.5002 42.119C38.1924 42.1986 37.8682 42.1889 37.5657 42.091C37.2632 41.9931 36.9949 41.8109 36.7922 41.566C36.8412 41.321 36.9882 40.481 37.0302 40.166C38.5912 40.215 38.8642 40.208 38.9412 39.977H38.9342ZM34.6432 48.454C34.8842 50.2401 34.5894 52.0576 33.7962 53.676C33.2848 53.8226 32.7404 53.8063 32.2387 53.6294C31.7369 53.4525 31.3027 53.1239 30.9962 52.689C32.702 51.7872 34.0045 50.2747 34.6432 48.454ZM21.7632 33.341C21.7756 33.3557 21.7919 33.3668 21.8102 33.3729C21.8286 33.379 21.8482 33.3799 21.867 33.3755C21.8858 33.3712 21.9031 33.3618 21.9169 33.3483C21.9306 33.3347 21.9405 33.3177 21.9452 33.299C23.0022 29.141 22.9742 29.4 22.8762 29.344C21.7002 28.7 22.0712 27.447 22.5472 27.3C22.7852 27.223 23.1002 27.377 23.4152 27.727C23.6209 27.9204 23.777 28.1605 23.8702 28.427C24.5702 30.387 28.4482 27.804 30.1282 26.565C30.2448 26.4681 30.3826 26.4002 30.5305 26.3669C30.6784 26.3335 30.8321 26.3358 30.979 26.3733C31.1258 26.4109 31.2617 26.4827 31.3754 26.583C31.4891 26.6832 31.5775 26.809 31.6332 26.95C31.7942 27.258 31.5002 27.517 31.3252 27.181C30.9612 26.565 30.3242 26.908 30.3382 27.076C30.4782 28.812 30.1562 31.276 28.8052 32.48C27.4542 33.684 25.8862 33.061 25.7462 33.18C25.6062 33.299 25.6832 33.411 25.6832 33.544C25.6206 33.6926 25.5928 33.8535 25.602 34.0144C25.6111 34.1754 25.657 34.3321 25.736 34.4726C25.815 34.6131 25.9252 34.7337 26.058 34.8251C26.1908 34.9165 26.3427 34.9763 26.5022 35C27.0742 35.2162 27.6192 35.498 28.1262 35.84C25.6342 39.69 20.1882 39.123 18.1022 33.936C19.2683 33.5378 20.4837 33.3023 21.7142 33.236L21.7632 33.341ZM9.64619 42.441C10.0985 43.5218 10.7736 44.4951 11.6276 45.2972C12.4816 46.0993 13.4952 46.7122 14.6022 47.096C14.5182 47.229 12.5652 50.421 12.1032 51.205C10.4035 49.5721 9.0221 47.6376 8.02919 45.5C8.72219 44.254 9.10019 43.498 9.64619 42.448V42.441ZM131.992 30.037C128.051 17.437 113.848 11.648 102.816 18.354C90.3842 25.9 89.6422 42.7 101.5 51.184C117.082 62.3 137.41 46.956 131.992 30.037ZM110.712 49.133C113.029 52.206 115.353 52.444 116.907 52.087C119.805 51.429 122.346 48.174 123.088 44.163C123.098 44.1157 123.089 44.0662 123.063 44.0255C123.037 43.9848 122.996 43.9562 122.948 43.946C122.901 43.9358 122.851 43.9448 122.811 43.971C122.77 43.9973 122.741 44.0386 122.731 44.086C122.402 45.7987 121.683 47.4129 120.631 48.804C116.515 54.166 112.231 51.548 108.948 45.612C107.881 43.9101 107.282 41.9566 107.212 39.949C108.878 39.165 108.843 39.123 109.039 39.291C110.985 40.964 114.52 44.954 115.01 45.493C115.019 45.5395 115.044 45.5815 115.08 45.6117C115.117 45.6419 115.162 45.6585 115.21 45.6585C115.257 45.6585 115.303 45.6419 115.339 45.6117C115.376 45.5815 115.4 45.5395 115.409 45.493C116.193 42.329 116.809 39.046 119.14 36.785C120.006 36.5858 120.882 36.4385 121.765 36.344C124.866 40.264 124.425 45.493 124.411 50.456C122.332 52.0434 119.944 53.178 117.4 53.7868C114.857 54.3957 112.213 54.4652 109.641 53.991C109.793 52.3331 110.152 50.7008 110.712 49.133ZM122.36 36.281C122.738 36.281 122.703 35.665 122.36 35.714C120.899 35.8359 119.465 36.1756 118.104 36.722C117.915 36.799 117.698 36.841 117.768 37.03C117.838 37.219 117.992 37.079 118.517 36.946C116.459 39.123 115.682 42.189 115.143 44.947C114.758 44.478 113.806 43.393 113.561 43.113C115.717 38.36 115.598 38.213 116.865 37.254C117.355 36.862 119.35 35.42 121.002 34.384C121.884 33.824 122.514 33.432 123.984 35.469C125.349 37.366 125.384 37.394 124.509 41.559C124.246 39.6411 123.489 37.8246 122.311 36.288L122.36 36.281ZM106.96 32.158C107.086 32.158 107.149 32.256 107.247 32.403C109.557 35.903 109.382 35.504 109.382 35.574C109.382 35.91 109.837 36.414 110.292 36.841C109.921 36.981 109.228 37.261 108.815 37.429C108.815 36.141 107.905 36.141 107.66 36.68C107.226 36.043 106.26 34.783 106.064 34.538C106.011 34.4626 105.939 34.4023 105.856 34.363C105.772 34.3238 105.68 34.3069 105.588 34.314C105.259 33.894 104.517 32.914 104.23 32.487C104.3 32.473 106.736 32.2 106.953 32.158H106.96ZM111.72 38.794C111.615 39.648 110.278 38.696 110.796 38.22C110.892 38.3821 111.025 38.5188 111.185 38.6187C111.344 38.7186 111.526 38.7787 111.713 38.794H111.72ZM111.643 38.353C111.356 38.304 110.775 37.653 110.943 37.506C111.111 37.359 111.832 38.241 111.818 38.346C111.759 38.3658 111.696 38.3682 111.636 38.353H111.643ZM113.246 42.798C112.637 42.154 109.872 39.298 109.802 39.242C109.701 39.0904 109.57 38.9608 109.417 38.861C109.264 38.7612 109.093 38.6931 108.913 38.661C108.821 38.4227 108.785 38.1664 108.808 37.912L110.614 37.142C110.782 37.289 110.614 37.142 110.53 37.464C110.49 37.6142 110.508 37.774 110.579 37.912C109.879 38.43 110.579 39.634 111.503 39.543C111.778 39.7311 112.015 39.9684 112.203 40.243C112.41 40.9575 112.704 41.644 113.078 42.287C113.309 42.7 113.295 42.651 113.239 42.798H113.246ZM112.651 40.299C112.651 40.075 113.456 39.235 113.582 39.13C113.957 39.2391 114.323 39.3796 114.674 39.55C114.471 40.012 113.82 41.489 113.498 42.238C113.147 41.6231 112.861 40.9733 112.644 40.299H112.651ZM112.364 39.851C112.229 39.6726 112.069 39.5147 111.888 39.382C111.974 39.2888 112.039 39.1778 112.078 39.0569C112.117 38.9359 112.128 38.808 112.112 38.682C112.152 38.6552 112.186 38.6201 112.212 38.579C112.237 38.5379 112.253 38.4919 112.259 38.444C112.315 38.115 111.944 37.842 111.699 37.611C110.974 37.042 110.329 36.3781 109.781 35.637C110.338 35.9156 110.869 36.2411 111.37 36.61C112.21 37.233 113.288 37.821 113.204 38.857C112.895 39.1646 112.612 39.4971 112.357 39.851H112.364ZM105.7 34.734C106.412 35.5376 107.064 36.3915 107.653 37.289C107.674 37.3202 107.703 37.3447 107.737 37.3594C107.771 37.3741 107.809 37.3784 107.846 37.3717C107.882 37.3649 107.916 37.3475 107.943 37.3216C107.97 37.2957 107.988 37.2624 107.996 37.226C107.996 37.03 108.087 36.68 108.269 36.757C108.654 37.282 108.269 38.101 108.528 38.752C106.652 39.578 108.185 39.368 107.03 38.052C105.959 36.925 105.539 35.091 105.7 34.734ZM112.917 34.034C113.173 33.1182 113.173 32.1498 112.917 31.234C112.813 30.8259 112.75 30.4085 112.728 29.988C113.149 30.0329 113.573 30.014 113.988 29.932C115.213 29.729 115.843 29.071 116.144 29.274C116.34 29.407 116.375 29.82 116.249 30.478C116.246 30.4993 116.25 30.521 116.26 30.5401C116.27 30.5592 116.286 30.5747 116.305 30.5847C116.324 30.5946 116.346 30.5984 116.367 30.5956C116.388 30.5928 116.408 30.5835 116.424 30.569C116.691 30.3507 117.025 30.2319 117.369 30.233C118.3 30.31 118.265 31.633 117.369 32.2C117.35 32.2153 117.337 32.2369 117.332 32.2611C117.327 32.2852 117.33 32.3103 117.342 32.332C117.354 32.3537 117.373 32.3706 117.396 32.3797C117.418 32.3889 117.444 32.3897 117.467 32.382C117.803 32.2665 118.164 32.2414 118.513 32.3089C118.861 32.3765 119.187 32.5344 119.455 32.767C119.602 33.353 119.801 33.9247 120.05 34.475C119.077 35.14 117.775 36.05 116.844 36.771C116.004 35.007 114.961 36.26 114.24 34.846C113.512 33.635 113.05 34.055 112.882 34.013L112.917 34.034ZM124.649 42.434C125.154 40.8969 125.443 39.2974 125.51 37.681C125.411 36.9029 125.096 36.1681 124.6 35.56C122.612 32.69 121.8 33.166 120.267 34.202C120.127 33.775 119.819 32.886 119.763 32.648C119.854 32.557 120.092 32.326 120.162 32.277C120.421 31.9136 120.622 31.5121 120.757 31.087C120.936 30.4931 121.01 29.8723 120.974 29.253C121.009 28.666 120.916 28.0783 120.701 27.531C120.256 26.7527 119.552 26.1549 118.712 25.8416C117.872 25.5283 116.948 25.5193 116.102 25.816C114.793 25.382 113.106 24.934 112.469 25.207C111.963 25.3291 111.509 25.6105 111.174 26.0097C110.839 26.4089 110.641 26.9049 110.609 27.425C110.577 27.945 110.712 28.4617 110.995 28.899C111.279 29.3364 111.695 29.6715 112.182 29.855C112.161 30.3955 112.222 30.936 112.364 31.458C112.602 32.1927 112.621 32.9804 112.42 33.726C112.294 34.286 112.476 34.538 113.12 34.426C113.876 34.482 113.463 35.826 115.178 36.078C115.591 36.148 115.92 36.211 116.347 37.002C115.633 37.5727 115.096 38.3352 114.8 39.2C114.42 38.9755 114.016 38.7925 113.596 38.654C113.55 38.305 113.428 37.9702 113.24 37.6729C113.051 37.3755 112.8 37.1227 112.504 36.932C111.852 36.3873 111.149 35.9067 110.404 35.497C110.257 35.42 109.949 35.182 109.704 35.231C107.268 31.521 107.52 31.682 106.757 31.682C105.772 31.7198 104.792 31.8511 103.831 32.074C103.797 32.0869 103.766 32.1075 103.74 32.1342C103.715 32.1609 103.696 32.1929 103.684 32.228C103.642 32.396 103.684 32.298 104.664 33.698C105.574 34.972 105.245 34.349 105.301 35.035C105.425 36.3576 105.964 37.6071 106.841 38.605C107.008 38.8615 107.075 39.1703 107.03 39.473L106.939 39.515C106.701 39.634 107.002 42.021 107.17 42.581C107.939 44.781 109.047 46.8475 110.453 48.706C109.764 50.3604 109.341 52.1134 109.2 53.9C102.949 52.5 97.6082 48.251 95.2002 42.735C92.7922 37.219 93.4082 30.751 97.0622 24.71C107.177 9.86299 129.36 15.827 131.992 33.173C132.958 39.76 130.074 46.011 124.894 50.113C124.965 47.5543 124.867 44.9937 124.6 42.448L124.649 42.434ZM121.891 56.644C121.952 57.7669 122.147 58.8784 122.472 59.955C122.495 60.0218 122.542 60.077 122.605 60.1084C122.668 60.1399 122.741 60.1452 122.808 60.123C123.34 59.969 122.556 59.234 122.325 56.623C122.304 56.35 121.87 56.364 121.891 56.644ZM124.033 65.009C124.019 64.9505 123.983 64.9 123.931 64.8685C123.88 64.8369 123.819 64.8271 123.76 64.841C123.702 64.8549 123.651 64.8915 123.62 64.9427C123.588 64.9939 123.578 65.0555 123.592 65.114C124.488 69.664 124.369 70.105 124.824 70.014C125.279 69.923 124.957 69.489 124.033 65.009ZM125.678 75.831C125.293 75.936 125.804 75.992 126.147 80.241C126.147 80.626 126.777 80.605 126.735 80.241C126.559 78.8044 126.28 77.3821 125.902 75.985C125.9 75.959 125.892 75.9338 125.879 75.9113C125.866 75.8887 125.848 75.8694 125.827 75.8546C125.805 75.8399 125.781 75.8301 125.755 75.826C125.729 75.8219 125.703 75.8236 125.678 75.831ZM107.912 64.253C108.66 62.0353 109.284 59.7778 109.781 57.491C109.792 57.4384 109.782 57.3837 109.753 57.3382C109.725 57.2927 109.68 57.2599 109.628 57.2464C109.576 57.233 109.521 57.24 109.474 57.2659C109.427 57.2919 109.391 57.3348 109.375 57.386C108.815 59.633 108.073 61.81 107.38 64.092C107.369 64.1593 107.382 64.2286 107.418 64.2868C107.454 64.345 107.51 64.388 107.575 64.4078C107.64 64.4276 107.711 64.4228 107.773 64.3943C107.835 64.3658 107.885 64.3155 107.912 64.253ZM105.07 73.5C105.462 73.5 105.392 73.024 106.505 68.859C106.52 68.8089 106.514 68.7549 106.489 68.7089C106.464 68.663 106.422 68.6288 106.372 68.614C106.322 68.5991 106.268 68.6048 106.222 68.6297C106.176 68.6547 106.142 68.6969 106.127 68.747C105.91 69.447 104.958 72.394 104.783 73.136C104.773 73.1794 104.772 73.2246 104.781 73.2683C104.791 73.312 104.81 73.3529 104.838 73.388C104.866 73.4231 104.901 73.4514 104.941 73.4708C104.981 73.4902 105.026 73.5002 105.07 73.5ZM101.892 82.6C102.137 82.6 102.123 82.418 102.326 81.606C102.599 80.5 103.026 78.806 103.194 78.33C103.299 78.05 102.872 77.924 102.767 78.19C102.295 79.5612 101.923 80.9649 101.654 82.39C101.66 82.4488 101.687 82.5033 101.731 82.5423C101.776 82.5814 101.833 82.602 101.892 82.6ZM99.5822 88.557C98.9372 89.8066 98.4392 91.1267 98.0982 92.491C98.0796 92.5615 98.0899 92.6366 98.1266 92.6996C98.1634 92.7626 98.2236 92.8084 98.2942 92.827C98.3647 92.8456 98.4398 92.8353 98.5028 92.7986C98.5658 92.7618 98.6116 92.7015 98.6302 92.631C99.7992 88.662 100.177 88.627 99.8342 88.431C99.8095 88.4212 99.783 88.4167 99.7564 88.4179C99.7298 88.419 99.7038 88.4258 99.68 88.4376C99.6562 88.4495 99.6352 88.4663 99.6184 88.4869C99.6015 88.5074 99.5892 88.5313 99.5822 88.557ZM92.2672 68.208C92.3372 68.754 92.5892 71.008 92.6732 71.631C92.6782 71.6696 92.6909 71.7068 92.7103 71.7406C92.7298 71.7743 92.7557 71.8039 92.7865 71.8276C92.8174 71.8513 92.8526 71.8687 92.8903 71.8788C92.9279 71.8889 92.9671 71.8915 93.0057 71.8865C93.0443 71.8814 93.0815 71.8688 93.1153 71.8494C93.149 71.8299 93.1786 71.804 93.2023 71.7732C93.226 71.7423 93.2434 71.707 93.2535 71.6694C93.2636 71.6318 93.2662 71.5926 93.2612 71.554C93.1702 70.952 92.7782 68.691 92.6942 68.152C92.6522 67.9 92.2322 67.949 92.2672 68.208ZM93.3662 78.225C93.4432 78.666 93.7302 80.57 93.8212 81.074C93.8912 81.452 94.4512 81.312 94.3812 80.941C94.2132 80.01 93.9892 79.072 93.8142 78.141C93.7582 77.826 93.3172 77.938 93.3662 78.225ZM94.5002 87.962C94.5314 89.137 94.6578 90.3074 94.8782 91.462C94.9622 91.847 95.5362 91.693 95.4662 91.315C95.2269 90.2027 95.0446 89.0789 94.9202 87.948C94.8572 87.689 94.4512 87.682 94.5002 87.962ZM76.3002 29.708C76.1672 29.456 75.7962 29.666 75.9152 29.918C78.1902 34.587 78.0152 34.629 78.3442 34.629C78.3984 34.6285 78.4517 34.6143 78.499 34.5877C78.5463 34.5611 78.5861 34.523 78.6147 34.4769C78.6434 34.4308 78.6599 34.3782 78.6628 34.3241C78.6656 34.2699 78.6548 34.2159 78.6312 34.167C77.8612 32.662 77.0492 31.199 76.3002 29.708ZM80.6402 38.836C80.5352 38.598 80.1782 38.787 80.2832 39.025C80.9832 40.586 81.5642 42.189 82.2782 43.757C82.4322 44.107 82.9432 43.827 82.7892 43.484C82.0962 41.874 81.2772 40.257 80.6402 38.836ZM86.8002 53.095C86.8426 53.0973 86.8849 53.0892 86.9234 53.0713C86.9619 53.0534 86.9954 53.0263 87.021 52.9925C87.0466 52.9586 87.0635 52.9189 87.0701 52.877C87.0768 52.8351 87.073 52.7921 87.0592 52.752C86.8142 52.052 85.6032 49.483 85.2952 48.79C85.1692 48.503 84.7492 48.727 84.8682 49.014C86.5342 52.836 86.5062 53.095 86.8002 53.095ZM99.5542 50.554C99.2952 50.995 98.1052 52.612 97.7832 53.025C97.7593 53.0558 97.7417 53.091 97.7314 53.1286C97.7211 53.1662 97.7183 53.2054 97.7232 53.2441C97.7281 53.2828 97.7405 53.3201 97.7598 53.354C97.7791 53.3879 97.8049 53.4176 97.8357 53.4415C97.8665 53.4654 97.9017 53.483 97.9393 53.4933C97.9769 53.5036 98.0161 53.5064 98.0548 53.5015C98.0935 53.4966 98.1308 53.4842 98.1647 53.4649C98.1986 53.4456 98.2283 53.4198 98.2522 53.389C98.855 52.5483 99.4021 51.6691 99.8902 50.757C99.9171 50.7124 99.9252 50.659 99.9128 50.6085C99.9003 50.5579 99.8682 50.5144 99.8237 50.4875C99.7791 50.4606 99.7257 50.4525 99.6752 50.4649C99.6246 50.4774 99.5811 50.5094 99.5542 50.554ZM87.3252 24.15C87.6122 24.15 87.7662 23.716 87.4652 23.583C86.8282 23.296 84.1472 22.407 83.4822 22.183C83.2092 22.078 83.0692 22.498 83.3422 22.603C84.0492 22.855 87.0942 24.15 87.3252 24.15ZM89.7542 25.2C91.0107 25.8836 92.3306 26.4439 93.6952 26.873C93.7735 26.8865 93.8541 26.8705 93.9214 26.8282C93.9886 26.7859 94.0379 26.7201 94.0596 26.6437C94.0813 26.5672 94.074 26.4854 94.039 26.414C94.0041 26.3426 93.9439 26.2867 93.8702 26.257C92.5305 25.8933 91.2276 25.4059 89.9782 24.801C89.7122 24.682 89.4882 25.088 89.7542 25.2ZM56.3432 24.78C59.1432 22.897 59.9832 23.324 59.8432 22.827C59.8351 22.7984 59.8215 22.7716 59.803 22.7483C59.7845 22.725 59.7615 22.7056 59.7355 22.6913C59.7094 22.6769 59.6808 22.6679 59.6512 22.6648C59.6216 22.6617 59.5917 22.6644 59.5632 22.673C58.2994 23.0054 57.0966 23.537 56.0002 24.248C55.6782 24.5 56.0002 25.004 56.3432 24.78ZM49.9802 27.139C49.7632 27.314 49.9382 27.601 50.1832 27.601C50.2672 27.601 50.2812 27.601 51.0512 27.216C51.8212 26.831 52.7032 26.418 53.0322 26.32C53.0874 26.2982 53.1326 26.2566 53.1587 26.2033C53.1848 26.1499 53.1901 26.0888 53.1734 26.0318C53.1568 25.9748 53.1194 25.9261 53.0686 25.8952C53.0179 25.8643 52.9575 25.8536 52.8992 25.865C51.8862 26.1914 50.9083 26.6182 49.9802 27.139Z" fill="#EFEFEF"/>
<path d="M47.2787 28.462C46.9147 28.665 44.9057 29.722 44.6887 29.862C44.644 29.8931 44.61 29.9371 44.5912 29.9881C44.5723 30.0392 44.5696 30.0947 44.5833 30.1474C44.5971 30.2 44.6266 30.2472 44.668 30.2825C44.7093 30.3179 44.7605 30.3396 44.8147 30.345C45.7447 29.9057 46.647 29.4101 47.5167 28.861C47.556 28.8238 47.5815 28.7743 47.5889 28.7207C47.5964 28.6671 47.5853 28.6126 47.5576 28.5661C47.5299 28.5196 47.4871 28.484 47.4364 28.465C47.3857 28.4461 47.3301 28.445 47.2787 28.462ZM41.3007 17.276C42.2402 17.2823 43.1712 17.0983 44.0376 16.7351C44.9041 16.3718 45.688 15.8369 46.3421 15.1625C46.9962 14.4881 47.5069 13.6883 47.8436 12.8111C48.1802 11.934 48.3357 10.9978 48.3007 10.059C48.0907 3.80797 39.9917 0.825965 35.8967 6.14597C32.2007 10.773 35.7567 17.276 41.3007 17.276ZM37.1007 5.59997C41.3917 1.64497 47.6917 4.89997 47.8527 10.087C47.8398 11.4035 47.4603 12.6903 46.7567 13.8031C46.0532 14.916 45.0534 15.8107 43.8697 16.387C39.9567 18.095 35.2457 15.162 34.9097 11.032C34.829 10.0187 34.9849 9.00051 35.3652 8.05781C35.7454 7.11512 36.3395 6.2737 37.1007 5.59997ZM56.8687 11.347C58.1077 11.48 59.3537 11.494 60.5927 11.55C60.6484 11.55 60.7018 11.5278 60.7412 11.4885C60.7806 11.4491 60.8027 11.3957 60.8027 11.34C60.8027 11.2843 60.7806 11.2309 60.7412 11.1915C60.7018 11.1521 60.6484 11.13 60.5927 11.13C59.2907 11.011 58.4927 10.85 56.8687 10.745C56.4977 10.724 56.4907 11.305 56.8687 11.347ZM49.5327 10.605C50.0997 10.668 52.4307 10.829 53.0327 10.906C53.3477 10.955 53.4737 10.479 53.1447 10.423C51.9598 10.237 50.7657 10.1155 49.5677 10.059C49.5318 10.0567 49.4959 10.0615 49.4619 10.073C49.4279 10.0846 49.3965 10.1028 49.3695 10.1266C49.3425 10.1503 49.3205 10.1791 49.3047 10.2113C49.2888 10.2436 49.2795 10.2786 49.2772 10.3145C49.2749 10.3503 49.2797 10.3863 49.2913 10.4203C49.3029 10.4543 49.321 10.4857 49.3448 10.5126C49.3685 10.5396 49.3973 10.5616 49.4295 10.5775C49.4618 10.5933 49.4968 10.6027 49.5327 10.605ZM21.7007 62.398C21.9037 61.11 21.9527 59.829 22.1067 58.548C22.1417 58.31 21.7497 58.254 21.7147 58.499C21.5187 59.759 21.2177 61.026 21.0707 62.307C21.0714 62.3839 21.0996 62.458 21.1502 62.516C21.2008 62.5739 21.2705 62.6118 21.3466 62.6228C21.4228 62.6338 21.5003 62.6172 21.5653 62.5759C21.6302 62.5347 21.6783 62.4716 21.7007 62.398ZM20.9447 65.863C20.2447 69.706 20.0837 70.175 20.5877 70.175C20.9657 70.175 20.8957 69.923 21.3717 65.919C21.4067 65.66 21.0007 65.604 20.9447 65.863ZM33.8177 72.261C32.7537 72.821 31.4307 73.472 31.0177 73.717C30.9603 73.7509 30.9158 73.8029 30.8912 73.8649C30.8665 73.9268 30.8632 73.9952 30.8816 74.0592C30.9 74.1233 30.9392 74.1794 30.9929 74.2189C31.0467 74.2583 31.112 74.2787 31.1787 74.277C32.1548 73.7928 33.1036 73.2553 34.0207 72.667C34.0635 72.6344 34.0936 72.5878 34.1057 72.5354C34.1179 72.483 34.1114 72.428 34.0873 72.3799C34.0633 72.3318 34.0232 72.2936 33.9739 72.2718C33.9247 72.2501 33.8694 72.2463 33.8177 72.261ZM29.7227 74.417C28.9585 74.7751 28.2131 75.1723 27.4897 75.607C27.2657 75.81 27.5317 76.146 27.7977 76.02C28.0637 75.894 29.5547 74.97 29.8977 74.809C30.2407 74.648 29.9817 74.305 29.7227 74.417ZM57.9117 80.248C58.1637 80.409 58.4017 80.024 58.1567 79.856C57.6247 79.506 55.6017 78.008 55.0417 77.714C54.9692 77.679 54.8865 77.6719 54.8091 77.6938C54.7317 77.7157 54.665 77.7652 54.6217 77.833C54.3347 78.281 55.3007 78.533 57.9117 80.248ZM48.2167 73.78C48.5667 74.025 48.9167 74.256 49.2737 74.48C51.6607 76.062 51.5487 76.111 51.6957 76.111C51.7441 76.1103 51.7911 76.0953 51.831 76.0679C51.8709 76.0405 51.9018 76.0019 51.9197 75.957C51.9377 75.9121 51.942 75.8628 51.932 75.8155C51.922 75.7682 51.8982 75.7248 51.8637 75.691C50.801 74.8163 49.691 74.0007 48.5387 73.248C48.2027 73.045 47.8947 73.563 48.2167 73.78ZM117.146 96.978C115.998 97.139 114.815 97.258 113.646 97.524C113.574 97.5462 113.512 97.5933 113.472 97.657C113.432 97.7207 113.416 97.7966 113.427 97.871C113.438 97.9455 113.475 98.0135 113.532 98.0628C113.589 98.1122 113.661 98.1395 113.737 98.14C114.01 98.14 115.753 97.671 117.237 97.44C117.601 97.412 117.461 96.922 117.146 96.978ZM110.958 98.112C109.782 98.287 108.487 98.392 107.213 98.609C106.856 98.672 106.954 99.19 107.304 99.19C107.654 99.19 110.16 98.686 111.049 98.546C111.336 98.497 111.238 98.07 110.958 98.112ZM68.6007 73.017C68.5654 72.9576 68.508 72.9146 68.441 72.8975C68.3741 72.8805 68.3031 72.8907 68.2437 72.926C68.1843 72.9612 68.1413 73.0187 68.1242 73.0856C68.1072 73.1526 68.1174 73.2236 68.1527 73.283C68.4981 73.8459 69.0425 74.2585 69.6778 74.4387C70.3132 74.6189 70.9932 74.5537 71.5827 74.256C71.6221 74.2319 71.6509 74.1938 71.6633 74.1493C71.6757 74.1048 71.6707 74.0573 71.6493 74.0164C71.6279 73.9755 71.5918 73.9442 71.5483 73.9289C71.5047 73.9136 71.4569 73.9154 71.4147 73.934C70.9126 74.1361 70.3555 74.155 69.8409 73.9873C69.3263 73.8197 68.8872 73.4761 68.6007 73.017ZM73.5007 70.427C73.4517 70.833 73.0877 70.609 73.0597 70.854C73.0597 70.987 73.1717 71.036 73.3117 71.036C73.436 71.0317 73.5568 70.9943 73.6619 70.9278C73.7669 70.8612 73.8524 70.7679 73.9094 70.6574C73.9664 70.5469 73.993 70.4233 73.9864 70.2991C73.9797 70.1749 73.9401 70.0548 73.8717 69.951C73.4791 69.53 73.1209 69.0783 72.8007 68.6C72.7886 68.5563 72.7597 68.5193 72.7203 68.497C72.6809 68.4747 72.6343 68.4689 72.5907 68.481C72.5471 68.493 72.51 68.5219 72.4877 68.5613C72.4654 68.6007 72.4596 68.6473 72.4717 68.691C72.6362 69.0612 72.8429 69.4112 73.0877 69.734C73.2477 69.9509 73.386 70.183 73.5007 70.427ZM69.7837 65.303C69.7651 65.2194 69.7141 65.1467 69.6419 65.1007C69.5697 65.0548 69.4822 65.0394 69.3987 65.058C69.3151 65.0765 69.2424 65.1275 69.1964 65.1997C69.1505 65.2719 69.1351 65.3594 69.1537 65.443C69.3497 66.773 69.2307 67.34 69.7557 67.34C69.8559 67.34 69.9521 67.3001 70.023 67.2293C70.0939 67.1584 70.1337 67.0622 70.1337 66.962C70.1337 66.787 69.8397 65.597 69.7837 65.303ZM75.2857 65.366C75.2708 65.2896 75.2289 65.2212 75.1675 65.1734C75.1062 65.1256 75.0296 65.1016 74.9519 65.1059C74.8743 65.1101 74.8008 65.1424 74.745 65.1966C74.6893 65.2509 74.6551 65.3235 74.6487 65.401C74.6487 65.506 74.7467 66.759 74.7817 66.857C74.7919 66.9498 74.8386 67.0348 74.9114 67.0932C74.9843 67.1516 75.0774 67.1787 75.1702 67.1685C75.263 67.1583 75.348 67.1116 75.4064 67.0387C75.4648 66.9659 75.4919 66.8728 75.4817 66.78C75.4677 66.696 75.3557 66.01 75.2857 65.366ZM68.6847 64.946C68.7746 64.6484 68.9609 64.3891 69.2144 64.2092C69.4679 64.0292 69.7741 63.9387 70.0847 63.952C70.1391 63.9582 70.1939 63.9437 70.2381 63.9112C70.2822 63.8788 70.3124 63.8308 70.3227 63.777C70.3927 63.273 68.5097 63.476 68.0967 64.785C68.0753 64.8629 68.0858 64.9462 68.1259 65.0164C68.1659 65.0867 68.2322 65.1381 68.3102 65.1595C68.3882 65.1808 68.4714 65.1703 68.5416 65.1303C68.6119 65.0902 68.6633 65.0239 68.6847 64.946ZM73.9207 63.7C74.1753 63.6852 74.4278 63.7547 74.639 63.8976C74.8503 64.0406 75.0087 64.2491 75.0897 64.491C75.2157 64.764 75.6567 64.582 75.5727 64.288C75.4356 63.9579 75.1884 63.6856 74.8732 63.5171C74.558 63.3487 74.1943 63.2946 73.8437 63.364C73.8058 63.38 73.7747 63.4088 73.7559 63.4455C73.7372 63.4821 73.732 63.5242 73.7411 63.5643C73.7503 63.6044 73.7734 63.64 73.8062 63.6648C73.8391 63.6896 73.8796 63.7021 73.9207 63.7ZM127.94 87.255C127.94 87.255 127.569 85.561 127.471 85.071C127.459 85.0162 127.425 84.9685 127.378 84.9383C127.331 84.9081 127.273 84.8979 127.219 84.91C127.164 84.922 127.116 84.9554 127.086 85.0026C127.056 85.0499 127.046 85.1072 127.058 85.162L127.387 87.157C126.275 87.0161 125.145 87.1132 124.074 87.4418C123.002 87.7704 122.013 88.323 121.171 89.063C120.329 89.803 119.654 90.7134 119.19 91.734C118.727 92.7546 118.486 93.8621 118.483 94.983C118.903 105.532 134.044 105.322 134.254 94.983C134.268 93.1606 133.645 91.3906 132.491 89.9794C131.338 88.5681 129.728 87.6044 127.94 87.255ZM129.746 98.294C128.64 101.437 124.468 100.877 124.468 97.125V94.857C124.345 94.8726 124.221 94.862 124.103 94.8259C123.985 94.7898 123.877 94.7289 123.784 94.6475C123.692 94.566 123.617 94.4658 123.567 94.3535C123.516 94.2411 123.49 94.1193 123.49 93.996C123.49 93.8727 123.516 93.7508 123.567 93.6385C123.617 93.5262 123.692 93.4259 123.784 93.3445C123.877 93.263 123.985 93.2022 124.103 93.1661C124.221 93.1299 124.345 93.1194 124.468 93.135C124.468 92.435 124.468 91.735 124.517 90.972C124.519 90.8589 124.544 90.7475 124.59 90.644C124.636 90.5406 124.702 90.4472 124.784 90.3692C124.866 90.2912 124.962 90.2301 125.068 90.1894C125.173 90.1487 125.286 90.1292 125.399 90.132C125.628 90.1393 125.845 90.2369 126.002 90.4034C126.159 90.5699 126.244 90.7919 126.239 91.021C126.239 91.756 126.239 92.456 126.197 93.121H127.674C127.787 93.1182 127.899 93.138 128.004 93.1793C128.109 93.2206 128.205 93.2826 128.286 93.3615C128.367 93.4404 128.431 93.5348 128.475 93.6389C128.519 93.7431 128.542 93.855 128.542 93.968C128.544 94.0816 128.523 94.1945 128.481 94.3002C128.439 94.4058 128.376 94.502 128.297 94.5834C128.218 94.6647 128.123 94.7295 128.018 94.7741C127.914 94.8187 127.801 94.8421 127.688 94.843H126.176C126.176 97.398 126.106 97.825 126.456 98.259C126.953 98.889 127.709 98.679 128.101 97.713C128.178 97.4948 128.338 97.3162 128.547 97.2165C128.756 97.1167 128.996 97.1039 129.214 97.181C129.432 97.258 129.61 97.4186 129.71 97.6273C129.81 97.836 129.823 98.0758 129.746 98.294ZM71.6877 7.30797C70.2549 7.30055 68.8349 7.57717 67.5097 8.12183C66.1845 8.66649 64.9803 9.4684 63.9669 10.4812C62.9534 11.494 62.1507 12.6976 61.6052 14.0225C61.0597 15.3474 60.7822 16.7672 60.7887 18.2C61.0757 32.62 82.2997 32.627 82.5797 18.2C82.5871 16.7675 82.3104 15.3478 81.7657 14.023C81.221 12.6982 80.4189 11.4945 79.406 10.4816C78.3931 9.46871 77.1895 8.6667 75.8646 8.12195C74.5398 7.57721 73.1201 7.30054 71.6877 7.30797ZM74.8307 12.81C74.7235 13.011 74.5416 13.1618 74.3242 13.2299C74.1068 13.298 73.8714 13.2779 73.6687 13.174C73.3076 12.9754 72.8883 12.9101 72.4839 12.9895C72.0796 13.0688 71.716 13.2877 71.4567 13.608C70.6517 14.448 70.6867 17.304 70.6867 17.458L72.7867 17.136C73.0132 17.1016 73.244 17.1587 73.4285 17.2945C73.6129 17.4304 73.7358 17.634 73.7702 17.8605C73.8045 18.087 73.7475 18.3178 73.6116 18.5023C73.4758 18.6867 73.2722 18.8096 73.0457 18.844L70.6937 19.201C70.6937 20.867 70.7707 22.477 70.8267 24.101C70.8167 24.3186 70.7253 24.5246 70.5705 24.6779C70.4157 24.8313 70.2089 24.9208 69.9912 24.9287C69.7735 24.9367 69.5607 24.8624 69.3952 24.7207C69.2296 24.5791 69.1235 24.3803 69.0977 24.164C69.0207 21.868 68.9647 19.537 68.9367 17.045C68.9367 15.645 68.9367 13.818 70.1827 12.439C72.1357 10.304 75.6007 11.375 74.8307 12.81Z" fill="#EFEFEF"/>
<path d="M104.846 101.5C107.709 93.184 107.569 93.674 107.52 93.604C107.471 93.534 98.4202 93.366 93.3942 93.464C91.3898 90.4588 88.7703 87.9133 85.7089 85.9959C82.6475 84.0784 79.2139 82.8327 75.6352 82.341C75.091 81.7441 74.3403 81.3763 73.5352 81.312L72.6602 81.011C72.6253 80.3278 72.6253 79.6432 72.6602 78.96C74.6246 78.2118 76.2294 76.7421 77.1472 74.851C78.1762 72.541 77.6652 69.587 77.0632 62.076C78.5052 62.524 78.5402 61.04 77.6652 59.878C77.7046 59.6297 77.6921 59.3759 77.6285 59.1326C77.565 58.8893 77.4517 58.6618 77.2958 58.4645C77.1399 58.2672 76.9449 58.1043 76.7229 57.9862C76.5009 57.868 76.2569 57.7972 76.0062 57.778C76.1408 57.5715 76.2185 57.3331 76.2315 57.0869C76.2444 56.8408 76.1921 56.5955 76.0799 56.3761C75.9677 56.1566 75.7995 55.9706 75.5923 55.837C75.3852 55.7033 75.1464 55.6268 74.9002 55.615C74.7543 55.2946 74.5119 55.0279 74.2069 54.8521C73.9019 54.6764 73.5495 54.6005 73.1992 54.635C73.1496 54.3996 73.0381 54.1816 72.8761 54.0037C72.7142 53.8257 72.5076 53.6943 72.2778 53.6229C72.048 53.5515 71.8033 53.5429 71.569 53.5977C71.3348 53.6526 71.1194 53.769 70.9452 53.935C70.7982 53.711 70.4342 53.158 70.2452 52.948C70.3947 52.8007 70.4977 52.6127 70.5412 52.4073C70.5848 52.202 70.567 51.9884 70.4902 51.793C70.8332 51.6857 71.1329 51.4716 71.3457 51.182C71.5586 50.8924 71.6733 50.5424 71.6733 50.183C71.6733 49.8236 71.5586 49.4736 71.3457 49.184C71.1329 48.8944 70.8332 48.6804 70.4902 48.573C71.0432 46.557 69.1532 45.318 67.4382 46.123C67.3454 45.8917 67.1862 45.6931 66.9806 45.5524C66.7751 45.4116 66.5323 45.3349 66.2832 45.332C67.6832 43.568 65.6882 42.336 63.7912 42.938C63.6665 42.618 63.4569 42.338 63.185 42.1282C62.9131 41.9183 62.5892 41.7865 62.248 41.747C61.9069 41.7074 61.5614 41.7615 61.2487 41.9035C60.936 42.0455 60.6679 42.2701 60.4732 42.553C60.0139 42.4324 59.5255 42.4968 59.1132 42.7324C58.7009 42.9681 58.3975 43.356 58.2682 43.813C57.9743 43.7438 57.6687 43.7405 57.3734 43.8034C57.078 43.8664 56.8003 43.9939 56.5602 44.177C56.4 43.9001 56.1444 43.691 55.8412 43.5889C55.538 43.4867 55.208 43.4985 54.9129 43.6221C54.6178 43.7456 54.3778 43.9724 54.2378 44.2601C54.0978 44.5477 54.0673 44.8765 54.1522 45.185C53.9585 45.2391 53.7867 45.3526 53.6611 45.5096C53.5355 45.6667 53.4624 45.8592 53.4522 46.06C53.3752 46.0471 53.2963 46.0506 53.2208 46.0703C53.1453 46.09 53.0747 46.1255 53.0139 46.1745C52.9531 46.2234 52.9033 46.2847 52.8678 46.3542C52.8324 46.4238 52.812 46.5 52.8082 46.578C52.6259 46.5318 52.4341 46.5397 52.2562 46.6009C52.0784 46.6622 51.9223 46.774 51.8071 46.9226C51.6919 47.0713 51.6226 47.2503 51.6077 47.4378C51.5928 47.6253 51.6329 47.813 51.7232 47.978C51.4952 48.0292 51.2873 48.1465 51.1254 48.3151C50.9636 48.4837 50.855 48.6963 50.8132 48.9262C50.7714 49.1561 50.7982 49.3933 50.8903 49.6081C50.9825 49.8229 51.1358 50.0058 51.3312 50.134C50.2252 50.456 49.5112 51.534 49.9312 52.514C48.6712 53.277 48.1532 54.824 49.0422 55.902C48.8822 56.347 48.8891 56.8349 49.0616 57.2752C49.2341 57.7154 49.5605 58.0781 49.9802 58.296C49.7971 58.5211 49.6807 58.7929 49.6441 59.0806C49.6075 59.3684 49.6522 59.6607 49.7732 59.9244C49.8941 60.1881 50.0864 60.4127 50.3283 60.5727C50.5703 60.7328 50.8522 60.8219 51.1422 60.83C51.1635 61.0836 51.2501 61.3273 51.3933 61.5376C51.5366 61.7479 51.7318 61.9177 51.96 62.0303C52.1881 62.143 52.4416 62.1948 52.6956 62.1807C52.9497 62.1667 53.1959 62.0872 53.4102 61.95C53.5242 62.132 53.6891 62.2765 53.8844 62.3658C54.0797 62.4551 54.2968 62.4852 54.509 62.4524C54.7212 62.4197 54.9192 62.3254 55.0785 62.1814C55.2377 62.0374 55.3513 61.8499 55.4052 61.642C55.7478 61.7709 56.1155 61.8189 56.4797 61.7825C56.844 61.7461 57.1949 61.6262 57.5052 61.432C57.2182 63.175 55.8952 63.301 56.3082 65.128C56.0643 65.4489 55.9293 65.8393 55.923 66.2423C55.9167 66.6453 56.0394 67.0397 56.2732 67.368C56.1938 67.5368 56.1489 67.7198 56.1412 67.9062C56.1335 68.0925 56.1632 68.2786 56.2284 68.4533C56.2936 68.6281 56.3931 68.7881 56.521 68.9239C56.6489 69.0596 56.8026 69.1685 56.9732 69.244C56.9077 69.3726 56.8766 69.516 56.8832 69.6601C56.8898 69.8043 56.9336 69.9442 57.0106 70.0663C57.0875 70.1884 57.1948 70.2884 57.322 70.3566C57.4492 70.4247 57.5919 70.4586 57.7362 70.455C57.8738 70.9697 58.1381 71.4417 58.5049 71.8281C58.8717 72.2144 59.3294 72.5028 59.8362 72.667C59.9062 81.466 60.2282 80.409 59.3882 81.431C58.6145 81.8374 57.9805 82.4665 57.5682 83.237C45.2902 87.5 40.3342 97.237 38.7102 110.306C37.7722 110.159 37.7302 110.124 37.6952 110.243C37.3173 111.714 37.1849 113.237 37.3032 114.751C37.3032 114.842 37.3032 114.835 38.4232 115.108C38.7382 120.505 41.6572 126.357 47.5232 127.386C47.4462 128.52 47.3552 135.016 47.5232 136.486C47.5306 136.52 47.5496 136.551 47.577 136.573C47.6044 136.595 47.6385 136.607 47.6737 136.607C47.7089 136.607 47.743 136.595 47.7703 136.573C47.7977 136.551 47.8167 136.52 47.8242 136.486C47.8242 135.702 47.9222 128.66 47.9852 127.491C51.5482 127.841 53.6342 126.35 56.4412 123.291C60.8512 118.391 63.3502 113.106 65.9542 107.562C66.4115 106.667 66.7796 105.729 67.0532 104.762C67.464 104.928 67.9168 104.96 68.3468 104.853C68.7768 104.746 69.1619 104.506 69.4472 104.167C70.4498 104.491 71.5149 104.572 72.5552 104.405C72.7311 104.372 72.8984 104.304 73.0467 104.204C73.195 104.103 73.321 103.974 73.4169 103.823C73.5128 103.672 73.5765 103.502 73.6041 103.326C73.6317 103.149 73.6225 102.968 73.5772 102.795C74.4732 102.753 75.0332 101.941 74.1372 101.262C73.8519 101.043 73.55 100.846 73.2342 100.674C73.9762 100.625 75.9362 100.408 76.5732 99.974C77.2102 99.54 77.1892 98.455 76.3072 98.336C75.9362 98.287 70.4832 98.511 69.2442 98.686C68.0182 98.8159 66.8572 99.3027 65.9052 100.086C64.5052 101.241 54.6072 109.466 51.0722 112.434C49.0212 112.063 41.3352 110.747 39.2912 110.425C40.9852 96.306 46.7392 87.864 57.3792 83.888C56.7282 86.548 59.8782 89.278 60.8792 90.09C62.5242 91.441 65.2122 92.89 67.5152 92.26C68.9782 91.868 70.0702 90.741 70.7702 88.9C73.8782 91.595 75.3412 91.294 75.8312 91.042C77.7142 90.055 77.6372 85.253 76.0692 82.943C79.4288 83.4632 82.6449 84.6711 85.5163 86.491C88.3878 88.311 90.8528 90.7039 92.7572 93.52C89.5442 93.59 89.7402 93.59 89.7122 93.674C88.9531 95.7218 88.2157 97.7776 87.5002 99.841C87.2202 98.098 86.8002 95.725 86.6182 95.039C86.6026 95.0016 86.5741 94.9711 86.5378 94.953C86.5015 94.935 86.4599 94.9307 86.4206 94.9409C86.3814 94.9512 86.3472 94.9752 86.3243 95.0087C86.3015 95.0422 86.2915 95.0828 86.2962 95.123C86.4992 95.977 86.9192 99.218 87.1502 100.856C84.3082 109.081 82.0822 116.494 82.1382 116.571C82.1942 116.648 89.1382 116.648 90.0342 116.634C90.7342 122.486 91.2662 134.687 91.2452 136.136C91.2452 136.177 91.2614 136.216 91.2903 136.245C91.3192 136.274 91.3583 136.29 91.3992 136.29C91.44 136.29 91.4792 136.274 91.5081 136.245C91.537 136.216 91.5532 136.177 91.5532 136.136C91.6792 133.56 91.5532 125.818 91.4342 124.145C93.0896 123.87 94.6066 123.053 95.7462 121.821C96.6002 120.946 97.8462 118.356 98.7072 116.27C100.065 116.179 100.107 116.2 100.107 116.109C100.905 114.254 101.696 112.07 102.361 109.942C105.665 109.445 107.338 104.811 106.001 102.711C105.701 102.234 105.309 101.822 104.846 101.5ZM47.7752 116.382C48.2232 116.305 47.7262 115.682 64.6242 101.794C67.4242 99.505 67.6412 99.288 71.0362 99.057C72.2962 98.973 75.5652 98.854 75.9362 98.847C76.2232 98.847 76.4752 98.847 76.4542 99.106C76.4542 99.554 75.7542 99.687 75.2712 99.806C73.8223 100.157 72.3379 100.34 70.8472 100.352C70.8026 100.352 70.7599 100.37 70.7284 100.401C70.6969 100.433 70.6792 100.475 70.6792 100.52C70.6792 100.565 70.6969 100.607 70.7284 100.639C70.7599 100.67 70.8026 100.688 70.8472 100.688H72.3032C72.7495 100.904 73.1759 101.16 73.5772 101.451C73.7452 101.57 74.0462 101.682 74.0672 101.843C74.1792 102.774 71.8272 101.913 71.0012 101.514C70.9724 101.499 70.9389 101.496 70.9081 101.506C70.8772 101.516 70.8515 101.538 70.8367 101.567C70.8218 101.595 70.819 101.629 70.8289 101.66C70.8387 101.69 70.8604 101.716 70.8892 101.731C71.4842 102.102 73.5422 102.823 73.0662 103.523C72.4572 104.405 70.8612 104.027 69.8042 103.817C70.025 103.638 70.2905 103.524 70.5719 103.486C70.8532 103.447 71.1397 103.487 71.4002 103.6C71.4358 103.609 71.4734 103.605 71.5062 103.589C71.539 103.572 71.565 103.545 71.5793 103.511C71.5937 103.477 71.5955 103.439 71.5845 103.404C71.5734 103.369 71.5503 103.339 71.5192 103.32C71.0892 103.139 70.6135 103.096 70.1582 103.198C69.7029 103.3 69.2905 103.54 68.9782 103.887C68.1452 104.685 67.1092 104.496 66.3042 103.684C66.2754 103.659 66.2385 103.644 66.2001 103.644C66.1617 103.643 66.1243 103.656 66.0947 103.681C66.0652 103.705 66.0453 103.739 66.0388 103.777C66.0323 103.815 66.0395 103.854 66.0592 103.887C66.2202 104.134 66.4297 104.346 66.6752 104.51C65.428 107.577 64.0262 110.58 62.4752 113.505C59.6752 118.755 56.8332 122.465 53.6412 125.167C50.1832 128.142 45.1012 127.05 42.1822 123.648C40.4322 121.625 39.3332 118.79 38.9272 115.248C40.3832 115.5 46.2002 116.333 47.7752 116.382ZM59.9132 57.988C59.3093 58.4122 58.8422 59.0034 58.5692 59.689C58.2959 59.4478 58.0847 59.1446 57.9531 58.8047C57.8215 58.4648 57.7735 58.0983 57.8132 57.736C58.4362 54.936 61.3132 52.486 63.7002 51.765C65.1702 51.17 68.9082 51.835 70.1122 53.634C69.7194 53.5984 69.3274 53.7107 69.0132 53.949C68.8248 53.7041 68.5836 53.5048 68.3075 53.3662C68.0313 53.2276 67.7275 53.1531 67.4185 53.1484C67.1096 53.1437 66.8036 53.2089 66.5233 53.339C66.2431 53.4692 65.9959 53.6609 65.8002 53.9C65.4172 54.0116 65.0714 54.2244 64.7992 54.516C64.5416 54.3781 64.2492 54.3185 63.9582 54.3446C63.6672 54.3708 63.3901 54.4814 63.1612 54.663C62.9174 54.7292 62.7031 54.8758 62.5531 55.0792C62.4032 55.2825 62.3264 55.5305 62.3352 55.783C62.0279 55.7526 61.7177 55.7871 61.4246 55.8842C61.1315 55.9813 60.8621 56.1389 60.6337 56.3468C60.4054 56.5547 60.2233 56.8082 60.0992 57.0909C59.975 57.3736 59.9117 57.6792 59.9132 57.988ZM73.1502 87.073C69.8812 90.461 60.0602 86.513 59.4232 83.363C59.3728 83.0244 59.4029 82.6788 59.5112 82.354C59.6194 82.0293 59.8027 81.7346 60.0462 81.494C60.1162 81.424 60.1652 81.347 60.2352 81.277C60.2434 81.2568 60.2434 81.2342 60.2352 81.214L60.3682 81.046C60.5432 80.717 60.3262 73.752 60.2912 72.751C60.5546 72.7545 60.8124 72.6744 61.0275 72.5222C61.2425 72.3701 61.4038 72.1536 61.4882 71.904C61.6373 71.9851 61.807 72.0204 61.9761 72.0053C62.1452 71.9902 62.306 71.9255 62.4384 71.8193C62.5708 71.7131 62.6689 71.5701 62.7202 71.4083C62.7716 71.2465 62.774 71.0732 62.7272 70.91L64.4492 69.062C64.4468 69.2918 64.5102 69.5175 64.632 69.7124C64.7538 69.9073 64.9288 70.0633 65.1364 70.162C65.3439 70.2606 65.5754 70.2978 65.8034 70.2691C66.0315 70.2404 66.2465 70.147 66.4232 70C66.6041 69.8685 66.7538 69.6987 66.8615 69.5027C66.9692 69.3066 67.0322 69.0892 67.0462 68.866C67.0489 68.8419 67.0432 68.8176 67.03 68.7972C67.0169 68.7769 66.9971 68.7617 66.974 68.7543C66.9509 68.7468 66.9259 68.7477 66.9034 68.7565C66.8808 68.7654 66.862 68.7818 66.8502 68.803C66.7338 68.9773 66.5617 69.1069 66.362 69.1705C66.1623 69.2341 65.9469 69.228 65.7512 69.153C65.8197 68.8628 65.8062 68.5592 65.7123 68.2762C65.6183 67.9931 65.4476 67.7417 65.2192 67.55C64.1692 64.19 64.2672 62.86 66.1502 61.6C67.5502 60.543 72.4502 58.191 75.7472 61.194C75.9738 61.4572 76.2437 61.6797 76.5452 61.852C77.3992 73.479 77.9452 73.633 74.7532 77.007C73.7754 77.9985 72.4733 78.6048 71.0852 78.715C70.8402 78.715 70.8122 79.072 71.0852 79.1C71.4405 79.1488 71.8008 79.1488 72.1562 79.1C72.1562 81.473 72.0512 81.291 72.7302 81.529C75.0472 82.6 74.8442 85.302 73.1502 87.073ZM93.7372 122.647C93.0019 123.055 92.2157 123.363 91.3992 123.564C91.2942 122.388 90.8672 118.664 90.5872 116.564C93.1352 116.508 95.6972 116.403 98.1402 116.249C97.1182 118.797 95.5712 121.751 93.7372 122.647ZM98.3642 99.547C96.8242 99.505 96.8242 97.601 98.3642 97.559C99.9042 97.517 99.9042 99.54 98.3642 99.582V99.547ZM92.1272 95.942C91.8004 96.1372 91.5358 96.4212 91.3642 96.761C91.1542 97.16 85.1412 113.519 84.8542 114.45C84.8393 114.5 84.8052 114.542 84.7592 114.567C84.7133 114.592 84.6593 114.598 84.6092 114.583C84.5591 114.568 84.5169 114.534 84.4919 114.488C84.467 114.442 84.4613 114.388 84.4762 114.338C84.8332 113.015 90.0202 98.161 90.0762 98.07C91.3152 94.976 91.7982 95.025 94.1642 94.948C95.2492 94.913 103.145 94.878 104.286 95.067C104.538 95.109 104.482 95.466 104.286 95.487C103.663 95.564 92.6172 95.732 92.1272 95.977V95.942ZM102.571 109.242C102.837 108.346 103.082 107.471 103.271 106.638C103.583 106.764 103.906 106.858 104.237 106.918C104.273 106.926 104.311 106.92 104.343 106.9C104.374 106.881 104.397 106.849 104.405 106.813C104.414 106.777 104.407 106.739 104.387 106.707C104.368 106.676 104.336 106.653 104.3 106.645C103.537 106.347 102.828 105.926 102.2 105.399C101.773 104.916 101.577 104.559 102.074 104.209C103.026 104.958 104.265 105.609 104.72 105.938C104.749 105.952 104.782 105.956 104.814 105.949C104.845 105.942 104.873 105.924 104.893 105.898C104.913 105.873 104.923 105.841 104.922 105.809C104.921 105.776 104.909 105.745 104.888 105.721C104.377 105.259 102.648 104.097 101.745 103.194C101.731 103.051 101.761 102.908 101.831 102.782C101.901 102.657 102.008 102.556 102.137 102.494C102.949 103.202 103.837 103.82 104.783 104.335C104.814 104.354 104.851 104.36 104.886 104.352C104.921 104.344 104.952 104.323 104.972 104.293C105.077 104.16 104.972 104.111 104.272 103.53C103.747 103.096 103.012 102.487 102.473 101.955C101.71 101.255 103.173 101.381 104.51 101.955C104.976 102.221 105.355 102.615 105.603 103.09C105.851 103.565 105.958 104.102 105.91 104.636C105.805 106.659 104.559 108.759 102.571 109.312V109.242ZM45.2062 8.43501C44.9251 8.47603 44.6384 8.41919 44.3942 8.27401C44.233 7.86397 43.9598 7.50745 43.6059 7.24508C43.2519 6.9827 42.8314 6.82503 42.3922 6.79001C41.3212 6.86001 41.1112 8.37201 40.2922 8.48401C39.8022 8.55401 39.2002 8.05001 38.5002 7.00001C38.4916 6.98226 38.4782 6.96729 38.4614 6.95681C38.4447 6.94634 38.4254 6.94078 38.4057 6.94078C38.386 6.94078 38.3666 6.94634 38.3499 6.95681C38.3332 6.96729 38.3198 6.98226 38.3112 7.00001C38.234 7.26277 38.2109 7.53847 38.2434 7.8104C38.2759 8.08234 38.3632 8.34484 38.5002 8.58201C38.3868 8.57679 38.2794 8.52935 38.1992 8.44901C37.9612 8.21801 37.8422 9.07201 38.4162 9.66001C38.24 9.65062 38.068 9.60284 37.9122 9.52001C37.5622 9.24701 37.7092 10.689 38.8572 11.347C38.5325 11.3265 38.2152 11.2409 37.9242 11.0954C37.6332 10.9499 37.3744 10.7474 37.1632 10.5C37.1494 10.4809 37.1296 10.467 37.107 10.4605C37.0844 10.454 37.0602 10.4553 37.0384 10.4642C37.0166 10.4731 36.9984 10.489 36.9868 10.5095C36.9751 10.5299 36.9707 10.5537 36.9742 10.577C37.0986 11.6155 37.5786 12.579 38.3327 13.3037C39.0868 14.0285 40.0686 14.4699 41.1112 14.553C43.4282 14.553 44.8912 12.061 44.3522 10.15C44.4889 10.107 44.6355 10.107 44.7722 10.15C44.7924 10.1652 44.8174 10.1725 44.8426 10.1707C44.8678 10.169 44.8916 10.1581 44.9094 10.1403C44.9273 10.1224 44.9381 10.0987 44.9399 10.0735C44.9417 10.0482 44.9343 10.0232 44.9192 10.003C44.8476 9.88884 44.7998 9.76139 44.7787 9.62831C44.7575 9.49522 44.7635 9.35924 44.7962 9.22851C44.8288 9.09778 44.8876 8.97499 44.9689 8.86751C45.0501 8.76003 45.1523 8.67007 45.2692 8.60301C45.2803 8.58883 45.2876 8.57203 45.2904 8.55422C45.2931 8.5364 45.2912 8.51818 45.2849 8.5013C45.2786 8.48442 45.268 8.46946 45.2542 8.45785C45.2404 8.44624 45.2239 8.43838 45.2062 8.43501ZM43.0502 8.97401C42.9116 8.95854 42.7835 8.89251 42.6905 8.78855C42.5975 8.68459 42.5461 8.55 42.5461 8.41051C42.5461 8.27103 42.5975 8.13643 42.6905 8.03248C42.7835 7.92852 42.9116 7.86249 43.0502 7.84701C43.1888 7.86249 43.3169 7.92852 43.4099 8.03248C43.5029 8.13643 43.5543 8.27103 43.5543 8.41051C43.5543 8.55 43.5029 8.68459 43.4099 8.78855C43.3169 8.89251 43.1888 8.95854 43.0502 8.97401ZM24.1992 78.771C21.9185 78.6438 19.6307 78.7588 17.3742 79.114C17.3507 79.1174 17.3292 79.1292 17.3138 79.1472C17.2983 79.1653 17.2899 79.1883 17.2902 79.212C17.2845 80.4307 17.4494 81.6441 17.7802 82.817C17.7869 82.8363 17.7991 82.8531 17.8153 82.8656C17.8314 82.878 17.8509 82.8854 17.8712 82.887C19.8967 83.0479 21.9336 82.9916 23.9472 82.719C24.3462 82.663 24.6332 78.799 24.1992 78.771ZM22.3162 81.06C22.2699 81.2881 22.1573 81.4975 21.9926 81.662C21.8278 81.8264 21.6183 81.9386 21.3901 81.9845C21.1619 82.0304 20.9252 82.0079 20.7097 81.92C20.4942 81.832 20.3095 81.6824 20.1786 81.4899C20.0477 81.2974 19.9765 81.0706 19.9739 80.8379C19.9713 80.6051 20.0374 80.3768 20.164 80.1814C20.2906 79.9861 20.4719 79.8324 20.6854 79.7397C20.8989 79.6469 21.135 79.6192 21.3642 79.66C21.5195 79.6877 21.6677 79.7461 21.8001 79.8319C21.9325 79.9177 22.0464 80.029 22.1351 80.1595C22.2238 80.2899 22.2855 80.4368 22.3166 80.5915C22.3477 80.7461 22.3476 80.9054 22.3162 81.06ZM22.7222 77.966C22.8444 77.9885 22.9699 77.9868 23.0915 77.9608C23.2131 77.9348 23.3284 77.8851 23.4307 77.8146C23.5331 77.7441 23.6206 77.6541 23.6882 77.5497C23.7558 77.4454 23.8022 77.3288 23.8247 77.2065C23.8472 77.0843 23.8454 76.9588 23.8194 76.8372C23.7935 76.7156 23.7438 76.6004 23.6733 76.498C23.6027 76.3956 23.5127 76.3081 23.4084 76.2405C23.3041 76.1729 23.1874 76.1265 23.0652 76.104C22.8183 76.0585 22.5634 76.113 22.3566 76.2554C22.1499 76.3979 22.0082 76.6166 21.9627 76.8635C21.9172 77.1104 21.9717 77.3653 22.1141 77.5721C22.2565 77.7788 22.4753 77.9205 22.7222 77.966Z" fill="#EFEFEF"/>
<path d="M26.418 75.6561C22.918 70.5881 14.952 72.3801 13.986 78.3371C13.7905 79.3348 13.8217 80.3638 14.0775 81.3478C14.3333 82.3319 14.807 83.2459 15.4636 84.0221C16.1203 84.7984 16.943 85.4171 17.8711 85.8325C18.7991 86.248 19.8086 86.4494 20.825 86.422C26.649 86.422 29.4 79.9961 26.418 75.6561ZM24.948 83.3561C24.9438 83.376 24.9334 83.3942 24.9183 83.408C24.9033 83.4218 24.8843 83.4306 24.864 83.4331C22.2633 83.7818 19.633 83.8546 17.017 83.6501C16.9961 83.6471 16.9765 83.6383 16.9604 83.6247C16.9443 83.611 16.9324 83.5932 16.926 83.573C16.2307 80.9969 16.1017 78.3008 16.548 75.67C16.5512 75.6477 16.562 75.6272 16.5785 75.6119C16.5951 75.5965 16.6165 75.5874 16.639 75.5861C19.4551 75.2627 22.3005 75.2933 25.109 75.6771C25.1298 75.6809 25.149 75.691 25.164 75.706C25.179 75.721 25.1891 75.7402 25.193 75.7611C25.6315 78.2852 25.5481 80.8724 24.948 83.363V83.3561Z" fill="#EFEFEF"/>
</svg>
