<svg width="157" height="53" viewBox="0 0 157 53" fill="none" xmlns="http://www.w3.org/2000/svg">
<g clip-path="url(#clip0_189_82)">
<path d="M42.7212 19.2462C42.7687 19.3896 42.7911 19.5557 42.7911 19.747C42.8136 19.9382 42.8261 20.1169 42.8261 20.283C42.8261 20.7108 42.7787 21.1159 42.6837 21.4959C42.5887 21.8759 42.4363 22.2106 42.2239 22.495C42.0114 22.7819 41.7266 23.0184 41.3717 23.2097C41.0418 23.3758 40.6145 23.4588 40.0947 23.4588C39.5749 23.4588 39.1026 23.3506 38.6052 23.1367C38.1329 22.9228 37.5407 22.6133 36.8334 22.2081L29.2088 17.7816C28.5941 16.9713 28.2867 15.9018 28.2867 14.568C28.2867 13.569 28.4291 12.7939 28.7115 12.2478C28.9964 11.6992 29.4088 11.2714 29.9536 10.9619L39.7048 5.24942C40.8619 5.55895 41.6441 5.98675 42.0439 6.53535C42.4688 7.05878 42.6812 7.63003 42.6812 8.24908C42.6812 9.08205 42.4688 9.73634 42.0439 10.212C41.6416 10.6649 41.0393 11.0927 40.2346 11.4979L33.9945 14.6762L42.7187 19.2462H42.7212ZM58.8875 17.6381C58.8875 18.2572 59.0774 18.6976 59.4548 18.9593C59.8571 19.221 60.4119 19.3519 61.1216 19.3519C61.4765 19.3519 61.8439 19.3292 62.2212 19.2814C62.5986 19.211 62.931 19.1279 63.2133 19.0323C63.4258 19.294 63.6032 19.5909 63.7456 19.9256C63.9106 20.2352 63.993 20.6152 63.993 21.0681C63.993 21.9716 63.6507 22.7114 62.9659 23.2827C62.3037 23.8539 61.1216 24.1408 59.4198 24.1408C57.3406 24.1408 55.7312 23.6652 54.5966 22.7114C53.4846 21.7602 52.9298 20.2125 52.9298 18.0685V2.78576C53.1897 2.7153 53.557 2.64232 54.0294 2.57186C54.5267 2.47624 55.0465 2.42842 55.5888 2.42842C56.6284 2.42842 57.4331 2.61968 58.0003 2.99967C58.5926 3.35701 58.8875 4.12958 58.8875 5.31988V7.60486H63.5332C63.6757 7.86658 63.8056 8.19876 63.9231 8.60391C64.0655 8.9839 64.1355 9.41422 64.1355 9.88984C64.1355 10.7228 63.9456 11.3293 63.5682 11.7118C63.2133 12.0691 62.7285 12.2478 62.1138 12.2478H58.8875V17.6407V17.6381ZM75.9635 24.1735C74.569 24.1735 73.2695 23.9822 72.0625 23.6022C70.8804 23.1971 69.8408 22.6032 68.9412 21.8181C68.0665 21.0329 67.3693 20.0439 66.8495 18.8536C66.3521 17.6633 66.1047 16.2717 66.1047 14.6762C66.1047 13.0808 66.3521 11.7596 66.8495 10.6423C67.3693 9.49979 68.044 8.5712 68.8712 7.85651C69.6984 7.11918 70.643 6.58316 71.7076 6.24847C72.7722 5.89113 73.8593 5.71245 74.9688 5.71245C76.2209 5.71245 77.3579 5.90371 78.3725 6.2837C79.4121 6.66369 80.2993 7.18712 81.0315 7.85399C81.7887 8.52087 82.3685 9.3186 82.7684 10.2472C83.1932 11.1758 83.4056 12.1874 83.4056 13.2821C83.4056 14.0924 83.1807 14.7115 82.7309 15.1393C82.2811 15.5671 81.6563 15.8414 80.8516 15.9596L72.0925 17.2808C72.3524 18.0659 72.8846 18.6624 73.6893 19.065C74.494 19.445 75.4162 19.6362 76.4558 19.6362C77.4254 19.6362 78.3351 19.518 79.1872 19.2789C80.0619 19.0172 80.7716 18.7202 81.3139 18.3855C81.6913 18.6246 82.0112 18.9568 82.2711 19.3846C82.531 19.8124 82.6609 20.2654 82.6609 20.741C82.6609 21.813 82.1636 22.6107 81.1715 23.1342C80.4143 23.5393 79.5646 23.8136 78.6175 23.9546C77.6728 24.098 76.7857 24.1685 75.9585 24.1685L75.9635 24.1735ZM74.9688 10.1415C74.4016 10.1415 73.9043 10.2371 73.4794 10.4284C73.0771 10.6196 72.7472 10.8688 72.4873 11.1783C72.2274 11.4652 72.0275 11.7973 71.885 12.1773C71.7676 12.5347 71.6951 12.9046 71.6726 13.2846L77.7353 12.2856C77.6653 11.8099 77.4054 11.3343 76.9556 10.8562C76.5058 10.3806 75.8435 10.1415 74.9688 10.1415ZM96.0258 10.4988C95.436 10.4988 94.8687 10.5945 94.324 10.7857C93.8042 10.977 93.3443 11.2613 92.942 11.6438C92.5646 12.0012 92.2572 12.4542 92.0198 13.0002C91.7849 13.5488 91.665 14.1905 91.665 14.9279C91.665 16.4025 92.0798 17.5098 92.907 18.2497C93.7592 18.987 94.7863 19.3569 95.9908 19.3569C96.7005 19.3569 97.3153 19.2739 97.8351 19.1078C98.3549 18.9417 98.8172 18.763 99.2171 18.5718C99.6894 18.9039 100.044 19.2739 100.282 19.679C100.519 20.059 100.637 20.5246 100.637 21.0707C100.637 22.0471 100.177 22.8096 99.2546 23.3556C98.3324 23.8791 97.0554 24.1408 95.426 24.1408C93.9366 24.1408 92.5896 23.9269 91.3826 23.4991C90.178 23.0461 89.1359 22.427 88.2613 21.6419C87.4091 20.8316 86.7494 19.8678 86.2745 18.7504C85.8022 17.6306 85.5648 16.395 85.5648 15.0361C85.5648 13.4658 85.8122 12.0968 86.3095 10.9292C86.8293 9.73885 87.5266 8.76245 88.4012 7.99995C89.2759 7.23745 90.2805 6.66621 91.4151 6.28622C92.5746 5.90622 93.7917 5.71497 95.0662 5.71497C96.768 5.71497 98.08 6.0245 99.0022 6.64356C99.9243 7.26262 100.384 8.06035 100.384 9.03675C100.384 9.48972 100.277 9.91752 100.064 10.3227C99.8518 10.7027 99.6044 11.0374 99.3195 11.3217C98.9172 11.1305 98.4324 10.9518 97.8651 10.7857C97.2978 10.5945 96.6831 10.4988 96.0208 10.4988H96.0258ZM120.679 23.567C120.444 23.6375 120.064 23.7105 119.544 23.7809C119.047 23.8514 118.527 23.8891 117.985 23.8891C117.443 23.8891 116.993 23.8539 116.565 23.7809C116.163 23.7105 115.821 23.567 115.538 23.3531C115.253 23.1392 115.031 22.8523 114.864 22.495C114.721 22.115 114.651 21.6268 114.651 21.0304V13.1034C114.651 12.127 114.404 11.4501 113.906 11.0676C113.434 10.6624 112.842 10.4611 112.135 10.4611C111.662 10.4611 111.213 10.5215 110.788 10.6398C110.363 10.758 110.02 10.9015 109.761 11.0676V23.5645C109.526 23.635 109.146 23.7079 108.626 23.7784C108.129 23.8489 107.609 23.8866 107.067 23.8866C106.524 23.8866 106.074 23.8514 105.647 23.7784C105.245 23.7079 104.902 23.5645 104.62 23.3506C104.335 23.1367 104.113 22.8498 103.945 22.4925C103.803 22.1125 103.733 21.6243 103.733 21.0279V0.322112C103.993 0.274298 104.37 0.213902 104.867 0.14344C105.387 0.0478135 105.907 0 106.427 0C106.947 0 107.409 0.035231 107.809 0.108209C108.234 0.178671 108.589 0.322112 108.873 0.536014C109.158 0.749917 109.371 1.04686 109.511 1.42937C109.676 1.78671 109.758 2.26233 109.758 2.85874V6.35919C110.065 6.24092 110.525 6.11006 111.14 5.96662C111.777 5.80053 112.477 5.71749 113.232 5.71749C115.571 5.71749 117.393 6.31138 118.692 7.50168C120.017 8.66934 120.679 10.4183 120.679 12.7511V23.5695V23.567ZM10.461 36.0036C9.87123 36.0036 9.30145 36.0992 8.75915 36.2904C8.23935 36.4817 7.77703 36.7661 7.37718 37.1486C6.99983 37.5059 6.69244 37.9589 6.45503 38.505C6.21762 39.0536 6.10017 39.6953 6.10017 40.4326C6.10017 41.9073 6.51501 43.0145 7.34219 43.7544C8.19437 44.4917 9.22148 44.8616 10.426 44.8616C11.1357 44.8616 11.7505 44.7786 12.2703 44.6125C12.7901 44.4464 13.2524 44.2677 13.6523 44.0765C14.1246 44.4087 14.4795 44.7786 14.7169 45.1838C14.9543 45.5637 15.0717 46.0293 15.0717 46.5754C15.0717 47.5518 14.6119 48.3143 13.6898 48.8604C12.7676 49.3838 11.4906 49.6455 9.86123 49.6455C8.3718 49.6455 7.02482 49.4316 5.81778 49.0038C4.61324 48.5508 3.57114 47.9318 2.69647 47.1466C1.8443 46.3363 1.18455 45.3725 0.709729 44.2552C0.237409 43.1353 0 41.8997 0 40.5408C0 38.9705 0.247405 37.6015 0.744715 36.4339C1.26452 35.2436 1.96175 34.2672 2.83642 33.5047C3.71108 32.7422 4.7157 32.1709 5.85026 31.7909C7.00982 31.4109 8.22686 31.2197 9.50137 31.2197C11.2032 31.2197 12.5152 31.5292 13.4374 32.1483C14.3595 32.7673 14.8193 33.5651 14.8193 34.5415C14.8193 34.9944 14.7119 35.4222 14.4995 35.8274C14.287 36.2074 14.0396 36.5421 13.7547 36.8265C13.3524 36.6352 12.8676 36.4565 12.3003 36.2904C11.733 36.0992 11.1183 36.0036 10.456 36.0036H10.461ZM35.409 40.4301C35.409 41.9048 35.1841 43.2259 34.7342 44.3936C34.2844 45.5361 33.6471 46.4999 32.82 47.285C32.0153 48.0702 31.0481 48.6666 29.9111 49.0692C28.7765 49.4744 27.512 49.6757 26.1175 49.6757C24.7231 49.6757 23.4585 49.4618 22.324 49.034C21.1894 48.6062 20.2073 47.9997 19.3801 47.212C18.5754 46.4017 17.9506 45.4278 17.5008 44.2828C17.051 43.1404 16.8261 41.8544 16.8261 40.4276C16.8261 39.0007 17.051 37.75 17.5008 36.6075C17.9506 35.465 18.5754 34.5012 19.3801 33.7161C20.2073 32.9057 21.1894 32.2867 22.324 31.8589C23.4585 31.4311 24.7231 31.2172 26.1175 31.2172C27.512 31.2172 28.7765 31.4437 29.9111 31.8966C31.0456 32.3244 32.0153 32.9435 32.82 33.7538C33.6471 34.539 34.2844 35.5028 34.7342 36.6453C35.1841 37.7878 35.409 39.0485 35.409 40.4301ZM22.9987 40.4301C22.9987 41.8821 23.2711 43.0019 23.8134 43.7871C24.3807 44.5496 25.1604 44.9296 26.1525 44.9296C27.1446 44.9296 27.9018 44.537 28.4216 43.7519C28.9664 42.9667 29.2363 41.8595 29.2363 40.4301C29.2363 39.0007 28.9639 37.906 28.4216 37.146C27.8768 36.3609 27.1096 35.9683 26.1175 35.9683C25.1254 35.9683 24.3557 36.3609 23.8134 37.146C23.2686 37.9085 22.9987 39.0032 22.9987 40.4301ZM49.2712 38.1099C49.2712 37.3725 49.0588 36.8365 48.6339 36.5018C48.2316 36.1445 47.6768 35.9658 46.9671 35.9658C46.4947 35.9658 46.0224 36.0262 45.5476 36.1445C45.0978 36.2628 44.7079 36.4414 44.378 36.6805V49.0717C44.1406 49.1422 43.7633 49.2152 43.2435 49.2856C42.7462 49.3561 42.2264 49.3939 41.6841 49.3939C41.1418 49.3939 40.6919 49.3586 40.2646 49.2856C39.8623 49.2152 39.5199 49.0717 39.2375 48.8578C38.9526 48.6439 38.7302 48.3571 38.5628 47.9997C38.4203 47.6197 38.3503 47.1315 38.3503 46.5351V35.8224C38.3503 35.1807 38.4803 34.6547 38.7402 34.2521C39.0251 33.8469 39.4024 33.4795 39.8748 33.1448C40.6795 32.5736 41.6841 32.1105 42.8886 31.7532C44.1181 31.3958 45.4776 31.2172 46.9671 31.2172C49.6385 31.2172 51.6952 31.8111 53.1372 33.0014C54.5791 34.169 55.3014 35.7972 55.3014 37.8934V49.0692C55.064 49.1397 54.6866 49.2127 54.1668 49.2831C53.6695 49.3536 53.1497 49.3913 52.6074 49.3913C52.0651 49.3913 51.6153 49.3561 51.1879 49.2831C50.7856 49.2127 50.4432 49.0692 50.1583 48.8553C49.8734 48.6414 49.651 48.3545 49.4836 47.9972C49.3411 47.6172 49.2712 47.129 49.2712 46.5326V38.1048V38.1099ZM69.9458 38.1099C69.9458 37.3725 69.7334 36.8365 69.3085 36.5018C68.9062 36.1445 68.3514 35.9658 67.6417 35.9658C67.1693 35.9658 66.697 36.0262 66.2222 36.1445C65.7724 36.2628 65.3825 36.4414 65.0526 36.6805V49.0717C64.8152 49.1422 64.4379 49.2152 63.9181 49.2856C63.4208 49.3561 62.901 49.3939 62.3587 49.3939C61.8164 49.3939 61.3666 49.3586 60.9392 49.2856C60.5369 49.2152 60.1945 49.0717 59.9121 48.8578C59.6272 48.6439 59.4048 48.3571 59.2374 47.9997C59.0949 47.6197 59.0249 47.1315 59.0249 46.5351V35.8224C59.0249 35.1807 59.1549 34.6547 59.4148 34.2521C59.6997 33.8469 60.077 33.4795 60.5494 33.1448C61.3541 32.5736 62.3587 32.1105 63.5632 31.7532C64.7927 31.3958 66.1522 31.2172 67.6417 31.2172C70.3131 31.2172 72.3698 31.8111 73.8118 33.0014C75.2537 34.169 75.976 35.7972 75.976 37.8934V49.0692C75.7386 49.1397 75.3612 49.2127 74.8414 49.2831C74.3441 49.3536 73.8243 49.3913 73.282 49.3913C72.7397 49.3913 72.2899 49.3561 71.8625 49.2831C71.4602 49.2127 71.1178 49.0692 70.8354 48.8553C70.5505 48.6414 70.3281 48.3545 70.1607 47.9972C70.0182 47.6172 69.9483 47.129 69.9483 46.5326V38.1048L69.9458 38.1099ZM88.8111 49.6782C87.4166 49.6782 86.1171 49.487 84.91 49.107C83.728 48.7018 82.6884 48.1079 81.7887 47.3228C80.9141 46.5376 80.2168 45.5486 79.697 44.3583C79.1997 43.168 78.9523 41.7764 78.9523 40.1809C78.9523 38.5855 79.1997 37.2643 79.697 36.147C80.2168 35.0045 80.8916 34.0759 81.7188 33.3612C82.546 32.6239 83.4906 32.0879 84.5552 31.7532C85.6198 31.3958 86.7069 31.2172 87.8164 31.2172C89.0685 31.2172 90.203 31.4084 91.2201 31.7884C92.2597 32.1684 93.1469 32.6918 93.8791 33.3587C94.6363 34.0256 95.2136 34.8233 95.616 35.7519C96.0408 36.6805 96.2532 37.6921 96.2532 38.7868C96.2532 39.5971 96.0283 40.2162 95.5785 40.644C95.1286 41.0718 94.5014 41.3461 93.6992 41.4644L84.94 42.7855C85.1999 43.5707 85.7322 44.1671 86.5369 44.5697C87.3391 44.9497 88.2613 45.141 89.3034 45.141C90.273 45.141 91.1827 45.0227 92.0348 44.7836C92.9095 44.5219 93.6192 44.225 94.1615 43.8903C94.5389 44.1293 94.8587 44.4615 95.1187 44.8893C95.3785 45.3171 95.5085 45.7701 95.5085 46.2457C95.5085 47.3177 95.0112 48.1155 94.0191 48.6389C93.2619 49.0441 92.4122 49.3184 91.465 49.4593C90.5204 49.6027 89.6332 49.6732 88.8061 49.6732L88.8111 49.6782ZM87.8164 35.6462C87.2492 35.6462 86.7518 35.7418 86.327 35.9331C85.9247 36.1243 85.5948 36.3735 85.3349 36.683C85.075 36.9699 84.8751 37.3021 84.7326 37.6821C84.6152 38.0394 84.5427 38.4093 84.5202 38.7893L90.5829 37.7903C90.5129 37.3147 90.2505 36.839 89.8032 36.3609C89.3534 35.8853 88.6911 35.6462 87.8164 35.6462ZM108.873 36.0036C108.281 36.0036 107.714 36.0992 107.172 36.2904C106.652 36.4817 106.189 36.7661 105.79 37.1486C105.412 37.5059 105.105 37.9589 104.867 38.505C104.63 39.0536 104.513 39.6953 104.513 40.4326C104.513 41.9073 104.925 43.0145 105.755 43.7544C106.607 44.4917 107.634 44.8616 108.838 44.8616C109.548 44.8616 110.163 44.7786 110.683 44.6125C111.202 44.4464 111.662 44.2677 112.065 44.0765C112.537 44.4087 112.892 44.7786 113.129 45.1838C113.364 45.5637 113.484 46.0293 113.484 46.5754C113.484 47.5518 113.024 48.3143 112.102 48.8604C111.18 49.3838 109.903 49.6455 108.274 49.6455C106.784 49.6455 105.437 49.4316 104.23 49.0038C103.026 48.5508 101.984 47.9318 101.109 47.1466C100.257 46.3363 99.5969 45.3725 99.1221 44.2552C98.6498 43.1353 98.4124 41.8997 98.4124 40.5408C98.4124 38.9705 98.6598 37.6015 99.1571 36.4339C99.6769 35.2436 100.374 34.2672 101.249 33.5047C102.123 32.7422 103.128 32.1709 104.263 31.7909C105.42 31.4109 106.639 31.2197 107.914 31.2197C109.616 31.2197 110.928 31.5292 111.85 32.1483C112.772 32.7673 113.232 33.5651 113.232 34.5415C113.232 34.9944 113.124 35.4222 112.912 35.8274C112.699 36.2074 112.452 36.5421 112.167 36.8265C111.765 36.6352 111.28 36.4565 110.713 36.2904C110.145 36.0992 109.531 36.0036 108.868 36.0036H108.873ZM122.536 43.1454C122.536 43.7644 122.726 44.2048 123.103 44.4665C123.505 44.7283 124.06 44.8591 124.77 44.8591C125.125 44.8591 125.49 44.8365 125.869 44.7887C126.247 44.7182 126.579 44.6352 126.862 44.5395C127.074 44.8012 127.251 45.0982 127.394 45.4329C127.559 45.7424 127.641 46.1224 127.641 46.5754C127.641 47.4788 127.299 48.2186 126.614 48.7899C125.952 49.3611 124.77 49.648 123.068 49.648C120.989 49.648 119.379 49.1724 118.245 48.2186C117.133 47.2674 116.578 45.7198 116.578 43.5757V28.293C116.838 28.2225 117.205 28.1496 117.678 28.0791C118.175 27.9835 118.695 27.9357 119.237 27.9357C120.277 27.9357 121.081 28.1269 121.649 28.5069C122.238 28.8642 122.536 29.6368 122.536 30.8271V33.1121H127.181C127.324 33.3738 127.454 33.706 127.571 34.1112C127.714 34.4911 127.784 34.9215 127.784 35.3971C127.784 36.23 127.594 36.8365 127.216 37.219C126.862 37.5764 126.377 37.755 125.762 37.755H122.536V43.1479V43.1454ZM134.206 52.8918C133.874 52.9396 133.556 52.9622 133.249 52.9622C132.942 52.9874 132.657 52.9975 132.397 52.9975C131.405 52.9975 130.635 52.7836 130.093 52.3558C129.573 51.928 129.313 51.2359 129.313 50.2847C129.313 49.643 129.408 48.9988 129.598 48.3571C129.788 47.6902 129.953 47.1064 130.095 46.6081L136.335 23.9344C136.69 23.8866 137.02 23.864 137.328 23.864C137.635 23.8413 137.917 23.8287 138.18 23.8287C139.124 23.8287 139.869 24.0301 140.414 24.4352C140.981 24.8404 141.266 25.4947 141.266 26.3981C141.266 27.0876 141.171 27.7419 140.981 28.3609C140.791 28.98 140.614 29.5991 140.449 30.2181L134.209 52.8918H134.206ZM142.568 34.9668C142.521 34.8233 142.486 34.6572 142.461 34.466V33.93C142.461 33.5022 142.508 33.097 142.603 32.717C142.698 32.337 142.85 32.0023 143.063 31.718C143.275 31.4311 143.548 31.2071 143.878 31.0385C144.232 30.8472 144.67 30.7516 145.19 30.7516C145.709 30.7516 146.169 30.8598 146.644 31.0737C147.141 31.2876 147.744 31.5972 148.453 32.0023L156.078 36.4288C156.693 37.2392 157 38.3087 157 39.6424C157 40.6415 156.858 41.4165 156.575 41.9626C156.293 42.5087 155.878 42.939 155.333 43.2486L145.582 48.961C144.422 48.6515 143.633 48.2337 143.205 47.7103C142.803 47.1617 142.603 46.5804 142.603 45.9613C142.603 45.1284 142.803 44.4867 143.205 44.0337C143.63 43.5581 144.245 43.1177 145.05 42.7125L151.29 39.5342L142.566 34.9642L142.568 34.9668Z" fill="#EFEFEF"/>
</g>
<defs>
<clipPath id="clip0_189_82">
<rect width="157" height="53" fill="white"/>
</clipPath>
</defs>
</svg>
